<svg width="129" height="163" viewBox="0 0 129 163" fill="none" xmlns="http://www.w3.org/2000/svg">
<circle r="26.013" transform="matrix(0.866025 -0.5 2.20305e-08 1 40.0014 90.077)" fill="white" stroke="#0E2526"/>
<circle r="26.013" transform="matrix(0.866025 -0.5 2.20305e-08 1 43.0727 91.4656)" fill="white" stroke="#0E2526"/>
<circle r="3.6002" transform="matrix(0.866025 -0.5 2.20305e-08 1 44.4581 91.4655)" fill="white" stroke="#0E2526"/>
<rect x="-2.98023e-08" y="0.5" width="11.2998" height="54.7842" rx="5.6499" transform="matrix(0.866025 0.5 -0.866025 0.5 61.1918 36.5121)" fill="white" stroke="#0E2526"/>
<rect x="-2.98023e-08" y="0.5" width="11.2998" height="54.7842" rx="5.6499" transform="matrix(0.866025 0.5 -0.866025 0.5 61.4756 33.7345)" fill="white" stroke="#0E2526"/>
<rect x="0.433013" y="0.75" width="53.9097" height="42.824" rx="1.5" transform="matrix(0.866025 0.5 -2.20305e-08 1 61.0425 11.3434)" fill="white" stroke="#0E2526"/>
<mask id="path-7-inside-1" fill="white">
<path fill-rule="evenodd" clip-rule="evenodd" d="M116.071 33.4844L107.861 38.2244V81.833L74.2194 101.256L69.8402 103.784V115.075V135.751L27.9226 111.55C27.4443 111.274 26.6688 111.274 26.1905 111.55L16.5289 117.128C7.91958 122.099 7.91958 130.158 16.5288 135.128L32.0834 144.109C41.1709 149.355 55.9048 149.355 64.9923 144.109L73.788 139.03C73.8684 138.984 73.9352 138.933 73.9886 138.878L74.2194 138.745V112.547L107.861 93.1239V93.1344L116.071 88.3944V33.4844Z"/>
</mask>
<path fill-rule="evenodd" clip-rule="evenodd" d="M116.071 33.4844L107.861 38.2244V81.833L74.2194 101.256L69.8402 103.784V115.075V135.751L27.9226 111.55C27.4443 111.274 26.6688 111.274 26.1905 111.55L16.5289 117.128C7.91958 122.099 7.91958 130.158 16.5288 135.128L32.0834 144.109C41.1709 149.355 55.9048 149.355 64.9923 144.109L73.788 139.03C73.8684 138.984 73.9352 138.933 73.9886 138.878L74.2194 138.745V112.547L107.861 93.1239V93.1344L116.071 88.3944V33.4844Z" fill="white"/>
<path d="M107.861 38.2244L107.361 37.3584L106.861 37.647V38.2244H107.861ZM116.071 33.4844H117.071V31.7523L115.571 32.6183L116.071 33.4844ZM107.861 81.833L108.361 82.699L108.861 82.4104V81.833H107.861ZM74.2194 101.256L74.7194 102.122L74.7194 102.122L74.2194 101.256ZM69.8402 103.784L69.3402 102.918L68.8402 103.207V103.784H69.8402ZM69.8402 135.751L69.3402 136.617L70.8402 137.483V135.751H69.8402ZM27.9226 111.55L27.4226 112.416L27.4226 112.416L27.9226 111.55ZM26.1905 111.55L26.6905 112.416L26.6905 112.416L26.1905 111.55ZM16.5289 117.128L17.0289 117.994L17.0289 117.994L16.5289 117.128ZM16.5288 135.128L16.0288 135.994L16.0288 135.994L16.5288 135.128ZM32.0834 144.109L32.5834 143.243L32.5834 143.243L32.0834 144.109ZM64.9923 144.109L64.4923 143.243L64.4923 143.243L64.9923 144.109ZM73.788 139.03L73.288 138.164L73.288 138.164L73.788 139.03ZM73.9886 138.878L73.4886 138.012L73.3701 138.081L73.2743 138.179L73.9886 138.878ZM74.2194 138.745L74.7194 139.611L75.2194 139.322V138.745H74.2194ZM74.2194 112.547L73.7194 111.681L73.2194 111.969V112.547H74.2194ZM107.861 93.1239H108.861V91.3919L107.361 92.2579L107.861 93.1239ZM107.861 93.1344H106.861V94.8665L108.361 94.0005L107.861 93.1344ZM116.071 88.3944L116.571 89.2605L117.071 88.9718V88.3944H116.071ZM108.361 39.0904L116.571 34.3504L115.571 32.6183L107.361 37.3584L108.361 39.0904ZM108.861 81.833V38.2244H106.861V81.833H108.861ZM74.7194 102.122L108.361 82.699L107.361 80.967L73.7194 100.39L74.7194 102.122ZM70.3402 104.65L74.7194 102.122L73.7194 100.39L69.3402 102.918L70.3402 104.65ZM70.8402 115.075V103.784H68.8402V115.075H70.8402ZM70.8402 135.751V115.075H68.8402V135.751H70.8402ZM27.4226 112.416L69.3402 136.617L70.3402 134.885L28.4226 110.684L27.4226 112.416ZM26.6905 112.416C26.7419 112.386 26.8721 112.343 27.0566 112.343C27.241 112.343 27.3712 112.386 27.4226 112.416L28.4226 110.684C27.9957 110.438 27.499 110.343 27.0566 110.343C26.6141 110.343 26.1175 110.438 25.6905 110.684L26.6905 112.416ZM17.0289 117.994L26.6905 112.416L25.6905 110.684L16.0289 116.262L17.0289 117.994ZM17.0288 134.262C12.9064 131.882 11.0719 128.902 11.0719 126.128C11.0719 123.354 12.9064 120.374 17.0289 117.994L16.0289 116.262C11.542 118.853 9.0719 122.388 9.0719 126.128C9.0719 129.869 11.542 133.404 16.0288 135.994L17.0288 134.262ZM32.5834 143.243L17.0288 134.262L16.0288 135.994L31.5834 144.975L32.5834 143.243ZM64.4923 143.243C60.1363 145.758 54.3642 147.044 48.5378 147.044C42.7115 147.044 36.9394 145.758 32.5834 143.243L31.5834 144.975C36.3149 147.706 42.4535 149.044 48.5378 149.044C54.6222 149.044 60.7608 147.706 65.4923 144.975L64.4923 143.243ZM73.288 138.164L64.4923 143.243L65.4923 144.975L74.288 139.897L73.288 138.164ZM73.2743 138.179C73.2839 138.169 73.2907 138.163 73.2932 138.161C73.2956 138.16 73.2942 138.161 73.288 138.164L74.288 139.897C74.4355 139.811 74.5773 139.706 74.7029 139.578L73.2743 138.179ZM73.7194 137.879L73.4886 138.012L74.4886 139.744L74.7194 139.611L73.7194 137.879ZM73.2194 112.547V138.745H75.2194V112.547H73.2194ZM107.361 92.2579L73.7194 111.681L74.7194 113.413L108.361 93.9899L107.361 92.2579ZM108.861 93.1344V93.1239H106.861V93.1344H108.861ZM115.571 87.5284L107.361 92.2684L108.361 94.0005L116.571 89.2605L115.571 87.5284ZM115.071 33.4844V88.3944H117.071V33.4844H115.071Z" fill="#0E2526" mask="url(#path-7-inside-1)"/>
<rect x="-2.98023e-08" y="0.5" width="52.4822" height="43.6912" rx="0.5" transform="matrix(0.866025 0.5 -0.866025 0.5 62.6598 55.7978)" fill="white" stroke="#0E2526"/>
<rect x="0.433013" y="0.75" width="53.9608" height="33.7276" rx="1.5" transform="matrix(0.866025 0.5 -2.20305e-08 1 23.2971 77.0358)" fill="white" stroke="#0E2526"/>
<path d="M23.6721 111.759L69.5375 138.239C69.7767 138.377 69.7767 138.601 69.5375 138.739L64.2756 141.777C55.4272 146.886 41.0811 146.886 32.2327 141.777L16.6781 132.797C8.30803 127.964 8.30802 120.129 16.6781 115.297L22.8061 111.759C23.0453 111.621 23.433 111.621 23.6721 111.759Z" fill="white" stroke="#0E2526"/>
<rect x="-2.98023e-08" y="0.5" width="52.4822" height="9.71887" rx="0.5" transform="matrix(0.866025 0.5 -0.866025 0.5 70.7002 7.02521)" fill="white" stroke="#0E2526"/>
<path d="M88.7565 6.10199L117.469 22.6793C122.013 25.3026 122.013 29.5559 117.469 32.1793L115.387 33.3816L70.2196 7.3043L72.3021 6.10199C76.8458 3.47864 84.2128 3.47864 88.7565 6.10199Z" stroke="#0E2526"/>
<rect x="-2.98023e-08" y="0.5" width="11.2998" height="54.7842" rx="5.6499" transform="matrix(0.866025 0.5 -0.866025 0.5 117.534 67.4567)" fill="white" stroke="#0E2526"/>
<rect x="-2.98023e-08" y="0.5" width="11.2998" height="54.7842" rx="5.6499" transform="matrix(0.866025 0.5 -0.866025 0.5 117.818 64.6791)" fill="white" stroke="#0E2526"/>
<circle r="26.013" transform="matrix(0.866025 -0.5 2.20305e-08 1 100.53 121.22)" fill="white" stroke="#0E2526"/>
<circle r="26.013" transform="matrix(0.866025 -0.5 2.20305e-08 1 103.601 122.609)" fill="white" stroke="#0E2526"/>
<circle r="3.6002" transform="matrix(0.866025 -0.5 2.20305e-08 1 104.987 122.608)" fill="white" stroke="#0E2526"/>
</svg>
