<svg width="96" height="163" viewBox="0 0 96 163" fill="none" xmlns="http://www.w3.org/2000/svg">
<mask id="path-1-inside-1" fill="white">
<path fill-rule="evenodd" clip-rule="evenodd" d="M74.4024 156.872C73.3112 156.485 72.6132 155.332 72.6132 153.588C72.6132 150.527 74.7636 146.805 77.4164 145.275C78.9537 144.388 80.3223 144.432 81.2015 145.221L85.3545 147.637L78.7869 159.435L74.4024 156.872Z"/>
</mask>
<path fill-rule="evenodd" clip-rule="evenodd" d="M74.4024 156.872C73.3112 156.485 72.6132 155.332 72.6132 153.588C72.6132 150.527 74.7636 146.805 77.4164 145.275C78.9537 144.388 80.3223 144.432 81.2015 145.221L85.3545 147.637L78.7869 159.435L74.4024 156.872Z" fill="white"/>
<path d="M74.4024 156.872L74.9072 156.008L74.8254 155.961L74.7362 155.929L74.4024 156.872ZM77.4164 145.275L77.9161 146.141L77.9161 146.141L77.4164 145.275ZM81.2015 145.221L80.5334 145.965L80.6098 146.034L80.6985 146.085L81.2015 145.221ZM85.3545 147.637L86.2282 148.124L86.7055 147.267L85.8574 146.773L85.3545 147.637ZM78.7869 159.435L78.2822 160.299L79.1639 160.814L79.6607 159.922L78.7869 159.435ZM74.7362 155.929C74.1926 155.737 73.6132 155.091 73.6132 153.588H71.6132C71.6132 155.573 72.4297 157.234 74.0686 157.814L74.7362 155.929ZM73.6132 153.588C73.6132 152.275 74.0812 150.751 74.8859 149.358C75.6905 147.965 76.7775 146.798 77.9161 146.141L76.9167 144.409C75.4025 145.282 74.0879 146.741 73.1541 148.357C72.2203 149.974 71.6132 151.841 71.6132 153.588H73.6132ZM77.9161 146.141C79.2409 145.377 80.0964 145.573 80.5334 145.965L81.8695 144.477C80.5481 143.291 78.6664 143.399 76.9167 144.409L77.9161 146.141ZM80.6985 146.085L84.8516 148.502L85.8574 146.773L81.7044 144.357L80.6985 146.085ZM84.4808 147.151L77.9132 158.949L79.6607 159.922L86.2282 148.124L84.4808 147.151ZM79.2917 158.572L74.9072 156.008L73.8976 157.735L78.2822 160.299L79.2917 158.572Z" fill="#0E2526" mask="url(#path-1-inside-1)"/>
<path d="M86.5896 151.067C86.5896 153.852 84.6333 157.238 82.2195 158.631C79.8057 160.023 77.8494 158.894 77.8494 156.11C77.8494 153.325 79.8057 149.939 82.2195 148.546C84.6333 147.153 86.5896 148.283 86.5896 151.067Z" fill="white" stroke="#0E2526"/>
<mask id="path-4-inside-2" fill="white">
<path fill-rule="evenodd" clip-rule="evenodd" d="M10.2049 157.2C9.11318 156.814 8.41479 155.661 8.41479 153.917C8.41479 150.856 10.5653 147.134 13.218 145.603C14.7549 144.716 16.1232 144.76 17.0024 145.549L21.1561 147.966L14.5886 159.763L10.2049 157.2Z"/>
</mask>
<path fill-rule="evenodd" clip-rule="evenodd" d="M10.2049 157.2C9.11318 156.814 8.41479 155.661 8.41479 153.917C8.41479 150.856 10.5653 147.134 13.218 145.603C14.7549 144.716 16.1232 144.76 17.0024 145.549L21.1561 147.966L14.5886 159.763L10.2049 157.2Z" fill="white"/>
<path d="M10.2049 157.2L10.7097 156.337L10.6278 156.289L10.5383 156.257L10.2049 157.2ZM13.218 145.603L13.7178 146.469L13.7178 146.469L13.218 145.603ZM17.0024 145.549L16.3347 146.293L16.4109 146.361L16.4995 146.413L17.0024 145.549ZM21.1561 147.966L22.0299 148.452L22.5071 147.595L21.6591 147.101L21.1561 147.966ZM14.5886 159.763L14.0838 160.627L14.9655 161.142L15.4623 160.25L14.5886 159.763ZM10.5383 156.257C9.99452 156.065 9.41479 155.42 9.41479 153.917H7.41479C7.41479 155.902 8.23183 157.563 9.8715 158.143L10.5383 156.257ZM9.41479 153.917C9.41479 152.603 9.88285 151.079 10.6875 149.686C11.4921 148.294 12.5791 147.126 13.7178 146.469L12.7183 144.737C11.2041 145.611 9.88955 147.069 8.95576 148.686C8.02198 150.302 7.41479 152.169 7.41479 153.917H9.41479ZM13.7178 146.469C15.0422 145.705 15.8977 145.901 16.3347 146.293L17.6702 144.804C16.3488 143.619 14.4676 143.728 12.7183 144.737L13.7178 146.469ZM16.4995 146.413L20.6532 148.83L21.6591 147.101L17.5054 144.684L16.4995 146.413ZM20.2824 147.479L13.7148 159.277L15.4623 160.25L22.0299 148.452L20.2824 147.479ZM15.0933 158.9L10.7097 156.337L9.70014 158.063L14.0838 160.627L15.0933 158.9Z" fill="#0E2526" mask="url(#path-4-inside-2)"/>
<path d="M22.3913 151.395C22.3913 154.18 20.4349 157.566 18.0211 158.959C15.6073 160.351 13.651 159.222 13.651 156.438C13.651 153.653 15.6073 150.267 18.0211 148.874C20.4349 147.482 22.3913 148.611 22.3913 151.395Z" fill="white" stroke="#0E2526"/>
<mask id="path-7-inside-3" fill="white">
<path fill-rule="evenodd" clip-rule="evenodd" d="M73.5685 120.318C72.4773 119.931 71.7793 118.778 71.7793 117.034C71.7793 113.974 73.9298 110.252 76.5825 108.721C78.1198 107.834 79.4884 107.878 80.3676 108.667L84.5206 111.084L77.9531 122.882L73.5685 120.318Z"/>
</mask>
<path fill-rule="evenodd" clip-rule="evenodd" d="M73.5685 120.318C72.4773 119.931 71.7793 118.778 71.7793 117.034C71.7793 113.974 73.9298 110.252 76.5825 108.721C78.1198 107.834 79.4884 107.878 80.3676 108.667L84.5206 111.084L77.9531 122.882L73.5685 120.318Z" fill="white"/>
<path d="M73.5685 120.318L74.0733 119.455L73.9916 119.407L73.9023 119.375L73.5685 120.318ZM76.5825 108.721L77.0823 109.587L77.0823 109.587L76.5825 108.721ZM80.3676 108.667L79.6995 109.411L79.7759 109.48L79.8647 109.532L80.3676 108.667ZM84.5206 111.084L85.3944 111.57L85.8716 110.713L85.0236 110.219L84.5206 111.084ZM77.9531 122.882L77.4483 123.745L78.33 124.26L78.8268 123.368L77.9531 122.882ZM73.9023 119.375C73.3587 119.183 72.7793 118.537 72.7793 117.034H70.7793C70.7793 119.019 71.5959 120.68 73.2347 121.26L73.9023 119.375ZM72.7793 117.034C72.7793 115.721 73.2473 114.197 74.052 112.804C74.8566 111.411 75.9437 110.244 77.0823 109.587L76.0828 107.855C74.5686 108.728 73.2541 110.187 72.3203 111.804C71.3865 113.42 70.7793 115.287 70.7793 117.034H72.7793ZM77.0823 109.587C78.407 108.823 79.2626 109.019 79.6995 109.411L81.0356 107.923C79.7143 106.737 77.8326 106.845 76.0828 107.855L77.0823 109.587ZM79.8647 109.532L84.0177 111.948L85.0236 110.219L80.8705 107.803L79.8647 109.532ZM83.6469 110.597L77.0793 122.395L78.8268 123.368L85.3944 111.57L83.6469 110.597ZM78.4578 122.018L74.0733 119.455L73.0638 121.181L77.4483 123.745L78.4578 122.018Z" fill="#0E2526" mask="url(#path-7-inside-3)"/>
<path d="M85.7558 114.513C85.7558 117.298 83.7994 120.684 81.3856 122.077C78.9718 123.469 77.0155 122.34 77.0155 119.556C77.0155 116.771 78.9718 113.385 81.3856 111.992C83.7994 110.6 85.7558 111.729 85.7558 114.513Z" fill="white" stroke="#0E2526"/>
<mask id="path-10-inside-4" fill="white">
<path fill-rule="evenodd" clip-rule="evenodd" d="M10.8557 119.085C9.76393 118.699 9.06555 117.546 9.06555 115.802C9.06555 112.741 11.216 109.019 13.8688 107.488C15.4057 106.601 16.774 106.645 17.6532 107.434L21.8069 109.851L15.2393 121.648L10.8557 119.085Z"/>
</mask>
<path fill-rule="evenodd" clip-rule="evenodd" d="M10.8557 119.085C9.76393 118.699 9.06555 117.546 9.06555 115.802C9.06555 112.741 11.216 109.019 13.8688 107.488C15.4057 106.601 16.774 106.645 17.6532 107.434L21.8069 109.851L15.2393 121.648L10.8557 119.085Z" fill="white"/>
<path d="M10.8557 119.085L11.3604 118.222L11.2785 118.174L11.1891 118.142L10.8557 119.085ZM13.8688 107.488L14.3685 108.354L14.3685 108.354L13.8688 107.488ZM17.6532 107.434L16.9854 108.178L17.0617 108.246L17.1503 108.298L17.6532 107.434ZM21.8069 109.851L22.6806 110.337L23.1579 109.48L22.3098 108.986L21.8069 109.851ZM15.2393 121.648L14.7346 122.512L15.6163 123.027L16.1131 122.135L15.2393 121.648ZM11.1891 118.142C10.6453 117.95 10.0656 117.305 10.0656 115.802H8.06555C8.06555 117.787 8.88259 119.448 10.5223 120.028L11.1891 118.142ZM10.0656 115.802C10.0656 114.488 10.5336 112.964 11.3383 111.571C12.1429 110.179 13.2299 109.011 14.3685 108.354L13.3691 106.622C11.8549 107.496 10.5403 108.954 9.60652 110.571C8.67274 112.187 8.06555 114.054 8.06555 115.802H10.0656ZM14.3685 108.354C15.693 107.59 16.5484 107.786 16.9854 108.178L18.321 106.689C16.9996 105.504 15.1184 105.613 13.3691 106.622L14.3685 108.354ZM17.1503 108.298L21.304 110.715L22.3098 108.986L18.1561 106.569L17.1503 108.298ZM20.9331 109.364L14.3656 121.162L16.1131 122.135L22.6806 110.337L20.9331 109.364ZM15.7441 120.785L11.3604 118.222L10.3509 119.948L14.7346 122.512L15.7441 120.785Z" fill="#0E2526" mask="url(#path-10-inside-4)"/>
<path d="M23.042 113.28C23.042 116.065 21.0857 119.451 18.6719 120.844C16.2581 122.236 14.3017 121.107 14.3017 118.323C14.3017 115.538 16.2581 112.152 18.6719 110.759C21.0857 109.367 23.042 110.496 23.042 113.28Z" fill="white" stroke="#0E2526"/>
<path fill-rule="evenodd" clip-rule="evenodd" d="M10.5577 144.847L10.5577 144.983L10.5635 144.985C10.6358 146.022 11.343 147.046 12.685 147.838C15.5219 149.512 20.1214 149.512 22.9583 147.838L47.9598 133.087L72.9614 147.838C75.7982 149.512 80.3977 149.512 83.2346 147.838C84.9529 146.824 85.6304 145.429 85.2672 144.114V136.392L62.8419 125.519L64.2694 123.465L83.2346 112.275C84.2381 111.683 84.8866 110.961 85.1801 110.201L85.3012 110.142V109.801C85.3826 109.432 85.3826 109.057 85.3012 108.688V101.603L76.8847 105.018C75.448 105.161 74.0701 105.56 72.9614 106.214L70.808 107.484L50.5053 115.723L10.5729 101.649V108.428L10.6699 108.491C10.2687 109.823 10.9404 111.246 12.685 112.275L32.9003 124.202L17.2351 133.806L10.5577 136.594L10.5577 144.768C10.5573 144.794 10.5573 144.821 10.5577 144.847Z" fill="white"/>
<path d="M10.5577 144.983L10.0577 144.983L10.0577 145.349L10.4072 145.46L10.5577 144.983ZM10.5577 144.847L11.0577 144.847L11.0576 144.839L10.5577 144.847ZM10.5635 144.985L11.0623 144.95L11.0387 144.61L10.714 144.508L10.5635 144.985ZM12.685 147.838L12.9391 147.407L12.9391 147.407L12.685 147.838ZM22.9583 147.838L22.7042 147.407L22.7042 147.407L22.9583 147.838ZM47.9598 133.087L48.2139 132.656L47.9598 132.507L47.7058 132.656L47.9598 133.087ZM72.9614 147.838L72.7073 148.269L72.7073 148.269L72.9614 147.838ZM83.2346 147.838L83.4887 148.269L83.4887 148.269L83.2346 147.838ZM85.2672 144.114H84.7672V144.182L84.7852 144.247L85.2672 144.114ZM85.2672 136.392H85.7672V136.079L85.4853 135.942L85.2672 136.392ZM62.8419 125.519L62.4313 125.234L62.0977 125.714L62.6238 125.969L62.8419 125.519ZM64.2694 123.465L64.0153 123.034L63.9211 123.089L63.8587 123.179L64.2694 123.465ZM83.2346 112.275L82.9805 111.844L82.9805 111.844L83.2346 112.275ZM85.1801 110.201L84.9605 109.752L84.7844 109.838L84.7137 110.021L85.1801 110.201ZM85.3012 110.142L85.5208 110.591L85.8012 110.454V110.142H85.3012ZM85.3012 109.801L84.8129 109.693L84.8012 109.746V109.801H85.3012ZM85.3012 108.688H84.8012V108.743L84.8129 108.796L85.3012 108.688ZM85.3012 101.603H85.8012V100.861L85.1132 101.14L85.3012 101.603ZM76.8847 105.018L76.9342 105.516L77.0059 105.509L77.0727 105.482L76.8847 105.018ZM72.9614 106.214L72.7073 105.783L72.7073 105.783L72.9614 106.214ZM70.808 107.484L70.9961 107.948L71.0303 107.934L71.0621 107.915L70.808 107.484ZM50.5053 115.723L50.3391 116.195L50.5177 116.258L50.6933 116.187L50.5053 115.723ZM10.5729 101.649L10.7391 101.177L10.0729 100.943V101.649H10.5729ZM10.5729 108.428H10.0729V108.7L10.3012 108.848L10.5729 108.428ZM10.6699 108.491L11.1486 108.635L11.257 108.275L10.9416 108.071L10.6699 108.491ZM12.685 112.275L12.9391 111.844L12.9391 111.844L12.685 112.275ZM32.9003 124.202L33.1617 124.628L33.8704 124.194L33.1544 123.771L32.9003 124.202ZM17.2351 133.806L17.4278 134.267L17.4635 134.252L17.4964 134.232L17.2351 133.806ZM10.5577 136.594L10.365 136.133L10.0577 136.261L10.0577 136.594L10.5577 136.594ZM10.5577 144.768L11.0577 144.775L11.0577 144.768L10.5577 144.768ZM11.0577 144.983L11.0577 144.847L10.0577 144.847L10.0577 144.983L11.0577 144.983ZM10.714 144.508L10.7081 144.506L10.4072 145.46L10.4131 145.461L10.714 144.508ZM10.0648 145.019C10.1522 146.274 11.0004 147.425 12.431 148.269L12.9391 147.407C11.6856 146.668 11.1195 145.769 11.0623 144.95L10.0648 145.019ZM12.431 148.269C13.9441 149.161 15.8964 149.593 17.8217 149.593C19.747 149.593 21.6992 149.161 23.2124 148.269L22.7042 147.407C21.3805 148.188 19.6145 148.593 17.8217 148.593C16.0288 148.593 14.2628 148.188 12.9391 147.407L12.431 148.269ZM23.2124 148.269L48.2139 133.518L47.7058 132.656L22.7042 147.407L23.2124 148.269ZM47.7058 133.518L72.7073 148.269L73.2154 147.407L48.2139 132.656L47.7058 133.518ZM72.7073 148.269C74.2205 149.161 76.1727 149.593 78.098 149.593C80.0233 149.593 81.9755 149.161 83.4887 148.269L82.9805 147.407C81.6568 148.188 79.8909 148.593 78.098 148.593C76.3051 148.593 74.5391 148.188 73.2154 147.407L72.7073 148.269ZM83.4887 148.269C85.3224 147.187 86.194 145.591 85.7491 143.981L84.7852 144.247C85.0669 145.267 84.5834 146.462 82.9805 147.407L83.4887 148.269ZM84.7672 136.392V144.114H85.7672V136.392H84.7672ZM62.6238 125.969L85.049 136.842L85.4853 135.942L63.06 125.069L62.6238 125.969ZM63.8587 123.179L62.4313 125.234L63.2525 125.805L64.68 123.75L63.8587 123.179ZM64.5234 123.895L83.4887 112.706L82.9805 111.844L64.0153 123.034L64.5234 123.895ZM83.4887 112.706C84.5602 112.074 85.3018 111.274 85.6466 110.381L84.7137 110.021C84.4713 110.648 83.9159 111.293 82.9805 111.844L83.4887 112.706ZM85.0816 109.692L84.9605 109.752L85.3998 110.65L85.5208 110.591L85.0816 109.692ZM84.8012 109.801V110.142H85.8012V109.801H84.8012ZM85.7894 109.909C85.8866 109.468 85.8866 109.021 85.7894 108.58L84.8129 108.796C84.8787 109.094 84.8787 109.395 84.8129 109.693L85.7894 109.909ZM84.8012 101.603V108.688H85.8012V101.603H84.8012ZM77.0727 105.482L85.4892 102.066L85.1132 101.14L76.6967 104.555L77.0727 105.482ZM76.8353 104.521C75.3435 104.669 73.8919 105.084 72.7073 105.783L73.2154 106.645C74.2483 106.035 75.5525 105.653 76.9342 105.516L76.8353 104.521ZM72.7073 105.783L70.554 107.054L71.0621 107.915L73.2154 106.645L72.7073 105.783ZM50.6933 116.187L70.9961 107.948L70.62 107.021L50.3173 115.26L50.6933 116.187ZM10.4067 102.12L50.3391 116.195L50.6715 115.252L10.7391 101.177L10.4067 102.12ZM11.0729 108.428V101.649H10.0729V108.428H11.0729ZM10.9416 108.071L10.8446 108.008L10.3012 108.848L10.3982 108.911L10.9416 108.071ZM10.1911 108.347C9.6999 109.978 10.5686 111.607 12.431 112.706L12.9391 111.844C11.3122 110.885 10.8375 109.668 11.1486 108.635L10.1911 108.347ZM12.431 112.706L32.6463 124.633L33.1544 123.771L12.9391 111.844L12.431 112.706ZM17.4964 134.232L33.1617 124.628L32.639 123.776L16.9738 133.379L17.4964 134.232ZM10.7504 137.056L17.4278 134.267L17.0424 133.344L10.365 136.133L10.7504 137.056ZM11.0577 144.768L11.0577 136.594L10.0577 136.594L10.0577 144.768L11.0577 144.768ZM10.0577 144.76C10.0572 144.791 10.0572 144.823 10.0577 144.855L11.0576 144.839C11.0573 144.818 11.0573 144.797 11.0576 144.775L10.0577 144.76Z" fill="#0E2526"/>
<path d="M47.934 124.104V132.918" stroke="#0E2526"/>
<mask id="path-16-inside-5" fill="white">
<path fill-rule="evenodd" clip-rule="evenodd" d="M22.6655 138.965C19.8 140.618 15.154 140.618 12.2884 138.965C9.42289 137.312 9.4229 134.631 12.2884 132.978L37.5426 118.408L12.2884 103.838C9.4229 102.185 9.42289 99.5046 12.2884 97.8513C15.154 96.1981 19.8 96.1981 22.6655 97.8513L47.9197 112.421L73.1739 97.8512C76.0395 96.198 80.6855 96.198 83.551 97.8512C86.4166 99.5045 86.4166 102.185 83.551 103.838L58.2968 118.408L83.551 132.978C86.4166 134.631 86.4166 137.312 83.551 138.965C80.6855 140.618 76.0395 140.618 73.1739 138.965L47.9197 124.395L22.6655 138.965Z"/>
</mask>
<path fill-rule="evenodd" clip-rule="evenodd" d="M22.6655 138.965C19.8 140.618 15.154 140.618 12.2884 138.965C9.42289 137.312 9.4229 134.631 12.2884 132.978L37.5426 118.408L12.2884 103.838C9.4229 102.185 9.42289 99.5046 12.2884 97.8513C15.154 96.1981 19.8 96.1981 22.6655 97.8513L47.9197 112.421L73.1739 97.8512C76.0395 96.198 80.6855 96.198 83.551 97.8512C86.4166 99.5045 86.4166 102.185 83.551 103.838L58.2968 118.408L83.551 132.978C86.4166 134.631 86.4166 137.312 83.551 138.965C80.6855 140.618 76.0395 140.618 73.1739 138.965L47.9197 124.395L22.6655 138.965Z" fill="white"/>
<path d="M22.6655 138.965L22.1658 138.099L22.1658 138.099L22.6655 138.965ZM12.2884 132.978L11.7887 132.112L11.7887 132.112L12.2884 132.978ZM37.5426 118.408L38.0423 119.274L39.5437 118.408L38.0423 117.542L37.5426 118.408ZM12.2884 103.838L11.7887 104.704L12.2884 103.838ZM12.2884 97.8513L12.7882 98.7175L12.2884 97.8513ZM22.6655 97.8513L22.1658 98.7175L22.1658 98.7175L22.6655 97.8513ZM47.9197 112.421L47.4199 113.287L47.9197 113.576L48.4194 113.287L47.9197 112.421ZM73.1739 97.8512L72.6742 96.9851L72.6742 96.9851L73.1739 97.8512ZM83.551 97.8512L83.0513 98.7174L83.0513 98.7174L83.551 97.8512ZM83.551 103.838L84.0508 104.704L84.0508 104.704L83.551 103.838ZM58.2968 118.408L57.797 117.542L56.2957 118.408L57.797 119.274L58.2968 118.408ZM83.551 132.978L84.0508 132.112L84.0508 132.112L83.551 132.978ZM83.551 138.965L83.0513 138.099L83.0513 138.099L83.551 138.965ZM73.1739 138.965L72.6742 139.831L72.6742 139.831L73.1739 138.965ZM47.9197 124.395L48.4194 123.529L47.9197 123.24L47.4199 123.529L47.9197 124.395ZM11.7887 139.831C13.4092 140.766 15.4702 141.205 17.477 141.205C19.4838 141.205 21.5447 140.766 23.1653 139.831L22.1658 138.099C20.9208 138.817 19.226 139.205 17.477 139.205C15.728 139.205 14.0332 138.817 12.7882 138.099L11.7887 139.831ZM11.7887 132.112C10.1739 133.043 9.13928 134.404 9.13928 135.971C9.13928 137.538 10.1739 138.899 11.7887 139.831L12.7882 138.099C11.5374 137.377 11.1393 136.571 11.1393 135.971C11.1393 135.372 11.5374 134.566 12.7882 133.844L11.7887 132.112ZM37.0429 117.542L11.7887 132.112L12.7882 133.844L38.0423 119.274L37.0429 117.542ZM38.0423 117.542L12.7882 102.972L11.7887 104.704L37.0429 119.274L38.0423 117.542ZM12.7882 102.972C11.5374 102.25 11.1393 101.445 11.1393 100.845C11.1393 100.245 11.5374 99.4391 12.7882 98.7175L11.7887 96.9851C10.1739 97.9168 9.13928 99.2778 9.13928 100.845C9.13928 102.412 10.1739 103.773 11.7887 104.704L12.7882 102.972ZM12.7882 98.7175C14.0332 97.9992 15.728 97.6114 17.477 97.6114C19.226 97.6114 20.9208 97.9992 22.1658 98.7175L23.1653 96.9851C21.5447 96.0502 19.4838 95.6114 17.477 95.6114C15.4702 95.6114 13.4092 96.0502 11.7887 96.9851L12.7882 98.7175ZM22.1658 98.7175L47.4199 113.287L48.4194 111.555L23.1653 96.9851L22.1658 98.7175ZM72.6742 96.9851L47.4199 111.555L48.4194 113.287L73.6737 98.7174L72.6742 96.9851ZM84.0508 96.9851C82.4302 96.0501 80.3693 95.6113 78.3625 95.6113C76.3557 95.6113 74.2947 96.0501 72.6742 96.9851L73.6737 98.7174C74.9187 97.9991 76.6135 97.6113 78.3625 97.6113C80.1115 97.6113 81.8063 97.9991 83.0513 98.7174L84.0508 96.9851ZM84.0508 104.704C85.6655 103.773 86.7002 102.412 86.7002 100.845C86.7002 99.2777 85.6656 97.9167 84.0508 96.9851L83.0513 98.7174C84.3021 99.439 84.7002 100.245 84.7002 100.845C84.7002 101.445 84.302 102.25 83.0513 102.972L84.0508 104.704ZM58.7965 119.274L84.0508 104.704L83.0513 102.972L57.797 117.542L58.7965 119.274ZM57.797 119.274L83.0513 133.844L84.0508 132.112L58.7965 117.542L57.797 119.274ZM83.0513 133.844C84.302 134.566 84.7002 135.372 84.7002 135.972C84.7002 136.571 84.3021 137.377 83.0513 138.099L84.0508 139.831C85.6656 138.9 86.7002 137.539 86.7002 135.972C86.7002 134.405 85.6655 133.044 84.0508 132.112L83.0513 133.844ZM83.0513 138.099C81.8063 138.817 80.1115 139.205 78.3625 139.205C76.6135 139.205 74.9187 138.817 73.6737 138.099L72.6742 139.831C74.2947 140.766 76.3557 141.205 78.3625 141.205C80.3693 141.205 82.4302 140.766 84.0508 139.831L83.0513 138.099ZM73.6737 138.099L48.4194 123.529L47.4199 125.261L72.6742 139.831L73.6737 138.099ZM23.1653 139.831L48.4194 125.261L47.4199 123.529L22.1658 138.099L23.1653 139.831Z" fill="#0E2526" mask="url(#path-16-inside-5)"/>
<mask id="path-18-inside-6" fill="white">
<path fill-rule="evenodd" clip-rule="evenodd" d="M53.237 98.8133H42.0123V116.857C41.8182 117.814 42.3574 118.811 43.6296 119.545C45.8374 120.819 49.417 120.819 51.6248 119.545C52.9081 118.805 53.4455 117.797 53.237 116.833V98.8133Z"/>
</mask>
<path fill-rule="evenodd" clip-rule="evenodd" d="M53.237 98.8133H42.0123V116.857C41.8182 117.814 42.3574 118.811 43.6296 119.545C45.8374 120.819 49.417 120.819 51.6248 119.545C52.9081 118.805 53.4455 117.797 53.237 116.833V98.8133Z" fill="white"/>
<path d="M42.0123 98.8133V97.8133H41.0123V98.8133H42.0123ZM53.237 98.8133H54.237V97.8133H53.237V98.8133ZM42.0123 116.857L42.9923 117.056L43.0123 116.958V116.857H42.0123ZM43.6296 119.545L43.1299 120.411L43.1299 120.411L43.6296 119.545ZM51.6248 119.545L52.1246 120.411L52.1246 120.411L51.6248 119.545ZM53.237 116.833H52.237V116.939L52.2596 117.044L53.237 116.833ZM42.0123 99.8133H53.237V97.8133H42.0123V99.8133ZM43.0123 116.857V98.8133H41.0123V116.857H43.0123ZM44.1293 118.679C43.0681 118.066 42.9157 117.434 42.9923 117.056L41.0322 116.659C40.7208 118.194 41.6466 119.555 43.1299 120.411L44.1293 118.679ZM51.1251 118.679C50.2089 119.207 48.9452 119.5 47.6272 119.5C46.3093 119.5 45.0455 119.207 44.1293 118.679L43.1299 120.411C44.4215 121.156 46.0515 121.5 47.6272 121.5C49.203 121.5 50.8329 121.156 52.1246 120.411L51.1251 118.679ZM52.2596 117.044C52.3418 117.424 52.1952 118.061 51.1251 118.679L52.1246 120.411C53.6209 119.548 54.5491 118.17 54.2144 116.621L52.2596 117.044ZM52.237 98.8133V116.833H54.237V98.8133H52.237Z" fill="#0E2526" mask="url(#path-18-inside-6)"/>
<rect x="61.3696" y="37.7814" width="13.649" height="27.9731" fill="white" stroke="#0E2526"/>
<rect x="61.3696" y="37.7814" width="8.7212" height="27.9731" fill="white" stroke="#0E2526"/>
<mask id="path-22-inside-7" fill="white">
<path fill-rule="evenodd" clip-rule="evenodd" d="M64.4173 65.6704C55.3281 60.4266 40.5916 60.4266 31.5024 65.6704L16.8773 74.1081C16.6709 74.2272 16.4691 74.348 16.272 74.4705H7.79431V83.6031H10.0604C10.0605 87.0395 12.3328 90.4759 16.8773 93.0978L31.5024 101.535C40.5916 106.779 55.3281 106.779 64.4173 101.535L79.0424 93.0978C83.5869 90.4759 85.8592 87.0395 85.8593 83.6031H88.1187V74.4705H79.6478C79.4507 74.348 79.2489 74.2272 79.0424 74.1081L64.4173 65.6704Z"/>
</mask>
<path fill-rule="evenodd" clip-rule="evenodd" d="M64.4173 65.6704C55.3281 60.4266 40.5916 60.4266 31.5024 65.6704L16.8773 74.1081C16.6709 74.2272 16.4691 74.348 16.272 74.4705H7.79431V83.6031H10.0604C10.0605 87.0395 12.3328 90.4759 16.8773 93.0978L31.5024 101.535C40.5916 106.779 55.3281 106.779 64.4173 101.535L79.0424 93.0978C83.5869 90.4759 85.8592 87.0395 85.8593 83.6031H88.1187V74.4705H79.6478C79.4507 74.348 79.2489 74.2272 79.0424 74.1081L64.4173 65.6704Z" fill="white"/>
<path d="M31.5024 65.6704L32.0021 66.5366L32.0021 66.5366L31.5024 65.6704ZM64.4173 65.6704L63.9176 66.5366L63.9176 66.5366L64.4173 65.6704ZM16.8773 74.1081L17.3771 74.9743L17.3771 74.9743L16.8773 74.1081ZM16.272 74.4705V75.4705H16.5572L16.7996 75.32L16.272 74.4705ZM7.79431 74.4705V73.4705H6.79431V74.4705H7.79431ZM7.79431 83.6031H6.79431V84.6031H7.79431V83.6031ZM10.0604 83.6031L11.0604 83.6031L11.0604 82.6031H10.0604V83.6031ZM16.8773 93.0978L17.3771 92.2316L16.8773 93.0978ZM31.5024 101.535L31.0027 102.402L31.0027 102.402L31.5024 101.535ZM64.4173 101.535L64.9171 102.402L64.9171 102.402L64.4173 101.535ZM79.0424 93.0978L79.5421 93.964L79.5421 93.964L79.0424 93.0978ZM85.8593 83.6031V82.6031H84.8593L84.8593 83.6031L85.8593 83.6031ZM88.1187 83.6031V84.6031H89.1187V83.6031H88.1187ZM88.1187 74.4705H89.1187V73.4705H88.1187V74.4705ZM79.6478 74.4705L79.1202 75.32L79.3625 75.4705H79.6478V74.4705ZM79.0424 74.1081L79.5422 73.2419L79.5421 73.2419L79.0424 74.1081ZM32.0021 66.5366C36.359 64.023 42.1324 62.7375 47.9599 62.7375C53.7874 62.7375 59.5607 64.023 63.9176 66.5366L64.9171 64.8043C60.1847 62.074 54.0452 60.7375 47.9599 60.7375C41.8745 60.7375 35.735 62.074 31.0027 64.8043L32.0021 66.5366ZM17.3771 74.9743L32.0021 66.5366L31.0027 64.8043L16.3776 73.2419L17.3771 74.9743ZM16.7996 75.32C16.9873 75.2034 17.1798 75.0881 17.3771 74.9743L16.3776 73.2419C16.1619 73.3664 15.9508 73.4927 15.7444 73.621L16.7996 75.32ZM7.79431 75.4705H16.272V73.4705H7.79431V75.4705ZM8.79431 83.6031V74.4705H6.79431V83.6031H8.79431ZM10.0604 82.6031H7.79431V84.6031H10.0604V82.6031ZM17.3771 92.2316C13.0146 89.7147 11.0605 86.5559 11.0604 83.6031L9.06044 83.6031C9.06052 87.5231 11.6511 91.2371 16.3776 93.964L17.3771 92.2316ZM32.0021 100.669L17.3771 92.2316L16.3776 93.964L31.0027 102.402L32.0021 100.669ZM63.9176 100.669C59.5607 103.183 53.7874 104.468 47.9599 104.468C42.1324 104.468 36.359 103.183 32.0021 100.669L31.0027 102.402C35.735 105.132 41.8745 106.468 47.9599 106.468C54.0452 106.468 60.1847 105.132 64.9171 102.402L63.9176 100.669ZM78.5427 92.2316L63.9176 100.669L64.9171 102.402L79.5421 93.964L78.5427 92.2316ZM84.8593 83.6031C84.8593 86.5559 82.9052 89.7147 78.5427 92.2316L79.5421 93.964C84.2687 91.2371 86.8592 87.5231 86.8593 83.6031L84.8593 83.6031ZM88.1187 82.6031H85.8593V84.6031H88.1187V82.6031ZM87.1187 74.4705V83.6031H89.1187V74.4705H87.1187ZM79.6478 75.4705H88.1187V73.4705H79.6478V75.4705ZM78.5427 74.9743C78.74 75.0881 78.9325 75.2034 79.1202 75.32L80.1754 73.621C79.9689 73.4927 79.7578 73.3664 79.5422 73.2419L78.5427 74.9743ZM63.9176 66.5366L78.5427 74.9743L79.5421 73.2419L64.9171 64.8043L63.9176 66.5366Z" fill="#0E2526" mask="url(#path-22-inside-7)"/>
<rect x="-2.98023e-08" y="0.499728" width="53.8845" height="53.8845" rx="18.5" transform="matrix(0.866182 0.499728 -0.866182 0.499728 48.3929 47.293)" fill="white" stroke="#0E2526"/>
<path fill-rule="evenodd" clip-rule="evenodd" d="M51.2598 1.5957L43.4615 6.07596L48.9867 13.324V19.3046C48.9867 25.3797 53.2525 32.7657 58.5147 35.8016L72.0925 43.6351L80.4018 54.5355L88.6913 50.4507L87.8645 49.3717C89.5181 48.3472 90.5353 46.2418 90.5353 43.2753V32.9736C90.5353 26.8985 86.2694 19.5125 81.0073 16.4766L58.5147 3.49992C56.0367 2.07028 53.7796 1.86022 52.0849 2.67256L51.2598 1.5957Z" fill="white"/>
<path d="M43.4615 6.07596L43.2125 5.64242L42.7186 5.92614L43.0639 6.37908L43.4615 6.07596ZM51.2598 1.5957L51.6567 1.29161L51.3904 0.944032L51.0108 1.16216L51.2598 1.5957ZM48.9867 13.324H49.4867V13.1552L49.3843 13.0209L48.9867 13.324ZM58.5147 35.8016L58.7645 35.3685L58.7645 35.3685L58.5147 35.8016ZM72.0925 43.6351L72.4901 43.332L72.4293 43.2521L72.3424 43.202L72.0925 43.6351ZM80.4018 54.5355L80.0041 54.8386L80.2536 55.1659L80.6228 54.984L80.4018 54.5355ZM88.6913 50.4507L88.9123 50.8993L89.4586 50.6301L89.0882 50.1467L88.6913 50.4507ZM87.8645 49.3717L87.6012 48.9466L87.1318 49.2374L87.4676 49.6758L87.8645 49.3717ZM81.0073 16.4766L80.7574 16.9097L80.7574 16.9097L81.0073 16.4766ZM58.5147 3.49992L58.7645 3.06683L58.7645 3.06683L58.5147 3.49992ZM52.0849 2.67256L51.688 2.97665L51.9349 3.29893L52.301 3.12344L52.0849 2.67256ZM43.7106 6.5095L51.5089 2.02925L51.0108 1.16216L43.2125 5.64242L43.7106 6.5095ZM49.3843 13.0209L43.8592 5.77284L43.0639 6.37908L48.589 13.6271L49.3843 13.0209ZM49.4867 19.3046V13.324H48.4867V19.3046H49.4867ZM58.7645 35.3685C56.2274 33.9047 53.9023 31.3722 52.2103 28.4427C50.5184 25.5132 49.4867 22.2337 49.4867 19.3046H48.4867C48.4867 22.4506 49.5879 25.9016 51.3444 28.9429C53.1009 31.9841 55.5398 34.6625 58.2648 36.2347L58.7645 35.3685ZM72.3424 43.202L58.7645 35.3685L58.2648 36.2347L71.8426 44.0682L72.3424 43.202ZM80.7994 54.2324L72.4901 43.332L71.6949 43.9382L80.0041 54.8386L80.7994 54.2324ZM88.4703 50.0022L80.1807 54.087L80.6228 54.984L88.9123 50.8993L88.4703 50.0022ZM87.4676 49.6758L88.2944 50.7548L89.0882 50.1467L88.2614 49.0676L87.4676 49.6758ZM90.0353 43.2753C90.0353 46.1389 89.0565 48.045 87.6012 48.9466L88.1279 49.7967C89.9798 48.6494 91.0353 46.3447 91.0353 43.2753H90.0353ZM90.0353 32.9736V43.2753H91.0353V32.9736H90.0353ZM80.7574 16.9097C83.2946 18.3735 85.6197 20.906 87.3116 23.8355C89.0036 26.765 90.0353 30.0445 90.0353 32.9736H91.0353C91.0353 29.8276 89.9341 26.3766 88.1776 23.3353C86.421 20.2941 83.9821 17.6157 81.2571 16.0435L80.7574 16.9097ZM58.2648 3.93301L80.7574 16.9097L81.2571 16.0435L58.7645 3.06683L58.2648 3.93301ZM52.301 3.12344C53.7964 2.40665 55.873 2.55311 58.2648 3.93301L58.7645 3.06683C56.2003 1.58744 53.7628 1.31379 51.8688 2.22168L52.301 3.12344ZM50.8629 1.8998L51.688 2.97665L52.4818 2.36847L51.6567 1.29161L50.8629 1.8998Z" fill="#0E2526"/>
<rect x="0.433091" y="0.749864" width="46.9675" height="31.4356" rx="10.5" transform="matrix(0.866182 0.499728 -2.20465e-08 1 40.9884 2.0188)" fill="white" stroke="#0E2526"/>
</svg>
