<svg width="116" height="135" viewBox="0 0 116 135" fill="none" xmlns="http://www.w3.org/2000/svg">
<path d="M68.9844 84.185L78.3318 87.9562L86.3641 88.9921L74.1467 124.383C68.3358 121.671 61.968 119.881 60.588 112.568C58.651 102.302 64.6087 90.2863 68.9844 84.185Z" fill="white" stroke="#0E2526"/>
<path d="M68.3805 84.0339V41.3483L93.1557 31.734L95.5593 93.4872L83.3419 128.878C77.531 126.166 71.1631 124.377 69.7832 117.063C67.8462 106.797 73.5695 95.5402 77.9453 89.4388L68.3805 84.0339Z" fill="white" stroke="#0E2526"/>
<path d="M84.4165 28.7873L78.3292 14.6709L83.1494 8.39208L91.1718 5.3434L102.641 12.4548L95.9434 36.7975L84.4165 28.7873Z" fill="white" stroke="#0E2526"/>
<path d="M20.7528 119.936V101.39L28.0349 106.163L28.0349 127.943L20.7528 119.936Z" fill="#EAEAEA" stroke="#0E2526"/>
<path d="M20.7528 119.936V107.502L28.0349 127.943L20.7528 119.936Z" fill="white" stroke="#0E2526"/>
<path d="M11.0262 130.863V111.844L16.7864 112.714V133.907L11.0262 130.863Z" fill="white" stroke="#0E2526"/>
<path d="M20.7421 120.027L16.8066 134.164L16.9749 113.526L20.7421 113.222V120.027Z" fill="#EAEAEA" stroke="#0E2526"/>
<mask id="path-8-inside-1" fill="white">
<path fill-rule="evenodd" clip-rule="evenodd" d="M33.0499 99.0074H5.8513V107.362C5.50152 109.602 6.81162 111.912 9.78162 113.627C15.0958 116.695 23.7117 116.695 29.0258 113.627C31.4391 112.234 32.7564 110.447 32.9779 108.625H33.0499V99.0074Z"/>
</mask>
<path fill-rule="evenodd" clip-rule="evenodd" d="M33.0499 99.0074H5.8513V107.362C5.50152 109.602 6.81162 111.912 9.78162 113.627C15.0958 116.695 23.7117 116.695 29.0258 113.627C31.4391 112.234 32.7564 110.447 32.9779 108.625H33.0499V99.0074Z" fill="white"/>
<path d="M5.8513 99.0074V98.0074H4.8513V99.0074H5.8513ZM33.0499 99.0074H34.0499V98.0074H33.0499V99.0074ZM5.8513 107.362L6.83933 107.516L6.8513 107.44V107.362H5.8513ZM9.78162 113.627L9.28162 114.493L9.28162 114.493L9.78162 113.627ZM29.0258 113.627L28.5258 112.761L28.5258 112.761L29.0258 113.627ZM32.9779 108.625V107.625H32.092L31.9852 108.504L32.9779 108.625ZM33.0499 108.625V109.625H34.0499V108.625H33.0499ZM5.8513 100.007H33.0499V98.0074H5.8513V100.007ZM6.8513 107.362V99.0074H4.8513V107.362H6.8513ZM10.2816 112.761C7.51565 111.164 6.57689 109.197 6.83933 107.516L4.86328 107.208C4.42614 110.007 6.10759 112.661 9.28162 114.493L10.2816 112.761ZM28.5258 112.761C26.0565 114.187 22.7572 114.928 19.4037 114.928C16.0502 114.928 12.7509 114.187 10.2816 112.761L9.28162 114.493C12.1265 116.136 15.7922 116.928 19.4037 116.928C23.0152 116.928 26.6809 116.136 29.5258 114.493L28.5258 112.761ZM31.9852 108.504C31.8143 109.911 30.7723 111.464 28.5258 112.761L29.5258 114.493C32.1059 113.003 33.6986 110.984 33.9706 108.745L31.9852 108.504ZM33.0499 107.625H32.9779V109.625H33.0499V107.625ZM32.0499 99.0074V108.625H34.0499V99.0074H32.0499Z" fill="#0E2526" mask="url(#path-8-inside-1)"/>
<circle r="10.6106" transform="matrix(0.866025 0.5 -0.866025 0.5 19.4037 103.808)" fill="white" stroke="#0E2526"/>
<circle r="10.6106" transform="matrix(0.866025 0.5 -0.866025 0.5 19.4037 98.2534)" fill="white" stroke="#0E2526"/>
<mask id="path-12-inside-2" fill="white">
<path fill-rule="evenodd" clip-rule="evenodd" d="M27.2332 77.6615H11.8745V96.6569C11.6771 97.9325 12.4239 99.2476 14.1151 100.224C17.1439 101.973 22.0545 101.973 25.0833 100.224C26.9482 99.1473 27.6648 97.6587 27.2332 96.2654V77.6615Z"/>
</mask>
<path fill-rule="evenodd" clip-rule="evenodd" d="M27.2332 77.6615H11.8745V96.6569C11.6771 97.9325 12.4239 99.2476 14.1151 100.224C17.1439 101.973 22.0545 101.973 25.0833 100.224C26.9482 99.1473 27.6648 97.6587 27.2332 96.2654V77.6615Z" fill="white"/>
<path d="M11.8745 77.6615V76.6615H10.8745V77.6615H11.8745ZM27.2332 77.6615H28.2332V76.6615H27.2332V77.6615ZM11.8745 96.6569L12.8627 96.8098L12.8745 96.7338V96.6569H11.8745ZM14.1151 100.224L13.6151 101.09L13.6151 101.09L14.1151 100.224ZM25.0833 100.224L25.5833 101.09L25.5833 101.09L25.0833 100.224ZM27.2332 96.2654H26.2332V96.4168L26.278 96.5613L27.2332 96.2654ZM11.8745 78.6615H27.2332V76.6615H11.8745V78.6615ZM12.8745 96.6569V77.6615H10.8745V96.6569H12.8745ZM14.6151 99.3579C13.1278 98.4992 12.7518 97.5266 12.8627 96.8098L10.8862 96.504C10.6024 98.3383 11.7201 99.9959 13.6151 101.09L14.6151 99.3579ZM24.5833 99.3579C23.2567 100.124 21.455 100.535 19.5992 100.535C17.7434 100.535 15.9417 100.124 14.6151 99.3579L13.6151 101.09C15.3173 102.073 17.4853 102.535 19.5992 102.535C21.7131 102.535 23.8811 102.073 25.5833 101.09L24.5833 99.3579ZM26.278 96.5613C26.5194 97.3405 26.2189 98.4136 24.5833 99.3579L25.5833 101.09C27.6775 99.8809 28.8103 97.9769 28.1884 95.9695L26.278 96.5613ZM26.2332 77.6615V96.2654H28.2332V77.6615H26.2332Z" fill="#0E2526" mask="url(#path-12-inside-2)"/>
<mask id="path-14-inside-3" fill="white">
<path fill-rule="evenodd" clip-rule="evenodd" d="M33.0499 66.1632H5.8513V74.5179C5.50152 76.758 6.81162 79.0681 9.78162 80.7829C15.0958 83.851 23.7117 83.851 29.0258 80.7829C31.4391 79.3896 32.7564 77.6031 32.9779 75.7806H33.0499V66.1632Z"/>
</mask>
<path fill-rule="evenodd" clip-rule="evenodd" d="M33.0499 66.1632H5.8513V74.5179C5.50152 76.758 6.81162 79.0681 9.78162 80.7829C15.0958 83.851 23.7117 83.851 29.0258 80.7829C31.4391 79.3896 32.7564 77.6031 32.9779 75.7806H33.0499V66.1632Z" fill="white"/>
<path d="M5.8513 66.1632V65.1632H4.8513V66.1632H5.8513ZM33.0499 66.1632H34.0499V65.1632H33.0499V66.1632ZM5.8513 74.5179L6.83933 74.6722L6.8513 74.5955V74.5179H5.8513ZM9.78162 80.7829L9.28162 81.6489L9.28162 81.6489L9.78162 80.7829ZM29.0258 80.7829L28.5258 79.9168L28.5258 79.9168L29.0258 80.7829ZM32.9779 75.7806V74.7806H32.092L31.9852 75.66L32.9779 75.7806ZM33.0499 75.7806V76.7806H34.0499V75.7806H33.0499ZM5.8513 67.1632H33.0499V65.1632H5.8513V67.1632ZM6.8513 74.5179V66.1632H4.8513V74.5179H6.8513ZM10.2816 79.9168C7.51565 78.3199 6.57689 76.3529 6.83933 74.6722L4.86328 74.3636C4.42614 77.163 6.10759 79.8164 9.28162 81.6489L10.2816 79.9168ZM28.5258 79.9168C26.0565 81.3425 22.7572 82.084 19.4037 82.084C16.0502 82.084 12.7509 81.3425 10.2816 79.9168L9.28162 81.6489C12.1265 83.2914 15.7922 84.084 19.4037 84.084C23.0152 84.084 26.6809 83.2914 29.5258 81.6489L28.5258 79.9168ZM31.9852 75.66C31.8143 77.0666 30.7723 78.6198 28.5258 79.9168L29.5258 81.6489C32.1059 80.1593 33.6986 78.1396 33.9706 75.9012L31.9852 75.66ZM33.0499 74.7806H32.9779V76.7806H33.0499V74.7806ZM32.0499 66.1632V75.7806H34.0499V66.1632H32.0499Z" fill="#0E2526" mask="url(#path-14-inside-3)"/>
<circle r="10.6106" transform="matrix(0.866025 0.5 -0.866025 0.5 19.4037 70.9638)" fill="white" stroke="#0E2526"/>
<circle r="10.6106" transform="matrix(0.866025 0.5 -0.866025 0.5 19.4037 65.4092)" fill="white" stroke="#0E2526"/>
<path d="M6.00631 48.6956C7.61539 43.3213 13.0703 40.2038 16.0951 38.4941L29.5091 43.6794L16.4145 64.1849C16.4145 64.1849 8.41484 60.2924 7.11708 58.8324C5.81932 57.3724 4.93307 52.2801 6.00631 48.6956Z" fill="white" stroke="#0E2526"/>
<path d="M15.5367 63.7889L26 69.3321L84.9397 33.6351L87.453 17.2131L80.842 13.6359C80.842 13.6359 84.5712 8.89535 87.8339 7.41319C89.7155 6.55841 92.9379 6.2945 92.9379 6.2945C92.4599 5.88823 88.7878 3.66869 85.7358 1.95455C82.3007 0.0252908 79.195 1.67223 77.5481 2.80156L14.2831 39.5358L23.3214 44.5225C21.1397 45.7345 16.0284 49.2581 15.1142 53.4968C14.1999 57.7354 15.0696 61.8323 15.5367 63.7889Z" fill="white" stroke="#0E2526"/>
<path d="M31.0499 51.2126C32.7555 50.2227 69.5912 28.4656 87.5425 17.9091V38.7633C71.1901 48.2635 37.8896 67.5818 35.5062 68.8529C32.5271 70.4418 25.9098 72.235 23.5269 66.0571C21.7133 61.3552 23.5269 55.5786 31.0499 51.2126Z" fill="white" stroke="#0E2526"/>
<path d="M87.6963 93.6238V28.0849C87.1101 19.2016 94.3102 12.787 98.7986 11.8145C103.757 10.7402 105.48 14.9003 105.48 15.7113V84.5905C108.1 84.6357 113.726 86.9843 114.476 93.6238C115.424 102.025 112.88 109.315 109.744 114.271C106.887 118.786 97.054 130.862 87.6963 130.62C80.136 130.424 77.6344 120.926 78.4141 113.841C79.3136 105.667 84.1081 97.1669 87.6963 93.6238Z" fill="white" stroke="#0E2526"/>
</svg>
