<svg width="93" height="150" viewBox="0 0 93 150" fill="none" xmlns="http://www.w3.org/2000/svg">
<mask id="path-1-inside-1" fill="white">
<path fill-rule="evenodd" clip-rule="evenodd" d="M72.9807 144.811C84.7964 143.107 92.6566 132.491 92.6566 115.217C92.6566 88.5648 73.9454 56.1561 50.8639 42.83C36.6609 34.6299 24.1127 35.5662 16.5607 43.7096C6.69958 46.7052 0.33667 56.7444 0.33667 72.1732C0.33667 98.4384 18.7762 130.377 41.5226 143.509C54.1364 150.792 65.4258 150.762 72.9807 144.811ZM50.8639 139.346C58.9855 144.035 66.5661 145.737 72.9807 144.811C79.0495 140.031 82.7085 131.431 82.7085 119.731C82.7085 93.4654 64.2689 61.5271 41.5226 48.3945C32.138 42.9764 23.4865 41.6057 16.5607 43.7096C11.8398 48.8002 9.07129 56.7071 9.07129 66.959C9.07129 93.6111 27.7825 126.02 50.8639 139.346Z"/>
</mask>
<path fill-rule="evenodd" clip-rule="evenodd" d="M72.9807 144.811C84.7964 143.107 92.6566 132.491 92.6566 115.217C92.6566 88.5648 73.9454 56.1561 50.8639 42.83C36.6609 34.6299 24.1127 35.5662 16.5607 43.7096C6.69958 46.7052 0.33667 56.7444 0.33667 72.1732C0.33667 98.4384 18.7762 130.377 41.5226 143.509C54.1364 150.792 65.4258 150.762 72.9807 144.811ZM50.8639 139.346C58.9855 144.035 66.5661 145.737 72.9807 144.811C79.0495 140.031 82.7085 131.431 82.7085 119.731C82.7085 93.4654 64.2689 61.5271 41.5226 48.3945C32.138 42.9764 23.4865 41.6057 16.5607 43.7096C11.8398 48.8002 9.07129 56.7071 9.07129 66.959C9.07129 93.6111 27.7825 126.02 50.8639 139.346Z" fill="white"/>
<path d="M50.8639 42.83L51.3639 41.964L51.3639 41.964L50.8639 42.83ZM41.5226 143.509L41.0226 144.375L41.5226 143.509ZM50.8639 139.346L50.3639 140.212L50.3639 140.212L50.8639 139.346ZM41.5226 48.3945L41.0226 49.2606L41.5226 48.3945ZM9.07129 66.959L10.0713 66.959V66.959H9.07129ZM91.6566 115.217C91.6566 123.711 89.7235 130.47 86.4244 135.288C83.1376 140.088 78.4639 143.01 72.838 143.822L73.1235 145.801C79.3132 144.908 84.4775 141.671 88.0746 136.418C91.6596 131.183 93.6566 123.997 93.6566 115.217H91.6566ZM50.3639 43.696C61.7169 50.2506 72.0513 61.5385 79.5498 74.5262C87.0482 87.5139 91.6566 102.108 91.6566 115.217H93.6566C93.6566 101.674 88.9093 86.7374 81.2818 73.5262C73.6543 60.315 63.0924 48.7354 51.3639 41.964L50.3639 43.696ZM17.2939 44.3896C24.4091 36.7172 36.3901 35.6282 50.3639 43.696L51.3639 41.964C36.9318 33.6316 23.8163 34.4151 15.8274 43.0297L17.2939 44.3896ZM1.33667 72.1732C1.33667 56.9939 7.56946 47.4861 16.8513 44.6665L16.27 42.7528C5.8297 45.9243 -0.66333 56.4949 -0.66333 72.1732H1.33667ZM42.0226 142.643C30.8372 136.185 20.6544 125.064 13.2658 112.266C5.87709 99.4684 1.33667 85.089 1.33667 72.1732H-0.66333C-0.66333 85.5227 4.01602 100.245 11.5337 113.266C19.0514 126.287 29.4616 137.701 41.0226 144.375L42.0226 142.643ZM72.362 144.026C65.247 149.63 54.4341 149.809 42.0226 142.643L41.0226 144.375C53.8387 151.775 65.6046 151.894 73.5995 145.597L72.362 144.026ZM72.838 143.822C66.7061 144.706 59.352 143.092 51.3639 138.48L50.3639 140.212C58.619 144.978 66.426 146.767 73.1235 145.801L72.838 143.822ZM81.7085 119.731C81.7085 131.241 78.111 139.498 72.362 144.026L73.5995 145.597C79.988 140.565 83.7085 131.62 83.7085 119.731H81.7085ZM41.0226 49.2606C52.208 55.7184 62.3907 66.8403 69.7794 79.6378C77.168 92.4354 81.7085 106.815 81.7085 119.731H83.7085C83.7085 106.381 79.0291 91.6589 71.5114 78.6378C63.9937 65.6168 53.5835 54.2032 42.0226 47.5285L41.0226 49.2606ZM16.8513 44.6665C23.4302 42.668 31.7914 43.9309 41.0226 49.2606L42.0226 47.5285C32.4847 42.0218 23.5429 40.5435 16.27 42.7528L16.8513 44.6665ZM10.0713 66.959C10.0713 56.8737 12.795 49.2409 17.2939 44.3896L15.8274 43.0297C10.8846 48.3595 8.07129 56.5404 8.07129 66.959H10.0713ZM51.3639 138.48C40.011 131.925 29.6766 120.637 22.1781 107.65C14.6796 94.662 10.0713 80.0682 10.0713 66.959L8.07129 66.959C8.07129 80.5019 12.8186 95.4385 20.446 108.65C28.0735 121.861 38.6354 133.441 50.3639 140.212L51.3639 138.48Z" fill="#0E2526" mask="url(#path-1-inside-1)"/>
<mask id="path-3-inside-2" fill="white">
<path fill-rule="evenodd" clip-rule="evenodd" d="M42.1293 144.282C65.2107 157.608 83.9219 146.805 83.9219 120.153C83.9219 93.5011 65.2107 61.0924 42.1293 47.7663C19.0479 34.4402 0.33667 45.2432 0.33667 71.8953C0.33667 98.5474 19.0479 130.956 42.1293 144.282ZM41.1383 140.315C62.0485 152.388 78.9996 142.426 78.9996 118.065C78.9996 93.7046 62.0485 64.1696 41.1383 52.0971C20.228 40.0245 3.27692 49.9861 3.27692 74.3468C3.27692 98.7075 20.228 128.243 41.1383 140.315Z"/>
</mask>
<path fill-rule="evenodd" clip-rule="evenodd" d="M42.1293 144.282C65.2107 157.608 83.9219 146.805 83.9219 120.153C83.9219 93.5011 65.2107 61.0924 42.1293 47.7663C19.0479 34.4402 0.33667 45.2432 0.33667 71.8953C0.33667 98.5474 19.0479 130.956 42.1293 144.282ZM41.1383 140.315C62.0485 152.388 78.9996 142.426 78.9996 118.065C78.9996 93.7046 62.0485 64.1696 41.1383 52.0971C20.228 40.0245 3.27692 49.9861 3.27692 74.3468C3.27692 98.7075 20.228 128.243 41.1383 140.315Z" fill="white"/>
<path d="M42.1293 144.282L42.6293 143.416L42.6293 143.416L42.1293 144.282ZM42.1293 47.7663L41.6293 48.6323L41.6293 48.6323L42.1293 47.7663ZM41.1383 140.315L40.6383 141.181L40.6383 141.181L41.1383 140.315ZM41.1383 52.0971L41.6383 51.231L41.6383 51.231L41.1383 52.0971ZM3.27692 74.3468L4.27692 74.3468L3.27692 74.3468ZM82.9219 120.153C82.9219 133.269 78.3257 142.219 71.1812 146.344C64.0366 150.468 53.9878 149.974 42.6293 143.416L41.6293 145.148C53.3522 151.917 64.1997 152.684 72.1812 148.076C80.1626 143.468 84.9219 133.69 84.9219 120.153H82.9219ZM41.6293 48.6323C52.9822 55.187 63.3167 66.4748 70.8151 79.4625C78.3136 92.4502 82.9219 107.044 82.9219 120.153H84.9219C84.9219 106.61 80.1747 91.6737 72.5472 78.4625C64.9197 65.2513 54.3578 53.6717 42.6293 46.9003L41.6293 48.6323ZM1.33667 71.8953C1.33667 58.7796 5.93293 49.8299 13.0774 45.705C20.222 41.5801 30.2708 42.0745 41.6293 48.6323L42.6293 46.9003C30.9064 40.1321 20.0589 39.3649 12.0774 43.9729C4.09601 48.581 -0.66333 58.3589 -0.66333 71.8953H1.33667ZM42.6293 143.416C31.2764 136.862 20.9419 125.574 13.4435 112.586C5.945 99.5983 1.33667 85.0045 1.33667 71.8953H-0.66333C-0.66333 85.4382 4.08393 100.375 11.7114 113.586C19.3389 126.797 29.9008 138.377 41.6293 145.148L42.6293 143.416ZM77.9996 118.065C77.9996 130.039 73.8408 138.208 67.4036 141.991C60.9708 145.771 51.9083 145.378 41.6383 139.449L40.6383 141.181C51.2785 147.324 61.1467 147.987 68.4169 143.715C75.6829 139.445 79.9996 130.453 79.9996 118.065H77.9996ZM40.6383 52.9631C50.904 58.89 60.2555 69.1446 67.043 80.9709C73.8302 92.7967 77.9996 106.1 77.9996 118.065H79.9996C79.9996 105.67 75.6935 92.0254 68.7776 79.9754C61.862 67.9258 52.2828 57.3766 41.6383 51.231L40.6383 52.9631ZM4.27692 74.3468C4.27692 62.3735 8.43573 54.2045 14.8729 50.4216C21.3057 46.6413 30.3682 47.0337 40.6383 52.9631L41.6383 51.231C30.9981 45.0879 21.1299 44.4248 13.8596 48.6973C6.59367 52.9672 2.27692 61.9594 2.27692 74.3468L4.27692 74.3468ZM41.6383 139.449C31.3725 133.522 22.021 123.268 15.2336 111.441C8.44637 99.6155 4.27692 86.3121 4.27692 74.3468L2.27692 74.3468C2.27692 86.7422 6.58303 100.387 13.499 112.437C20.4146 124.486 29.9938 135.036 40.6383 141.181L41.6383 139.449Z" fill="black" mask="url(#path-3-inside-2)"/>
<path d="M41.5929 43.8424L15.2864 17.9833L68.0809 17.9833L41.5929 43.8424Z" fill="white" stroke="#0E2526"/>
<mask id="mask0" mask-type="alpha" maskUnits="userSpaceOnUse" x="17" y="19" width="49" height="25">
<path d="M41.5927 43.1742L17.4509 19.5034L41.7509 33.8539L65.7885 19.5317L41.5927 43.1742Z" fill="#F4F4F4"/>
</mask>
<g mask="url(#mask0)">
<path d="M41.6831 44.4126L41.6831 31.716" stroke="#DFDFDF"/>
<path d="M34.5677 37.122L41.6197 33.2907" stroke="#DFDFDF"/>
<path d="M34.5677 37.122L33.104 28.226" stroke="#DFDFDF"/>
<path d="M28.2676 31.8537L33.1043 28.2262" stroke="#DFDFDF"/>
<path d="M28.713 31.3387L24.0036 22.0828" stroke="#DFDFDF"/>
<path d="M20.376 24.0894L24.0035 22.0828" stroke="#DFDFDF"/>
<path d="M55.9784 22.0829L63.0304 25.9142" stroke="#DFDFDF"/>
<path d="M58.3461 22.465L55.1412 30.5414" stroke="#DFDFDF"/>
<path d="M50.5696 27.2853L55.4063 30.9129" stroke="#DFDFDF"/>
<path d="M50.8676 27.5421L47.7115 37.1222" stroke="#DFDFDF"/>
<path d="M42.1293 33.7175L47.7113 37.6279" stroke="#DFDFDF"/>
</g>
<path d="M41.6909 33.2908L15.0629 17.4996L41.6909 1.23999L68.319 17.4996L41.6909 33.2908Z" fill="white" stroke="#0E2526"/>
<path d="M41.6912 19.4066L25.9432 10.8959L41.6912 1.23999L57.5543 10.8959L41.6912 19.4066Z" fill="white" stroke="#0E2526"/>
<mask id="mask1" mask-type="alpha" maskUnits="userSpaceOnUse" x="26" y="1" width="31" height="18">
<path d="M55.5973 10.8323L41.6788 18.29L27.8614 10.8324L41.6789 2.37112L55.5973 10.8323Z" fill="white" stroke="#0E2526"/>
</mask>
<g mask="url(#mask1)">
<path d="M41.6663 1.41779V19.0903" stroke="#DFDFDF"/>
<path d="M56.6213 10.7618L26.8758 10.8294" stroke="#DFDFDF"/>
</g>
<mask id="mask2" mask-type="alpha" maskUnits="userSpaceOnUse" x="15" y="11" width="53" height="22">
<path d="M41.6836 32.7267L15.9032 17.5213L25.9482 11.439L41.6836 19.9877L57.5111 11.439L67.4713 17.4755L41.6836 32.7267Z" fill="white"/>
</mask>
<g mask="url(#mask2)">
<path d="M41.6661 19.4067V33.2909" stroke="#DFDFDF"/>
<path d="M41.6837 19.4066L31.8661 29.2242" stroke="#DFDFDF"/>
<path d="M32.4972 14.3713L32.6213 29.0249" stroke="#DFDFDF"/>
<path d="M32.0408 14.2256L21.6787 24.5876" stroke="#DFDFDF"/>
<path d="M25.9432 10.8675L22.4492 25.099" stroke="#DFDFDF"/>
<path d="M60.8705 22.083L57.5545 10.3235" stroke="#DFDFDF"/>
<path d="M60.637 22.083L50.2074 14.6304" stroke="#DFDFDF"/>
<path d="M51.1414 27.7841L50.363 14.0077" stroke="#DFDFDF"/>
<path d="M52.7756 29.8076L41.7487 18.8578" stroke="#DFDFDF"/>
</g>
</svg>
