<svg width="145" height="121" viewBox="0 0 145 121" fill="none" xmlns="http://www.w3.org/2000/svg">
<path d="M134.122 3.92484C135.086 5.47599 135.363 15.9686 134.961 20.6405L100.225 25.8558L81.8621 8.84888C85.3978 8.22158 93.6211 7.19509 98.2289 8.10752C103.989 9.24807 113.455 7.65131 115.622 7.48022C117.789 7.30914 124.69 2.51885 127.769 1.66344C130.849 0.808029 132.917 1.9859 134.122 3.92484Z" fill="white" stroke="#0E2526"/>
<path d="M1.12512 89.4328V98.8855L3.57583 105.059L21.4357 113.286L47.7239 109.674L131.835 60.9105L143.783 47.9606V40.4229C143.783 35.4512 142.592 29.0301 141.229 27.4264C139.865 25.8226 138.079 22.9847 138.334 16.243C138.539 10.8497 135.623 5.73083 134.193 4.09649C134.244 4.40293 134.657 6.13184 134.657 7.71849C134.657 10.0067 134.275 13.0759 131.962 16.243C129.65 19.4102 121.926 20.7206 118.973 19.217C116.314 17.8634 108.801 16.3424 104.87 16.9045C98.0841 17.8746 94.7071 15.7057 90.4918 11.8707C86.9758 8.67196 86.2169 3.7989 85.5571 2.05329C84.8973 0.30768 82.8217 2.23325 82.4303 3.7989C82.1171 5.05142 68.2919 20.4196 61.4185 27.9472C52.2212 39.8696 36.6369 55.3687 33.0602 58.0938C31 59.6635 13.7288 71.464 7.51213 76.9994C1.29544 82.5348 1.12512 88.3257 1.12512 89.4328Z" fill="white" stroke="#0E2526"/>
<path d="M1.16102 106.219C0.881396 103.467 1.16103 98.9065 1.16103 98.9065C4.04065 101.887 12.6492 108.431 24.0464 108.795C38.293 109.25 47.9928 103.187 53.752 100.914C59.5113 98.6407 77.3952 87.1222 84.6701 83.0301C91.9449 78.938 112.102 67.1164 121.044 62.7212C128.198 59.205 139.282 50.2428 143.93 46.2013C143.98 49.7376 144.051 57.356 143.93 59.5385C143.778 62.2665 128.774 71.2085 124.682 73.4819C120.59 75.7553 85.8826 95.7611 79.5171 99.3985C73.1516 103.036 54.3583 118.495 31.0182 119.859C12.3461 120.95 1.44064 108.971 1.16102 106.219Z" fill="white" stroke="#0E2526"/>
<path d="M82.4489 7.25906C82.1137 5.44887 82.4686 3.29325 83.3587 2.18654C83.7091 1.7509 84.4554 1.24792 84.8018 1.30567C85.2349 1.37784 85.7307 2.06977 86.9946 6.23471C88.1741 10.1213 93.2033 14.197 95.104 15.3999C93.3444 14.7052 89.0527 13.8964 87.7789 13.3265C84.641 11.9227 82.8566 9.46027 82.4489 7.25906Z" fill="white" stroke="#0E2526"/>
<path d="M109.012 16.8948C104.378 17.2144 100.028 20.6212 97.986 23.2469C95.4332 26.5291 73.8397 55.0026 69.109 61.6214C64.9392 67.4556 57.5467 72.9807 50.962 73.3838C44.3774 73.787 38.8678 70.5619 36.0458 65.7242C33.7882 61.854 34.1645 57.7509 35.1051 56.9894" stroke="#0E2526"/>
<path d="M75.2021 45.2012L63.5706 25.856L61.5842 28.0502L72.4542 49.1016L75.2021 45.2012Z" fill="white" stroke="#0E2526"/>
<path d="M67.0619 56.0547L54.1744 36.6705L52.188 38.8648L63.9592 59.8039L67.0619 56.0547Z" fill="white" stroke="#0E2526"/>
<path d="M57.531 64.5422L45.5773 46.2013L43.5909 48.3955L53.2936 66.0094C53.2936 66.0094 54.5688 65.7342 55.3829 65.4558C56.2324 65.1653 57.531 64.5422 57.531 64.5422Z" fill="white" stroke="#0E2526"/>
<path d="M65.8218 23.184L89.7728 25.7425L87.2591 29.1354L63.9086 25.2441L65.8218 23.184Z" fill="white" stroke="#0E2526"/>
<path d="M57.7033 32.9381L82.2408 35.9024L79.9353 39.1137L55.7272 35.0378L57.7033 32.9381Z" fill="white" stroke="#0E2526"/>
<path d="M48.0414 43.4801L74.2727 46.6259L71.2955 50.4243L45.8741 45.675L48.0414 43.4801Z" fill="white" stroke="#0E2526"/>
<path d="M39.5132 54.1607L65.985 57.3804C65.985 57.3804 65.2079 58.5 64.5466 59.2503C63.936 59.9431 62.7487 61.0842 62.7487 61.0842L39.403 56.6943C39.403 56.6943 39.323 55.8878 39.323 55.3884C39.323 54.9196 39.5132 54.1607 39.5132 54.1607Z" fill="white" stroke="#0E2526"/>
<path d="M83.8436 33.7651L72.524 15.6192L70.5376 17.8135L81.1202 37.4223L83.8436 33.7651Z" fill="white" stroke="#0E2526"/>
<path d="M101.274 17.1481C96.6394 17.4677 93.2857 21.1728 91.2435 23.7985C88.6907 27.0807 68.7118 54.8041 63.1591 60.7502C58.3202 65.9319 50.3967 66.8366 48.3495 66.4507C41.1797 65.099 37.4545 57.4577 40.2845 51.5282" stroke="#0E2526"/>
<path d="M68.9741 62.1173L86.4495 81.6522" stroke="#0E2526"/>
<path d="M91.0254 32.0711L120.923 62.7769" stroke="#0E2526"/>
<path d="M61.1661 69.7665C62.2371 71.1053 64.2535 73.8962 62.751 77.52C61.7006 80.0533 55.1374 90.0755 37.0331 94.4625C18.9288 98.8496 9.33613 96.1277 6.42079 91.4546C4.70299 88.701 4.38911 84.7437 5.82554 81.5288C6.69717 79.5781 9.07706 76.0204 10.2717 74.7229" stroke="#0E2526"/>
<path d="M123.36 19.9831C123.36 19.9831 125.942 23.6432 128.664 24.9723C131.433 26.3243 135.629 26.1924 137.747 26.7993C142.628 28.1985 143.049 33.0085 143.049 33.0085" stroke="#0E2526"/>
</svg>
