<svg width="95" height="127" viewBox="0 0 95 127" fill="none" xmlns="http://www.w3.org/2000/svg">
<path fill-rule="evenodd" clip-rule="evenodd" d="M33.3125 34.688L64.7235 52.8232L64.9728 112.153L64.6481 112.348L64.6711 112.362L63.5547 113.006L62.666 113.541L62.6485 113.529L41.4669 125.758C40.032 126.587 37.7056 126.587 36.2707 125.758L8.95873 109.99C8.27777 109.597 7.91998 109.088 7.88535 108.573L7.61707 108.504V105.637L10.2688 106.234L32.1629 93.5929L33.3125 94.2566L33.3125 34.688Z" fill="white"/>
<path d="M64.7235 52.8232L65.2235 52.8211L65.2223 52.5338L64.9735 52.3902L64.7235 52.8232ZM33.3125 34.688L33.5625 34.255L32.8125 33.822L32.8125 34.688L33.3125 34.688ZM64.9728 112.153L65.2306 112.581L65.474 112.435L65.4728 112.151L64.9728 112.153ZM64.6481 112.348L64.3903 111.92L63.6634 112.357L64.3981 112.781L64.6481 112.348ZM64.6711 112.362L64.9211 112.795L65.6711 112.361L64.9211 111.928L64.6711 112.362ZM63.5547 113.006L63.3047 112.573L63.297 112.578L63.5547 113.006ZM62.666 113.541L62.3936 113.96L62.6558 114.13L62.9238 113.969L62.666 113.541ZM62.6485 113.529L62.9209 113.11L62.6639 112.943L62.3985 113.096L62.6485 113.529ZM41.4669 125.758L41.2169 125.325L41.2169 125.325L41.4669 125.758ZM36.2707 125.758L36.0207 126.192L36.0207 126.192L36.2707 125.758ZM8.95873 109.99L9.20873 109.557L9.20873 109.557L8.95873 109.99ZM7.88535 108.573L8.38423 108.539L8.35991 108.177L8.00859 108.088L7.88535 108.573ZM7.61707 108.504H7.11707V108.893L7.49383 108.989L7.61707 108.504ZM7.61707 105.637L7.72671 105.15L7.11707 105.013V105.637H7.61707ZM10.2688 106.234L10.1592 106.721L10.3497 106.764L10.5188 106.667L10.2688 106.234ZM32.1629 93.5929L32.4129 93.1599L32.1629 93.0156L31.9129 93.1599L32.1629 93.5929ZM33.3125 94.2566L33.0625 94.6896L33.8125 95.1226L33.8125 94.2566L33.3125 94.2566ZM64.9735 52.3902L33.5625 34.255L33.0625 35.1211L64.4735 53.2562L64.9735 52.3902ZM65.4728 112.151L65.2235 52.8211L64.2235 52.8253L64.4728 112.155L65.4728 112.151ZM64.9059 112.777L65.2306 112.581L64.7151 111.724L64.3903 111.92L64.9059 112.777ZM64.9211 111.928L64.8981 111.915L64.3981 112.781L64.4211 112.795L64.9211 111.928ZM63.8047 113.439L64.9211 112.795L64.4211 111.929L63.3047 112.573L63.8047 113.439ZM62.9238 113.969L63.8125 113.435L63.297 112.578L62.4083 113.112L62.9238 113.969ZM62.376 113.949L62.3936 113.96L62.9385 113.121L62.9209 113.11L62.376 113.949ZM41.7169 126.192L62.8985 113.962L62.3985 113.096L41.2169 125.325L41.7169 126.192ZM36.0207 126.192C36.8321 126.66 37.864 126.88 38.8688 126.88C39.8736 126.88 40.9055 126.66 41.7169 126.192L41.2169 125.325C40.5933 125.685 39.7446 125.88 38.8688 125.88C37.993 125.88 37.1443 125.685 36.5207 125.325L36.0207 126.192ZM8.70873 110.423L36.0207 126.192L36.5207 125.325L9.20873 109.557L8.70873 110.423ZM7.38648 108.606C7.43611 109.344 7.94099 109.98 8.70873 110.423L9.20873 109.557C8.61455 109.214 8.40384 108.831 8.38423 108.539L7.38648 108.606ZM8.00859 108.088L7.7403 108.02L7.49383 108.989L7.76212 109.057L8.00859 108.088ZM8.11707 108.504V105.637H7.11707V108.504H8.11707ZM7.50742 106.125L10.1592 106.721L10.3785 105.746L7.72671 105.15L7.50742 106.125ZM31.9129 93.1599L10.0188 105.801L10.5188 106.667L32.4129 94.026L31.9129 93.1599ZM33.5625 93.8236L32.4129 93.1599L31.9129 94.026L33.0625 94.6896L33.5625 93.8236ZM32.8125 34.688L32.8125 94.2566L33.8125 94.2566L33.8125 34.688L32.8125 34.688Z" fill="#0E2526"/>
<rect x="0.433013" y="0.75" width="36.4543" height="56.9572" transform="matrix(0.866025 0.5 -2.20305e-08 1 30.3252 33.7799)" fill="white" stroke="#0E2526"/>
<path d="M30.5267 92.1091L62.1719 110.379L41.0369 122.582C39.8411 123.272 37.9025 123.272 36.7068 122.582L9.39168 106.811C8.19595 106.121 8.19595 105.002 9.39168 104.311L30.5267 92.1091Z" fill="white" stroke="#0E2526"/>
<path fill-rule="evenodd" clip-rule="evenodd" d="M94.12 116.498L88.5811 120.115L77.9463 106.63L6.72365 65.5094L7.15077 16.857L0.930542 8.96944L0.930548 5.17097L7.06068 1.44586L11.2963 3.92836L94.1087 51.7048V115.901L94.12 116.498Z" fill="white"/>
<path d="M88.5811 120.115L88.1885 120.425L88.4717 120.784L88.8546 120.534L88.5811 120.115ZM94.12 116.498L94.3935 116.916L94.6252 116.765L94.62 116.488L94.12 116.498ZM77.9463 106.63L78.3389 106.32L78.2795 106.245L78.1963 106.197L77.9463 106.63ZM6.72365 65.5094L6.22367 65.505L6.22111 65.7966L6.47365 65.9424L6.72365 65.5094ZM7.15077 16.857L7.65075 16.8614L7.6523 16.6855L7.54338 16.5474L7.15077 16.857ZM0.930542 8.96944L0.430542 8.96944L0.430542 9.14287L0.537935 9.27906L0.930542 8.96944ZM0.930548 5.17097L0.670893 4.74368L0.430548 4.88973L0.430548 5.17097L0.930548 5.17097ZM7.06068 1.44586L7.3135 1.01449L7.05604 0.863598L6.80102 1.01857L7.06068 1.44586ZM11.2963 3.92836L11.0435 4.35974L11.0465 4.36146L11.2963 3.92836ZM94.1087 51.7048H94.6087V51.416L94.3585 51.2717L94.1087 51.7048ZM94.1087 115.901H93.6086L93.6087 115.911L94.1087 115.901ZM88.8546 120.534L94.3935 116.916L93.8466 116.079L88.3077 119.697L88.8546 120.534ZM77.5537 106.939L88.1885 120.425L88.9738 119.806L78.3389 106.32L77.5537 106.939ZM78.1963 106.197L6.97365 65.0764L6.47365 65.9424L77.6963 107.063L78.1963 106.197ZM7.22363 65.5138L7.65075 16.8614L6.65079 16.8527L6.22367 65.505L7.22363 65.5138ZM0.537935 9.27906L6.75816 17.1667L7.54338 16.5474L1.32315 8.65983L0.537935 9.27906ZM0.430548 5.17097L0.430542 8.96944L1.43054 8.96944L1.43055 5.17097L0.430548 5.17097ZM6.80102 1.01857L0.670893 4.74368L1.1902 5.59826L7.32033 1.87316L6.80102 1.01857ZM11.5492 3.49699L7.3135 1.01449L6.80785 1.87723L11.0435 4.35973L11.5492 3.49699ZM11.0465 4.36146L93.8588 52.1379L94.3585 51.2717L11.5462 3.49527L11.0465 4.36146ZM93.6087 51.7048V115.901H94.6087V51.7048H93.6087ZM94.62 116.488L94.6086 115.892L93.6087 115.911L93.6201 116.507L94.62 116.488Z" fill="#0E2526"/>
<path d="M91.3593 112.364L91.3593 110.681" stroke="#0E2526"/>
<path d="M91.3593 105.54V109.972" stroke="#0E2526"/>
<path d="M94.04 51.7789L88.0448 56.1676" stroke="#0E2526"/>
<rect x="0.433013" y="0.75" width="100.659" height="63.8273" transform="matrix(0.866025 0.5 -2.20305e-08 1 0.558013 4.76781)" fill="white" stroke="#0E2526"/>
<rect x="0.433013" y="0.75" width="94.3201" height="57.1133" transform="matrix(0.866025 0.5 -2.20305e-08 1 3.21353 9.68474)" fill="white" stroke="#0E2526"/>
</svg>
