<svg width="119" height="120" viewBox="0 0 119 120" fill="none" xmlns="http://www.w3.org/2000/svg">
<circle cx="59.5" cy="60.0952" r="59" fill="#EFEFEF" stroke="#0E2526"/>
<path d="M103.823 55.3468C103.823 81.7063 81.7239 103.103 54.4272 103.103C27.1306 103.103 5.03101 81.7063 5.03101 55.3468C5.03101 28.9873 27.1306 7.59037 54.4272 7.59037C81.7239 7.59037 103.823 28.9873 103.823 55.3468Z" fill="white" stroke="#0E2526"/>
<mask id="mask0" mask-type="alpha" maskUnits="userSpaceOnUse" x="1" y="1" width="117" height="118">
<circle cx="59.5" cy="60.0952" r="58" fill="#F4F4F4" stroke="#0E2526"/>
</mask>
<g mask="url(#mask0)">
<path d="M66.8725 23.2152C62.2681 22.2756 53.6779 21.4142 49.9583 21.101C48.2356 23.1761 44.2028 28.0311 41.8536 30.8501C39.5044 33.6692 35.0801 41.1083 33.1616 44.4754C34.4928 46.7463 37.766 52.1103 40.2092 55.3992C42.6523 58.688 49.1361 65.4615 52.0726 68.4372L80.9676 57.0436V42.0088C80.9676 40.1294 79.793 31.4374 79.2057 27.3263C77.0132 26.3475 71.4769 24.1549 66.8725 23.2152Z" fill="#366866" stroke="#0E2526"/>
<path d="M94.8201 19.9793L89.7108 10.9344L92.1964 0.439466L114.015 21.084C115.971 30.9115 118.24 47.7079 111.667 36.274C105.094 24.8401 97.697 20.6468 94.8201 19.9793Z" fill="#366866" stroke="#0E2526"/>
<path d="M7.3591 42.8903C6.5666 40.2246 7.02889 32.3537 7.3591 28.7515L-2.45698 33.8847C-2.57705 47.7533 -2.24083 75.3103 0.0645952 74.5899C2.37002 73.8694 5.46795 74.8901 6.72873 75.4904C6.22443 72.4646 8.93228 57.6436 10.3732 50.1089C9.68273 49.1483 8.1516 45.5559 7.3591 42.8903Z" fill="#366866" stroke="#0E2526"/>
<path d="M42.4977 7.63813C41.8427 6.83769 33.371 7.97164 29.217 8.63868L24.6689 6.09174C34.3413 3.18092 52.8493 -2.07673 49.5018 0.179151C46.1544 2.43504 43.4376 6.09175 42.4977 7.63813Z" fill="#366866" stroke="#0E2526"/>
<path d="M65.1326 109.26C62.3102 107.509 51.3857 99.2036 46.2762 95.2701C46.2762 95.2701 39.647 96.8651 35.3273 97.4599C30.9848 98.0578 24.0135 97.4599 24.0135 97.4599C27.3225 102.618 29.2446 111.328 29.7312 114.613C38.0848 118.384 55.2299 124.832 56.9817 120.453C58.7336 116.073 63.1456 111.166 65.1326 109.26Z" fill="#366866" stroke="#0E2526"/>
<path d="M115.07 63.8224C114.675 65.3044 105.272 71.0264 100.621 73.7021C100.621 73.7021 98.963 81.7407 97.6567 86.6694C96.3202 91.712 93.8283 99.1426 93.8283 99.1426C98.9658 98.5498 104.449 100.954 106.549 102.23C110.542 97.2901 118.429 86.373 118.034 82.2235C117.639 78.074 115.893 68.2271 115.07 63.8224Z" fill="#366866" stroke="#0E2526"/>
<path d="M64.9698 109.359C69.7867 106.703 82.2682 100.923 93.6587 99.0524" stroke="#0E2526"/>
<path d="M115.138 64.2233C114.637 61.3275 113.726 56.0859 113.459 51.4081C113.192 46.7302 113.942 41.1595 114.415 39.9065" stroke="#0E2526"/>
<path d="M46.5557 95.2081L52.1953 68.8463" stroke="#0E2526"/>
<path d="M81.0493 57.0424L100.198 73.6989" stroke="#0E2526"/>
<path d="M79.0822 27.2705L94.1648 19.9259" stroke="#0E2526"/>
<path d="M42.3334 8.10875L50.4074 21.4917" stroke="#0E2526"/>
<path d="M10.2309 49.8513L34.8799 43.9197" stroke="#0E2526"/>
</g>
</svg>
