<svg width="116" height="136" viewBox="0 0 116 136" fill="none" xmlns="http://www.w3.org/2000/svg">
<path d="M68.9844 84.5896L78.3318 88.3609L86.3641 89.3968L74.1467 124.788C68.3358 122.076 61.968 120.286 60.588 112.972C58.651 102.706 64.6087 90.691 68.9844 84.5896Z" fill="#EA9C77" stroke="#0E2526"/>
<path d="M68.3805 84.4386V41.753L93.1557 32.1387L95.5593 93.8918L83.3419 129.283C77.531 126.571 71.1631 124.781 69.7832 117.467C67.8462 107.201 73.5695 95.9448 77.9453 89.8435L68.3805 84.4386Z" fill="#F0BBA1" stroke="#0E2526"/>
<path d="M84.4165 29.192L78.3292 15.0755L83.1494 8.79674L91.1718 5.74806L102.641 12.8594L95.9434 37.2021L84.4165 29.192Z" fill="#F0BBA1" stroke="#0E2526"/>
<path d="M20.7528 120.341V101.794L28.0349 106.568L28.0349 128.347L20.7528 120.341Z" fill="#EAEAEA" stroke="#0E2526"/>
<path d="M20.7528 120.341V107.907L28.0349 128.347L20.7528 120.341Z" fill="white" stroke="#0E2526"/>
<path d="M11.0262 131.268V112.249L16.7864 113.118V134.311L11.0262 131.268Z" fill="white" stroke="#0E2526"/>
<path d="M20.7421 120.432L16.8066 134.569L16.9749 113.93L20.7421 113.627V120.432Z" fill="#EAEAEA" stroke="#0E2526"/>
<mask id="path-8-inside-1" fill="white">
<path fill-rule="evenodd" clip-rule="evenodd" d="M33.0499 99.412H5.8513V107.767C5.50152 110.007 6.81162 112.317 9.78162 114.032C15.0958 117.1 23.7117 117.1 29.0258 114.032C31.4391 112.638 32.7564 110.852 32.9779 109.029H33.0499V99.412Z"/>
</mask>
<path fill-rule="evenodd" clip-rule="evenodd" d="M33.0499 99.412H5.8513V107.767C5.50152 110.007 6.81162 112.317 9.78162 114.032C15.0958 117.1 23.7117 117.1 29.0258 114.032C31.4391 112.638 32.7564 110.852 32.9779 109.029H33.0499V99.412Z" fill="#EA9C77"/>
<path d="M5.8513 99.412V98.412H4.8513V99.412H5.8513ZM33.0499 99.412H34.0499V98.412H33.0499V99.412ZM5.8513 107.767L6.83933 107.921L6.8513 107.844V107.767H5.8513ZM9.78162 114.032L9.28162 114.898L9.28162 114.898L9.78162 114.032ZM29.0258 114.032L28.5258 113.166L28.5258 113.166L29.0258 114.032ZM32.9779 109.029V108.029H32.092L31.9852 108.909L32.9779 109.029ZM33.0499 109.029V110.029H34.0499V109.029H33.0499ZM5.8513 100.412H33.0499V98.412H5.8513V100.412ZM6.8513 107.767V99.412H4.8513V107.767H6.8513ZM10.2816 113.166C7.51565 111.569 6.57689 109.602 6.83933 107.921L4.86328 107.612C4.42614 110.412 6.10759 113.065 9.28162 114.898L10.2816 113.166ZM28.5258 113.166C26.0565 114.591 22.7572 115.333 19.4037 115.333C16.0502 115.333 12.7509 114.591 10.2816 113.166L9.28162 114.898C12.1265 116.54 15.7922 117.333 19.4037 117.333C23.0152 117.333 26.6809 116.54 29.5258 114.898L28.5258 113.166ZM31.9852 108.909C31.8143 110.315 30.7723 111.869 28.5258 113.166L29.5258 114.898C32.1059 113.408 33.6986 111.388 33.9706 109.15L31.9852 108.909ZM33.0499 108.029H32.9779V110.029H33.0499V108.029ZM32.0499 99.412V109.029H34.0499V99.412H32.0499Z" fill="#0E2526" mask="url(#path-8-inside-1)"/>
<circle r="10.6106" transform="matrix(0.866025 0.5 -0.866025 0.5 19.4037 104.213)" fill="#EA9C77" stroke="#0E2526"/>
<circle r="10.6106" transform="matrix(0.866025 0.5 -0.866025 0.5 19.4037 98.6581)" fill="#F0BBA1" stroke="#0E2526"/>
<mask id="path-12-inside-2" fill="white">
<path fill-rule="evenodd" clip-rule="evenodd" d="M27.2332 78.0662H11.8745V97.0615C11.6771 98.3371 12.4239 99.6522 14.1151 100.629C17.1439 102.377 22.0545 102.377 25.0833 100.629C26.9482 99.5519 27.6648 98.0634 27.2332 96.6701V78.0662Z"/>
</mask>
<path fill-rule="evenodd" clip-rule="evenodd" d="M27.2332 78.0662H11.8745V97.0615C11.6771 98.3371 12.4239 99.6522 14.1151 100.629C17.1439 102.377 22.0545 102.377 25.0833 100.629C26.9482 99.5519 27.6648 98.0634 27.2332 96.6701V78.0662Z" fill="#F0BBA1"/>
<path d="M11.8745 78.0662V77.0662H10.8745V78.0662H11.8745ZM27.2332 78.0662H28.2332V77.0662H27.2332V78.0662ZM11.8745 97.0615L12.8627 97.2145L12.8745 97.1385V97.0615H11.8745ZM14.1151 100.629L13.6151 101.495L13.6151 101.495L14.1151 100.629ZM25.0833 100.629L25.5833 101.495L25.5833 101.495L25.0833 100.629ZM27.2332 96.6701H26.2332V96.8214L26.278 96.966L27.2332 96.6701ZM11.8745 79.0662H27.2332V77.0662H11.8745V79.0662ZM12.8745 97.0615V78.0662H10.8745V97.0615H12.8745ZM14.6151 99.7626C13.1278 98.9039 12.7518 97.9313 12.8627 97.2145L10.8862 96.9086C10.6024 98.7429 11.7201 100.401 13.6151 101.495L14.6151 99.7626ZM24.5833 99.7626C23.2567 100.529 21.455 100.94 19.5992 100.94C17.7434 100.94 15.9417 100.529 14.6151 99.7626L13.6151 101.495C15.3173 102.477 17.4853 102.94 19.5992 102.94C21.7131 102.94 23.8811 102.477 25.5833 101.495L24.5833 99.7626ZM26.278 96.966C26.5194 97.7452 26.2189 98.8183 24.5833 99.7626L25.5833 101.495C27.6775 100.286 28.8103 98.3816 28.1884 96.3742L26.278 96.966ZM26.2332 78.0662V96.6701H28.2332V78.0662H26.2332Z" fill="#0E2526" mask="url(#path-12-inside-2)"/>
<mask id="path-14-inside-3" fill="white">
<path fill-rule="evenodd" clip-rule="evenodd" d="M33.0499 66.5679H5.8513V74.9226C5.50152 77.1626 6.81162 79.4728 9.78162 81.1875C15.0958 84.2556 23.7117 84.2556 29.0258 81.1875C31.4391 79.7942 32.7564 78.0078 32.9779 76.1853H33.0499V66.5679Z"/>
</mask>
<path fill-rule="evenodd" clip-rule="evenodd" d="M33.0499 66.5679H5.8513V74.9226C5.50152 77.1626 6.81162 79.4728 9.78162 81.1875C15.0958 84.2556 23.7117 84.2556 29.0258 81.1875C31.4391 79.7942 32.7564 78.0078 32.9779 76.1853H33.0499V66.5679Z" fill="#EA9C77"/>
<path d="M5.8513 66.5679V65.5679H4.8513V66.5679H5.8513ZM33.0499 66.5679H34.0499V65.5679H33.0499V66.5679ZM5.8513 74.9226L6.83933 75.0769L6.8513 75.0002V74.9226H5.8513ZM9.78162 81.1875L9.28162 82.0536L9.28162 82.0536L9.78162 81.1875ZM29.0258 81.1875L28.5258 80.3215L28.5258 80.3215L29.0258 81.1875ZM32.9779 76.1853V75.1853H32.092L31.9852 76.0647L32.9779 76.1853ZM33.0499 76.1853V77.1853H34.0499V76.1853H33.0499ZM5.8513 67.5679H33.0499V65.5679H5.8513V67.5679ZM6.8513 74.9226V66.5679H4.8513V74.9226H6.8513ZM10.2816 80.3215C7.51565 78.7246 6.57689 76.7576 6.83933 75.0769L4.86328 74.7683C4.42614 77.5677 6.10759 80.221 9.28162 82.0536L10.2816 80.3215ZM28.5258 80.3215C26.0565 81.7471 22.7572 82.4886 19.4037 82.4886C16.0502 82.4886 12.7509 81.7471 10.2816 80.3215L9.28162 82.0536C12.1265 83.696 15.7922 84.4886 19.4037 84.4886C23.0152 84.4886 26.6809 83.696 29.5258 82.0536L28.5258 80.3215ZM31.9852 76.0647C31.8143 77.4713 30.7723 79.0245 28.5258 80.3215L29.5258 82.0536C32.1059 80.5639 33.6986 78.5443 33.9706 76.3059L31.9852 76.0647ZM33.0499 75.1853H32.9779V77.1853H33.0499V75.1853ZM32.0499 66.5679V76.1853H34.0499V66.5679H32.0499Z" fill="#0E2526" mask="url(#path-14-inside-3)"/>
<circle r="10.6106" transform="matrix(0.866025 0.5 -0.866025 0.5 19.4037 71.3685)" fill="#EA9C77" stroke="#0E2526"/>
<circle r="10.6106" transform="matrix(0.866025 0.5 -0.866025 0.5 19.4037 65.8139)" fill="#F0BBA1" stroke="#0E2526"/>
<path d="M6.00631 49.1002C7.61539 43.726 13.0703 40.6084 16.0951 38.8988L29.5091 44.0841L16.4145 64.5896C16.4145 64.5896 8.41484 60.697 7.11708 59.2371C5.81932 57.7771 4.93307 52.6848 6.00631 49.1002Z" fill="#F0BBA1" stroke="#0E2526"/>
<path d="M15.5367 64.1935L26 69.7368L84.9397 34.0398L87.453 17.6178L80.842 14.0406C80.842 14.0406 84.5712 9.30001 87.8339 7.81785C89.7155 6.96307 92.9379 6.69916 92.9379 6.69916C92.4599 6.29289 88.7878 4.07336 85.7358 2.35921C82.3007 0.429954 79.195 2.0769 77.5481 3.20622L14.2831 39.9405L23.3214 44.9271C21.1397 46.1392 16.0284 49.6628 15.1142 53.9014C14.1999 58.1401 15.0696 62.2369 15.5367 64.1935Z" fill="#F0BBA1" stroke="#0E2526"/>
<path d="M31.0499 51.6172C32.7555 50.6274 69.5912 28.8703 87.5425 18.3137V39.1679C71.1901 48.6682 37.8896 67.9865 35.5062 69.2576C32.5271 70.8465 25.9098 72.6396 23.5269 66.4618C21.7133 61.7599 23.5269 55.9833 31.0499 51.6172Z" fill="#EA9C77" stroke="#0E2526"/>
<path d="M87.6963 94.0284V28.4896C87.1101 19.6063 94.3102 13.1917 98.7986 12.2192C103.757 11.1448 105.48 15.305 105.48 16.116V84.9952C108.1 85.0403 113.726 87.389 114.476 94.0284C115.424 102.43 112.88 109.72 109.744 114.676C106.887 119.191 97.054 131.267 87.6963 131.025C80.136 130.829 77.6344 121.331 78.4141 114.246C79.3136 106.072 84.1081 97.5716 87.6963 94.0284Z" fill="#EA9C77" stroke="#0E2526"/>
</svg>
