<svg width="75" height="164" viewBox="0 0 75 164" fill="none" xmlns="http://www.w3.org/2000/svg">
<path fill-rule="evenodd" clip-rule="evenodd" d="M9.85599 1.03955L0.979614 6.19203V14.2014L10.1857 37.0123L10.1857 122.096L54.9561 147.945L60.1942 160.924L64.1083 163.207L73.7303 159.22V158.784L73.7439 158.792L73.7439 37.9265L10.6646 1.5076L9.85599 1.03955Z" fill="#859166"/>
<path d="M0.979614 6.19203L0.728603 5.7596L0.479614 5.90413V6.19203H0.979614ZM9.85599 1.03955L10.1065 0.606811L9.85563 0.461628L9.60498 0.607124L9.85599 1.03955ZM0.979614 14.2014H0.479614V14.2985L0.515951 14.3886L0.979614 14.2014ZM10.1857 37.0123L10.6857 37.0123L10.6857 36.9152L10.6493 36.8252L10.1857 37.0123ZM10.1857 122.096L9.68567 122.096L9.68567 122.385L9.93567 122.529L10.1857 122.096ZM54.9561 147.945L55.4197 147.758L55.3553 147.598L55.2061 147.512L54.9561 147.945ZM60.1942 160.924L59.7305 161.111L59.7945 161.269L59.9423 161.356L60.1942 160.924ZM64.1083 163.207L63.8563 163.639L64.0705 163.764L64.2996 163.669L64.1083 163.207ZM73.7303 159.22L73.9217 159.682L74.2303 159.554V159.22H73.7303ZM73.7303 158.784L73.9802 158.351L73.2303 157.918V158.784H73.7303ZM73.7439 158.792L73.4941 159.225L74.2439 159.657L74.2439 158.792L73.7439 158.792ZM73.7439 37.9265L74.2439 37.9265L74.2439 37.6378L73.9939 37.4934L73.7439 37.9265ZM10.6646 1.5076L10.4142 1.94034L10.4146 1.94061L10.6646 1.5076ZM1.23063 6.62445L10.107 1.47198L9.60498 0.607124L0.728603 5.7596L1.23063 6.62445ZM1.47961 14.2014V6.19203H0.479614V14.2014H1.47961ZM10.6493 36.8252L1.44328 14.0143L0.515951 14.3886L9.72201 37.1994L10.6493 36.8252ZM10.6857 122.096L10.6857 37.0123L9.68568 37.0123L9.68567 122.096L10.6857 122.096ZM55.2061 147.512L10.4357 121.663L9.93567 122.529L54.7061 148.378L55.2061 147.512ZM60.6579 160.737L55.4197 147.758L54.4924 148.132L59.7305 161.111L60.6579 160.737ZM64.3602 162.775L60.4461 160.492L59.9423 161.356L63.8563 163.639L64.3602 162.775ZM73.539 158.758L63.9169 162.745L64.2996 163.669L73.9217 159.682L73.539 158.758ZM73.2303 158.784V159.22H74.2303V158.784H73.2303ZM73.9938 158.359L73.9802 158.351L73.4805 159.217L73.4941 159.225L73.9938 158.359ZM73.2439 37.9265L73.2439 158.792L74.2439 158.792L74.2439 37.9265L73.2439 37.9265ZM10.4146 1.94061L73.4939 38.3595L73.9939 37.4934L10.9146 1.07459L10.4146 1.94061ZM9.60552 1.47229L10.4142 1.94034L10.9151 1.07486L10.1065 0.606811L9.60552 1.47229Z" fill="#0E2526"/>
<path d="M63.5243 42.9073L73.8099 37.9982" stroke="#0E2526"/>
<rect x="0.433013" y="0.75" width="72.3908" height="119.865" transform="matrix(0.866025 0.5 -2.20305e-08 1 0.608062 5.81795)" fill="#D5E3B1" stroke="#0E2526"/>
<rect x="0.433013" y="0.75" width="61.7842" height="114.393" transform="matrix(0.866025 0.5 -2.20305e-08 1 5.47549 14.1009)" fill="#B7C888" stroke="#0E2526"/>
<rect x="0.433013" y="0.75" width="19.4161" height="18.6231" transform="matrix(0.866025 0.5 -2.20305e-08 1 13.3339 27.8518)" fill="#B7C888" stroke="#0E2526"/>
<rect x="0.433013" y="0.75" width="19.4161" height="18.6231" transform="matrix(0.866025 0.5 -2.20305e-08 1 34.6621 40.0926)" fill="#B7C888" stroke="#0E2526"/>
<rect x="0.433013" y="0.75" width="19.4161" height="33.4656" transform="matrix(0.866025 0.5 -2.20305e-08 1 13.3339 52.3333)" fill="#B7C888" stroke="#0E2526"/>
<rect x="0.433013" y="0.75" width="19.4161" height="32.6971" transform="matrix(0.866025 0.5 -2.20305e-08 1 34.6621 64.5741)" fill="#B7C888" stroke="#0E2526"/>
<rect x="0.433013" y="0.75" width="19.4161" height="33.4656" transform="matrix(0.866025 0.5 -2.20305e-08 1 13.3339 90.7248)" fill="#B7C888" stroke="#0E2526"/>
<rect x="0.433013" y="0.75" width="19.4161" height="32.6971" transform="matrix(0.866025 0.5 -2.20305e-08 1 34.6621 102.966)" fill="#B7C888" stroke="#0E2526"/>
</svg>
