<svg width="124" height="158" viewBox="0 0 124 158" fill="none" xmlns="http://www.w3.org/2000/svg">
<path d="M60.5598 143.665L60.5598 137.73L68.4526 142.287L68.4526 156.807C68.4526 157.36 68.0648 157.583 67.5866 157.307L65.427 156.06L65.427 146.475L60.5598 143.665Z" fill="#F3E7C7" stroke="#0E2526"/>
<path d="M76.3365 143.664L76.3365 137.73L68.4437 142.287L68.4437 156.807C68.4437 157.36 68.8314 157.583 69.3097 157.307L71.4692 156.06L71.4692 146.475L76.3365 143.664Z" fill="#D7BC9B" stroke="#0E2526"/>
<path d="M7.21142 119.456L5.58826 119.178V105.522L11.1925 110.366V111.675L8.38048 113.633V118.471C8.38048 119.09 7.82235 119.561 7.21142 119.456Z" fill="#D7BC9B" stroke="#0E2526"/>
<path d="M2.7923 105.249L8.24112 108.49L8.24112 113.409L5.81788 112.132L5.81788 120.68C5.81788 121.232 5.43015 121.456 4.95186 121.18L2.7923 119.933L2.7923 110.347L2.7923 105.249Z" fill="#F3E7C7" stroke="#0E2526"/>
<path d="M117.384 127.81L119.007 127.532V113.876L113.403 118.72V120.029L116.215 121.987V126.825C116.215 127.444 116.773 127.915 117.384 127.81Z" fill="#D7BC9B" stroke="#0E2526"/>
<path d="M121.803 113.603L116.355 116.844L116.355 121.763L118.778 120.487L118.778 129.034C118.778 129.586 119.165 129.81 119.644 129.534L121.803 128.287L121.803 118.701L121.803 113.603Z" fill="#F3E7C7" stroke="#0E2526"/>
<mask id="path-7-inside-1" fill="white">
<path fill-rule="evenodd" clip-rule="evenodd" d="M13.8942 94.7957L1.74408 101.826L1.74408 70.8074L48.3634 43.8307C49.6976 42.3462 51.9421 42.1639 54.4859 43.6359C58.184 45.7759 61.2494 50.6798 61.8054 55.0938L61.8955 55.0417V87.7093L13.8942 114.543V94.7957Z"/>
</mask>
<path fill-rule="evenodd" clip-rule="evenodd" d="M13.8942 94.7957L1.74408 101.826L1.74408 70.8074L48.3634 43.8307C49.6976 42.3462 51.9421 42.1639 54.4859 43.6359C58.184 45.7759 61.2494 50.6798 61.8054 55.0938L61.8955 55.0417V87.7093L13.8942 114.543V94.7957Z" fill="#F0BBA1"/>
<path d="M13.8942 94.7957H14.8942V93.0617L13.3933 93.9301L13.8942 94.7957ZM1.74408 101.826L0.74408 101.826L0.74408 103.56L2.24493 102.692L1.74408 101.826ZM1.74408 70.8074L1.24323 69.9419L0.74408 70.2307L0.74408 70.8074L1.74408 70.8074ZM48.3634 43.8307L48.8642 44.6962L49.0013 44.6169L49.1071 44.4991L48.3634 43.8307ZM54.4859 43.6359L53.9851 44.5015L53.9851 44.5015L54.4859 43.6359ZM61.8054 55.0938L60.8133 55.2188L61.0017 56.7143L62.3063 55.9594L61.8054 55.0938ZM61.8955 55.0417H62.8955V53.3077L61.3947 54.1762L61.8955 55.0417ZM61.8955 87.7093L62.3835 88.5822L62.8955 88.2959V87.7093H61.8955ZM13.8942 114.543H12.8942V116.248L14.3821 115.416L13.8942 114.543ZM13.3933 93.9301L1.24323 100.961L2.24493 102.692L14.395 95.6612L13.3933 93.9301ZM2.74408 101.826L2.74408 70.8074L0.74408 70.8074L0.74408 101.826L2.74408 101.826ZM2.24493 71.6729L48.8642 44.6962L47.8625 42.9651L1.24323 69.9419L2.24493 71.6729ZM49.1071 44.4991C50.0058 43.4992 51.6729 43.1635 53.9851 44.5015L54.9867 42.7704C52.2112 41.1643 49.3894 41.1932 47.6196 43.1622L49.1071 44.4991ZM53.9851 44.5015C57.3872 46.4701 60.2925 51.0844 60.8133 55.2188L62.7976 54.9689C62.2063 50.2753 58.9809 45.0816 54.9867 42.7704L53.9851 44.5015ZM62.3063 55.9594L62.3964 55.9073L61.3947 54.1762L61.3046 54.2283L62.3063 55.9594ZM60.8955 55.0417V87.7093H62.8955V55.0417H60.8955ZM61.4076 86.8364L13.4062 113.67L14.3821 115.416L62.3835 88.5822L61.4076 86.8364ZM14.8942 114.543V94.7957H12.8942V114.543H14.8942Z" fill="#0E2526" mask="url(#path-7-inside-1)"/>
<path d="M14.3863 83.4143L14.3863 113.856C14.3863 114.132 14.1926 114.244 13.9535 114.106L0.865532 106.532C0.626522 106.394 0.432766 106.058 0.432766 105.782L0.432767 75.34C0.432767 70.8882 3.55638 69.0868 7.40954 71.3165C11.2627 73.5461 14.3863 78.9625 14.3863 83.4143Z" fill="#EA9C77" stroke="#0E2526"/>
<path fill-rule="evenodd" clip-rule="evenodd" d="M89.7977 15.5616C71.2459 4.82635 56.2066 13.4994 56.2066 34.9334V75.5008L114.264 109.096L111.372 109.858L115.949 119.044L123.42 114.846L123.389 113.763V73.8091C123.389 52.3751 108.35 26.2968 89.7977 15.5616Z" fill="#FCECE3"/>
<path d="M89.7977 15.5616L89.5473 15.9943L89.5473 15.9943L89.7977 15.5616ZM56.2066 75.5008H55.7066V75.7892L55.9562 75.9336L56.2066 75.5008ZM114.264 109.096L114.391 109.58L115.563 109.27L114.514 108.663L114.264 109.096ZM111.372 109.858L111.245 109.375L110.651 109.532L110.925 110.081L111.372 109.858ZM115.949 119.044L115.501 119.267L115.736 119.738L116.194 119.48L115.949 119.044ZM123.42 114.846L123.665 115.282L123.928 115.134L123.92 114.831L123.42 114.846ZM123.389 113.763H122.889V113.771L122.889 113.778L123.389 113.763ZM56.7066 34.9334C56.7066 24.3214 60.4257 17.0019 66.295 13.6172C72.1643 10.2324 80.3623 10.6793 89.5473 15.9943L90.0482 15.1288C80.6813 9.7086 72.0838 9.12444 65.7954 12.7509C59.5071 16.3773 55.7066 24.1114 55.7066 34.9334H56.7066ZM56.7066 75.5008V34.9334H55.7066V75.5008H56.7066ZM114.514 108.663L56.457 75.068L55.9562 75.9336L114.013 109.529L114.514 108.663ZM114.136 108.613L111.245 109.375L111.5 110.342L114.391 109.58L114.136 108.613ZM110.925 110.081L115.501 119.267L116.396 118.821L111.82 109.635L110.925 110.081ZM116.194 119.48L123.665 115.282L123.175 114.41L115.704 118.609L116.194 119.48ZM123.92 114.831L123.889 113.749L122.889 113.778L122.92 114.86L123.92 114.831ZM122.889 73.8091V113.763H123.889V73.8091H122.889ZM89.5473 15.9943C98.7295 21.3077 107.07 30.4382 113.117 40.9231C119.164 51.408 122.889 63.2004 122.889 73.8091H123.889C123.889 62.9838 120.094 51.02 113.983 40.4235C107.872 29.827 99.4179 20.5507 90.0482 15.1288L89.5473 15.9943Z" fill="#0E2526"/>
<path d="M115.964 78.1969L115.964 118.439L49.6092 80.1293L49.6092 39.8872C49.6092 18.7293 64.4632 10.1534 82.7864 20.7323C101.11 31.3112 115.964 57.039 115.964 78.1969Z" fill="#EA9C77" stroke="#0E2526"/>
<path d="M111.599 108.337L111.599 116.494L64.9191 143.506L14.6449 114.414L14.6449 106.348L111.599 108.337Z" fill="#EA9C77" stroke="#0E2526"/>
<path d="M111.599 101.371L111.599 109.527L64.9191 136.539L14.6449 107.448L14.6449 99.3818L111.599 101.371Z" fill="#EA9C77" stroke="#0E2526"/>
<rect x="-2.98023e-08" y="0.50085" width="57.7917" height="53.6393" transform="matrix(0.865534 0.50085 -0.865534 0.50085 61.7585 71.9053)" fill="#FCECE3" stroke="#0E2526"/>
<mask id="path-16-inside-2" fill="white">
<path fill-rule="evenodd" clip-rule="evenodd" d="M68.3807 126.438L56.2306 133.469L56.2306 102.45L102.85 75.4733C104.184 73.9889 106.429 73.8065 108.972 75.2786C112.671 77.4185 115.736 82.3225 116.292 86.7365L116.382 86.6844V119.352L68.3807 146.186V126.438Z"/>
</mask>
<path fill-rule="evenodd" clip-rule="evenodd" d="M68.3807 126.438L56.2306 133.469L56.2306 102.45L102.85 75.4733C104.184 73.9889 106.429 73.8065 108.972 75.2786C112.671 77.4185 115.736 82.3225 116.292 86.7365L116.382 86.6844V119.352L68.3807 146.186V126.438Z" fill="#F0BBA1"/>
<path d="M68.3807 126.438H69.3807V124.704L67.8798 125.573L68.3807 126.438ZM56.2306 133.469L55.2306 133.469L55.2306 135.203L56.7314 134.335L56.2306 133.469ZM56.2306 102.45L55.7297 101.584L55.2306 101.873L55.2306 102.45L56.2306 102.45ZM102.85 75.4733L103.351 76.3388L103.488 76.2595L103.594 76.1418L102.85 75.4733ZM108.972 75.2786L108.472 76.1441L108.472 76.1441L108.972 75.2786ZM116.292 86.7365L115.3 86.8615L115.488 88.357L116.793 87.602L116.292 86.7365ZM116.382 86.6844H117.382V84.9503L115.881 85.8188L116.382 86.6844ZM116.382 119.352L116.87 120.225L117.382 119.939V119.352H116.382ZM68.3807 146.186H67.3807V147.89L68.8686 147.058L68.3807 146.186ZM67.8798 125.573L55.7297 132.604L56.7314 134.335L68.8815 127.304L67.8798 125.573ZM57.2306 133.469L57.2306 102.45L55.2306 102.45L55.2306 133.469L57.2306 133.469ZM56.7314 103.316L103.351 76.3388L102.349 74.6078L55.7297 101.584L56.7314 103.316ZM103.594 76.1418C104.492 75.1419 106.159 74.8062 108.472 76.1441L109.473 74.413C106.698 72.8069 103.876 72.8359 102.106 74.8048L103.594 76.1418ZM108.472 76.1441C111.874 78.1128 114.779 82.7271 115.3 86.8615L117.284 86.6115C116.693 81.9179 113.467 76.7243 109.473 74.413L108.472 76.1441ZM116.793 87.602L116.883 87.5499L115.881 85.8188L115.791 85.871L116.793 87.602ZM115.382 86.6844V119.352H117.382V86.6844H115.382ZM115.894 118.479L67.8927 145.313L68.8686 147.058L116.87 120.225L115.894 118.479ZM69.3807 146.186V126.438H67.3807V146.186H69.3807Z" fill="#0E2526" mask="url(#path-16-inside-2)"/>
<path d="M68.8728 115.057L68.8728 145.499C68.8728 145.775 68.679 145.887 68.44 145.748L55.352 138.175C55.113 138.037 54.9192 137.701 54.9192 137.424L54.9192 106.983C54.9192 102.531 58.0428 100.729 61.896 102.959C65.7492 105.189 68.8728 110.605 68.8728 115.057Z" fill="#EA9C77" stroke="#0E2526"/>
</svg>
