<svg width="145" height="120" viewBox="0 0 145 120" fill="none" xmlns="http://www.w3.org/2000/svg">
<path d="M134.122 3.32966C135.086 4.8808 135.363 15.3734 134.961 20.0453L100.225 25.2606L81.8621 8.2537C85.3978 7.6264 93.6211 6.5999 98.2289 7.51234C103.989 8.65289 113.455 7.05612 115.622 6.88504C117.789 6.71396 124.69 1.92366 127.769 1.06825C130.849 0.212845 132.917 1.39072 134.122 3.32966Z" fill="#366866" stroke="#0E2526"/>
<path d="M1.12512 88.8375V98.2902L3.57583 104.463L21.4357 112.691L47.7239 109.079L131.835 60.3152L143.783 47.3653V39.8275C143.783 34.8558 142.592 28.4348 141.229 26.8311C139.865 25.2273 138.079 22.3893 138.334 15.6477C138.539 10.2544 135.623 5.13552 134.193 3.50119C134.244 3.80762 134.657 5.53653 134.657 7.12318C134.657 9.41142 134.275 12.4806 131.962 15.6477C129.65 18.8149 121.926 20.1253 118.973 18.6217C116.314 17.2681 108.801 15.7471 104.87 16.3092C98.0841 17.2793 94.7071 15.1104 90.4918 11.2754C86.9758 8.07665 86.2169 3.20359 85.5571 1.45798C84.8973 -0.287626 82.8217 1.63794 82.4303 3.20359C82.1171 4.45611 68.2919 19.8243 61.4185 27.3519C52.2212 39.2743 36.6369 54.7734 33.0602 57.4985C31 59.0682 13.7288 70.8687 7.51213 76.4041C1.29544 81.9395 1.12512 87.7304 1.12512 88.8375Z" fill="#739777" stroke="#0E2526"/>
<path d="M1.16102 105.623C0.881396 102.871 1.16103 98.3112 1.16103 98.3112C4.04065 101.292 12.6492 107.836 24.0464 108.2C38.293 108.655 47.9928 102.592 53.752 100.319C59.5113 98.0454 77.3952 86.5269 84.6701 82.4348C91.9449 78.3427 112.102 66.5211 121.044 62.1259C128.198 58.6097 139.282 49.6475 143.93 45.606C143.98 49.1423 144.051 56.7607 143.93 58.9432C143.778 61.6712 128.774 70.6132 124.682 72.8866C120.59 75.16 85.8826 95.1658 79.5171 98.8032C73.1516 102.441 54.3583 117.9 31.0182 119.264C12.3461 120.355 1.44064 108.375 1.16102 105.623Z" fill="white" stroke="#0E2526"/>
<path d="M82.4489 6.66375C82.1137 4.85357 82.4686 2.69794 83.3587 1.59123C83.7091 1.1556 84.4554 0.652618 84.8018 0.71036C85.2349 0.782537 85.7307 1.47446 86.9946 5.6394C88.1741 9.52603 93.2033 13.6017 95.104 14.8046C93.3444 14.1099 89.0527 13.3011 87.7789 12.7312C84.641 11.3274 82.8566 8.86497 82.4489 6.66375Z" fill="#739777" stroke="#0E2526"/>
<path d="M109.012 16.2995C104.378 16.6191 100.028 20.0259 97.986 22.6516C95.4332 25.9338 73.8397 54.4073 69.109 61.0261C64.9392 66.8603 57.5467 72.3854 50.962 72.7885C44.3774 73.1917 38.8678 69.9665 36.0458 65.1289C33.7882 61.2587 34.1645 57.1556 35.1051 56.3941" stroke="#0E2526"/>
<path d="M75.2021 44.6059L63.5706 25.2607L61.5842 27.4549L72.4542 48.5062L75.2021 44.6059Z" fill="white" stroke="#0E2526"/>
<path d="M67.0619 55.4594L54.1744 36.0752L52.188 38.2694L63.9592 59.2086L67.0619 55.4594Z" fill="white" stroke="#0E2526"/>
<path d="M57.531 63.9469L45.5773 45.606L43.5909 47.8002L53.2936 65.4141C53.2936 65.4141 54.5688 65.1389 55.3829 64.8605C56.2324 64.57 57.531 63.9469 57.531 63.9469Z" fill="white" stroke="#0E2526"/>
<path d="M65.8218 22.5888L89.7728 25.1473L87.2591 28.5402L63.9086 24.6489L65.8218 22.5888Z" fill="white" stroke="#0E2526"/>
<path d="M57.7033 32.3428L82.2408 35.3071L79.9353 38.5184L55.7272 34.4425L57.7033 32.3428Z" fill="white" stroke="#0E2526"/>
<path d="M48.0414 42.8849L74.2727 46.0307L71.2955 49.8291L45.8741 45.0798L48.0414 42.8849Z" fill="white" stroke="#0E2526"/>
<path d="M39.5132 53.5654L65.985 56.7851C65.985 56.7851 65.2079 57.9047 64.5466 58.655C63.936 59.3478 62.7487 60.4889 62.7487 60.4889L39.403 56.099C39.403 56.099 39.323 55.2925 39.323 54.7931C39.323 54.3243 39.5132 53.5654 39.5132 53.5654Z" fill="white" stroke="#0E2526"/>
<path d="M83.8436 33.1698L72.524 15.0239L70.5376 17.2182L81.1202 36.827L83.8436 33.1698Z" fill="white" stroke="#0E2526"/>
<path d="M101.274 16.5527C96.6394 16.8723 93.2857 20.5774 91.2435 23.2031C88.6907 26.4853 68.7118 54.2086 63.1591 60.1547C58.3202 65.3365 50.3967 66.2412 48.3495 65.8553C41.1797 64.5036 37.4545 56.8622 40.2845 50.9327" stroke="#0E2526"/>
<path d="M68.9741 61.5219L86.4495 81.0568" stroke="#0E2526"/>
<path d="M91.0254 31.4758L120.923 62.1815" stroke="#0E2526"/>
<path d="M61.1661 69.1712C62.2371 70.51 64.2535 73.3009 62.751 76.9247C61.7006 79.458 55.1374 89.4802 37.0331 93.8672C18.9288 98.2543 9.33613 95.5324 6.42079 90.8593C4.70299 88.1057 4.38911 84.1484 5.82554 80.9335C6.69717 78.9828 9.07706 75.4251 10.2717 74.1276" stroke="#0E2526"/>
<path d="M123.36 19.3878C123.36 19.3878 125.942 23.0479 128.664 24.377C131.433 25.729 135.629 25.5971 137.747 26.204C142.628 27.6032 143.049 32.4132 143.049 32.4132" stroke="#0E2526"/>
</svg>
