<svg width="112" height="136" viewBox="0 0 112 136" fill="none" xmlns="http://www.w3.org/2000/svg">
<path fill-rule="evenodd" clip-rule="evenodd" d="M94.896 118.861C104.464 115.142 110.55 104.765 110.55 89.2329C110.55 61.4028 91.0119 27.5618 66.9104 13.6467C53.8359 6.09817 42.1043 5.96412 34.1062 11.8644L13.7231 23.5937L23.285 40.1545C23.8745 67.2903 42.5789 99.6857 65.7849 113.762L74.8492 129.461L94.896 118.861Z" fill="#4D4D4D"/>
<path d="M94.896 118.861L94.7148 118.395L94.6878 118.406L94.6622 118.419L94.896 118.861ZM66.9104 13.6467L66.6604 14.0798L66.6604 14.0798L66.9104 13.6467ZM34.1062 11.8644L34.3555 12.2977L34.3801 12.2836L34.403 12.2667L34.1062 11.8644ZM13.7231 23.5937L13.4738 23.1604L13.0398 23.4101L13.2901 23.8438L13.7231 23.5937ZM23.285 40.1545L23.7849 40.1436L23.7821 40.0154L23.7181 39.9044L23.285 40.1545ZM65.7849 113.762L66.2179 113.512L66.1538 113.401L66.0442 113.335L65.7849 113.762ZM74.8492 129.461L74.4162 129.711L74.657 130.128L75.0829 129.903L74.8492 129.461ZM110.05 89.2329C110.05 104.647 104.02 114.778 94.7148 118.395L95.0771 119.327C104.909 115.506 111.05 104.883 111.05 89.2329H110.05ZM66.6604 14.0798C78.6172 20.9831 89.4703 32.8491 97.3353 46.4717C105.2 60.0942 110.05 75.4263 110.05 89.2329H111.05C111.05 75.2094 106.131 59.7059 98.2013 45.9717C90.2718 32.2374 79.305 20.2255 67.1604 13.2137L66.6604 14.0798ZM34.403 12.2667C42.1825 6.52771 53.6847 6.58822 66.6604 14.0798L67.1604 13.2137C53.9871 5.60812 42.026 5.40053 33.8093 11.462L34.403 12.2667ZM13.9725 24.0271L34.3555 12.2977L33.8568 11.431L13.4738 23.1604L13.9725 24.0271ZM23.7181 39.9044L14.1562 23.3437L13.2901 23.8438L22.852 40.4045L23.7181 39.9044ZM66.0442 113.335C54.5291 106.35 44.1057 94.8012 36.4868 81.6055C28.8678 68.4099 24.0774 53.6088 23.7849 40.1436L22.7852 40.1653C23.0821 53.836 27.9386 68.8005 35.6208 82.1055C43.3029 95.4106 53.8347 107.098 65.5256 114.19L66.0442 113.335ZM75.2822 129.211L66.2179 113.512L65.3519 114.012L74.4162 129.711L75.2822 129.211ZM94.6622 118.419L74.6155 129.019L75.0829 129.903L95.1297 119.303L94.6622 118.419Z" fill="#0E2526"/>
<mask id="mask0" mask-type="alpha" maskUnits="userSpaceOnUse" x="13" y="7" width="99" height="124">
<path fill-rule="evenodd" clip-rule="evenodd" d="M94.896 118.861C104.464 115.142 110.55 104.765 110.55 89.2329C110.55 61.4028 91.0119 27.5618 66.9104 13.6467C53.8359 6.09817 42.1043 5.96412 34.1062 11.8644L13.7231 23.5937L23.285 40.1545C23.8745 67.2903 42.5789 99.6857 65.7849 113.762L74.8492 129.461L94.896 118.861Z" fill="#4D4D4D"/>
<path d="M94.896 118.861L94.7148 118.395L94.6878 118.406L94.6622 118.419L94.896 118.861ZM66.9104 13.6467L66.6604 14.0798L66.6604 14.0798L66.9104 13.6467ZM34.1062 11.8644L34.3555 12.2977L34.3801 12.2836L34.403 12.2667L34.1062 11.8644ZM13.7231 23.5937L13.4738 23.1604L13.0398 23.4101L13.2901 23.8438L13.7231 23.5937ZM23.285 40.1545L23.7849 40.1436L23.7821 40.0154L23.7181 39.9044L23.285 40.1545ZM65.7849 113.762L66.2179 113.512L66.1538 113.401L66.0442 113.335L65.7849 113.762ZM74.8492 129.461L74.4162 129.711L74.657 130.128L75.0829 129.903L74.8492 129.461ZM110.05 89.2329C110.05 104.647 104.02 114.778 94.7148 118.395L95.0771 119.327C104.909 115.506 111.05 104.883 111.05 89.2329H110.05ZM66.6604 14.0798C78.6172 20.9831 89.4703 32.8491 97.3353 46.4717C105.2 60.0942 110.05 75.4263 110.05 89.2329H111.05C111.05 75.2094 106.131 59.7059 98.2013 45.9717C90.2718 32.2374 79.305 20.2255 67.1604 13.2137L66.6604 14.0798ZM34.403 12.2667C42.1825 6.52771 53.6847 6.58822 66.6604 14.0798L67.1604 13.2137C53.9871 5.60812 42.026 5.40053 33.8093 11.462L34.403 12.2667ZM13.9725 24.0271L34.3555 12.2977L33.8568 11.431L13.4738 23.1604L13.9725 24.0271ZM23.7181 39.9044L14.1562 23.3437L13.2901 23.8438L22.852 40.4045L23.7181 39.9044ZM66.0442 113.335C54.5291 106.35 44.1057 94.8012 36.4868 81.6055C28.8678 68.4099 24.0774 53.6088 23.7849 40.1436L22.7852 40.1653C23.0821 53.836 27.9386 68.8005 35.6208 82.1055C43.3029 95.4106 53.8347 107.098 65.5256 114.19L66.0442 113.335ZM75.2822 129.211L66.2179 113.512L65.3519 114.012L74.4162 129.711L75.2822 129.211ZM94.6622 118.419L74.6155 129.019L75.0829 129.903L95.1297 119.303L94.6622 118.419Z" fill="#0E2526"/>
</mask>
<g mask="url(#mask0)">
<path d="M67.266 131.003L115.296 105.797" stroke="#0E2526"/>
<path d="M67.1256 128.482L115.156 103.277" stroke="#0E2526"/>
<path d="M67.1256 124.981L115.156 99.776" stroke="#0E2526"/>
<path d="M67.4059 120.64L115.436 95.435" stroke="#0E2526"/>
<path d="M68.9463 115.179L116.976 89.9739" stroke="#0E2526"/>
<path d="M68.9463 109.882L116.976 84.6767" stroke="#0E2526"/>
<path d="M69.0862 104.981L117.116 79.7756" stroke="#0E2526"/>
<path d="M68.8064 98.5396L116.836 73.3343" stroke="#0E2526"/>
<path d="M67.8261 91.7354L115.856 66.5301" stroke="#0E2526"/>
<path d="M66.4257 84.8739L114.456 59.6686" stroke="#0E2526"/>
<path d="M64.8853 77.4524L112.915 52.2471" stroke="#0E2526"/>
<path d="M62.5198 70.59L110.55 45.3847" stroke="#0E2526"/>
<path d="M59.5849 62.83L107.615 37.6247" stroke="#0E2526"/>
<path d="M56.0839 55.9685L104.114 30.7632" stroke="#0E2526"/>
<path d="M52.1631 49.9242L100.193 24.7189" stroke="#0E2526"/>
<path d="M47.9625 44.1485L95.9926 18.9432" stroke="#0E2526"/>
<path d="M42.3611 39.1404L90.3912 13.9352" stroke="#0E2526"/>
<path d="M35.5698 33.9246L83.5999 8.71927" stroke="#0E2526"/>
<path d="M30.8247 29.8637L78.8548 4.65839" stroke="#0E2526"/>
<path d="M26.0636 27.0631L74.0937 1.85785" stroke="#0E2526"/>
<path d="M21.4429 24.5368L69.473 -0.668472" stroke="#0E2526"/>
<path d="M17.8019 23.4166L65.832 -1.78868" stroke="#0E2526"/>
<path d="M14.1063 22.4364L62.1364 -2.76888" stroke="#0E2526"/>
</g>
<path d="M20.3077 20.3429C28.2981 13.0286 40.9195 12.6174 55.1219 20.8172C79.2789 34.7642 98.8621 68.3422 98.8621 95.8155C98.8621 111.259 92.6739 121.487 82.9636 125.004" stroke="#0E2526"/>
<path d="M86.8994 101.896C86.8994 115.706 82.0557 125.276 74.3677 129.715C66.6797 134.154 55.9694 133.563 44.0098 126.658C32.0529 119.755 21.1999 107.889 13.3349 94.2664C5.46992 80.6438 0.620117 65.3118 0.620117 51.5052C0.620117 37.6953 5.46388 28.1248 13.1519 23.6861C20.8399 19.2474 31.5501 19.8379 43.5098 26.7428C55.4666 33.6461 66.3197 45.5122 74.1847 59.1347C82.0496 72.7573 86.8994 88.0893 86.8994 101.896Z" fill="#838383" stroke="#0E2526"/>
<path d="M80.3299 98.2267C80.3299 110.036 76.1884 118.201 69.6357 121.984C63.0831 125.767 53.9413 125.271 43.7141 119.367C33.4898 113.464 24.2052 103.314 17.4756 91.658C10.746 80.002 6.59839 66.8865 6.59839 55.0804C6.59839 43.2711 10.7399 35.1062 17.2926 31.323C23.8452 27.5398 32.987 28.0356 43.2142 33.9403C53.4385 39.8433 62.7231 49.993 69.4527 61.649C76.1823 73.3051 80.3299 86.4206 80.3299 98.2267Z" fill="#838383" stroke="#0E2526"/>
<path d="M77.9231 96.9173C77.9231 107.981 74.0431 115.623 67.9135 119.162C61.7838 122.701 53.2263 122.24 43.6446 116.708C34.0656 111.178 25.3654 101.667 19.0587 90.7439C12.7521 79.8205 8.86609 67.5307 8.86609 56.4699C8.86609 45.4058 12.746 37.7646 18.8757 34.2257C25.0054 30.6867 33.5628 31.1472 43.1446 36.6792C52.7235 42.2096 61.4238 51.7199 67.7304 62.6433C74.0371 73.5667 77.9231 85.8565 77.9231 96.9173Z" fill="#D1D1D1" stroke="#0E2526"/>
<mask id="mask1" mask-type="alpha" maskUnits="userSpaceOnUse" x="9" y="32" width="69" height="89">
<circle r="39.0749" transform="matrix(0.866025 0.5 -2.20305e-08 1 43.3149 76.5552)" fill="#D1D1D1" stroke="#0E2526"/>
</mask>
<g mask="url(#mask1)">
<path d="M51.0399 66.3366C51.1486 64.9234 55.0711 50.4385 56.611 44.3239L48.73 35.2199C47.1447 42.6027 43.8654 57.8576 43.4306 59.8143C42.8871 62.2601 38.8107 62.2601 37.0442 62.1243C35.6311 62.0156 19.2439 44.1427 11.2269 35.2199L8.50928 44.3239C15.5298 52.0238 29.9784 67.8856 31.609 69.7336C33.6472 72.0436 33.7831 74.4894 33.1037 76.5276C32.5602 78.1582 19.3797 85.2693 12.8575 88.621L16.6621 98.5403C20.195 95.7321 27.5869 90.6864 31.609 88.621C36.6366 86.0393 40.148 85.017 42.0718 87.534C43.4306 89.3116 49.5453 112.672 52.8064 124.765H63.4051C60.0987 114.937 53.4858 94.6269 53.4858 92.018C53.4858 87.534 57.9948 86.7685 59.7363 87.534C61.2395 88.1947 76.2232 94.0562 83.5154 97.3174L85.0101 87.534C76.5855 84.2275 59.3364 77.3287 56.184 75.8068C52.2434 73.9045 50.8096 69.3314 51.0399 66.3366Z" fill="#E4E4E4" stroke="#0E2526"/>
</g>
<circle r="5.68892" transform="matrix(0.866025 0.5 -2.20305e-08 1 43.3948 76.6536)" fill="#D1D1D1" stroke="#0E2526"/>
</svg>
