<svg width="76" height="177" viewBox="0 0 76 177" fill="none" xmlns="http://www.w3.org/2000/svg">
<mask id="path-1-inside-1" fill="white">
<path fill-rule="evenodd" clip-rule="evenodd" d="M47.8021 172.495C47.034 172.223 46.5427 171.411 46.5427 170.182C46.5427 168.025 48.0568 165.403 49.9245 164.325C51.0071 163.7 51.9708 163.731 52.5898 164.287L55.5135 165.989L50.8894 174.302L47.8021 172.495Z"/>
</mask>
<path fill-rule="evenodd" clip-rule="evenodd" d="M47.8021 172.495C47.034 172.223 46.5427 171.411 46.5427 170.182C46.5427 168.025 48.0568 165.403 49.9245 164.325C51.0071 163.7 51.9708 163.731 52.5898 164.287L55.5135 165.989L50.8894 174.302L47.8021 172.495Z" fill="#878787"/>
<path d="M47.8021 172.495L48.3071 171.632L48.2255 171.584L48.1363 171.553L47.8021 172.495ZM49.9245 164.325L49.4245 163.459L49.4245 163.459L49.9245 164.325ZM52.5898 164.287L51.9213 165.031L51.9978 165.099L52.0866 165.151L52.5898 164.287ZM55.5135 165.989L56.3873 166.475L56.864 165.619L56.0166 165.125L55.5135 165.989ZM50.8894 174.302L50.3844 175.165L51.2665 175.681L51.7633 174.788L50.8894 174.302ZM48.1363 171.553C47.9158 171.475 47.5427 171.17 47.5427 170.182H45.5427C45.5427 171.651 46.1522 172.971 47.4678 173.438L48.1363 171.553ZM47.5427 170.182C47.5427 169.321 47.8518 168.297 48.3993 167.349C48.9467 166.401 49.6785 165.621 50.4245 165.191L49.4245 163.459C48.3029 164.106 47.3437 165.177 46.6672 166.349C45.9907 167.521 45.5427 168.887 45.5427 170.182H47.5427ZM50.4245 165.191C51.2944 164.688 51.7446 164.872 51.9213 165.031L53.2583 163.543C52.197 162.589 50.7197 162.711 49.4245 163.459L50.4245 165.191ZM52.0866 165.151L55.0103 166.853L56.0166 165.125L53.093 163.423L52.0866 165.151ZM54.6396 165.503L50.0155 173.816L51.7633 174.788L56.3873 166.475L54.6396 165.503ZM51.3945 173.439L48.3071 171.632L47.297 173.358L50.3844 175.165L51.3945 173.439Z" fill="#0E2526" mask="url(#path-1-inside-1)"/>
<circle r="3.40499" transform="matrix(0.866025 -0.5 2.20305e-08 1 53.3061 170.182)" fill="#505050" stroke="#0E2526"/>
<mask id="path-4-inside-2" fill="white">
<path fill-rule="evenodd" clip-rule="evenodd" d="M5.59686 150.862C4.82879 150.59 4.33752 149.777 4.33752 148.549C4.33752 146.392 5.85162 143.77 7.71934 142.691C8.80188 142.066 9.76561 142.097 10.3846 142.654L13.3083 144.356L8.68422 152.669L5.59686 150.862Z"/>
</mask>
<path fill-rule="evenodd" clip-rule="evenodd" d="M5.59686 150.862C4.82879 150.59 4.33752 149.777 4.33752 148.549C4.33752 146.392 5.85162 143.77 7.71934 142.691C8.80188 142.066 9.76561 142.097 10.3846 142.654L13.3083 144.356L8.68422 152.669L5.59686 150.862Z" fill="#878787"/>
<path d="M5.59686 150.862L6.1019 149.999L6.02026 149.951L5.93111 149.92L5.59686 150.862ZM7.71934 142.691L8.21934 143.557L8.21934 143.557L7.71934 142.691ZM10.3846 142.654L9.71611 143.397L9.79257 143.466L9.88141 143.518L10.3846 142.654ZM13.3083 144.356L14.1821 144.842L14.6588 143.985L13.8114 143.492L13.3083 144.356ZM8.68422 152.669L8.17918 153.532L9.06128 154.048L9.55811 153.155L8.68422 152.669ZM5.93111 149.92C5.71064 149.841 5.33752 149.537 5.33752 148.549H3.33752C3.33752 150.018 3.94695 151.338 5.26261 151.805L5.93111 149.92ZM5.33752 148.549C5.33752 147.687 5.64658 146.664 6.19406 145.716C6.74154 144.767 7.47327 143.988 8.21934 143.557L7.21934 141.825C6.09769 142.473 5.13851 143.544 4.46201 144.716C3.78551 145.887 3.33752 147.254 3.33752 148.549H5.33752ZM8.21934 143.557C9.08923 143.055 9.53942 143.239 9.71611 143.397L11.0531 141.91C9.9918 140.956 8.51452 141.078 7.21934 141.825L8.21934 143.557ZM9.88141 143.518L12.8051 145.22L13.8114 143.492L10.8878 141.789L9.88141 143.518ZM12.4344 143.87L7.81032 152.182L9.55811 153.155L14.1821 144.842L12.4344 143.87ZM9.18926 151.806L6.1019 149.999L5.09182 151.725L8.17918 153.532L9.18926 151.806Z" fill="#0E2526" mask="url(#path-4-inside-2)"/>
<circle r="3.40499" transform="matrix(0.866025 -0.5 2.20305e-08 1 11.1009 148.549)" fill="#505050" stroke="#0E2526"/>
<mask id="path-7-inside-3" fill="white">
<path fill-rule="evenodd" clip-rule="evenodd" d="M65.7017 162.056C64.9337 161.784 64.4424 160.971 64.4424 159.743C64.4424 157.586 65.9565 154.964 67.8242 153.885C68.9067 153.26 69.8705 153.291 70.4895 153.848L73.4131 155.55L68.7891 163.863L65.7017 162.056Z"/>
</mask>
<path fill-rule="evenodd" clip-rule="evenodd" d="M65.7017 162.056C64.9337 161.784 64.4424 160.971 64.4424 159.743C64.4424 157.586 65.9565 154.964 67.8242 153.885C68.9067 153.26 69.8705 153.291 70.4895 153.848L73.4131 155.55L68.7891 163.863L65.7017 162.056Z" fill="#878787"/>
<path d="M65.7017 162.056L66.2068 161.193L66.1251 161.145L66.036 161.114L65.7017 162.056ZM64.4424 159.743L65.4424 159.743L64.4424 159.743ZM67.8242 153.885L68.3242 154.751L68.3242 154.751L67.8242 153.885ZM70.4895 153.848L69.821 154.591L69.8974 154.66L69.9863 154.712L70.4895 153.848ZM73.4131 155.55L74.287 156.036L74.7637 155.179L73.9163 154.686L73.4131 155.55ZM68.7891 163.863L68.284 164.726L69.1661 165.242L69.663 164.349L68.7891 163.863ZM66.036 161.114C65.8155 161.035 65.4424 160.731 65.4424 159.743L63.4424 159.743C63.4424 161.212 64.0518 162.532 65.3675 162.999L66.036 161.114ZM65.4424 159.743C65.4424 158.881 65.7514 157.858 66.2989 156.91C66.8464 155.962 67.5781 155.182 68.3242 154.751L67.3242 153.019C66.2025 153.667 65.2434 154.738 64.5669 155.91C63.8904 157.082 63.4424 158.448 63.4424 159.743L65.4424 159.743ZM68.3242 154.751C69.1941 154.249 69.6443 154.433 69.821 154.591L71.1579 153.104C70.0967 152.15 68.6194 152.272 67.3242 153.019L68.3242 154.751ZM69.9863 154.712L72.9099 156.414L73.9163 154.686L70.9926 152.984L69.9863 154.712ZM72.5392 155.064L67.9152 163.377L69.663 164.349L74.287 156.036L72.5392 155.064ZM69.2941 163L66.2068 161.193L65.1967 162.919L68.284 164.726L69.2941 163Z" fill="#0E2526" mask="url(#path-7-inside-3)"/>
<circle r="3.40499" transform="matrix(0.866025 -0.5 2.20305e-08 1 71.2058 159.743)" fill="#505050" stroke="#0E2526"/>
<path fill-rule="evenodd" clip-rule="evenodd" d="M26.408 117.42L1.79468 59.9346L26.8984 47.2369L26.923 47.2926C27.3968 46.8336 28.1534 46.7962 29.006 47.2885L72.7386 72.5375C74.1734 73.3659 75.3366 75.3806 75.3366 77.0375V153.962C75.3366 154.633 75.1456 155.143 74.8229 155.456L74.8297 155.472L74.7743 155.501C74.6302 155.627 74.4624 155.717 74.2755 155.768L48.6889 169.458L32.831 132.421L29.006 130.213C27.5712 129.384 26.408 127.37 26.408 125.713V117.42Z" fill="#739777"/>
<path d="M1.79468 59.9346L1.569 59.4884L1.15039 59.7002L1.33504 60.1314L1.79468 59.9346ZM26.408 117.42H26.908V117.317L26.8676 117.223L26.408 117.42ZM26.8984 47.2369L27.3556 47.0344L27.1424 46.5531L26.6727 46.7907L26.8984 47.2369ZM26.923 47.2926L26.4659 47.495L26.7561 48.1505L27.271 47.6517L26.923 47.2926ZM29.006 47.2885L28.756 47.7215L28.756 47.7215L29.006 47.2885ZM72.7386 72.5375L72.9886 72.1045L72.9886 72.1045L72.7386 72.5375ZM74.8229 155.456L74.4745 155.098L74.2247 155.34L74.3657 155.659L74.8229 155.456ZM74.8297 155.472L75.0655 155.912L75.4748 155.693L75.2868 155.269L74.8297 155.472ZM74.7743 155.501L74.5384 155.06L74.4878 155.087L74.4447 155.125L74.7743 155.501ZM74.2755 155.768L74.1446 155.285L74.0898 155.3L74.0396 155.327L74.2755 155.768ZM48.6889 169.458L48.2292 169.654L48.4439 170.156L48.9247 169.898L48.6889 169.458ZM32.831 132.421L33.2907 132.224L33.2252 132.071L33.081 131.988L32.831 132.421ZM29.006 130.213L29.256 129.78L29.256 129.78L29.006 130.213ZM1.33504 60.1314L25.9483 117.617L26.8676 117.223L2.25432 59.7378L1.33504 60.1314ZM26.6727 46.7907L1.569 59.4884L2.02036 60.3808L27.1241 47.6831L26.6727 46.7907ZM27.3802 47.0901L27.3556 47.0344L26.4412 47.4394L26.4659 47.495L27.3802 47.0901ZM27.271 47.6517C27.524 47.4065 28.013 47.2925 28.756 47.7215L29.256 46.8555C28.2939 46.3 27.2695 46.2607 26.5751 46.9335L27.271 47.6517ZM28.756 47.7215L72.4886 72.9705L72.9886 72.1045L29.256 46.8555L28.756 47.7215ZM72.4886 72.9705C73.1121 73.3305 73.7048 73.9683 74.1427 74.7268C74.5806 75.4853 74.8366 76.3175 74.8366 77.0375H75.8366C75.8366 76.1006 75.5111 75.097 75.0087 74.2268C74.5063 73.3566 73.7999 72.5729 72.9886 72.1045L72.4886 72.9705ZM74.8366 77.0375V153.962H75.8366V77.0375H74.8366ZM74.8366 153.962C74.8366 154.546 74.6706 154.907 74.4745 155.098L75.1713 155.815C75.6206 155.378 75.8366 154.72 75.8366 153.962H74.8366ZM75.2868 155.269L75.2801 155.254L74.3657 155.659L74.3725 155.674L75.2868 155.269ZM75.0101 155.942L75.0655 155.912L74.5938 155.031L74.5384 155.06L75.0101 155.942ZM74.4447 155.125C74.3583 155.201 74.2586 155.255 74.1446 155.285L74.4064 156.251C74.6661 156.18 74.902 156.054 75.1039 155.877L74.4447 155.125ZM48.9247 169.898L74.5114 156.209L74.0396 155.327L48.453 169.017L48.9247 169.898ZM32.3714 132.618L48.2292 169.654L49.1485 169.261L33.2907 132.224L32.3714 132.618ZM33.081 131.988L29.256 129.78L28.756 130.646L32.581 132.854L33.081 131.988ZM29.256 129.78C28.6325 129.42 28.0398 128.782 27.6019 128.023C27.164 127.265 26.908 126.433 26.908 125.713H25.908C25.908 126.65 26.2335 127.653 26.7359 128.523C27.2383 129.394 27.9447 130.177 28.756 130.646L29.256 129.78ZM26.908 125.713V117.42H25.908V125.713H26.908Z" fill="#0E2526"/>
<path d="M16.4456 52.4553L59.2661 77.2673C62.1321 78.928 64.4528 82.9523 64.4528 86.2618L64.4528 161.002" stroke="#0E2526"/>
<rect x="0.433013" y="0.75" width="55.498" height="83.5911" rx="2.5" transform="matrix(0.866025 0.5 -2.20305e-08 1 0.734771 58.1268)" fill="#8CB491" stroke="#0E2526"/>
<path d="M33.6191 49.8985L66.1471 68.6785L62.5609 70.749C61.3652 71.4394 59.4265 71.4394 58.2308 70.749L30.033 54.469C28.8372 53.7786 28.8373 52.6593 30.033 51.969L33.6191 49.8985Z" fill="#739777" stroke="#0E2526"/>
<mask id="path-15-inside-4" fill="white">
<path fill-rule="evenodd" clip-rule="evenodd" d="M38.3463 2C36.4331 0.895431 34.8822 1.79086 34.8822 4L34.8822 51.8993L36.4734 54.8035L37.9521 53.6273L37.9612 53.6325L37.9612 6.14426C37.9612 5.59198 38.349 5.36812 38.8272 5.64426L59.3201 17.4758C59.7984 17.752 60.1861 18.4235 60.1861 18.9758L60.1861 66.5083L59.768 66.2669L61.9145 69.429L63.3617 68.3419L63.3617 20.4427C63.3617 18.2335 61.8108 15.5472 59.8976 14.4427L38.3463 2Z"/>
</mask>
<path fill-rule="evenodd" clip-rule="evenodd" d="M38.3463 2C36.4331 0.895431 34.8822 1.79086 34.8822 4L34.8822 51.8993L36.4734 54.8035L37.9521 53.6273L37.9612 53.6325L37.9612 6.14426C37.9612 5.59198 38.349 5.36812 38.8272 5.64426L59.3201 17.4758C59.7984 17.752 60.1861 18.4235 60.1861 18.9758L60.1861 66.5083L59.768 66.2669L61.9145 69.429L63.3617 68.3419L63.3617 20.4427C63.3617 18.2335 61.8108 15.5472 59.8976 14.4427L38.3463 2Z" fill="#C7C7C7"/>
<path d="M34.8822 4L35.7482 4.5L34.8822 4ZM34.8822 51.8993L34.0162 51.3993L34.0162 51.7909L34.2466 52.2114L34.8822 51.8993ZM36.4734 54.8035L35.8377 55.1157L36.5043 56.3324L37.1361 55.8299L36.4734 54.8035ZM37.9521 53.6273L37.9502 52.6262L37.5482 52.395L37.2893 52.6009L37.9521 53.6273ZM37.9612 53.6325L37.9631 54.6336L38.8272 55.1303L38.8272 54.1325L37.9612 53.6325ZM37.9612 6.14426L37.0952 5.64426L37.9612 6.14426ZM60.1861 66.5083L60.1861 67.5083L61.0522 68.0083L61.0522 67.0083L60.1861 66.5083ZM59.768 66.2669L59.768 65.2669L57.2388 63.8067L59.2372 66.7506L59.768 66.2669ZM61.9145 69.429L61.3837 69.9126L62.0308 70.8659L62.5681 70.4623L61.9145 69.429ZM63.3617 68.3419L64.0154 69.3753L64.2278 69.2158L64.2278 68.8419L63.3617 68.3419ZM63.3617 20.4427L64.2278 20.9427L63.3617 20.4427ZM35.7482 4.5C35.7482 2.84314 36.9114 2.17157 38.3463 3L38.3463 1C35.9548 -0.380711 34.0162 0.738571 34.0162 3.5L35.7482 4.5ZM35.7482 52.3993L35.7482 4.5L34.0162 3.5L34.0162 51.3993L35.7482 52.3993ZM37.109 54.4913L35.5178 51.5871L34.2466 52.2114L35.8377 55.1157L37.109 54.4913ZM37.2893 52.6009L35.8106 53.7772L37.1361 55.8299L38.6149 54.6536L37.2893 52.6009ZM37.9593 52.6314L37.9502 52.6262L37.954 54.6283L37.9631 54.6336L37.9593 52.6314ZM38.8272 54.1325L38.8272 6.64426L37.0952 5.64426L37.0952 53.1325L38.8272 54.1325ZM38.8272 6.64426L38.8272 6.64426L38.8272 4.64426C37.8707 4.09197 37.0952 4.5397 37.0952 5.64426L38.8272 6.64426ZM38.8272 6.64426L59.3201 18.4758L59.3201 16.4758L38.8272 4.64426L38.8272 6.64426ZM59.3201 18.4758L59.3201 18.4758L61.0522 19.4758C61.0522 18.3713 60.2767 17.0281 59.3201 16.4758L59.3201 18.4758ZM59.3201 18.4758L59.3201 66.0083L61.0522 67.0083L61.0522 19.4758L59.3201 18.4758ZM60.1861 65.5083L59.768 65.2669L59.768 67.2669L60.1861 67.5083L60.1861 65.5083ZM62.4453 68.9453L60.2988 65.7833L59.2372 66.7506L61.3837 69.9126L62.4453 68.9453ZM62.7081 67.3085L61.2609 68.3956L62.5681 70.4623L64.0154 69.3753L62.7081 67.3085ZM62.4957 19.9427L62.4957 67.8419L64.2278 68.8419L64.2278 20.9427L62.4957 19.9427ZM59.8976 15.4427C61.3325 16.2711 62.4957 18.2858 62.4957 19.9427L64.2278 20.9427C64.2278 18.1812 62.2891 14.8234 59.8976 13.4427L59.8976 15.4427ZM38.3463 3L59.8976 15.4427L59.8976 13.4427L38.3463 1L38.3463 3Z" fill="#0E2526" mask="url(#path-15-inside-4)"/>
<mask id="path-17-inside-5" fill="white">
<path fill-rule="evenodd" clip-rule="evenodd" d="M36.873 3.1297C34.9599 2.02513 33.4089 2.92056 33.4089 5.1297L33.4089 53.029L61.8885 69.4716L61.8885 21.5724C61.8885 19.3632 60.3375 16.6769 58.4244 15.5724L36.873 3.1297ZM37.3538 6.77403C36.8756 6.49789 36.4878 6.72175 36.4878 7.27403L36.4878 54.8065L58.7127 67.6381L58.7127 20.1056C58.7127 19.5533 58.325 18.8817 57.8467 18.6056L37.3538 6.77403Z"/>
</mask>
<path fill-rule="evenodd" clip-rule="evenodd" d="M36.873 3.1297C34.9599 2.02513 33.4089 2.92056 33.4089 5.1297L33.4089 53.029L61.8885 69.4716L61.8885 21.5724C61.8885 19.3632 60.3375 16.6769 58.4244 15.5724L36.873 3.1297ZM37.3538 6.77403C36.8756 6.49789 36.4878 6.72175 36.4878 7.27403L36.4878 54.8065L58.7127 67.6381L58.7127 20.1056C58.7127 19.5533 58.325 18.8817 57.8467 18.6056L37.3538 6.77403Z" fill="#EAEAEA"/>
<path d="M33.4089 5.1297L34.275 5.6297L33.4089 5.1297ZM33.4089 53.029L32.5429 52.529L32.5429 53.529L33.4089 54.029L33.4089 53.029ZM61.8885 69.4716L61.8885 70.4716L62.7545 70.9716L62.7545 69.9716L61.8885 69.4716ZM61.8885 21.5724L62.7545 22.0724L61.8885 21.5724ZM36.4878 7.27403L35.6218 6.77403L36.4878 7.27403ZM36.4878 54.8065L35.6218 54.3065L35.6218 55.3065L36.4878 55.8065L36.4878 54.8065ZM58.7127 67.6381L58.7127 68.6381L59.5788 69.1381L59.5788 68.1381L58.7127 67.6381ZM34.275 5.6297C34.275 3.97284 35.4382 3.30127 36.873 4.1297L36.873 2.1297C34.4816 0.748989 32.5429 1.86827 32.5429 4.6297L34.275 5.6297ZM34.275 53.529L34.275 5.6297L32.5429 4.6297L32.5429 52.529L34.275 53.529ZM61.8885 68.4716L33.4089 52.029L33.4089 54.029L61.8885 70.4716L61.8885 68.4716ZM61.0224 21.0724L61.0224 68.9716L62.7545 69.9716L62.7545 22.0724L61.0224 21.0724ZM58.4244 16.5724C59.8592 17.4008 61.0224 19.4155 61.0224 21.0724L62.7545 22.0724C62.7545 19.3109 60.8158 15.9531 58.4244 14.5724L58.4244 16.5724ZM36.873 4.1297L58.4244 16.5724L58.4244 14.5724L36.873 2.1297L36.873 4.1297ZM37.3538 7.77403L37.3538 7.77403L37.3538 5.77403C36.3973 5.22175 35.6218 5.66947 35.6218 6.77403L37.3538 7.77403ZM37.3538 55.3065L37.3538 7.77403L35.6218 6.77403L35.6218 54.3065L37.3538 55.3065ZM58.7127 66.6381L36.4878 53.8065L36.4878 55.8065L58.7127 68.6381L58.7127 66.6381ZM57.8467 19.6056L57.8467 67.1381L59.5788 68.1381L59.5788 20.6056L57.8467 19.6056ZM57.8467 19.6056L57.8467 19.6056L59.5788 20.6056C59.5788 19.501 58.8033 18.1579 57.8467 17.6056L57.8467 19.6056ZM37.3538 7.77403L57.8467 19.6056L57.8467 17.6056L37.3538 5.77403L37.3538 7.77403Z" fill="#0E2526" mask="url(#path-17-inside-5)"/>
<path d="M58.9006 31.0221L61.4962 32.4004" stroke="#0E2526"/>
<path d="M63.0474 31.5927L61.3514 32.512" stroke="#0E2526"/>
<path d="M37.6957 18.506L35.9997 19.4253" stroke="#0E2526"/>
<path d="M33.6123 17.8168L36.2078 19.1952" stroke="#0E2526"/>
</svg>
