<svg width="157" height="126" viewBox="0 0 157 126" fill="none" xmlns="http://www.w3.org/2000/svg">
<path d="M3.57544 61.5702C8.06966 53.2237 33.6236 40.4255 45.3085 33.1919C56.9934 25.9583 62.3724 23.1759 67.0094 20.3938C71.6463 17.6116 82.2558 11.3795 87.5976 8.70858C94.2748 5.3699 105.96 1.47501 120.428 1.47501C134.895 1.47501 141.899 6.25614 146.58 9.26513C154.37 14.2731 156.04 20.9503 156.04 28.7404C156.04 36.5306 155.483 58.1265 144.91 79.9327C136.661 96.946 114.307 105.529 96.5007 116.101C79.6458 126.109 65.3402 125.004 55.3242 123.891C35.2924 121.665 17.4867 107.755 8.027 91.0614C-0.506473 76.0027 -0.31959 68.8039 3.57544 61.5702Z" fill="#EAEAEA" stroke="#0E2526"/>
<path d="M3.57514 61.5706C8.06936 53.2241 33.6233 40.4258 45.3082 33.1922C56.9931 25.9586 62.3726 23.1764 67.0095 20.3942C71.6465 17.612 82.2555 11.3799 87.5973 8.70892C94.2745 5.37023 103.734 1.94203 118.202 1.47534C132.669 1.00865 141.899 6.25648 146.58 9.26547C154.37 14.2734 157.708 22.0635 155.483 30.41C153.257 38.7566 145.265 42.1228 138.233 45.9903C127.104 52.1111 93.1616 71.03 77.0249 82.1587C60.8883 93.2875 41.9694 91.6181 31.3971 91.0617C20.8248 90.5053 10.8091 83.828 6.91403 79.933C3.01897 76.0379 -0.31989 68.8043 3.57514 61.5706Z" fill="white" stroke="#0E2526"/>
<path d="M8.02674 62.6834C12.2724 54.8433 37.6079 42.2127 48.6467 35.418C59.6854 28.6232 65.9676 25.2333 70.3482 22.6199C74.7288 20.0065 85.8895 14.1113 90.9359 11.6024C97.2439 8.4663 106.516 5.37036 119.871 5.37039C133.226 5.37043 138.819 8.77595 143.241 11.6024C150.6 16.3065 153.813 23.7328 150.475 30.9665C147.136 38.2002 139.311 41.2446 132.669 44.8774C122.155 50.6269 91.7128 67.5289 76.4685 77.9824C61.2241 88.436 44.7233 88.2458 34.7357 87.7231C24.748 87.2004 15.388 81.6411 11.7084 77.9824C8.0287 74.3237 4.3471 69.4782 8.02674 62.6834Z" fill="white" stroke="#DBDBDB"/>
<mask id="mask0" mask-type="alpha" maskUnits="userSpaceOnUse" x="6" y="4" width="147" height="84">
<path d="M8.43158 62.5611C12.6593 54.7424 37.8872 42.1463 48.8791 35.3702C59.8709 28.594 66.126 25.7682 70.488 23.162C74.85 20.5558 85.9638 14.1217 90.9888 11.6197C97.27 8.49214 106.191 5.84188 119.801 5.4047C133.41 4.96752 138.669 8.80096 143.072 11.6197C150.4 16.3109 153.599 23.7169 150.275 30.9308C146.95 38.1447 137.189 42.0611 130.443 45.4339C118.202 51.5547 91.4928 66.5785 75.3561 77.1508C59.7102 87.4016 44.6814 87.6879 34.7362 87.1667C24.7909 86.6454 15.7616 81.467 12.0976 77.8182C8.43354 74.1695 4.76757 69.3373 8.43158 62.5611Z" fill="#F9F9F9" stroke="#0E2526"/>
</mask>
<g mask="url(#mask0)">
<path d="M30.3971 92.9175C33.8117 86.5781 54.1881 76.3651 63.0662 70.8709C71.9442 65.3767 76.9964 63.0855 80.5196 60.9724C84.0427 58.8592 93.0192 53.6424 97.0779 51.6137C102.151 49.0779 109.357 46.929 120.349 46.5745C131.341 46.2201 135.589 49.3283 139.145 51.6137C145.064 55.4174 147.648 61.4223 144.963 67.2714C142.278 73.1205 135.985 75.5822 130.642 78.5197C122.187 83.1687 97.7027 96.8355 85.4422 105.288C73.1818 113.741 59.9108 113.587 51.8781 113.164C43.8454 112.742 36.3175 108.247 33.3581 105.288C30.3986 102.33 27.4377 98.4118 30.3971 92.9175Z" fill="#F9F9F9" stroke="#DBDBDB"/>
</g>
<rect x="0.866025" width="15.4867" height="5.27128" rx="2.63564" transform="matrix(0.866025 -0.5 0.866025 0.5 44.9142 32.462)" fill="#EAEAEA" stroke="#0E2526"/>
<path d="M57.9784 21.9242H57.4784V22.4242V25.5135V25.8099L57.7385 25.9522L57.9784 25.5135C57.7385 25.9522 57.7386 25.9522 57.7386 25.9522L57.7388 25.9523L57.7391 25.9525L57.74 25.953L57.7424 25.9543L57.7498 25.9583L57.7743 25.9711C57.7948 25.9818 57.8235 25.9963 57.8589 26.0135C57.9295 26.0477 58.0285 26.0932 58.1442 26.1389C58.3611 26.2247 58.6924 26.3344 59.0149 26.3344C59.3383 26.3344 59.6668 26.2242 59.8815 26.1379C59.9959 26.0919 60.0936 26.0461 60.1631 26.0117C60.1981 25.9944 60.2263 25.9798 60.2466 25.969L60.2708 25.956L60.2781 25.952L60.2806 25.9507L60.2815 25.9502L60.2818 25.9499L60.282 25.9499C60.2821 25.9498 60.2821 25.9498 60.0379 25.5135L60.2821 25.9498L60.5379 25.8066V25.5135V22.4242V21.9242H60.0379H57.9784Z" fill="#EAEAEA" stroke="#0E2526"/>
<mask id="path-8-outside-1" maskUnits="userSpaceOnUse" x="52.9461" y="19.447" width="12.1244" height="7" fill="black">
<rect fill="white" x="52.9461" y="19.447" width="12.1244" height="7"/>
<path fill-rule="evenodd" clip-rule="evenodd" d="M61.1052 21.6576C61.2706 21.7531 61.2706 21.908 61.1052 22.0035L60.7757 22.1938C60.9282 22.3267 61.031 22.473 61.0841 22.6239L61.55 22.6239C61.784 22.6239 61.9737 22.7334 61.9737 22.8685C61.9737 23.0036 61.784 23.1131 61.55 23.1131L61.084 23.1131C61.0309 23.264 60.9282 23.4101 60.7759 23.5429L61.1053 23.7331C61.2707 23.8286 61.2707 23.9835 61.1053 24.079C60.9398 24.1745 60.6716 24.1745 60.5061 24.079L60.1767 23.8888C59.9468 23.9768 59.6936 24.0361 59.4324 24.0668L59.4324 24.3361C59.4324 24.4712 59.2427 24.5807 59.0087 24.5807C58.7747 24.5807 58.5851 24.4712 58.5851 24.3361L58.5851 24.0669C58.3235 24.0362 58.0701 23.9769 57.8399 23.8888L57.5103 24.0791C57.3448 24.1746 57.0766 24.1746 56.9111 24.0791C56.7457 23.9836 56.7457 23.8287 56.9111 23.7332L57.2408 23.5428C57.0885 23.4101 56.9858 23.2639 56.9327 23.1131L56.4669 23.1131C56.233 23.1131 56.0433 23.0036 56.0433 22.8685C56.0433 22.7334 56.233 22.6239 56.4669 22.6239L56.9326 22.6239C56.9857 22.473 57.0884 22.3268 57.2409 22.1939L56.9112 22.0036C56.7458 21.9081 56.7458 21.7532 56.9112 21.6577C57.0767 21.5621 57.3449 21.5621 57.5104 21.6577L57.84 21.848C58.07 21.76 58.3232 21.7007 58.5845 21.67L58.5845 21.4005C58.5845 21.2655 58.7742 21.1559 59.0082 21.1559C59.2421 21.1559 59.4318 21.2655 59.4318 21.4005L59.4318 21.67C59.6932 21.7006 59.9464 21.7599 60.1765 21.8479L60.506 21.6576C60.6715 21.5621 60.9397 21.5621 61.1052 21.6576Z"/>
</mask>
<path fill-rule="evenodd" clip-rule="evenodd" d="M61.1052 21.6576C61.2706 21.7531 61.2706 21.908 61.1052 22.0035L60.7757 22.1938C60.9282 22.3267 61.031 22.473 61.0841 22.6239L61.55 22.6239C61.784 22.6239 61.9737 22.7334 61.9737 22.8685C61.9737 23.0036 61.784 23.1131 61.55 23.1131L61.084 23.1131C61.0309 23.264 60.9282 23.4101 60.7759 23.5429L61.1053 23.7331C61.2707 23.8286 61.2707 23.9835 61.1053 24.079C60.9398 24.1745 60.6716 24.1745 60.5061 24.079L60.1767 23.8888C59.9468 23.9768 59.6936 24.0361 59.4324 24.0668L59.4324 24.3361C59.4324 24.4712 59.2427 24.5807 59.0087 24.5807C58.7747 24.5807 58.5851 24.4712 58.5851 24.3361L58.5851 24.0669C58.3235 24.0362 58.0701 23.9769 57.8399 23.8888L57.5103 24.0791C57.3448 24.1746 57.0766 24.1746 56.9111 24.0791C56.7457 23.9836 56.7457 23.8287 56.9111 23.7332L57.2408 23.5428C57.0885 23.4101 56.9858 23.2639 56.9327 23.1131L56.4669 23.1131C56.233 23.1131 56.0433 23.0036 56.0433 22.8685C56.0433 22.7334 56.233 22.6239 56.4669 22.6239L56.9326 22.6239C56.9857 22.473 57.0884 22.3268 57.2409 22.1939L56.9112 22.0036C56.7458 21.9081 56.7458 21.7532 56.9112 21.6577C57.0767 21.5621 57.3449 21.5621 57.5104 21.6577L57.84 21.848C58.07 21.76 58.3232 21.7007 58.5845 21.67L58.5845 21.4005C58.5845 21.2655 58.7742 21.1559 59.0082 21.1559C59.2421 21.1559 59.4318 21.2655 59.4318 21.4005L59.4318 21.67C59.6932 21.7006 59.9464 21.7599 60.1765 21.8479L60.506 21.6576C60.6715 21.5621 60.9397 21.5621 61.1052 21.6576Z" fill="#EAEAEA"/>
<path d="M61.1052 22.0035L60.2391 21.5035L61.1052 22.0035ZM60.7757 22.1938L59.9097 21.6938L59.2017 22.1025L59.7548 22.5844L60.7757 22.1938ZM61.0841 22.6239L59.8839 22.7646L60.0831 23.331L61.0841 23.331L61.0841 22.6239ZM61.55 22.6239L61.55 23.331L61.55 23.331L61.55 22.6239ZM61.9737 22.8685L63.1984 22.8685L63.1984 22.8685L61.9737 22.8685ZM61.55 23.1131L61.55 23.8202L61.55 23.8202L61.55 23.1131ZM61.084 23.1131L61.084 22.406L60.0832 22.406L59.8838 22.9723L61.084 23.1131ZM60.7759 23.5429L59.7548 23.1524L59.202 23.6342L59.9098 24.0429L60.7759 23.5429ZM60.5061 24.079L61.3721 23.579L60.5061 24.079ZM60.1767 23.8888L61.0428 23.3888L60.3349 22.9801L59.5003 23.2994L60.1767 23.8888ZM59.4324 24.0668L59.1884 23.3739L58.2076 23.489L58.2076 24.0668L59.4324 24.0668ZM59.4324 24.3361L60.6571 24.3361L60.6571 24.3361L59.4324 24.3361ZM59.0087 24.5807L59.0087 25.2878L59.0087 25.2878L59.0087 24.5807ZM58.5851 24.3361L57.3603 24.3361L57.3603 24.3361L58.5851 24.3361ZM58.5851 24.0669L59.8098 24.0669L59.8098 23.4889L58.8287 23.3739L58.5851 24.0669ZM57.8399 23.8888L58.5164 23.2994L57.6818 22.98L56.9739 23.3888L57.8399 23.8888ZM57.5103 24.0791L58.3763 24.5791L57.5103 24.0791ZM56.9111 23.7332L56.0451 23.2332L56.9111 23.7332ZM57.2408 23.5428L58.1068 24.0428L58.8146 23.6342L58.2619 23.1524L57.2408 23.5428ZM56.9327 23.1131L58.1329 22.9723L57.9335 22.406L56.9327 22.406L56.9327 23.1131ZM56.4669 23.1131L56.4669 22.406L56.4669 22.406L56.4669 23.1131ZM56.0433 22.8685L57.268 22.8685L57.268 22.8685L56.0433 22.8685ZM56.4669 22.6239L56.4669 21.9168L56.4669 22.6239ZM56.9326 22.6239L56.9326 23.331L57.9337 23.331L58.1329 22.7646L56.9326 22.6239ZM57.2409 22.1939L58.2619 22.5844L58.8148 22.1026L58.1069 21.6939L57.2409 22.1939ZM56.9112 22.0036L57.7773 21.5036L56.9112 22.0036ZM57.84 21.848L56.974 22.348L57.6819 22.7567L58.5165 22.4374L57.84 21.848ZM58.5845 21.67L58.8284 22.363L59.8093 22.2479L59.8093 21.67L58.5845 21.67ZM58.5845 21.4005L57.3598 21.4005L57.3598 21.4005L58.5845 21.4005ZM59.0082 21.1559L59.0082 20.4488L59.0082 20.4488L59.0082 21.1559ZM59.4318 21.4005L58.2071 21.4005L58.2071 21.4005L59.4318 21.4005ZM59.4318 21.67L58.2071 21.67L58.2071 22.2479L59.1881 22.3629L59.4318 21.67ZM60.1765 21.8479L59.5002 22.4374L60.3347 22.7565L61.0425 22.3479L60.1765 21.8479ZM60.506 21.6576L61.3721 22.1576L60.506 21.6576ZM61.9712 22.5035C62.6149 22.1319 62.6149 21.5293 61.9712 21.1576L60.2391 22.1576C59.9263 21.977 59.9263 21.6842 60.2391 21.5035L61.9712 22.5035ZM61.6417 22.6938L61.9712 22.5035L60.2391 21.5035L59.9097 21.6938L61.6417 22.6938ZM62.2844 22.4832C62.2006 22.245 62.0381 22.0136 61.7966 21.8032L59.7548 22.5844C59.8183 22.6397 59.8615 22.7009 59.8839 22.7646L62.2844 22.4832ZM61.55 21.9168L61.0841 21.9168L61.0841 23.331L61.55 23.331L61.55 21.9168ZM63.1984 22.8685C63.1984 22.3429 62.4604 21.9168 61.55 21.9168L61.55 23.331C61.1076 23.331 60.7489 23.124 60.7489 22.8685L63.1984 22.8685ZM61.55 23.8202C62.4604 23.8202 63.1984 23.3941 63.1984 22.8685L60.7489 22.8685C60.7489 22.6131 61.1076 22.406 61.55 22.406L61.55 23.8202ZM61.084 23.8202L61.55 23.8202L61.55 22.406L61.084 22.406L61.084 23.8202ZM61.7969 23.9334C62.0381 23.7232 62.2005 23.4919 62.2842 23.254L59.8838 22.9723C59.8614 23.036 59.8183 23.0971 59.7548 23.1524L61.7969 23.9334ZM61.9713 23.2331L61.6419 23.0429L59.9098 24.0429L60.2392 24.2331L61.9713 23.2331ZM61.9713 24.579C62.615 24.2073 62.615 23.6047 61.9713 23.2331L60.2392 24.2331C59.9264 24.0525 59.9264 23.7596 60.2392 23.579L61.9713 24.579ZM59.6401 24.579C60.2838 24.9507 61.3275 24.9506 61.9713 24.579L60.2392 23.579C60.5521 23.3984 61.0593 23.3984 61.3721 23.579L59.6401 24.579ZM59.3107 24.3888L59.6401 24.579L61.3721 23.579L61.0428 23.3888L59.3107 24.3888ZM59.6764 24.7597C60.0886 24.7113 60.4891 24.6176 60.8532 24.4783L59.5003 23.2994C59.4044 23.336 59.2987 23.3609 59.1884 23.3739L59.6764 24.7597ZM60.6571 24.3361L60.6571 24.0668L58.2076 24.0668L58.2076 24.3361L60.6571 24.3361ZM59.0087 25.2878C59.9191 25.2878 60.6571 24.8617 60.6571 24.3361L58.2076 24.3361C58.2076 24.0807 58.5663 23.8736 59.0087 23.8736L59.0087 25.2878ZM57.3603 24.3361C57.3603 24.8617 58.0983 25.2878 59.0087 25.2878L59.0087 23.8736C59.4511 23.8736 59.8098 24.0807 59.8098 24.3361L57.3603 24.3361ZM57.3603 24.0669L57.3603 24.3361L59.8098 24.3361L59.8098 24.0669L57.3603 24.0669ZM57.1634 24.4782C57.5278 24.6177 57.9288 24.7115 58.3414 24.7598L58.8287 23.3739C58.7182 23.3609 58.6123 23.336 58.5164 23.2994L57.1634 24.4782ZM58.3763 24.5791L58.7059 24.3888L56.9739 23.3888L56.6443 23.5791L58.3763 24.5791ZM56.0451 24.5791C56.6889 24.9507 57.7326 24.9507 58.3763 24.5791L56.6443 23.5791C56.9571 23.3985 57.4643 23.3985 57.7772 23.5791L56.0451 24.5791ZM56.0451 23.2332C55.4014 23.6048 55.4014 24.2074 56.0451 24.5791L57.7772 23.5791C58.09 23.7597 58.09 24.0525 57.7772 24.2332L56.0451 23.2332ZM56.3748 23.0428L56.0451 23.2332L57.7772 24.2332L58.1068 24.0428L56.3748 23.0428ZM55.7325 23.254C55.8162 23.4919 55.9786 23.7231 56.2197 23.9333L58.2619 23.1524C58.1984 23.097 58.1553 23.036 58.1329 22.9723L55.7325 23.254ZM56.4669 23.8202L56.9327 23.8202L56.9327 22.406L56.4669 22.406L56.4669 23.8202ZM54.8185 22.8685C54.8185 23.3941 55.5565 23.8202 56.4669 23.8202L56.4669 22.406C56.9094 22.406 57.268 22.6131 57.268 22.8685L54.8185 22.8685ZM56.4669 21.9168C55.5565 21.9168 54.8185 22.3429 54.8185 22.8685L57.268 22.8685C57.268 23.124 56.9094 23.331 56.4669 23.331L56.4669 21.9168ZM56.9326 21.9168L56.4669 21.9168L56.4669 23.331L56.9326 23.331L56.9326 21.9168ZM56.2199 21.8034C55.9785 22.0137 55.8161 22.2451 55.7323 22.4832L58.1329 22.7646C58.1553 22.7009 58.1984 22.6398 58.2619 22.5844L56.2199 21.8034ZM56.0452 22.5036L56.3749 22.6939L58.1069 21.6939L57.7773 21.5036L56.0452 22.5036ZM56.0452 21.1577C55.4015 21.5293 55.4015 22.1319 56.0452 22.5036L57.7773 21.5036C58.0901 21.6842 58.0901 21.977 57.7773 22.1577L56.0452 21.1577ZM58.3764 21.1577C57.7327 20.786 56.689 20.786 56.0452 21.1577L57.7773 22.1577C57.4644 22.3383 56.9572 22.3383 56.6444 22.1577L58.3764 21.1577ZM58.706 21.348L58.3764 21.1577L56.6444 22.1577L56.974 22.348L58.706 21.348ZM58.3406 20.9771C57.9283 21.0254 57.5277 21.1192 57.1636 21.2585L58.5165 22.4374C58.6123 22.4008 58.7181 22.3759 58.8284 22.363L58.3406 20.9771ZM59.8093 21.67L59.8093 21.4005L57.3598 21.4005L57.3598 21.67L59.8093 21.67ZM59.8093 21.4005C59.8093 21.656 59.4506 21.8631 59.0082 21.8631L59.0082 20.4488C58.0978 20.4488 57.3598 20.8749 57.3598 21.4005L59.8093 21.4005ZM59.0082 21.8631C58.5657 21.8631 58.2071 21.656 58.2071 21.4005L60.6566 21.4005C60.6566 20.8749 59.9186 20.4488 59.0082 20.4488L59.0082 21.8631ZM58.2071 21.4005L58.2071 21.67L60.6566 21.67L60.6566 21.4005L58.2071 21.4005ZM60.8528 21.2584C60.4885 21.1191 60.0879 21.0253 59.6755 20.977L59.1881 22.3629C59.2985 22.3759 59.4043 22.4007 59.5002 22.4374L60.8528 21.2584ZM59.64 21.1576L59.3105 21.3479L61.0425 22.3479L61.3721 22.1576L59.64 21.1576ZM61.9712 21.1576C61.3275 20.786 60.2837 20.786 59.64 21.1576L61.3721 22.1576C61.0592 22.3382 60.552 22.3382 60.2391 22.1576L61.9712 21.1576Z" fill="#0E2526" mask="url(#path-8-outside-1)"/>
<path d="M59.822 24.8985C59.822 25.2693 56.6662 25.2418 55.6365 24.8985V27.7606C55.6365 27.7606 54.8693 28.1545 53.7857 28.1873C52.8771 28.2147 51.8928 27.8208 51.3449 27.5859C51.1732 25.5264 51.1297 22.282 52.7551 20.2049C54.2641 18.2766 56.989 18.2767 58.4143 19.7439C59.8124 21.183 59.822 23.2292 59.822 24.8985Z" fill="#EAEAEA"/>
<path d="M55.6365 23.3539V24.8985M55.6365 24.8985C56.6662 25.2418 59.822 25.2693 59.822 24.8985C59.822 23.2292 59.8124 21.183 58.4143 19.7439C56.989 18.2767 54.2641 18.2766 52.7551 20.2049C51.1297 22.282 51.1732 25.5264 51.3449 27.5859C51.8928 27.8208 52.8771 28.2147 53.7857 28.1873C54.8693 28.1545 55.6365 27.7606 55.6365 27.7606C55.6365 27.7606 55.6365 25.9283 55.6365 24.8985Z" stroke="#0E2526"/>
<path d="M49.534 26.9932H49.034V27.4932V30.5825V30.8789L49.2941 31.0212L49.534 30.5825C49.2941 31.0212 49.2942 31.0212 49.2942 31.0212L49.2944 31.0213L49.2948 31.0215L49.2956 31.022L49.298 31.0233L49.3054 31.0273L49.3299 31.0401C49.3504 31.0508 49.3791 31.0653 49.4145 31.0825C49.4851 31.1167 49.5841 31.1622 49.6998 31.2079C49.9167 31.2937 50.248 31.4034 50.5705 31.4034C50.8939 31.4034 51.2224 31.2932 51.4371 31.2069C51.5515 31.1609 51.6492 31.1151 51.7187 31.0807C51.7537 31.0634 51.782 31.0488 51.8022 31.038L51.8264 31.025L51.8337 31.021L51.8362 31.0197L51.8371 31.0192L51.8374 31.019L51.8376 31.0189C51.8377 31.0188 51.8377 31.0188 51.5935 30.5825L51.8377 31.0188L52.0935 30.8756V30.5825V27.4932V26.9932H51.5935H49.534Z" fill="#EAEAEA" stroke="#0E2526"/>
<mask id="path-13-outside-2" maskUnits="userSpaceOnUse" x="44.5015" y="24.516" width="12.1244" height="7" fill="black">
<rect fill="white" x="44.5015" y="24.516" width="12.1244" height="7"/>
<path fill-rule="evenodd" clip-rule="evenodd" d="M52.6606 26.7267C52.8261 26.8222 52.8261 26.9771 52.6606 27.0726L52.3312 27.2628C52.4837 27.3957 52.5865 27.542 52.6396 27.693L53.1055 27.693C53.3395 27.693 53.5292 27.8025 53.5292 27.9376C53.5292 28.0727 53.3395 28.1822 53.1055 28.1822L52.6395 28.1822C52.5864 28.333 52.4837 28.4792 52.3313 28.612L52.6607 28.8021C52.8262 28.8977 52.8262 29.0525 52.6607 29.148C52.4953 29.2436 52.227 29.2436 52.0616 29.148L51.7322 28.9579C51.5023 29.0459 51.2491 29.1052 50.9879 29.1358L50.9879 29.4052C50.9879 29.5403 50.7982 29.6498 50.5642 29.6498C50.3302 29.6498 50.1405 29.5403 50.1405 29.4052L50.1405 29.1359C49.879 29.1053 49.6256 29.0459 49.3954 28.9578L49.0658 29.1481C48.9003 29.2437 48.6321 29.2437 48.4666 29.1481C48.3012 29.0526 48.3012 28.8977 48.4666 28.8022L48.7963 28.6119C48.644 28.4791 48.5413 28.333 48.4882 28.1822L48.0224 28.1822C47.7884 28.1822 47.5988 28.0727 47.5988 27.9376C47.5988 27.8025 47.7884 27.693 48.0224 27.693L48.4881 27.693C48.5412 27.5421 48.6439 27.3958 48.7964 27.263L48.4667 27.0726C48.3013 26.9771 48.3013 26.8222 48.4667 26.7267C48.6322 26.6312 48.9004 26.6312 49.0659 26.7267L49.3955 26.917C49.6255 26.8291 49.8787 26.7697 50.14 26.7391L50.14 26.4696C50.14 26.3345 50.3297 26.225 50.5637 26.225C50.7976 26.225 50.9873 26.3345 50.9873 26.4696L50.9873 26.739C51.2486 26.7697 51.5019 26.829 51.732 26.9169L52.0615 26.7267C52.227 26.6312 52.4952 26.6312 52.6606 26.7267Z"/>
</mask>
<path fill-rule="evenodd" clip-rule="evenodd" d="M52.6606 26.7267C52.8261 26.8222 52.8261 26.9771 52.6606 27.0726L52.3312 27.2628C52.4837 27.3957 52.5865 27.542 52.6396 27.693L53.1055 27.693C53.3395 27.693 53.5292 27.8025 53.5292 27.9376C53.5292 28.0727 53.3395 28.1822 53.1055 28.1822L52.6395 28.1822C52.5864 28.333 52.4837 28.4792 52.3313 28.612L52.6607 28.8021C52.8262 28.8977 52.8262 29.0525 52.6607 29.148C52.4953 29.2436 52.227 29.2436 52.0616 29.148L51.7322 28.9579C51.5023 29.0459 51.2491 29.1052 50.9879 29.1358L50.9879 29.4052C50.9879 29.5403 50.7982 29.6498 50.5642 29.6498C50.3302 29.6498 50.1405 29.5403 50.1405 29.4052L50.1405 29.1359C49.879 29.1053 49.6256 29.0459 49.3954 28.9578L49.0658 29.1481C48.9003 29.2437 48.6321 29.2437 48.4666 29.1481C48.3012 29.0526 48.3012 28.8977 48.4666 28.8022L48.7963 28.6119C48.644 28.4791 48.5413 28.333 48.4882 28.1822L48.0224 28.1822C47.7884 28.1822 47.5988 28.0727 47.5988 27.9376C47.5988 27.8025 47.7884 27.693 48.0224 27.693L48.4881 27.693C48.5412 27.5421 48.6439 27.3958 48.7964 27.263L48.4667 27.0726C48.3013 26.9771 48.3013 26.8222 48.4667 26.7267C48.6322 26.6312 48.9004 26.6312 49.0659 26.7267L49.3955 26.917C49.6255 26.8291 49.8787 26.7697 50.14 26.7391L50.14 26.4696C50.14 26.3345 50.3297 26.225 50.5637 26.225C50.7976 26.225 50.9873 26.3345 50.9873 26.4696L50.9873 26.739C51.2486 26.7697 51.5019 26.829 51.732 26.9169L52.0615 26.7267C52.227 26.6312 52.4952 26.6312 52.6606 26.7267Z" fill="#EAEAEA"/>
<path d="M52.6606 27.0726L53.5267 27.5726L52.6606 27.0726ZM52.6606 26.7267L51.7946 27.2267L52.6606 26.7267ZM52.3312 27.2628L51.4651 26.7628L50.7572 27.1716L51.3102 27.6534L52.3312 27.2628ZM52.6396 27.693L51.4394 27.8337L51.6385 28.4001L52.6396 28.4001L52.6396 27.693ZM53.1055 27.693L53.1055 28.4001L53.1055 28.4001L53.1055 27.693ZM53.5292 27.9376L54.7539 27.9376L54.7539 27.9376L53.5292 27.9376ZM53.1055 28.1822L53.1055 28.8893L53.1055 28.8893L53.1055 28.1822ZM52.6395 28.1822L52.6395 27.4751L51.6387 27.4751L51.4393 28.0414L52.6395 28.1822ZM52.3313 28.612L51.3103 28.2214L50.7575 28.7033L51.4653 29.112L52.3313 28.612ZM51.7322 28.9579L52.5983 28.4579L51.8903 28.0492L51.0558 28.3684L51.7322 28.9579ZM50.9879 29.1358L50.7438 28.4429L49.7631 28.558L49.7631 29.1358L50.9879 29.1358ZM50.9879 29.4052L52.2126 29.4052L52.2126 29.4052L50.9879 29.4052ZM50.5642 29.6498L50.5642 30.3569L50.5642 30.3569L50.5642 29.6498ZM50.1405 29.4052L48.9158 29.4052L48.9158 29.4052L50.1405 29.4052ZM50.1405 29.1359L51.3653 29.1359L51.3653 28.5579L50.3841 28.4429L50.1405 29.1359ZM49.3954 28.9578L50.0719 28.3684L49.2373 28.0491L48.5293 28.4578L49.3954 28.9578ZM49.0658 29.1481L49.9318 29.6481L49.0658 29.1481ZM48.7963 28.6119L49.6623 29.1119L50.3701 28.7032L49.8173 28.2214L48.7963 28.6119ZM48.4882 28.1822L49.6884 28.0414L49.489 27.4751L48.4882 27.4751L48.4882 28.1822ZM48.0224 28.1822L48.0224 28.8893L48.0224 28.8893L48.0224 28.1822ZM47.5988 27.9376L46.374 27.9376L46.374 27.9376L47.5988 27.9376ZM48.0224 27.693L48.0224 28.4001L48.0224 28.4001L48.0224 27.693ZM48.4881 27.693L48.4881 28.4001L49.4892 28.4001L49.6883 27.8337L48.4881 27.693ZM48.7964 27.263L49.8174 27.6535L50.3703 27.1717L49.6624 26.763L48.7964 27.263ZM48.4667 27.0726L49.3327 26.5726L48.4667 27.0726ZM49.3955 26.917L48.5295 27.417L49.2374 27.8257L50.0719 27.5065L49.3955 26.917ZM50.14 26.7391L50.3839 27.432L51.3647 27.3169L51.3647 26.7391L50.14 26.7391ZM50.14 26.4696L48.9152 26.4696L48.9152 26.4696L50.14 26.4696ZM50.5637 26.225L50.5637 25.5179L50.5637 25.5179L50.5637 26.225ZM50.9873 26.4696L49.7626 26.4696L49.7626 26.4696L50.9873 26.4696ZM50.9873 26.739L49.7626 26.739L49.7626 27.317L50.7436 27.432L50.9873 26.739ZM51.732 26.9169L51.0556 27.5065L51.8902 27.8256L52.598 27.4169L51.732 26.9169ZM52.0615 26.7267L52.9275 27.2267L52.0615 26.7267ZM53.5267 27.5726C54.1704 27.2009 54.1704 26.5983 53.5267 26.2267L51.7946 27.2267C51.4818 27.0461 51.4818 26.7532 51.7946 26.5726L53.5267 27.5726ZM53.1972 27.7628L53.5267 27.5726L51.7946 26.5726L51.4651 26.7628L53.1972 27.7628ZM53.8399 27.5523C53.7561 27.3141 53.5936 27.0826 53.3521 26.8722L51.3102 27.6534C51.3738 27.7088 51.4169 27.7699 51.4394 27.8337L53.8399 27.5523ZM53.1055 26.9859L52.6396 26.9859L52.6396 28.4001L53.1055 28.4001L53.1055 26.9859ZM54.7539 27.9376C54.7539 27.412 54.0159 26.9859 53.1055 26.9859L53.1055 28.4001C52.6631 28.4001 52.3044 28.193 52.3044 27.9376L54.7539 27.9376ZM53.1055 28.8893C54.0159 28.8893 54.7539 28.4632 54.7539 27.9376L52.3044 27.9376C52.3044 27.6822 52.6631 27.4751 53.1055 27.4751L53.1055 28.8893ZM52.6395 28.8893L53.1055 28.8893L53.1055 27.4751L52.6395 27.4751L52.6395 28.8893ZM53.3524 29.0025C53.5936 28.7922 53.756 28.561 53.8397 28.323L51.4393 28.0414C51.4169 28.105 51.3738 28.1661 51.3103 28.2214L53.3524 29.0025ZM53.5268 28.3021L53.1974 28.112L51.4653 29.112L51.7947 29.3021L53.5268 28.3021ZM53.5268 29.648C54.1705 29.2764 54.1705 28.6738 53.5268 28.3021L51.7947 29.3021C51.4819 29.1215 51.4819 28.8287 51.7947 28.648L53.5268 29.648ZM51.1956 29.648C51.8393 30.0197 52.883 30.0197 53.5268 29.648L51.7947 28.648C52.1076 28.4674 52.6148 28.4674 52.9276 28.648L51.1956 29.648ZM50.8662 29.4579L51.1956 29.648L52.9276 28.648L52.5983 28.4579L50.8662 29.4579ZM51.2319 29.8288C51.6441 29.7804 52.0446 29.6866 52.4087 29.5473L51.0558 28.3684C50.9599 28.4051 50.8541 28.43 50.7438 28.4429L51.2319 29.8288ZM52.2126 29.4052L52.2126 29.1358L49.7631 29.1358L49.7631 29.4052L52.2126 29.4052ZM50.5642 30.3569C51.4746 30.3569 52.2126 29.9308 52.2126 29.4052L49.7631 29.4052C49.7631 29.1497 50.1218 28.9427 50.5642 28.9427L50.5642 30.3569ZM48.9158 29.4052C48.9158 29.9308 49.6538 30.3569 50.5642 30.3569L50.5642 28.9427C51.0066 28.9427 51.3653 29.1497 51.3653 29.4052L48.9158 29.4052ZM48.9158 29.1359L48.9158 29.4052L51.3653 29.4052L51.3653 29.1359L48.9158 29.1359ZM48.7188 29.5473C49.0833 29.6867 49.4843 29.7806 49.8969 29.8289L50.3841 28.4429C50.2737 28.43 50.1678 28.4051 50.0719 28.3684L48.7188 29.5473ZM49.9318 29.6481L50.2614 29.4578L48.5293 28.4578L48.1997 28.6481L49.9318 29.6481ZM47.6006 29.6481C48.2443 30.0198 49.2881 30.0198 49.9318 29.6481L48.1997 28.6481C48.5126 28.4675 49.0198 28.4675 49.3327 28.6481L47.6006 29.6481ZM47.6006 28.3022C46.9569 28.6739 46.9569 29.2765 47.6006 29.6481L49.3327 28.6481C49.6455 28.8288 49.6455 29.1216 49.3327 29.3022L47.6006 28.3022ZM47.9303 28.1119L47.6006 28.3022L49.3327 29.3022L49.6623 29.1119L47.9303 28.1119ZM47.288 28.323C47.3717 28.561 47.534 28.7922 47.7752 29.0024L49.8173 28.2214C49.7539 28.1661 49.7108 28.105 49.6884 28.0414L47.288 28.323ZM48.0224 28.8893L48.4882 28.8893L48.4882 27.4751L48.0224 27.4751L48.0224 28.8893ZM46.374 27.9376C46.374 28.4632 47.112 28.8893 48.0224 28.8893L48.0224 27.4751C48.4648 27.4751 48.8235 27.6822 48.8235 27.9376L46.374 27.9376ZM48.0224 26.9859C47.112 26.9859 46.374 27.412 46.374 27.9376L48.8235 27.9376C48.8235 28.193 48.4648 28.4001 48.0224 28.4001L48.0224 26.9859ZM48.4881 26.9859L48.0224 26.9859L48.0224 28.4001L48.4881 28.4001L48.4881 26.9859ZM47.7754 26.8724C47.534 27.0828 47.3716 27.3142 47.2878 27.5523L49.6883 27.8337C49.7107 27.77 49.7538 27.7088 49.8174 27.6535L47.7754 26.8724ZM47.6007 27.5726L47.9303 27.763L49.6624 26.763L49.3327 26.5726L47.6007 27.5726ZM47.6007 26.2267C46.957 26.5984 46.957 27.201 47.6007 27.5726L49.3327 26.5726C49.6456 26.7533 49.6456 27.0461 49.3327 27.2267L47.6007 26.2267ZM49.9319 26.2267C49.2881 25.8551 48.2444 25.8551 47.6007 26.2267L49.3327 27.2267C49.0199 27.4073 48.5127 27.4073 48.1998 27.2267L49.9319 26.2267ZM50.2615 26.417L49.9319 26.2267L48.1998 27.2267L48.5295 27.417L50.2615 26.417ZM49.8961 26.0461C49.4838 26.0945 49.0832 26.1883 48.719 26.3276L50.0719 27.5065C50.1678 27.4698 50.2736 27.445 50.3839 27.432L49.8961 26.0461ZM51.3647 26.7391L51.3647 26.4696L48.9152 26.4696L48.9152 26.7391L51.3647 26.7391ZM51.3647 26.4696C51.3647 26.725 51.0061 26.9321 50.5637 26.9321L50.5637 25.5179C49.6533 25.5179 48.9152 25.944 48.9152 26.4696L51.3647 26.4696ZM50.5637 26.9321C50.1212 26.9321 49.7626 26.725 49.7626 26.4696L52.2121 26.4696C52.2121 25.944 51.474 25.5179 50.5637 25.5179L50.5637 26.9321ZM49.7626 26.4696L49.7626 26.739L52.2121 26.739L52.2121 26.4696L49.7626 26.4696ZM52.4083 26.3274C52.044 26.1881 51.6433 26.0944 51.231 26.0461L50.7436 27.432C50.854 27.4449 50.9598 27.4698 51.0556 27.5065L52.4083 26.3274ZM51.1955 26.2267L50.8659 26.4169L52.598 27.4169L52.9275 27.2267L51.1955 26.2267ZM53.5267 26.2267C52.8829 25.855 51.8392 25.855 51.1955 26.2267L52.9275 27.2267C52.6147 27.4073 52.1075 27.4073 51.7946 27.2267L53.5267 26.2267Z" fill="#0E2526" mask="url(#path-13-outside-2)"/>
</svg>
