<svg width="129" height="162" viewBox="0 0 129 162" fill="none" xmlns="http://www.w3.org/2000/svg">
<circle r="26.013" transform="matrix(0.866025 -0.5 2.20305e-08 1 40.0014 89.4813)" fill="#EEEEEE" stroke="#0E2526"/>
<circle r="26.013" transform="matrix(0.866025 -0.5 2.20305e-08 1 43.0727 90.8701)" fill="#D1D1D1" stroke="#0E2526"/>
<circle r="3.6002" transform="matrix(0.866025 -0.5 2.20305e-08 1 44.4581 90.87)" fill="white" stroke="#0E2526"/>
<rect x="-2.98023e-08" y="0.5" width="11.2998" height="54.7842" rx="5.6499" transform="matrix(0.866025 0.5 -0.866025 0.5 61.1918 35.9167)" fill="#636363" stroke="#0E2526"/>
<rect x="-2.98023e-08" y="0.5" width="11.2998" height="54.7842" rx="5.6499" transform="matrix(0.866025 0.5 -0.866025 0.5 61.4756 33.1392)" fill="#D1D1D1" stroke="#0E2526"/>
<rect x="0.433013" y="0.75" width="53.9097" height="42.824" rx="1.5" transform="matrix(0.866025 0.5 -2.20305e-08 1 61.0425 10.7482)" fill="#1B4748" stroke="#0E2526"/>
<mask id="path-7-inside-1" fill="white">
<path fill-rule="evenodd" clip-rule="evenodd" d="M116.071 32.8893L107.861 37.6293V81.2378L74.2194 100.661L69.8402 103.189V114.48V135.156L27.9226 110.955C27.4443 110.679 26.6688 110.679 26.1905 110.955L16.5289 116.533C7.91958 121.504 7.91958 129.563 16.5288 134.533L32.0834 143.513C41.1709 148.76 55.9048 148.76 64.9923 143.513L73.788 138.435C73.8684 138.389 73.9352 138.338 73.9886 138.283L74.2194 138.15V111.951L107.861 92.5287V92.5394L116.071 87.7994V32.8893Z"/>
</mask>
<path fill-rule="evenodd" clip-rule="evenodd" d="M116.071 32.8893L107.861 37.6293V81.2378L74.2194 100.661L69.8402 103.189V114.48V135.156L27.9226 110.955C27.4443 110.679 26.6688 110.679 26.1905 110.955L16.5289 116.533C7.91958 121.504 7.91958 129.563 16.5288 134.533L32.0834 143.513C41.1709 148.76 55.9048 148.76 64.9923 143.513L73.788 138.435C73.8684 138.389 73.9352 138.338 73.9886 138.283L74.2194 138.15V111.951L107.861 92.5287V92.5394L116.071 87.7994V32.8893Z" fill="#1B4748"/>
<path d="M107.861 37.6293L107.361 36.7633L106.861 37.052V37.6293H107.861ZM116.071 32.8893H117.071V31.1573L115.571 32.0233L116.071 32.8893ZM107.861 81.2378L108.361 82.1039L108.861 81.8152V81.2378H107.861ZM74.2194 100.661L74.7194 101.527L74.7194 101.527L74.2194 100.661ZM69.8402 103.189L69.3402 102.323L68.8402 102.612V103.189H69.8402ZM69.8402 135.156L69.3402 136.022L70.8402 136.888V135.156H69.8402ZM27.9226 110.955L27.4226 111.821L27.4226 111.821L27.9226 110.955ZM26.1905 110.955L26.6905 111.821L26.6905 111.821L26.1905 110.955ZM16.5289 116.533L17.0289 117.399L17.0289 117.399L16.5289 116.533ZM16.5288 134.533L16.0288 135.399L16.0288 135.399L16.5288 134.533ZM32.0834 143.513L32.5834 142.647L32.5834 142.647L32.0834 143.513ZM64.9923 143.513L64.4923 142.647L64.4923 142.647L64.9923 143.513ZM73.788 138.435L73.288 137.569L73.288 137.569L73.788 138.435ZM73.9886 138.283L73.4886 137.417L73.3701 137.486L73.2743 137.583L73.9886 138.283ZM74.2194 138.15L74.7194 139.016L75.2194 138.727V138.15H74.2194ZM74.2194 111.951L73.7194 111.085L73.2194 111.374V111.951H74.2194ZM107.861 92.5287H108.861V90.7967L107.361 91.6627L107.861 92.5287ZM107.861 92.5394H106.861V94.2714L108.361 93.4054L107.861 92.5394ZM116.071 87.7994L116.571 88.6654L117.071 88.3767V87.7994H116.071ZM108.361 38.4954L116.571 33.7553L115.571 32.0233L107.361 36.7633L108.361 38.4954ZM108.861 81.2378V37.6293H106.861V81.2378H108.861ZM74.7194 101.527L108.361 82.1039L107.361 80.3718L73.7194 99.7946L74.7194 101.527ZM70.3402 104.055L74.7194 101.527L73.7194 99.7946L69.3402 102.323L70.3402 104.055ZM70.8402 114.48V103.189H68.8402V114.48H70.8402ZM70.8402 135.156V114.48H68.8402V135.156H70.8402ZM27.4226 111.821L69.3402 136.022L70.3402 134.29L28.4226 110.089L27.4226 111.821ZM26.6905 111.821C26.7419 111.791 26.8721 111.748 27.0566 111.748C27.241 111.748 27.3712 111.791 27.4226 111.821L28.4226 110.089C27.9957 109.842 27.499 109.748 27.0566 109.748C26.6141 109.748 26.1175 109.842 25.6905 110.089L26.6905 111.821ZM17.0289 117.399L26.6905 111.821L25.6905 110.089L16.0289 115.667L17.0289 117.399ZM17.0288 133.667C12.9064 131.287 11.0719 128.307 11.0719 125.533C11.0719 122.759 12.9064 119.779 17.0289 117.399L16.0289 115.667C11.542 118.258 9.0719 121.793 9.0719 125.533C9.0719 129.274 11.542 132.809 16.0288 135.399L17.0288 133.667ZM32.5834 142.647L17.0288 133.667L16.0288 135.399L31.5834 144.38L32.5834 142.647ZM64.4923 142.647C60.1363 145.162 54.3642 146.449 48.5378 146.449C42.7115 146.449 36.9394 145.162 32.5834 142.647L31.5834 144.38C36.3149 147.111 42.4535 148.449 48.5378 148.449C54.6222 148.449 60.7608 147.111 65.4923 144.38L64.4923 142.647ZM73.288 137.569L64.4923 142.647L65.4923 144.38L74.288 139.301L73.288 137.569ZM73.2743 137.583C73.2839 137.574 73.2907 137.568 73.2932 137.566C73.2956 137.564 73.2942 137.566 73.288 137.569L74.288 139.301C74.4355 139.216 74.5773 139.111 74.7029 138.983L73.2743 137.583ZM73.7194 137.284L73.4886 137.417L74.4886 139.149L74.7194 139.016L73.7194 137.284ZM73.2194 111.951V138.15H75.2194V111.951H73.2194ZM107.361 91.6627L73.7194 111.085L74.7194 112.818L108.361 93.3948L107.361 91.6627ZM108.861 92.5394V92.5287H106.861V92.5394H108.861ZM115.571 86.9333L107.361 91.6734L108.361 93.4054L116.571 88.6654L115.571 86.9333ZM115.071 32.8893V87.7994H117.071V32.8893H115.071Z" fill="#0E2526" mask="url(#path-7-inside-1)"/>
<rect x="-2.98023e-08" y="0.5" width="52.4822" height="43.6912" rx="0.5" transform="matrix(0.866025 0.5 -0.866025 0.5 62.6598 55.2025)" fill="#366866" stroke="#0E2526"/>
<rect x="0.433013" y="0.75" width="53.9608" height="33.7276" rx="1.5" transform="matrix(0.866025 0.5 -2.20305e-08 1 23.2971 76.4405)" fill="#1B4748" stroke="#0E2526"/>
<path d="M23.6721 111.163L69.5375 137.644C69.7767 137.782 69.7767 138.006 69.5375 138.144L64.2756 141.182C55.4272 146.29 41.0811 146.29 32.2327 141.182L16.6781 132.201C8.30803 127.369 8.30802 119.534 16.6781 114.701L22.8061 111.163C23.0453 111.025 23.433 111.025 23.6721 111.163Z" fill="#366866" stroke="#0E2526"/>
<rect x="-2.98023e-08" y="0.5" width="52.4822" height="9.71887" rx="0.5" transform="matrix(0.866025 0.5 -0.866025 0.5 70.7002 6.42993)" fill="#366866" stroke="#0E2526"/>
<path d="M88.7565 5.50671L117.469 22.084C122.013 24.7073 122.013 28.9606 117.469 31.584L115.387 32.7863L70.2196 6.70903L72.3021 5.50671C76.8458 2.88336 84.2128 2.88336 88.7565 5.50671Z" stroke="#0E2526"/>
<rect x="-2.98023e-08" y="0.5" width="11.2998" height="54.7842" rx="5.6499" transform="matrix(0.866025 0.5 -0.866025 0.5 117.534 66.8614)" fill="#636363" stroke="#0E2526"/>
<rect x="-2.98023e-08" y="0.5" width="11.2998" height="54.7842" rx="5.6499" transform="matrix(0.866025 0.5 -0.866025 0.5 117.818 64.0839)" fill="#D1D1D1" stroke="#0E2526"/>
<circle r="26.013" transform="matrix(0.866025 -0.5 2.20305e-08 1 100.53 120.625)" fill="#EEEEEE" stroke="#0E2526"/>
<circle r="26.013" transform="matrix(0.866025 -0.5 2.20305e-08 1 103.601 122.013)" fill="#D1D1D1" stroke="#0E2526"/>
<circle r="3.6002" transform="matrix(0.866025 -0.5 2.20305e-08 1 104.987 122.013)" fill="white" stroke="#0E2526"/>
</svg>
