<svg width="96" height="162" viewBox="0 0 96 162" fill="none" xmlns="http://www.w3.org/2000/svg">
<mask id="path-1-inside-1" fill="white">
<path fill-rule="evenodd" clip-rule="evenodd" d="M74.4025 156.029C73.3114 155.642 72.6135 154.488 72.6135 152.743C72.6135 149.68 74.764 145.956 77.4168 144.424C78.9541 143.536 80.3228 143.58 81.202 144.37L85.3548 146.788L78.7873 158.595L74.4025 156.029Z"/>
</mask>
<path fill-rule="evenodd" clip-rule="evenodd" d="M74.4025 156.029C73.3114 155.642 72.6135 154.488 72.6135 152.743C72.6135 149.68 74.764 145.956 77.4168 144.424C78.9541 143.536 80.3228 143.58 81.202 144.37L85.3548 146.788L78.7873 158.595L74.4025 156.029Z" fill="#878787"/>
<path d="M74.4025 156.029L74.9076 155.166L74.8258 155.118L74.7366 155.086L74.4025 156.029ZM72.6135 152.743L71.6135 152.743L72.6135 152.743ZM77.4168 144.424L77.9168 145.29L77.9168 145.29L77.4168 144.424ZM81.202 144.37L80.5336 145.114L80.61 145.183L80.6988 145.234L81.202 144.37ZM85.3548 146.788L86.2287 147.274L86.7054 146.418L85.858 145.924L85.3548 146.788ZM78.7873 158.595L78.2822 159.458L79.1643 159.974L79.6612 159.081L78.7873 158.595ZM74.7366 155.086C74.1932 154.894 73.6135 154.248 73.6135 152.743L71.6135 152.743C71.6135 154.729 72.4296 156.391 74.0684 156.972L74.7366 155.086ZM73.6135 152.743C73.6135 151.429 74.0817 149.903 74.8864 148.509C75.6911 147.116 76.7782 145.947 77.9168 145.29L76.9168 143.558C75.4026 144.432 74.0881 145.892 73.1543 147.509C72.2206 149.127 71.6135 150.995 71.6135 152.743L73.6135 152.743ZM77.9168 145.29C79.2415 144.525 80.0967 144.721 80.5336 145.114L81.8704 143.626C80.5489 142.439 78.6668 142.548 76.9168 143.558L77.9168 145.29ZM80.6988 145.234L84.8516 147.652L85.858 145.924L81.7052 143.506L80.6988 145.234ZM84.4809 146.302L77.9134 158.109L79.6612 159.081L86.2287 147.274L84.4809 146.302ZM79.2923 157.732L74.9076 155.166L73.8975 156.892L78.2822 159.458L79.2923 157.732Z" fill="#0E2526" mask="url(#path-1-inside-1)"/>
<circle r="5.04629" transform="matrix(0.866025 -0.5 2.20305e-08 1 82.2201 152.743)" fill="#505050" stroke="#0E2526"/>
<mask id="path-4-inside-2" fill="white">
<path fill-rule="evenodd" clip-rule="evenodd" d="M10.2041 156.357C9.11306 155.97 8.41516 154.816 8.41516 153.071C8.41516 150.008 10.5656 146.284 13.2184 144.752C14.7558 143.864 16.1245 143.908 17.0036 144.698L21.1565 147.116L14.5889 158.923L10.2041 156.357Z"/>
</mask>
<path fill-rule="evenodd" clip-rule="evenodd" d="M10.2041 156.357C9.11306 155.97 8.41516 154.816 8.41516 153.071C8.41516 150.008 10.5656 146.284 13.2184 144.752C14.7558 143.864 16.1245 143.908 17.0036 144.698L21.1565 147.116L14.5889 158.923L10.2041 156.357Z" fill="#878787"/>
<path d="M10.2041 156.357L10.7092 155.494L10.6275 155.446L10.5383 155.415L10.2041 156.357ZM13.2184 144.752L13.7184 145.618L13.7184 145.618L13.2184 144.752ZM17.0036 144.698L16.3352 145.442L16.4117 145.511L16.5004 145.562L17.0036 144.698ZM21.1565 147.116L22.0304 147.602L22.507 146.746L21.6597 146.252L21.1565 147.116ZM14.5889 158.923L14.0839 159.786L14.966 160.302L15.4628 159.409L14.5889 158.923ZM10.5383 155.415C9.99487 155.222 9.41516 154.576 9.41516 153.071H7.41516C7.41516 155.057 8.23126 156.719 9.87004 157.3L10.5383 155.415ZM9.41516 153.071C9.41516 151.757 9.88332 150.231 10.688 148.837C11.4927 147.444 12.5798 146.275 13.7184 145.618L12.7184 143.886C11.2042 144.76 9.88969 146.22 8.95597 147.837C8.02225 149.455 7.41516 151.323 7.41516 153.071H9.41516ZM13.7184 145.618C15.0432 144.853 15.8984 145.049 16.3352 145.442L17.672 143.954C16.3506 142.767 14.4684 142.876 12.7184 143.886L13.7184 145.618ZM16.5004 145.562L20.6533 147.981L21.6597 146.252L17.5068 143.834L16.5004 145.562ZM20.2826 146.63L13.715 158.437L15.4628 159.409L22.0304 147.602L20.2826 146.63ZM15.0939 158.06L10.7092 155.494L9.69911 157.22L14.0839 159.786L15.0939 158.06Z" fill="#0E2526" mask="url(#path-4-inside-2)"/>
<circle r="5.04629" transform="matrix(0.866025 -0.5 2.20305e-08 1 18.0217 153.071)" fill="#505050" stroke="#0E2526"/>
<mask id="path-7-inside-3" fill="white">
<path fill-rule="evenodd" clip-rule="evenodd" d="M73.5684 119.449C72.4773 119.062 71.7794 117.908 71.7794 116.163C71.7794 113.1 73.9299 109.375 76.5826 107.844C78.12 106.956 79.4887 107 80.3679 107.79L84.5207 110.208L77.9532 122.014L73.5684 119.449Z"/>
</mask>
<path fill-rule="evenodd" clip-rule="evenodd" d="M73.5684 119.449C72.4773 119.062 71.7794 117.908 71.7794 116.163C71.7794 113.1 73.9299 109.375 76.5826 107.844C78.12 106.956 79.4887 107 80.3679 107.79L84.5207 110.208L77.9532 122.014L73.5684 119.449Z" fill="#878787"/>
<path d="M73.5684 119.449L74.0734 118.586L73.9917 118.538L73.9025 118.506L73.5684 119.449ZM76.5826 107.844L77.0826 108.71L76.5826 107.844ZM80.3679 107.79L79.6995 108.534L79.7759 108.602L79.8647 108.654L80.3679 107.79ZM84.5207 110.208L85.3946 110.694L85.8713 109.837L85.0239 109.344L84.5207 110.208ZM77.9532 122.014L77.4481 122.878L78.3302 123.394L78.827 122.501L77.9532 122.014ZM73.9025 118.506C73.3591 118.314 72.7794 117.667 72.7794 116.163H70.7794C70.7794 118.149 71.5955 119.81 73.2343 120.391L73.9025 118.506ZM72.7794 116.163C72.7794 114.848 73.2476 113.323 74.0523 111.929C74.857 110.535 75.9441 109.367 77.0826 108.71L76.0826 106.978C74.5685 107.852 73.2539 109.312 72.3202 110.929C71.3865 112.546 70.7794 114.415 70.7794 116.163H72.7794ZM77.0826 108.71C78.4074 107.945 79.2626 108.141 79.6995 108.534L81.0363 107.046C79.7148 105.859 77.8327 105.967 76.0826 106.978L77.0826 108.71ZM79.8647 108.654L84.0175 111.072L85.0239 109.344L80.8711 106.926L79.8647 108.654ZM83.6468 109.722L77.0793 121.528L78.827 122.501L85.3946 110.694L83.6468 109.722ZM78.4582 121.151L74.0734 118.586L73.0634 120.312L77.4481 122.878L78.4582 121.151Z" fill="#0E2526" mask="url(#path-7-inside-3)"/>
<circle r="5.04629" transform="matrix(0.866025 -0.5 2.20305e-08 1 81.386 116.163)" fill="#505050" stroke="#0E2526"/>
<mask id="path-10-inside-4" fill="white">
<path fill-rule="evenodd" clip-rule="evenodd" d="M10.8544 118.215C9.76333 117.828 9.06543 116.674 9.06543 114.929C9.06543 111.866 11.2159 108.141 13.8687 106.61C15.406 105.722 16.7747 105.766 17.6539 106.556L21.8067 108.974L15.2392 120.78L10.8544 118.215Z"/>
</mask>
<path fill-rule="evenodd" clip-rule="evenodd" d="M10.8544 118.215C9.76333 117.828 9.06543 116.674 9.06543 114.929C9.06543 111.866 11.2159 108.141 13.8687 106.61C15.406 105.722 16.7747 105.766 17.6539 106.556L21.8067 108.974L15.2392 120.78L10.8544 118.215Z" fill="#878787"/>
<path d="M10.8544 118.215L11.3595 117.352L11.2777 117.304L11.1885 117.272L10.8544 118.215ZM13.8687 106.61L14.3687 107.476L13.8687 106.61ZM17.6539 106.556L16.9855 107.3L17.0619 107.368L17.1507 107.42L17.6539 106.556ZM21.8067 108.974L22.6806 109.46L23.1573 108.603L22.3099 108.11L21.8067 108.974ZM15.2392 120.78L14.7341 121.643L15.6162 122.16L16.1131 121.267L15.2392 120.78ZM11.1885 117.272C10.6451 117.079 10.0654 116.433 10.0654 114.929H8.06543C8.06543 116.915 8.88153 118.576 10.5203 119.157L11.1885 117.272ZM10.0654 114.929C10.0654 113.614 10.5336 112.089 11.3383 110.695C12.143 109.301 13.2301 108.133 14.3687 107.476L13.3687 105.744C11.8545 106.618 10.54 108.078 9.60624 109.695C8.67251 111.312 8.06543 113.181 8.06543 114.929H10.0654ZM14.3687 107.476C15.6934 106.711 16.5487 106.907 16.9855 107.3L18.3223 105.812C17.0008 104.625 15.1187 104.733 13.3687 105.744L14.3687 107.476ZM17.1507 107.42L21.3035 109.838L22.3099 108.11L18.1571 105.692L17.1507 107.42ZM20.9328 108.488L14.3653 120.294L16.1131 121.267L22.6806 109.46L20.9328 108.488ZM15.7442 119.917L11.3595 117.352L10.3494 119.078L14.7341 121.643L15.7442 119.917Z" fill="#0E2526" mask="url(#path-10-inside-4)"/>
<circle r="5.04629" transform="matrix(0.866025 -0.5 2.20305e-08 1 18.672 114.929)" fill="#505050" stroke="#0E2526"/>
<path fill-rule="evenodd" clip-rule="evenodd" d="M10.5578 143.986L10.5578 144.131L10.5638 144.133C10.6362 145.171 11.3434 146.196 12.6853 146.988C15.5222 148.663 20.1217 148.663 22.9585 146.988L47.96 132.227L72.9616 146.988C75.7985 148.663 80.398 148.663 83.2349 146.988C84.9534 145.974 85.6309 144.577 85.2673 143.261V135.534L62.842 124.654L64.2697 122.597L83.2349 111.4C84.2382 110.807 84.8867 110.085 85.1803 109.324L85.3013 109.265V108.924C85.3829 108.554 85.3829 108.18 85.3013 107.81V100.72L76.8856 104.138C75.4486 104.281 74.0705 104.679 72.9616 105.334L70.8073 106.606L50.5054 114.851L10.5731 100.766V107.55L10.6701 107.613C10.269 108.946 10.9408 110.37 12.6853 111.4L32.9007 123.335L17.2352 132.946L10.5578 135.737L10.5578 143.925C10.5576 143.945 10.5576 143.966 10.5578 143.986Z" fill="#AAAAAA"/>
<path d="M10.5578 144.131L10.0578 144.131L10.0578 144.498L10.4073 144.608L10.5578 144.131ZM10.5578 143.986L11.0578 143.986L11.0578 143.98L10.5578 143.986ZM10.5638 144.133L11.0626 144.098L11.0389 143.759L10.7143 143.656L10.5638 144.133ZM12.6853 146.988L12.4311 147.419L12.4311 147.419L12.6853 146.988ZM22.9585 146.988L23.2127 147.419L23.2127 147.419L22.9585 146.988ZM47.96 132.227L48.2143 131.796L47.96 131.646L47.7058 131.796L47.96 132.227ZM72.9616 146.988L73.2158 146.558L73.2158 146.558L72.9616 146.988ZM83.2349 146.988L82.9806 146.558L82.9806 146.558L83.2349 146.988ZM85.2673 143.261H84.7673V143.329L84.7854 143.395L85.2673 143.261ZM85.2673 135.534H85.7673V135.221L85.4856 135.084L85.2673 135.534ZM62.842 124.654L62.4313 124.369L62.0981 124.849L62.6237 125.104L62.842 124.654ZM64.2697 122.597L64.0154 122.167L63.9213 122.222L63.8589 122.312L64.2697 122.597ZM83.2349 111.4L83.4891 111.83L83.2349 111.4ZM85.1803 109.324L84.9606 108.875L84.7845 108.961L84.7139 109.144L85.1803 109.324ZM85.3013 109.265L85.521 109.714L85.8013 109.577V109.265H85.3013ZM85.3013 108.924L84.8131 108.817L84.8013 108.87V108.924H85.3013ZM85.3013 107.81H84.8013V107.864L84.8131 107.917L85.3013 107.81ZM85.3013 100.72H85.8013V99.9775L85.1132 100.257L85.3013 100.72ZM76.8856 104.138L76.935 104.635L77.0068 104.628L77.0737 104.601L76.8856 104.138ZM72.9616 105.334L73.2158 105.765L73.2158 105.765L72.9616 105.334ZM70.8073 106.606L70.9954 107.069L71.0297 107.055L71.0615 107.037L70.8073 106.606ZM50.5054 114.851L50.3391 115.322L50.5179 115.385L50.6935 115.314L50.5054 114.851ZM10.5731 100.766L10.7394 100.295L10.0731 100.06V100.766H10.5731ZM10.5731 107.55H10.0731V107.822L10.3012 107.97L10.5731 107.55ZM10.6701 107.613L11.1489 107.757L11.257 107.398L10.9419 107.194L10.6701 107.613ZM12.6853 111.4L12.9395 110.969L12.9395 110.969L12.6853 111.4ZM32.9007 123.335L33.1621 123.762L33.8702 123.327L33.1549 122.905L32.9007 123.335ZM17.2352 132.946L17.428 133.407L17.4637 133.393L17.4967 133.372L17.2352 132.946ZM10.5578 135.737L10.365 135.275L10.0578 135.404L10.0578 135.737L10.5578 135.737ZM10.5578 143.925L11.0578 143.931L11.0578 143.925L10.5578 143.925ZM11.0578 144.131L11.0578 143.986L10.0578 143.986L10.0578 144.131L11.0578 144.131ZM10.7143 143.656L10.7083 143.655L10.4073 144.608L10.4133 144.61L10.7143 143.656ZM12.9395 146.558C11.6862 145.818 11.1198 144.919 11.0626 144.098L10.065 144.168C10.1526 145.423 11.0005 146.574 12.4311 147.419L12.9395 146.558ZM22.7043 146.558C21.3806 147.339 19.6147 147.745 17.8219 147.745C16.0291 147.745 14.2632 147.339 12.9395 146.558L12.4311 147.419C13.9443 148.312 15.8965 148.745 17.8219 148.745C19.7473 148.745 21.6996 148.312 23.2127 147.419L22.7043 146.558ZM47.7058 131.796L22.7043 146.558L23.2127 147.419L48.2143 132.657L47.7058 131.796ZM73.2158 146.558L48.2143 131.796L47.7058 132.657L72.7074 147.419L73.2158 146.558ZM82.9806 146.558C81.657 147.339 79.891 147.745 78.0982 147.745C76.3054 147.745 74.5395 147.339 73.2158 146.558L72.7074 147.419C74.2206 148.312 76.1729 148.745 78.0982 148.745C80.0236 148.745 81.9759 148.312 83.4891 147.419L82.9806 146.558ZM84.7854 143.395C85.0674 144.415 84.5836 145.611 82.9806 146.558L83.4891 147.419C85.3231 146.336 86.1943 144.739 85.7492 143.128L84.7854 143.395ZM84.7673 135.534V143.261H85.7673V135.534H84.7673ZM62.6237 125.104L85.049 135.984L85.4856 135.084L63.0603 124.204L62.6237 125.104ZM63.8589 122.312L62.4313 124.369L63.2527 124.939L64.6804 122.882L63.8589 122.312ZM82.9806 110.969L64.0154 122.167L64.5239 123.028L83.4891 111.83L82.9806 110.969ZM84.7139 109.144C84.4714 109.772 83.9159 110.417 82.9806 110.969L83.4891 111.83C84.5605 111.198 85.302 110.397 85.6468 109.504L84.7139 109.144ZM85.0816 108.816L84.9606 108.875L85.4001 109.773L85.521 109.714L85.0816 108.816ZM84.8013 108.924V109.265H85.8013V108.924H84.8013ZM84.8131 107.917C84.879 108.216 84.879 108.518 84.8131 108.817L85.7895 109.032C85.8868 108.591 85.8868 108.143 85.7895 107.702L84.8131 107.917ZM84.8013 100.72V107.81H85.8013V100.72H84.8013ZM77.0737 104.601L85.4894 101.184L85.1132 100.257L76.6974 103.675L77.0737 104.601ZM73.2158 105.765C74.2488 105.155 75.5532 104.773 76.935 104.635L76.8361 103.64C75.344 103.789 73.8922 104.204 72.7074 104.904L73.2158 105.765ZM71.0615 107.037L73.2158 105.765L72.7074 104.904L70.5531 106.176L71.0615 107.037ZM50.6935 115.314L70.9954 107.069L70.6192 106.143L50.3173 114.387L50.6935 115.314ZM10.4067 101.238L50.3391 115.322L50.6717 114.379L10.7394 100.295L10.4067 101.238ZM11.0731 107.55V100.766H10.0731V107.55H11.0731ZM10.9419 107.194L10.8449 107.131L10.3012 107.97L10.3982 108.033L10.9419 107.194ZM12.9395 110.969C11.3128 110.009 10.8377 108.792 11.1489 107.757L10.1913 107.469C9.70035 109.101 10.5687 110.731 12.4311 111.83L12.9395 110.969ZM33.1549 122.905L12.9395 110.969L12.4311 111.83L32.6464 123.766L33.1549 122.905ZM17.4967 133.372L33.1621 123.762L32.6392 122.909L16.9738 132.52L17.4967 133.372ZM10.7506 136.198L17.428 133.407L17.0424 132.485L10.365 135.275L10.7506 136.198ZM11.0578 143.925L11.0578 135.737L10.0578 135.737L10.0578 143.925L11.0578 143.925ZM11.0578 143.98C11.0576 143.964 11.0576 143.947 11.0578 143.931L10.0578 143.919C10.0575 143.943 10.0575 143.968 10.0578 143.992L11.0578 143.98Z" fill="#0E2526"/>
<path d="M47.934 123.237V132.058" stroke="#0E2526"/>
<mask id="path-16-inside-5" fill="white">
<path fill-rule="evenodd" clip-rule="evenodd" d="M22.6653 96.9658C19.7997 95.3113 15.1538 95.3113 12.2882 96.9658C9.42265 98.6202 9.42265 101.303 12.2882 102.957L37.5424 117.538L12.2882 132.118C9.42265 133.772 9.42265 136.455 12.2882 138.109C15.1538 139.764 19.7997 139.764 22.6653 138.109L47.9195 123.529L73.1737 138.109C76.0392 139.764 80.6852 139.764 83.5508 138.109C86.4163 136.455 86.4163 133.772 83.5508 132.118L58.2966 117.538L83.5508 102.957C86.4163 101.303 86.4163 98.6202 83.5508 96.9658C80.6852 95.3113 76.0392 95.3113 73.1737 96.9658L47.9195 111.546L22.6653 96.9658Z"/>
</mask>
<path fill-rule="evenodd" clip-rule="evenodd" d="M22.6653 96.9658C19.7997 95.3113 15.1538 95.3113 12.2882 96.9658C9.42265 98.6202 9.42265 101.303 12.2882 102.957L37.5424 117.538L12.2882 132.118C9.42265 133.772 9.42265 136.455 12.2882 138.109C15.1538 139.764 19.7997 139.764 22.6653 138.109L47.9195 123.529L73.1737 138.109C76.0392 139.764 80.6852 139.764 83.5508 138.109C86.4163 136.455 86.4163 133.772 83.5508 132.118L58.2966 117.538L83.5508 102.957C86.4163 101.303 86.4163 98.6202 83.5508 96.9658C80.6852 95.3113 76.0392 95.3113 73.1737 96.9658L47.9195 111.546L22.6653 96.9658Z" fill="#E4E4E4"/>
<path d="M12.2882 96.9658L12.7882 97.8318L12.7882 97.8318L12.2882 96.9658ZM22.6653 96.9658L22.1653 97.8318L22.1653 97.8318L22.6653 96.9658ZM12.2882 102.957L11.7882 103.823L11.7882 103.823L12.2882 102.957ZM37.5424 117.538L38.0424 118.404L39.5424 117.538L38.0424 116.671L37.5424 117.538ZM12.2882 132.118L11.7882 131.252L11.7882 131.252L12.2882 132.118ZM12.2882 138.109L11.7882 138.975L11.7882 138.975L12.2882 138.109ZM22.6653 138.109L23.1653 138.975L23.1653 138.975L22.6653 138.109ZM47.9195 123.529L48.4195 122.663L47.9195 122.374L47.4195 122.663L47.9195 123.529ZM73.1737 138.109L73.6737 137.243L73.1737 138.109ZM83.5508 132.118L84.0508 131.252L84.0508 131.252L83.5508 132.118ZM58.2966 117.538L57.7966 116.671L56.2966 117.538L57.7966 118.404L58.2966 117.538ZM83.5508 102.957L83.0508 102.091L83.0508 102.091L83.5508 102.957ZM83.5508 96.9658L84.0508 96.0997L83.5508 96.9658ZM73.1737 96.9658L73.6737 97.8318L73.6737 97.8318L73.1737 96.9658ZM47.9195 111.546L47.4195 112.412L47.9195 112.701L48.4195 112.412L47.9195 111.546ZM12.7882 97.8318C14.0332 97.113 15.7279 96.7249 17.4767 96.7249C19.2256 96.7249 20.9203 97.113 22.1653 97.8318L23.1653 96.0997C21.5447 95.1641 19.4836 94.7249 17.4767 94.7249C15.4698 94.7249 13.4088 95.1641 11.7882 96.0997L12.7882 97.8318ZM12.7882 102.091C11.5376 101.369 11.139 100.562 11.139 99.9614C11.139 99.3604 11.5376 98.5538 12.7882 97.8318L11.7882 96.0997C10.1732 97.0321 9.13904 98.394 9.13904 99.9614C9.13904 101.529 10.1732 102.891 11.7882 103.823L12.7882 102.091ZM38.0424 116.671L12.7882 102.091L11.7882 103.823L37.0424 118.404L38.0424 116.671ZM37.0424 116.671L11.7882 131.252L12.7882 132.984L38.0424 118.404L37.0424 116.671ZM11.7882 131.252C10.1732 132.184 9.13904 133.546 9.13904 135.114C9.13904 136.681 10.1732 138.043 11.7882 138.975L12.7882 137.243C11.5376 136.521 11.139 135.715 11.139 135.114C11.139 134.513 11.5376 133.706 12.7882 132.984L11.7882 131.252ZM11.7882 138.975C13.4088 139.911 15.4698 140.35 17.4767 140.35C19.4836 140.35 21.5447 139.911 23.1653 138.975L22.1653 137.243C20.9203 137.962 19.2256 138.35 17.4767 138.35C15.7279 138.35 14.0332 137.962 12.7882 137.243L11.7882 138.975ZM23.1653 138.975L48.4195 124.395L47.4195 122.663L22.1653 137.243L23.1653 138.975ZM73.6737 137.243L48.4195 122.663L47.4195 124.395L72.6737 138.975L73.6737 137.243ZM83.0508 137.243C81.8058 137.962 80.1111 138.35 78.3622 138.35C76.6134 138.35 74.9187 137.962 73.6737 137.243L72.6737 138.975C74.2943 139.911 76.3553 140.35 78.3622 140.35C80.3691 140.35 82.4302 139.911 84.0508 138.975L83.0508 137.243ZM83.0508 132.984C84.3014 133.706 84.6999 134.513 84.6999 135.114C84.6999 135.715 84.3014 136.521 83.0508 137.243L84.0508 138.975C85.6657 138.043 86.6999 136.681 86.6999 135.114C86.6999 133.546 85.6657 132.184 84.0508 131.252L83.0508 132.984ZM57.7966 118.404L83.0508 132.984L84.0508 131.252L58.7966 116.671L57.7966 118.404ZM58.7966 118.404L84.0508 103.823L83.0508 102.091L57.7966 116.671L58.7966 118.404ZM84.0508 103.823C85.6657 102.891 86.6999 101.529 86.6999 99.9614C86.6999 98.394 85.6657 97.0321 84.0508 96.0997L83.0508 97.8318C84.3014 98.5538 84.6999 99.3604 84.6999 99.9614C84.6999 100.562 84.3014 101.369 83.0508 102.091L84.0508 103.823ZM84.0508 96.0997C82.4302 95.1641 80.3691 94.7249 78.3622 94.7249C76.3553 94.7249 74.2943 95.1641 72.6737 96.0997L73.6737 97.8318C74.9187 97.113 76.6134 96.7249 78.3622 96.7249C80.1111 96.7249 81.8058 97.113 83.0508 97.8318L84.0508 96.0997ZM72.6737 96.0997L47.4195 110.68L48.4195 112.412L73.6737 97.8318L72.6737 96.0997ZM22.1653 97.8318L47.4195 112.412L48.4195 110.68L23.1653 96.0997L22.1653 97.8318Z" fill="#0E2526" mask="url(#path-16-inside-5)"/>
<mask id="path-18-inside-6" fill="white">
<path fill-rule="evenodd" clip-rule="evenodd" d="M53.237 97.9286H42.0122V115.987C41.819 116.944 42.3582 117.941 43.6299 118.675C45.8377 119.95 49.4173 119.95 51.6251 118.675C52.9089 117.934 53.4462 116.925 53.237 115.96V97.9286Z"/>
</mask>
<path fill-rule="evenodd" clip-rule="evenodd" d="M53.237 97.9286H42.0122V115.987C41.819 116.944 42.3582 117.941 43.6299 118.675C45.8377 119.95 49.4173 119.95 51.6251 118.675C52.9089 117.934 53.4462 116.925 53.237 115.96V97.9286Z" fill="#AAAAAA"/>
<path d="M42.0122 97.9286V96.9286H41.0122V97.9286H42.0122ZM53.237 97.9286H54.237V96.9286H53.237V97.9286ZM42.0122 115.987L42.9925 116.185L43.0122 116.087V115.987H42.0122ZM43.6299 118.675L43.1299 119.541L43.1299 119.541L43.6299 118.675ZM51.6251 118.675L52.1251 119.541L52.1251 119.541L51.6251 118.675ZM53.237 115.96H52.237V116.067L52.2596 116.172L53.237 115.96ZM42.0122 98.9286H53.237V96.9286H42.0122V98.9286ZM43.0122 115.987V97.9286H41.0122V115.987H43.0122ZM44.1299 117.809C43.0693 117.197 42.9159 116.564 42.9925 116.185L41.032 115.789C40.722 117.324 41.6471 118.685 43.1299 119.541L44.1299 117.809ZM51.1251 117.809C50.209 118.338 48.9453 118.631 47.6275 118.631C46.3096 118.631 45.046 118.338 44.1299 117.809L43.1299 119.541C44.4216 120.287 46.0516 120.631 47.6275 120.631C49.2033 120.631 50.8334 120.287 52.1251 119.541L51.1251 117.809ZM52.2596 116.172C52.3423 116.553 52.1954 117.191 51.1251 117.809L52.1251 119.541C53.6223 118.677 54.55 117.297 54.2143 115.748L52.2596 116.172ZM52.237 97.9286V115.96H54.237V97.9286H52.237Z" fill="#0E2526" mask="url(#path-18-inside-6)"/>
<rect x="61.3694" y="36.852" width="13.649" height="27.9942" fill="#AAAAAA" stroke="#0E2526"/>
<rect x="61.3694" y="36.852" width="8.7212" height="27.9942" fill="#E4E4E4" stroke="#0E2526"/>
<mask id="path-22-inside-7" fill="white">
<path fill-rule="evenodd" clip-rule="evenodd" d="M64.415 64.76C55.3274 59.5133 40.5936 59.5133 31.506 64.76L16.875 73.2072C16.6696 73.3258 16.4689 73.446 16.2728 73.5679H10.1389L10.1389 81.5936C9.59484 85.3929 11.8402 89.3004 16.875 92.2072L31.506 100.654C40.5936 105.901 55.3274 105.901 64.415 100.654L79.046 92.2072C84.29 89.1796 86.508 85.0664 85.6998 81.1206V73.5679H79.6483C79.4521 73.446 79.2514 73.3258 79.046 73.2072L64.415 64.76Z"/>
</mask>
<path fill-rule="evenodd" clip-rule="evenodd" d="M64.415 64.76C55.3274 59.5133 40.5936 59.5133 31.506 64.76L16.875 73.2072C16.6696 73.3258 16.4689 73.446 16.2728 73.5679H10.1389L10.1389 81.5936C9.59484 85.3929 11.8402 89.3004 16.875 92.2072L31.506 100.654C40.5936 105.901 55.3274 105.901 64.415 100.654L79.046 92.2072C84.29 89.1796 86.508 85.0664 85.6998 81.1206V73.5679H79.6483C79.4521 73.446 79.2514 73.3258 79.046 73.2072L64.415 64.76Z" fill="#859166"/>
<path d="M31.506 64.76L31.006 63.894L31.006 63.894L31.506 64.76ZM64.415 64.76L64.915 63.8939L64.915 63.8939L64.415 64.76ZM16.875 73.2072L17.375 74.0732L17.375 74.0732L16.875 73.2072ZM16.2728 73.5679V74.5679H16.5581L16.8005 74.4173L16.2728 73.5679ZM10.1389 73.5679V72.5679H9.13892L9.13892 73.5679L10.1389 73.5679ZM10.1389 81.5936L11.1288 81.7353L11.1389 81.6648L11.1389 81.5936L10.1389 81.5936ZM16.875 92.2072L17.375 91.3412L17.375 91.3412L16.875 92.2072ZM31.506 100.654L31.006 101.52L31.006 101.52L31.506 100.654ZM64.415 100.654L64.915 101.52L64.915 101.52L64.415 100.654ZM79.046 92.2072L78.546 91.3412L78.546 91.3412L79.046 92.2072ZM85.6998 81.1206H84.6998V81.2219L84.7202 81.3212L85.6998 81.1206ZM85.6998 73.5679H86.6998V72.5679H85.6998V73.5679ZM79.6483 73.5679L79.1205 74.4173L79.3629 74.5679H79.6483V73.5679ZM79.046 73.2072L79.546 72.3412L79.546 72.3412L79.046 73.2072ZM32.006 65.626C36.362 63.1111 42.1342 61.825 47.9605 61.825C53.7868 61.8249 59.559 63.1111 63.915 65.626L64.915 63.8939C60.1834 61.1622 54.0449 59.8249 47.9605 59.825C41.8761 59.825 35.7376 61.1622 31.006 63.894L32.006 65.626ZM17.375 74.0732L32.006 65.626L31.006 63.894L16.375 72.3412L17.375 74.0732ZM16.8005 74.4173C16.9873 74.3012 17.1788 74.1865 17.375 74.0732L16.375 72.3412C16.1604 72.4651 15.9504 72.5908 15.745 72.7185L16.8005 74.4173ZM10.1389 74.5679H16.2728V72.5679H10.1389V74.5679ZM11.1389 81.5936L11.1389 73.5679L9.13892 73.5679L9.13892 81.5936L11.1389 81.5936ZM17.375 91.3412C12.5423 88.551 10.664 84.981 11.1288 81.7353L9.14901 81.4518C8.52565 85.8049 11.1381 90.0497 16.375 93.0732L17.375 91.3412ZM32.006 99.7884L17.375 91.3412L16.375 93.0732L31.006 101.52L32.006 99.7884ZM63.915 99.7884C59.559 102.303 53.7868 103.589 47.9605 103.589C42.1342 103.589 36.362 102.303 32.006 99.7884L31.006 101.52C35.7376 104.252 41.8761 105.589 47.9605 105.589C54.0449 105.589 60.1834 104.252 64.915 101.52L63.915 99.7884ZM78.546 91.3412L63.915 99.7884L64.915 101.52L79.546 93.0732L78.546 91.3412ZM84.7202 81.3212C85.4097 84.6879 83.5785 88.4357 78.546 91.3412L79.546 93.0732C85.0016 89.9235 87.6062 85.445 86.6795 80.9199L84.7202 81.3212ZM84.6998 73.5679V81.1206H86.6998V73.5679H84.6998ZM79.6483 74.5679H85.6998V72.5679H79.6483V74.5679ZM78.546 74.0732C78.7422 74.1865 78.9337 74.3012 79.1205 74.4173L80.176 72.7185C79.9706 72.5908 79.7606 72.465 79.546 72.3412L78.546 74.0732ZM63.915 65.626L78.546 74.0732L79.546 72.3412L64.915 63.8939L63.915 65.626Z" fill="#0E2526" mask="url(#path-22-inside-7)"/>
<rect x="-2.98023e-08" y="0.5" width="53.8945" height="53.8945" rx="18.5" transform="matrix(0.866025 0.5 -0.866025 0.5 48.3931 46.3707)" fill="#B7C888" stroke="#0E2526"/>
<path fill-rule="evenodd" clip-rule="evenodd" d="M48.9865 12.6345L44.1189 6.28456L51.6289 1.96681C53.3632 0.875238 55.8061 0.982306 58.5127 2.54497L81.0088 15.5331C86.27 18.5706 90.5351 25.9579 90.5351 32.0331V42.3582C90.5351 45.8843 89.0982 48.1934 86.8637 48.9163L79.5593 52.5182L72.0003 42.6571L58.5127 34.8701C53.2515 31.8325 48.9865 24.4452 48.9865 18.3701V12.6345Z" fill="#B7C888"/>
<path d="M48.9865 12.6345H49.4865V12.4649L49.3833 12.3303L48.9865 12.6345ZM44.1189 6.28456L43.8697 5.85109L43.3747 6.13565L43.7221 6.58875L44.1189 6.28456ZM51.6289 1.96681L51.8781 2.40027L51.8868 2.39529L51.8952 2.38997L51.6289 1.96681ZM58.5127 2.54497L58.2627 2.97798L58.2627 2.97798L58.5127 2.54497ZM81.0088 15.5331L81.2588 15.1001L81.2588 15.1001L81.0088 15.5331ZM86.8637 48.9163L86.7098 48.4406L86.6751 48.4518L86.6425 48.4679L86.8637 48.9163ZM79.5593 52.5182L79.1625 52.8224L79.4122 53.1482L79.7804 52.9667L79.5593 52.5182ZM72.0003 42.6571L72.3971 42.3529L72.3365 42.2739L72.2503 42.2241L72.0003 42.6571ZM58.5127 34.8701L58.2627 35.3031L58.2627 35.3031L58.5127 34.8701ZM49.3833 12.3303L44.5157 5.98037L43.7221 6.58875L48.5896 12.9387L49.3833 12.3303ZM44.3681 6.71803L51.8781 2.40027L51.3797 1.53334L43.8697 5.85109L44.3681 6.71803ZM51.8952 2.38997C53.4164 1.43253 55.6498 1.46937 58.2627 2.97798L58.7627 2.11195C55.9625 0.495238 53.3099 0.317947 51.3625 1.54365L51.8952 2.38997ZM58.2627 2.97798L80.7588 15.9661L81.2588 15.1001L58.7627 2.11195L58.2627 2.97798ZM80.7588 15.9661C83.2955 17.4307 85.6202 19.9639 87.3119 22.894C89.0035 25.824 90.0351 29.1039 90.0351 32.0331H91.0351C91.0351 28.8871 89.9341 25.4358 88.1779 22.394C86.4217 19.3522 83.9833 16.673 81.2588 15.1001L80.7588 15.9661ZM90.0351 32.0331V42.3582H91.0351V32.0331H90.0351ZM90.0351 42.3582C90.0351 45.7614 88.6608 47.8094 86.7098 48.4406L87.0176 49.3921C89.5356 48.5774 91.0351 46.0073 91.0351 42.3582H90.0351ZM86.6425 48.4679L79.3382 52.0698L79.7804 52.9667L87.0848 49.3648L86.6425 48.4679ZM79.9561 52.214L72.3971 42.3529L71.6034 42.9613L79.1625 52.8224L79.9561 52.214ZM72.2503 42.2241L58.7627 34.4371L58.2627 35.3031L71.7503 43.0901L72.2503 42.2241ZM58.7627 34.4371C56.226 32.9725 53.9013 30.4392 52.2097 27.5092C50.518 24.5791 49.4865 21.2992 49.4865 18.3701H48.4865C48.4865 21.5161 49.5875 24.9674 51.3436 28.0092C53.0998 31.0509 55.5382 33.7301 58.2627 35.3031L58.7627 34.4371ZM49.4865 18.3701V12.6345H48.4865V18.3701H49.4865Z" fill="#0E2526"/>
<rect x="0.433013" y="0.75" width="46.9762" height="31.4591" rx="10.5" transform="matrix(0.866025 0.5 -2.20305e-08 1 40.9887 1.06398)" fill="#859166" stroke="#0E2526"/>
</svg>
