<svg width="93" height="150" viewBox="0 0 93 150" fill="none" xmlns="http://www.w3.org/2000/svg">
<mask id="path-1-inside-1" fill="white">
<path fill-rule="evenodd" clip-rule="evenodd" d="M72.9806 144.216C84.7964 142.512 92.6566 131.896 92.6566 114.622C92.6566 87.9694 73.9454 55.5607 50.8639 42.2346C36.661 34.0346 24.1129 34.9708 16.5608 43.1141C6.69965 46.1096 0.33667 56.1488 0.33667 71.5777C0.33667 97.843 18.7762 129.781 41.5226 142.914C54.1363 150.196 65.4257 150.167 72.9806 144.216ZM50.8639 138.751C58.9855 143.44 66.5659 145.141 72.9806 144.216C79.0494 139.436 82.7085 130.835 82.7085 119.135C82.7085 92.8699 64.2689 60.9317 41.5226 47.799C32.1381 42.3809 23.4867 41.0103 16.5608 43.1141C11.8399 48.2047 9.07129 56.1116 9.07129 66.3636C9.07129 93.0158 27.7825 125.425 50.8639 138.751Z"/>
</mask>
<path fill-rule="evenodd" clip-rule="evenodd" d="M72.9806 144.216C84.7964 142.512 92.6566 131.896 92.6566 114.622C92.6566 87.9694 73.9454 55.5607 50.8639 42.2346C36.661 34.0346 24.1129 34.9708 16.5608 43.1141C6.69965 46.1096 0.33667 56.1488 0.33667 71.5777C0.33667 97.843 18.7762 129.781 41.5226 142.914C54.1363 150.196 65.4257 150.167 72.9806 144.216ZM50.8639 138.751C58.9855 143.44 66.5659 145.141 72.9806 144.216C79.0494 139.436 82.7085 130.835 82.7085 119.135C82.7085 92.8699 64.2689 60.9317 41.5226 47.799C32.1381 42.3809 23.4867 41.0103 16.5608 43.1141C11.8399 48.2047 9.07129 56.1116 9.07129 66.3636C9.07129 93.0158 27.7825 125.425 50.8639 138.751Z" fill="#EEEEEE"/>
<path d="M50.8639 42.2346L51.3639 41.3686L51.3639 41.3686L50.8639 42.2346ZM41.5226 142.914L42.0226 142.048L42.0226 142.048L41.5226 142.914ZM50.8639 138.751L51.3639 137.885L51.3639 137.885L50.8639 138.751ZM41.5226 47.799L41.0226 48.6651L41.0226 48.6651L41.5226 47.799ZM9.07129 66.3636L10.0713 66.3636V66.3636H9.07129ZM91.6566 114.622C91.6566 123.115 89.7235 129.875 86.4244 134.693C83.1375 139.492 78.4638 142.415 72.8378 143.226L73.1233 145.206C79.3131 144.313 84.4774 141.076 88.0746 135.823C91.6595 130.588 93.6566 123.402 93.6566 114.622H91.6566ZM50.3639 43.1007C61.7169 49.6553 72.0513 60.9431 79.5498 73.9308C87.0482 86.9186 91.6566 101.512 91.6566 114.622H93.6566C93.6566 101.079 88.9093 86.142 81.2818 72.9308C73.6543 59.7196 63.0924 48.1401 51.3639 41.3686L50.3639 43.1007ZM17.294 43.7941C24.4093 36.1218 36.3901 35.0329 50.3639 43.1007L51.3639 41.3686C36.9319 33.0363 23.8165 33.8198 15.8276 42.4341L17.294 43.7941ZM1.33667 71.5777C1.33667 56.3983 7.56953 46.8905 16.8515 44.0709L16.2702 42.1573C5.82977 45.3287 -0.66333 55.8993 -0.66333 71.5777H1.33667ZM42.0226 142.048C30.8372 135.59 20.6544 124.468 13.2658 111.671C5.87709 98.8729 1.33667 84.4935 1.33667 71.5777H-0.66333C-0.66333 84.9272 4.01602 99.6495 11.5337 112.671C19.0514 125.692 29.4616 137.105 41.0226 143.78L42.0226 142.048ZM72.3618 143.43C65.2469 149.034 54.434 149.214 42.0226 142.048L41.0226 143.78C53.8386 151.179 65.6044 151.299 73.5993 145.002L72.3618 143.43ZM72.8378 143.226C66.706 144.111 59.3519 142.496 51.3639 137.885L50.3639 139.617C58.619 144.383 66.4259 146.172 73.1233 145.206L72.8378 143.226ZM81.7085 119.135C81.7085 130.646 78.1109 138.902 72.3618 143.43L73.5993 145.002C79.9879 139.97 83.7085 131.025 83.7085 119.135H81.7085ZM41.0226 48.6651C52.208 55.123 62.3907 66.2448 69.7794 79.0424C77.168 91.8399 81.7085 106.219 81.7085 119.135H83.7085C83.7085 105.786 79.0291 91.0634 71.5114 78.0424C63.9937 65.0213 53.5835 53.6077 42.0226 46.933L41.0226 48.6651ZM16.8515 44.0709C23.4303 42.0725 31.7914 43.3355 41.0226 48.6651L42.0226 46.933C32.4847 41.4263 23.543 39.948 16.2702 42.1573L16.8515 44.0709ZM10.0713 66.3636C10.0713 56.2782 12.795 48.6453 17.294 43.7941L15.8276 42.4341C10.8847 47.764 8.07129 55.945 8.07129 66.3636H10.0713ZM51.3639 137.885C40.011 131.33 29.6766 120.042 22.1781 107.054C14.6796 94.0666 10.0713 79.4729 10.0713 66.3636L8.07129 66.3636C8.07129 79.9065 12.8186 94.8432 20.446 108.054C28.0735 121.266 38.6354 132.845 50.3639 139.617L51.3639 137.885Z" fill="#0E2526" mask="url(#path-1-inside-1)"/>
<mask id="path-3-inside-2" fill="white">
<path fill-rule="evenodd" clip-rule="evenodd" d="M42.1293 143.687C65.2107 157.013 83.9219 146.21 83.9219 119.558C83.9219 92.9057 65.2107 60.497 42.1293 47.1709C19.0479 33.8448 0.33667 44.6478 0.33667 71.2999C0.33667 97.952 19.0479 130.361 42.1293 143.687ZM41.1383 139.72C62.0485 151.792 78.9996 141.831 78.9996 117.47C78.9996 93.1092 62.0485 63.5742 41.1383 51.5017C20.228 39.4291 3.27692 49.3907 3.27692 73.7514C3.27692 98.1121 20.228 127.647 41.1383 139.72Z"/>
</mask>
<path fill-rule="evenodd" clip-rule="evenodd" d="M42.1293 143.687C65.2107 157.013 83.9219 146.21 83.9219 119.558C83.9219 92.9057 65.2107 60.497 42.1293 47.1709C19.0479 33.8448 0.33667 44.6478 0.33667 71.2999C0.33667 97.952 19.0479 130.361 42.1293 143.687ZM41.1383 139.72C62.0485 151.792 78.9996 141.831 78.9996 117.47C78.9996 93.1092 62.0485 63.5742 41.1383 51.5017C20.228 39.4291 3.27692 49.3907 3.27692 73.7514C3.27692 98.1121 20.228 127.647 41.1383 139.72Z" fill="#C4C4C4"/>
<path d="M42.1293 143.687L42.6293 142.821L42.6293 142.821L42.1293 143.687ZM42.1293 47.1709L41.6293 48.0369L41.6293 48.0369L42.1293 47.1709ZM41.1383 139.72L40.6383 140.586L40.6383 140.586L41.1383 139.72ZM41.1383 51.5017L41.6383 50.6357L41.6383 50.6357L41.1383 51.5017ZM3.27692 73.7514L4.27692 73.7514L3.27692 73.7514ZM82.9219 119.558C82.9219 132.674 78.3257 141.623 71.1812 145.748C64.0366 149.873 53.9878 149.379 42.6293 142.821L41.6293 144.553C53.3522 151.321 64.1997 152.088 72.1812 147.48C80.1626 142.872 84.9219 133.094 84.9219 119.558H82.9219ZM41.6293 48.0369C52.9822 54.5916 63.3167 65.8794 70.8151 78.8671C78.3136 91.8548 82.9219 106.449 82.9219 119.558H84.9219C84.9219 106.015 80.1747 91.0783 72.5472 77.8671C64.9197 64.6559 54.3578 53.0763 42.6293 46.3049L41.6293 48.0369ZM1.33667 71.2999C1.33667 58.1842 5.93293 49.2345 13.0774 45.1096C20.222 40.9847 30.2708 41.4791 41.6293 48.0369L42.6293 46.3049C30.9064 39.5367 20.0589 38.7695 12.0774 43.3776C4.09601 47.9856 -0.66333 57.7635 -0.66333 71.2999H1.33667ZM42.6293 142.821C31.2764 136.266 20.9419 124.978 13.4435 111.991C5.945 99.0029 1.33667 84.4091 1.33667 71.2999H-0.66333C-0.66333 84.8428 4.08393 99.7795 11.7114 112.991C19.3389 126.202 29.9008 137.781 41.6293 144.553L42.6293 142.821ZM77.9996 117.47C77.9996 129.443 73.8408 137.612 67.4036 141.395C60.9708 145.175 51.9083 144.783 41.6383 138.854L40.6383 140.586C51.2785 146.729 61.1467 147.392 68.4169 143.119C75.6829 138.85 79.9996 129.857 79.9996 117.47H77.9996ZM40.6383 52.3677C50.904 58.2946 60.2555 68.5492 67.043 80.3755C73.8302 92.2013 77.9996 105.505 77.9996 117.47H79.9996C79.9996 105.075 75.6935 91.43 68.7776 79.38C61.862 67.3304 52.2828 56.7812 41.6383 50.6357L40.6383 52.3677ZM4.27692 73.7514C4.27692 61.7781 8.43573 53.6091 14.8729 49.8262C21.3057 46.0459 30.3682 46.4383 40.6383 52.3677L41.6383 50.6357C30.9981 44.4925 21.1299 43.8294 13.8596 48.1019C6.59367 52.3719 2.27692 61.364 2.27692 73.7514L4.27692 73.7514ZM41.6383 138.854C31.3725 132.927 22.021 122.672 15.2336 110.846C8.44637 99.0201 4.27692 85.7167 4.27692 73.7514L2.27692 73.7514C2.27692 86.1468 6.58303 99.7914 13.499 111.841C20.4146 123.891 29.9938 134.44 40.6383 140.586L41.6383 138.854Z" fill="black" mask="url(#path-3-inside-2)"/>
<path d="M41.5929 43.247L15.2864 17.3879L68.0809 17.3879L41.5929 43.247Z" fill="#ECECEC" stroke="#0E2526"/>
<mask id="mask0" mask-type="alpha" maskUnits="userSpaceOnUse" x="17" y="18" width="49" height="25">
<path d="M41.5927 42.5788L17.4509 18.908L41.7509 33.2585L65.7885 18.9363L41.5927 42.5788Z" fill="#F4F4F4"/>
</mask>
<g mask="url(#mask0)">
<path d="M41.6831 43.8171L41.6831 31.1205" stroke="#DFDFDF"/>
<path d="M34.5677 36.5266L41.6197 32.6953" stroke="#DFDFDF"/>
<path d="M34.5677 36.5266L33.104 27.6306" stroke="#DFDFDF"/>
<path d="M28.2676 31.2581L33.1043 27.6306" stroke="#DFDFDF"/>
<path d="M28.713 30.7432L24.0036 21.4874" stroke="#DFDFDF"/>
<path d="M20.376 23.4939L24.0035 21.4873" stroke="#DFDFDF"/>
<path d="M55.9784 21.4874L63.0304 25.3187" stroke="#DFDFDF"/>
<path d="M58.3461 21.8695L55.1412 29.9459" stroke="#DFDFDF"/>
<path d="M50.5696 26.69L55.4063 30.3175" stroke="#DFDFDF"/>
<path d="M50.8676 26.9467L47.7115 36.5267" stroke="#DFDFDF"/>
<path d="M42.1293 33.122L47.7113 37.0324" stroke="#DFDFDF"/>
</g>
<path d="M41.6909 32.6955L15.0629 16.9043L41.6909 0.644714L68.319 16.9043L41.6909 32.6955Z" fill="white" stroke="#0E2526"/>
<path d="M41.6912 18.8113L25.9432 10.3006L41.6912 0.644714L57.5543 10.3006L41.6912 18.8113Z" fill="white" stroke="#0E2526"/>
<mask id="mask1" mask-type="alpha" maskUnits="userSpaceOnUse" x="26" y="1" width="31" height="18">
<path d="M55.5973 10.237L41.6788 17.6947L27.8614 10.2371L41.6789 1.77584L55.5973 10.237Z" fill="white" stroke="#0E2526"/>
</mask>
<g mask="url(#mask1)">
<path d="M41.6663 0.82251V18.495" stroke="#DFDFDF"/>
<path d="M56.6213 10.1667L26.8758 10.2342" stroke="#DFDFDF"/>
</g>
<mask id="mask2" mask-type="alpha" maskUnits="userSpaceOnUse" x="15" y="10" width="53" height="23">
<path d="M41.6836 32.1314L15.9032 16.926L25.9482 10.8437L41.6836 19.3924L57.5111 10.8437L67.4713 16.8802L41.6836 32.1314Z" fill="white"/>
</mask>
<g mask="url(#mask2)">
<path d="M41.6661 18.8114V32.6956" stroke="#DFDFDF"/>
<path d="M41.6837 18.8113L31.8661 28.6289" stroke="#DFDFDF"/>
<path d="M32.4972 13.7761L32.6213 28.4297" stroke="#DFDFDF"/>
<path d="M32.0406 13.6303L21.6786 23.9923" stroke="#DFDFDF"/>
<path d="M25.9432 10.2722L22.4492 24.5037" stroke="#DFDFDF"/>
<path d="M60.8705 21.4876L57.5545 9.72809" stroke="#DFDFDF"/>
<path d="M60.637 21.4876L50.2074 14.035" stroke="#DFDFDF"/>
<path d="M51.1414 27.1888L50.363 13.4124" stroke="#DFDFDF"/>
<path d="M52.7756 29.2124L41.7487 18.2625" stroke="#DFDFDF"/>
</g>
</svg>
