<svg width="113" height="134" viewBox="0 0 113 134" fill="none" xmlns="http://www.w3.org/2000/svg">
<path fill-rule="evenodd" clip-rule="evenodd" d="M94.716 1.62061C94.5834 1.55553 94.4539 1.49344 94.328 1.4343V25.0122L84.3435 37.162H79.6037L79.664 16.9914L73.7802 14.4985C73.7802 14.4985 73.2659 15.0624 72.6326 15.8001C69.2514 19.6702 67.1351 22.9474 63.7206 29.7764C61.6827 33.8522 60.5308 42.2697 62.0371 48.7378C63.2421 53.9124 68.6139 57.9166 71.1491 59.272V127.24C71.1491 129.445 72.6158 130.326 73.9156 130.492L79.7316 132.974L82.845 126.178C86.9821 123.809 91.5758 121.14 93.0177 120.233C95.1738 118.878 95.8322 115.809 95.8919 114.444V44.7406C96.0453 44.4913 96.324 44.1211 96.6984 43.6236C97.8901 42.0403 100.052 39.1683 102.234 34.8038C105.562 28.1485 106.234 19.7091 104.876 13.2183C104.24 10.1837 102.662 7.7784 100.819 5.91333L100.842 4.17232L94.716 1.62061Z" fill="#E4E4E4"/>
<path d="M94.716 1.62061L94.4958 2.06951L94.5096 2.07627L94.5238 2.08218L94.716 1.62061ZM94.328 1.4343L94.5407 0.981763L93.828 0.646908V1.4343H94.328ZM94.328 25.0122L94.7143 25.3296L94.828 25.1913V25.0122H94.328ZM84.3435 37.162V37.662H84.5798L84.7298 37.4795L84.3435 37.162ZM79.6037 37.162L79.1037 37.1605L79.1022 37.662H79.6037V37.162ZM79.664 16.9914L80.164 16.9929L80.1649 16.6607L79.859 16.531L79.664 16.9914ZM73.7802 14.4985L73.9753 14.0381L73.6494 13.9L73.4108 14.1615L73.7802 14.4985ZM72.6326 15.8001L73.0091 16.1291L73.0119 16.1258L72.6326 15.8001ZM63.7206 29.7764L64.1678 30L64.1678 30L63.7206 29.7764ZM62.0371 48.7378L62.524 48.6244L62.524 48.6244L62.0371 48.7378ZM71.1491 59.272H71.6491V58.9723L71.3848 58.831L71.1491 59.272ZM73.9156 130.492L74.1118 130.032L74.048 130.005L73.9792 129.996L73.9156 130.492ZM79.7316 132.974L79.5354 133.434L79.9833 133.625L80.1862 133.183L79.7316 132.974ZM82.845 126.178L82.5965 125.744L82.4572 125.824L82.3904 125.97L82.845 126.178ZM93.0177 120.233L93.2838 120.657L93.2838 120.657L93.0177 120.233ZM95.8919 114.444L96.3914 114.465L96.3919 114.454V114.444H95.8919ZM95.8919 44.7406L95.466 44.4786L95.3919 44.5991V44.7406H95.8919ZM96.6984 43.6236L97.0979 43.9242L97.0979 43.9242L96.6984 43.6236ZM102.234 34.8038L101.787 34.5802L101.787 34.5802L102.234 34.8038ZM104.876 13.2183L104.386 13.3208L104.386 13.3208L104.876 13.2183ZM100.819 5.91333L100.319 5.90652L100.316 6.11589L100.463 6.26481L100.819 5.91333ZM100.842 4.17232L101.342 4.17914L101.347 3.84084L101.035 3.71076L100.842 4.17232ZM94.9362 1.17172C94.801 1.10537 94.669 1.04207 94.5407 0.981763L94.1154 1.88683C94.2388 1.94481 94.3657 2.00569 94.4958 2.06951L94.9362 1.17172ZM93.828 1.4343V25.0122H94.828V1.4343H93.828ZM93.9417 24.6947L83.9572 36.8446L84.7298 37.4795L94.7143 25.3296L93.9417 24.6947ZM84.3435 36.662H79.6037V37.662H84.3435V36.662ZM80.1037 37.1635L80.164 16.9929L79.164 16.9899L79.1037 37.1605L80.1037 37.1635ZM79.859 16.531L73.9753 14.0381L73.5852 14.9589L79.4689 17.4518L79.859 16.531ZM73.7802 14.4985C73.4108 14.1615 73.4108 14.1616 73.4108 14.1616C73.4108 14.1616 73.4108 14.1616 73.4108 14.1616C73.4107 14.1616 73.4107 14.1617 73.4107 14.1617C73.4106 14.1618 73.4105 14.1619 73.4103 14.1621C73.41 14.1624 73.4096 14.1628 73.4091 14.1634C73.408 14.1646 73.4065 14.1663 73.4045 14.1685C73.4004 14.173 73.3944 14.1796 73.3866 14.1881C73.371 14.2053 73.3482 14.2306 73.3188 14.2631C73.26 14.3282 73.1752 14.4226 73.0706 14.5401C72.8613 14.7749 72.5723 15.1027 72.2532 15.4744L73.0119 16.1258C73.3261 15.7598 73.6109 15.4368 73.8172 15.2053C73.9203 15.0896 74.0037 14.9968 74.0611 14.9331C74.0899 14.9013 74.1121 14.8767 74.1271 14.8602C74.1346 14.8519 74.1403 14.8457 74.1441 14.8415C74.146 14.8394 74.1474 14.8379 74.1483 14.8369C74.1488 14.8364 74.1491 14.836 74.1494 14.8357C74.1495 14.8356 74.1495 14.8355 74.1496 14.8355C74.1496 14.8355 74.1496 14.8355 74.1496 14.8354C74.1496 14.8354 74.1496 14.8354 74.1496 14.8354C74.1496 14.8354 74.1496 14.8354 73.7802 14.4985ZM72.256 15.4711C68.838 19.3834 66.6996 22.7003 63.2733 29.5528L64.1678 30C67.5705 23.1945 69.6648 19.957 73.0091 16.129L72.256 15.4711ZM63.2733 29.5528C62.2178 31.6638 61.4103 34.8522 61.0524 38.3085C60.6939 41.7703 60.7812 45.5496 61.5501 48.8512L62.524 48.6244C61.7866 45.4579 61.6967 41.7945 62.0471 38.4115C62.398 35.0231 63.1854 31.9648 64.1678 30L63.2733 29.5528ZM61.5501 48.8512C62.182 51.5647 63.8956 53.9386 65.74 55.79C67.5876 57.6445 69.6049 59.0134 70.9134 59.7129L71.3848 58.831C70.158 58.1752 68.2218 56.8643 66.4485 55.0842C64.6719 53.301 63.0972 51.0855 62.524 48.6244L61.5501 48.8512ZM70.6491 59.272V127.24H71.6491V59.272H70.6491ZM70.6491 127.24C70.6491 128.463 71.0606 129.368 71.6956 129.988C72.3202 130.598 73.1217 130.894 73.852 130.988L73.9792 129.996C73.4096 129.923 72.828 129.696 72.3942 129.273C71.9709 128.859 71.6491 128.222 71.6491 127.24H70.6491ZM73.7193 130.952L79.5354 133.434L79.9279 132.514L74.1118 130.032L73.7193 130.952ZM80.1862 133.183L83.2995 126.387L82.3904 125.97L79.2771 132.766L80.1862 133.183ZM83.0934 126.612C87.2271 124.245 91.8312 121.57 93.2838 120.657L92.7516 119.81C91.3205 120.709 86.7372 123.373 82.5965 125.744L83.0934 126.612ZM93.2838 120.657C94.485 119.901 95.2424 118.688 95.7054 117.527C96.1695 116.363 96.3593 115.199 96.3914 114.465L95.3923 114.422C95.3647 115.053 95.1955 116.106 94.7765 117.157C94.3564 118.21 93.7065 119.21 92.7516 119.81L93.2838 120.657ZM96.3919 114.444V44.7406H95.3919V114.444H96.3919ZM96.3177 45.0027C96.4556 44.7786 96.7156 44.4321 97.0979 43.9242L96.299 43.3229C95.9323 43.81 95.635 44.2041 95.466 44.4786L96.3177 45.0027ZM97.0979 43.9242C98.2949 42.334 100.478 39.4331 102.681 35.0274L101.787 34.5802C99.6252 38.9035 97.4853 41.7467 96.299 43.3229L97.0979 43.9242ZM102.681 35.0274C106.065 28.2598 106.744 19.7037 105.365 13.1159L104.386 13.3208C105.724 19.7145 105.058 28.0372 101.787 34.5802L102.681 35.0274ZM105.365 13.1159C104.706 9.966 103.068 7.47817 101.174 5.56185L100.463 6.26481C102.256 8.07863 103.775 10.4014 104.386 13.3208L105.365 13.1159ZM101.319 5.92014L101.342 4.17914L100.343 4.16551L100.319 5.90652L101.319 5.92014ZM101.035 3.71076L94.9083 1.15905L94.5238 2.08218L100.65 4.63389L101.035 3.71076Z" fill="#0E2526"/>
<path d="M70.895 59.1132L77.7716 62.0413" stroke="#0E2526"/>
<path d="M84.46 37.1752L91.3366 40.1033" stroke="#0E2526"/>
<path d="M94.3474 25.0521L101.224 27.9802" stroke="#0E2526"/>
<path d="M79.6555 39.8401V17.8347C75.9341 21.9991 73.7767 25.2505 70.1748 32.4545C68.1369 36.5303 66.985 44.9477 68.4913 51.4159C69.6963 56.5904 75.0681 60.5947 77.6033 61.95V129.918C77.6033 133.153 80.7604 133.538 81.9154 132.999C83.0705 132.46 96.7769 124.605 99.4719 122.911C101.628 121.556 102.286 118.487 102.346 117.122V47.4187C102.988 46.3761 105.82 43.2178 108.688 37.4819C112.016 30.8266 112.688 22.3871 111.33 15.8964C109.949 9.29916 104.11 5.67618 100.782 4.11234V27.6902L90.7977 39.8401H79.6555Z" fill="#F4F4F4" stroke="#0E2526"/>
<rect x="0.433013" y="0.25" width="15.3697" height="15.3697" rx="3.5" transform="matrix(0.866025 -0.5 2.20305e-08 1 83.6674 109.003)" fill="white" stroke="#0E2526"/>
<mask id="path-8-inside-1" fill="white">
<path fill-rule="evenodd" clip-rule="evenodd" d="M83.6096 117.891V121.156C83.6096 123.366 85.1605 124.261 87.0737 123.156L94.3221 118.972C96.2352 117.867 97.7862 115.181 97.7862 112.972V104.602C97.7862 102.393 96.2352 101.497 94.3221 102.602L91.4616 104.253L91.4616 111.357C91.4616 112.462 90.6861 113.805 89.7295 114.357L83.6096 117.891Z"/>
</mask>
<path fill-rule="evenodd" clip-rule="evenodd" d="M83.6096 117.891V121.156C83.6096 123.366 85.1605 124.261 87.0737 123.156L94.3221 118.972C96.2352 117.867 97.7862 115.181 97.7862 112.972V104.602C97.7862 102.393 96.2352 101.497 94.3221 102.602L91.4616 104.253L91.4616 111.357C91.4616 112.462 90.6861 113.805 89.7295 114.357L83.6096 117.891Z" fill="#E4E4E4"/>
<path d="M83.6096 117.891L83.1096 117.025L82.6096 117.313V117.891H83.6096ZM87.0737 123.156L87.5737 124.022L87.5737 124.022L87.0737 123.156ZM94.3221 118.972L94.8221 119.838L94.3221 118.972ZM94.3221 102.602L93.8221 101.736L93.8221 101.736L94.3221 102.602ZM91.4616 104.253L90.9616 103.387L90.4616 103.676L90.4616 104.253L91.4616 104.253ZM91.4616 111.357L92.4616 111.357V111.357L91.4616 111.357ZM89.7295 114.357L89.2295 113.491L89.2295 113.491L89.7295 114.357ZM84.6096 121.156V117.891H82.6096V121.156H84.6096ZM86.5737 122.29C85.7993 122.738 85.3327 122.653 85.1242 122.533C84.9158 122.413 84.6096 122.051 84.6096 121.156H82.6096C82.6096 122.471 83.0789 123.662 84.1242 124.265C85.1696 124.869 86.435 124.68 87.5737 124.022L86.5737 122.29ZM93.8221 118.106L86.5737 122.29L87.5737 124.022L94.8221 119.838L93.8221 118.106ZM96.7862 112.972C96.7862 113.859 96.4679 114.912 95.9055 115.886C95.3432 116.86 94.5909 117.662 93.8221 118.106L94.8221 119.838C95.9665 119.177 96.9462 118.083 97.6376 116.886C98.329 115.688 98.7862 114.293 98.7862 112.972H96.7862ZM96.7862 104.602V112.972H98.7862V104.602H96.7862ZM94.8221 103.468C95.5965 103.021 96.0631 103.105 96.2716 103.225C96.48 103.346 96.7862 103.708 96.7862 104.602H98.7862C98.7862 103.287 98.3169 102.097 97.2716 101.493C96.2262 100.89 94.9608 101.078 93.8221 101.736L94.8221 103.468ZM91.9616 105.119L94.8221 103.468L93.8221 101.736L90.9616 103.387L91.9616 105.119ZM90.4616 104.253L90.4616 111.357L92.4616 111.357L92.4616 104.253L90.4616 104.253ZM90.4616 111.357C90.4616 111.693 90.3372 112.133 90.0883 112.565C89.8393 112.996 89.52 113.324 89.2295 113.491L90.2295 115.223C90.8956 114.839 91.4424 114.219 91.8203 113.565C92.1983 112.91 92.4616 112.127 92.4616 111.357H90.4616ZM89.2295 113.491L83.1096 117.025L84.1096 118.757L90.2295 115.223L89.2295 113.491Z" fill="#0E2526" mask="url(#path-8-inside-1)"/>
<path d="M91.1531 113.66L96.7079 115.46" stroke="#0E2526"/>
<mask id="path-11-inside-2" fill="white">
<path fill-rule="evenodd" clip-rule="evenodd" d="M51.4202 83.8326H12.2161V120.766C11.8319 123.938 13.7399 127.185 17.94 129.61C25.6363 134.054 38.1143 134.054 45.8106 129.61C50.3045 127.016 52.1744 123.48 51.4202 120.102V83.8326Z"/>
</mask>
<path fill-rule="evenodd" clip-rule="evenodd" d="M51.4202 83.8326H12.2161V120.766C11.8319 123.938 13.7399 127.185 17.94 129.61C25.6363 134.054 38.1143 134.054 45.8106 129.61C50.3045 127.016 52.1744 123.48 51.4202 120.102V83.8326Z" fill="#EA9C77"/>
<path d="M12.2161 83.8326V82.8326H11.2161V83.8326H12.2161ZM51.4202 83.8326H52.4202V82.8326H51.4202V83.8326ZM12.2161 120.766L13.2089 120.887L13.2161 120.827V120.766H12.2161ZM17.94 129.61L18.44 128.744L18.44 128.744L17.94 129.61ZM45.8106 129.61L45.3106 128.744L45.8106 129.61ZM51.4202 120.102H50.4202V120.212L50.4442 120.32L51.4202 120.102ZM12.2161 84.8326H51.4202V82.8326H12.2161V84.8326ZM13.2161 120.766V83.8326H11.2161V120.766H13.2161ZM18.44 128.744C14.4388 126.434 12.8906 123.515 13.2089 120.887L11.2234 120.646C10.7733 124.362 13.0411 127.937 17.44 130.476L18.44 128.744ZM45.3106 128.744C41.6502 130.858 36.7899 131.943 31.8753 131.943C26.9607 131.943 22.1004 130.858 18.44 128.744L17.44 130.476C21.4759 132.807 26.7027 133.943 31.8753 133.943C37.0479 133.943 42.2747 132.807 46.3106 130.476L45.3106 128.744ZM50.4442 120.32C51.0675 123.112 49.59 126.274 45.3106 128.744L46.3106 130.476C51.019 127.758 53.2812 123.848 52.3961 119.884L50.4442 120.32ZM50.4202 83.8326V120.102H52.4202V83.8326H50.4202Z" fill="#0E2526" mask="url(#path-11-inside-2)"/>
<mask id="mask0" mask-type="alpha" maskUnits="userSpaceOnUse" x="12" y="83" width="40" height="50">
<mask id="path-13-inside-3" mask-type="luminance" fill="white">
<path fill-rule="evenodd" clip-rule="evenodd" d="M51.4202 83.8326H12.2161V120.766C11.8319 123.938 13.7399 127.185 17.94 129.61C25.6363 134.054 38.1143 134.054 45.8106 129.61C50.3045 127.016 52.1744 123.48 51.4202 120.102V83.8326Z"/>
</mask>
<path fill-rule="evenodd" clip-rule="evenodd" d="M51.4202 83.8326H12.2161V120.766C11.8319 123.938 13.7399 127.185 17.94 129.61C25.6363 134.054 38.1143 134.054 45.8106 129.61C50.3045 127.016 52.1744 123.48 51.4202 120.102V83.8326Z" fill="#EA9C77"/>
<path d="M12.2161 83.8326V82.8326H11.2161V83.8326H12.2161ZM51.4202 83.8326H52.4202V82.8326H51.4202V83.8326ZM12.2161 120.766L13.2089 120.887L13.2161 120.827V120.766H12.2161ZM17.94 129.61L18.44 128.744L18.44 128.744L17.94 129.61ZM45.8106 129.61L45.3106 128.744L45.8106 129.61ZM51.4202 120.102H50.4202V120.212L50.4442 120.32L51.4202 120.102ZM12.2161 84.8326H51.4202V82.8326H12.2161V84.8326ZM13.2161 120.766V83.8326H11.2161V120.766H13.2161ZM18.44 128.744C14.4388 126.434 12.8906 123.515 13.2089 120.887L11.2234 120.646C10.7733 124.362 13.0411 127.937 17.44 130.476L18.44 128.744ZM45.3106 128.744C41.6502 130.858 36.7899 131.943 31.8753 131.943C26.9607 131.943 22.1004 130.858 18.44 128.744L17.44 130.476C21.4759 132.807 26.7027 133.943 31.8753 133.943C37.0479 133.943 42.2747 132.807 46.3106 130.476L45.3106 128.744ZM50.4442 120.32C51.0675 123.112 49.59 126.274 45.3106 128.744L46.3106 130.476C51.019 127.758 53.2812 123.848 52.3961 119.884L50.4442 120.32ZM50.4202 83.8326V120.102H52.4202V83.8326H50.4202Z" fill="#0E2526" mask="url(#path-13-inside-3)"/>
</mask>
<g mask="url(#mask0)">
<path d="M17.1652 88.1237V131.053" stroke="#0E2526"/>
<path d="M23.4526 88.1237V131.053" stroke="#0E2526"/>
<path d="M32.245 90.9672V133.897" stroke="#0E2526"/>
<path d="M41.4066 90.9672V133.897" stroke="#0E2526"/>
<path d="M46.9753 90.9672V133.897" stroke="#0E2526"/>
</g>
<mask id="path-20-inside-4" fill="white">
<path fill-rule="evenodd" clip-rule="evenodd" d="M16.5271 92.907C25.2077 97.9188 39.2816 97.9188 47.9621 92.907C52.2428 90.4356 54.4125 87.2069 54.4713 83.9678H54.4724V83.8759C54.4726 83.847 54.4726 83.8181 54.4724 83.7892V77.0017H51.068C50.199 76.2052 49.1637 75.4518 47.9621 74.758C39.2816 69.7463 25.2077 69.7463 16.5271 74.758C15.3255 75.4518 14.2903 76.2052 13.4213 77.0017H10.0724L10.0724 82.9218C9.63384 86.5026 11.7854 90.1694 16.5271 92.907Z"/>
</mask>
<path fill-rule="evenodd" clip-rule="evenodd" d="M16.5271 92.907C25.2077 97.9188 39.2816 97.9188 47.9621 92.907C52.2428 90.4356 54.4125 87.2069 54.4713 83.9678H54.4724V83.8759C54.4726 83.847 54.4726 83.8181 54.4724 83.7892V77.0017H51.068C50.199 76.2052 49.1637 75.4518 47.9621 74.758C39.2816 69.7463 25.2077 69.7463 16.5271 74.758C15.3255 75.4518 14.2903 76.2052 13.4213 77.0017H10.0724L10.0724 82.9218C9.63384 86.5026 11.7854 90.1694 16.5271 92.907Z" fill="#F0BBA1"/>
<path d="M47.9621 92.907L47.4621 92.041L47.4621 92.041L47.9621 92.907ZM16.5271 92.907L16.0271 93.7731L16.0271 93.7731L16.5271 92.907ZM54.4713 83.9678V82.9678H53.4893L53.4715 83.9497L54.4713 83.9678ZM54.4724 83.9678V84.9678H55.4724V83.9678H54.4724ZM54.4724 83.8759L53.4724 83.87V83.8759H54.4724ZM54.4724 83.7892L53.4724 83.7892L53.4724 83.795L54.4724 83.7892ZM54.4724 77.0017H55.4724V76.0017H54.4724V77.0017ZM51.068 77.0017L50.3922 77.7389L50.679 78.0017H51.068V77.0017ZM47.9621 74.758L48.4621 73.892L48.4621 73.892L47.9621 74.758ZM16.5271 74.758L16.0271 73.892L16.0271 73.892L16.5271 74.758ZM13.4213 77.0017V78.0017H13.8103L14.0971 77.7389L13.4213 77.0017ZM10.0724 77.0017V76.0017H9.07242L9.07242 77.0017L10.0724 77.0017ZM10.0724 82.9218L11.065 83.0434L11.0724 82.9828L11.0724 82.9218L10.0724 82.9218ZM47.4621 92.041C43.3097 94.4384 37.8042 95.6658 32.2446 95.6658C26.685 95.6658 21.1796 94.4384 17.0271 92.041L16.0271 93.7731C20.5552 96.3873 26.427 97.6658 32.2446 97.6658C38.0623 97.6658 43.9341 96.3873 48.4621 93.7731L47.4621 92.041ZM53.4715 83.9497C53.4213 86.7153 51.563 89.6734 47.4621 92.041L48.4621 93.7731C52.9226 91.1978 55.4038 87.6985 55.4712 83.986L53.4715 83.9497ZM54.4724 82.9678H54.4713V84.9678H54.4724V82.9678ZM53.4724 83.8759V83.9678H55.4724V83.8759H53.4724ZM53.4724 83.795C53.4726 83.82 53.4726 83.845 53.4724 83.87L55.4724 83.8817C55.4726 83.8489 55.4726 83.8161 55.4724 83.7834L53.4724 83.795ZM53.4724 77.0017V83.7892H55.4724V77.0017H53.4724ZM51.068 78.0017H54.4724V76.0017H51.068V78.0017ZM47.4621 75.624C48.6082 76.2857 49.583 76.9971 50.3922 77.7389L51.7437 76.2646C50.815 75.4133 49.7193 74.6178 48.4621 73.892L47.4621 75.624ZM17.0271 75.624C21.1796 73.2266 26.685 71.9992 32.2446 71.9992C37.8042 71.9992 43.3097 73.2266 47.4621 75.624L48.4621 73.892C43.9341 71.2777 38.0623 69.9992 32.2446 69.9992C26.427 69.9992 20.5552 71.2777 16.0271 73.892L17.0271 75.624ZM14.0971 77.7389C14.9062 76.9971 15.8811 76.2857 17.0271 75.624L16.0271 73.892C14.7699 74.6178 13.6743 75.4133 12.7456 76.2646L14.0971 77.7389ZM10.0724 78.0017H13.4213V76.0017H10.0724V78.0017ZM11.0724 82.9218L11.0724 77.0017L9.07242 77.0017L9.07242 82.9218L11.0724 82.9218ZM17.0271 92.041C12.4845 89.4183 10.6931 86.0798 11.065 83.0434L9.07984 82.8002C8.57458 86.9255 11.0864 90.9205 16.0271 93.7731L17.0271 92.041Z" fill="#0E2526" mask="url(#path-20-inside-4)"/>
<circle r="17.649" transform="matrix(0.866025 0.5 -0.866025 0.5 32.2447 77.0018)" fill="#FCECE3" stroke="#0E2526"/>
<path fill-rule="evenodd" clip-rule="evenodd" d="M36.0074 2.17813L38.6911 3.79771V7.23956L37.0711 15.5255V24.7643L34.431 29.029L33.8154 32.1775V63.2841L34.2487 77.551L30.5035 79.829L27.9745 78.1108L28.0554 66.3011V34.5312L24.6746 31.9016V18.3782L25.6763 17.5017V7.98514L32.3622 4.35329L36.0074 2.17813Z" fill="#E4E4E4"/>
<path d="M38.6911 3.79771H39.1911V3.51546L38.9494 3.36962L38.6911 3.79771ZM36.0074 2.17813L36.2657 1.75004L36.0088 1.59501L35.7512 1.74877L36.0074 2.17813ZM38.6911 7.23956L39.1818 7.33549L39.1911 7.28798V7.23956H38.6911ZM37.0711 15.5255L36.5804 15.4296L36.5711 15.4771V15.5255H37.0711ZM37.0711 24.7643L37.4962 25.0274L37.5711 24.9065V24.7643H37.0711ZM34.431 29.029L34.0059 28.7658L33.9578 28.8435L33.9403 28.9331L34.431 29.029ZM33.8154 32.1775L33.3247 32.0816L33.3154 32.1291V32.1775H33.8154ZM33.8154 63.2841H33.3154V63.2917L33.3157 63.2993L33.8154 63.2841ZM34.2487 77.551L34.5085 77.9781L34.7573 77.8268L34.7484 77.5358L34.2487 77.551ZM30.5035 79.829L30.2225 80.2425L30.4885 80.4233L30.7633 80.2561L30.5035 79.829ZM27.9745 78.1108L27.4745 78.1074L27.4727 78.3743L27.6935 78.5244L27.9745 78.1108ZM28.0554 66.3011L28.5554 66.3046V66.3011H28.0554ZM28.0554 34.5312H28.5554V34.2867L28.3624 34.1365L28.0554 34.5312ZM24.6746 31.9016H24.1746V32.1462L24.3676 32.2963L24.6746 31.9016ZM24.6746 18.3782L24.3453 18.0019L24.1746 18.1513V18.3782H24.6746ZM25.6763 17.5017L26.0056 17.8779L26.1763 17.7285V17.5017H25.6763ZM25.6763 7.98514L25.4376 7.54578L25.1763 7.68774V7.98514H25.6763ZM32.3622 4.35329L32.6009 4.79266L32.6098 4.78783L32.6184 4.78266L32.3622 4.35329ZM38.9494 3.36962L36.2657 1.75004L35.749 2.60622L38.4327 4.22579L38.9494 3.36962ZM39.1911 7.23956V3.79771H38.1911V7.23956H39.1911ZM37.5618 15.6214L39.1818 7.33549L38.2004 7.14362L36.5804 15.4296L37.5618 15.6214ZM37.5711 24.7643V15.5255H36.5711V24.7643H37.5711ZM34.8561 29.2922L37.4962 25.0274L36.6459 24.5011L34.0059 28.7658L34.8561 29.2922ZM34.3061 32.2735L34.9217 29.1249L33.9403 28.9331L33.3247 32.0816L34.3061 32.2735ZM34.3154 63.2841V32.1775H33.3154V63.2841H34.3154ZM34.7484 77.5358L34.3152 63.269L33.3157 63.2993L33.7489 77.5661L34.7484 77.5358ZM30.7633 80.2561L34.5085 77.9781L33.9888 77.1238L30.2436 79.4018L30.7633 80.2561ZM27.6935 78.5244L30.2225 80.2425L30.7845 79.4154L28.2555 77.6972L27.6935 78.5244ZM27.5554 66.2977L27.4745 78.1074L28.4745 78.1142L28.5554 66.3046L27.5554 66.2977ZM27.5554 34.5312V66.3011H28.5554V34.5312H27.5554ZM24.3676 32.2963L27.7485 34.9259L28.3624 34.1365L24.9815 31.507L24.3676 32.2963ZM24.1746 18.3782V31.9016H25.1746V18.3782H24.1746ZM25.3471 17.1254L24.3453 18.0019L25.0038 18.7545L26.0056 17.8779L25.3471 17.1254ZM25.1763 7.98514V17.5017H26.1763V7.98514H25.1763ZM32.1236 3.91393L25.4376 7.54578L25.915 8.42451L32.6009 4.79266L32.1236 3.91393ZM35.7512 1.74877L32.106 3.92393L32.6184 4.78266L36.2636 2.6075L35.7512 1.74877Z" fill="#0E2526"/>
<path d="M25.6572 8.02679L28.6096 9.81812" stroke="#0E2526"/>
<path d="M38.715 4.31367L28.5724 9.82322V19.3397L27.5707 20.2163V33.7397L30.9515 36.3693V79.5693L36.7115 76.1884V31.8615L39.9672 26.6023V13.2041H38.715V4.31367Z" fill="#F4F4F4" stroke="#0E2526"/>
</svg>
