<svg width="95" height="127" viewBox="0 0 95 127" fill="none" xmlns="http://www.w3.org/2000/svg">
<path fill-rule="evenodd" clip-rule="evenodd" d="M33.3125 34.0925L64.7235 52.2277L64.9728 111.557L64.648 111.753L64.6711 111.766L63.5509 112.413L62.666 112.945L62.6485 112.934L41.4669 125.163C40.032 125.991 37.7056 125.991 36.2707 125.163L8.95873 109.394C8.27773 109.001 7.91994 108.492 7.88535 107.977L7.61707 107.909V105.042L10.2689 105.638L32.1629 92.9975L33.3125 93.6612L33.3125 34.0925Z" fill="#C2C2C2"/>
<path d="M64.7235 52.2277L65.2235 52.2256L65.2223 51.9383L64.9735 51.7947L64.7235 52.2277ZM33.3125 34.0925L33.5625 33.6595L32.8125 33.2265L32.8125 34.0925L33.3125 34.0925ZM64.9728 111.557L65.2306 111.986L65.474 111.839L65.4728 111.555L64.9728 111.557ZM64.648 111.753L64.3903 111.324L63.6633 111.762L64.3981 112.186L64.648 111.753ZM64.6711 111.766L64.9211 112.199L65.6712 111.766L64.921 111.333L64.6711 111.766ZM63.5509 112.413L63.3009 111.98L63.2932 111.984L63.5509 112.413ZM62.666 112.945L62.3936 113.364L62.6558 113.535L62.9238 113.374L62.666 112.945ZM62.6485 112.934L62.921 112.515L62.664 112.348L62.3985 112.501L62.6485 112.934ZM41.4669 125.163L41.2169 124.73L41.2169 124.73L41.4669 125.163ZM36.2707 125.163L36.0207 125.596L36.0207 125.596L36.2707 125.163ZM8.95873 109.394L9.20873 108.961L9.20873 108.961L8.95873 109.394ZM7.88535 107.977L8.38422 107.944L8.35993 107.582L8.00858 107.493L7.88535 107.977ZM7.61707 107.909H7.11707V108.298L7.49383 108.394L7.61707 107.909ZM7.61707 105.042L7.72672 104.554L7.11707 104.417V105.042H7.61707ZM10.2689 105.638L10.1593 106.126L10.3498 106.169L10.5189 106.071L10.2689 105.638ZM32.1629 92.9975L32.4129 92.5645L32.1629 92.4202L31.9129 92.5645L32.1629 92.9975ZM33.3125 93.6612L33.0625 94.0942L33.8125 94.5272L33.8125 93.6612L33.3125 93.6612ZM64.9735 51.7947L33.5625 33.6595L33.0625 34.5255L64.4735 52.6607L64.9735 51.7947ZM65.4728 111.555L65.2235 52.2256L64.2235 52.2298L64.4728 111.559L65.4728 111.555ZM64.9058 112.181L65.2306 111.986L64.7151 111.129L64.3903 111.324L64.9058 112.181ZM64.921 111.333L64.898 111.32L64.3981 112.186L64.4211 112.199L64.921 111.333ZM63.8009 112.846L64.9211 112.199L64.4211 111.333L63.3009 111.98L63.8009 112.846ZM62.9238 113.374L63.8087 112.841L63.2932 111.984L62.4083 112.517L62.9238 113.374ZM62.3761 113.353L62.3936 113.364L62.9385 112.526L62.921 112.515L62.3761 113.353ZM41.7169 125.596L62.8985 113.367L62.3985 112.501L41.2169 124.73L41.7169 125.596ZM36.0207 125.596C36.8321 126.064 37.864 126.284 38.8688 126.284C39.8736 126.284 40.9055 126.065 41.7169 125.596L41.2169 124.73C40.5933 125.09 39.7446 125.284 38.8688 125.284C37.993 125.284 37.1443 125.09 36.5207 124.73L36.0207 125.596ZM8.70873 109.827L36.0207 125.596L36.5207 124.73L9.20873 108.961L8.70873 109.827ZM7.38647 108.011C7.43605 108.749 7.94095 109.384 8.70873 109.827L9.20873 108.961C8.61451 108.618 8.40382 108.235 8.38422 107.944L7.38647 108.011ZM8.00858 107.493L7.7403 107.424L7.49383 108.394L7.76211 108.462L8.00858 107.493ZM8.11707 107.909V105.042H7.11707V107.909H8.11707ZM7.50742 105.53L10.1593 106.126L10.3786 105.15L7.72672 104.554L7.50742 105.53ZM31.9129 92.5645L10.0189 105.205L10.5189 106.071L32.4129 93.4305L31.9129 92.5645ZM33.5625 93.2282L32.4129 92.5645L31.9129 93.4305L33.0625 94.0942L33.5625 93.2282ZM32.8125 34.0925L32.8125 93.6612L33.8125 93.6612L33.8125 34.0925L32.8125 34.0925Z" fill="#0E2526"/>
<rect x="0.433013" y="0.75" width="36.4543" height="56.9572" transform="matrix(0.866025 0.5 -2.20305e-08 1 30.3252 33.1844)" fill="#E3E3E3" stroke="#0E2526"/>
<path d="M30.5267 91.5136L62.1719 109.784L41.0369 121.986C39.8411 122.677 37.9025 122.677 36.7068 121.986L9.39168 106.216C8.19595 105.526 8.19595 104.406 9.39168 103.716L30.5267 91.5136Z" fill="#E3E3E3" stroke="#0E2526"/>
<path fill-rule="evenodd" clip-rule="evenodd" d="M94.12 115.902L88.5811 119.52L77.9463 106.034L6.72365 64.9139L7.15077 16.2616L0.930542 8.37395L0.930548 4.57548L7.06068 0.850372L11.2963 3.33287L94.1087 51.1093V115.306L94.12 115.902Z" fill="#C2C2C2"/>
<path d="M88.5811 119.52L88.1885 119.83L88.4717 120.189L88.8546 119.939L88.5811 119.52ZM94.12 115.902L94.3935 116.321L94.6252 116.17L94.62 115.893L94.12 115.902ZM77.9463 106.034L78.3389 105.725L78.2795 105.649L78.1963 105.601L77.9463 106.034ZM6.72365 64.9139L6.22367 64.9095L6.22111 65.2011L6.47365 65.3469L6.72365 64.9139ZM7.15077 16.2616L7.65075 16.2659L7.6523 16.0901L7.54338 15.9519L7.15077 16.2616ZM0.930542 8.37395L0.430542 8.37395L0.430542 8.54738L0.537935 8.68357L0.930542 8.37395ZM0.930548 4.57548L0.670893 4.14819L0.430548 4.29424L0.430548 4.57548L0.930548 4.57548ZM7.06068 0.850372L7.3135 0.419002L7.05604 0.268109L6.80102 0.423079L7.06068 0.850372ZM11.2963 3.33287L11.0435 3.76425L11.0465 3.76597L11.2963 3.33287ZM94.1087 51.1093H94.6087V50.8205L94.3585 50.6762L94.1087 51.1093ZM94.1087 115.306H93.6086L93.6087 115.315L94.1087 115.306ZM88.8546 119.939L94.3935 116.321L93.8466 115.484L88.3077 119.101L88.8546 119.939ZM77.5537 106.344L88.1885 119.83L88.9738 119.21L78.3389 105.725L77.5537 106.344ZM78.1963 105.601L6.97365 64.4809L6.47365 65.3469L77.6963 106.467L78.1963 105.601ZM7.22363 64.9183L7.65075 16.2659L6.65079 16.2572L6.22367 64.9095L7.22363 64.9183ZM0.537935 8.68357L6.75816 16.5712L7.54338 15.9519L1.32315 8.06434L0.537935 8.68357ZM0.430548 4.57548L0.430542 8.37395L1.43054 8.37395L1.43055 4.57548L0.430548 4.57548ZM6.80102 0.423079L0.670893 4.14819L1.1902 5.00277L7.32033 1.27767L6.80102 0.423079ZM11.5492 2.9015L7.3135 0.419002L6.80785 1.28174L11.0435 3.76424L11.5492 2.9015ZM11.0465 3.76597L93.8588 51.5424L94.3585 50.6762L11.5462 2.89978L11.0465 3.76597ZM93.6087 51.1093V115.306H94.6087V51.1093H93.6087ZM94.62 115.893L94.6086 115.296L93.6087 115.315L93.6201 115.912L94.62 115.893Z" fill="#0E2526"/>
<path d="M91.3593 111.768L91.3593 110.085" stroke="#0E2526"/>
<path d="M91.3593 104.944V109.376" stroke="#0E2526"/>
<path d="M94.04 51.1834L88.0448 55.5721" stroke="#0E2526"/>
<rect x="0.433013" y="0.75" width="100.659" height="63.8273" transform="matrix(0.866025 0.5 -2.20305e-08 1 0.558013 4.17232)" fill="#E3E3E3" stroke="#0E2526"/>
<rect x="0.433013" y="0.75" width="94.3201" height="57.1133" transform="matrix(0.866025 0.5 -2.20305e-08 1 3.21353 9.08914)" fill="#505050" stroke="#0E2526"/>
</svg>
