<svg width="28" height="26" viewBox="0 0 28 26" fill="none" xmlns="http://www.w3.org/2000/svg">
<path d="M25.3703 8.53463L17.301 0.574914C16.5239 -0.191638 15.1693 -0.191638 14.3922 0.574914C13.5908 1.36547 13.5908 2.65366 14.3922 3.44421L14.7832 3.82985C14.9422 3.9867 15.02 4.19149 15.02 4.39635C15.02 4.60121 14.9406 4.80599 14.7832 4.96284C14.4668 5.27489 13.9525 5.27489 13.6362 4.96284L11.2173 2.57685C10.4402 1.81029 9.08565 1.81029 8.30855 2.57685C7.50711 3.3674 7.50711 4.65559 8.30855 5.44615L10.7274 7.83214C10.8864 7.98899 10.9643 8.19378 10.9643 8.39863C10.9643 8.60349 10.8848 8.8067 10.7274 8.96355C10.411 9.2756 9.89674 9.2756 9.5804 8.96355L5.94339 5.37736C5.16629 4.61081 3.8117 4.61081 3.0346 5.37736C2.64684 5.75985 2.4327 6.27031 2.4327 6.81122C2.4327 7.35214 2.64684 7.8626 3.0346 8.24508L6.67015 11.8313C6.82916 11.9881 6.90704 12.1929 6.90704 12.3978C6.90704 12.6026 6.82757 12.8074 6.67015 12.9643C6.35381 13.2763 5.83952 13.2763 5.52317 12.9643L3.50988 10.9783C2.73277 10.2118 1.37818 10.2118 0.601079 10.9783C-0.20036 11.7689 -0.20036 13.0571 0.601079 13.8476L6.67008 19.8342C6.82909 19.9911 6.90696 20.1958 6.90696 20.4007C6.90696 20.6056 6.82749 20.8103 6.67008 20.9672C6.35373 21.2792 5.83944 21.2792 5.52309 20.9672L3.66394 19.1301V20.399C3.66394 23.4875 6.21092 26 9.342 26H17.3384C19.2867 26 21.1215 25.2511 22.5021 23.8909L25.3703 21.0616C27.0656 19.3894 28 17.1634 28 14.7982C28.0001 12.4329 27.0657 10.207 25.3703 8.53463Z" fill="white"/>
</svg>
