<svg width="45" height="46" viewBox="0 0 45 46" fill="none" xmlns="http://www.w3.org/2000/svg">
<path d="M0 22.5008C0 10.0744 10.0736 0 22.5 0C34.9264 0 45 10.0744 45 22.5008C45 34.9272 34.9264 45.0016 22.5 45.0016C10.0736 45.0016 0 34.9272 0 22.5008Z" fill="white"/>
<path d="M27.5476 28.4876L21.213 25.3878C20.7362 25.1551 20.3353 24.7967 20.0555 24.353C19.7756 23.9092 19.6281 23.3978 19.6294 22.8763V16.2964L16.748 14.8613V24.2827C16.7487 24.8047 16.897 25.3163 17.1766 25.7608C17.4561 26.2054 17.8559 26.5655 18.3317 26.8013L27.313 31.1927L27.5476 28.4876Z" fill="#1C4748"/>
<path d="M15.465 28.2098C14.9878 27.975 14.5865 27.6153 14.3056 27.1707C14.0248 26.726 13.8754 26.2139 13.874 25.6912V14.763L13.0822 14.3755C12.8624 14.2758 12.6208 14.2309 12.3789 14.2449C12.1371 14.2589 11.9026 14.3314 11.6963 14.4557C11.4901 14.5801 11.3185 14.7526 11.197 14.9577C11.0755 15.1628 11.0078 15.3942 11 15.6312V27.112C11.0014 27.6347 11.1508 28.1468 11.4316 28.5914C11.7125 29.036 12.1138 29.3957 12.591 29.6305L23.2952 34.8686C23.5156 34.9686 23.7578 35.0133 24.0002 34.999C24.2426 34.9846 24.4776 34.9116 24.684 34.7864C24.8905 34.6612 25.0619 34.4877 25.1829 34.2817C25.3039 34.0756 25.3708 33.8433 25.3774 33.6058V33.0748L15.465 28.2098Z" fill="#1C4748"/>
<path d="M32.416 15.393L21.7045 10.1477C21.5078 10.0506 21.2906 10 21.0703 10C20.85 10 20.6328 10.0506 20.4361 10.1477L17.5034 11.5828C17.7037 11.4804 17.9263 11.4268 18.1523 11.4268C18.3782 11.4268 18.6009 11.4804 18.8011 11.5828L29.5054 16.8281C29.9874 17.0559 30.3947 17.4111 30.681 17.8537C30.9674 18.2963 31.1214 18.8085 31.1257 19.3323V30.8131C31.1259 31.0783 31.0488 31.338 30.9033 31.5618C30.7578 31.7855 30.5501 31.9639 30.3045 32.076L33.2372 30.6409C33.4724 30.5214 33.6685 30.3397 33.8033 30.1164C33.9381 29.8931 34.0062 29.6373 33.9997 29.378V17.8973C33.9996 17.377 33.8514 16.8671 33.5717 16.4248C33.292 15.9824 32.8918 15.6251 32.416 15.393Z" fill="#83AA88"/>
<path d="M26.6607 18.2038L15.9564 12.9657C15.7569 12.865 15.5357 12.8125 15.3113 12.8125C15.0868 12.8125 14.8656 12.865 14.6661 12.9657L11.7334 14.4008C11.9342 14.3001 12.1566 14.2475 12.3823 14.2475C12.6079 14.2475 12.8303 14.3001 13.0311 14.4008L23.7354 19.6389C24.2141 19.8718 24.6168 20.231 24.898 20.6761C25.1791 21.1211 25.3275 21.6343 25.3263 22.1575V33.6383C25.3266 33.9035 25.2494 34.1632 25.104 34.3869C24.9585 34.6107 24.7507 34.7891 24.5052 34.9012L27.4378 33.4661C27.6781 33.3533 27.8808 33.1761 28.0223 32.9551C28.1637 32.7341 28.2382 32.4783 28.237 32.2175V20.7368C28.2423 20.2126 28.0974 19.6975 27.8188 19.2498C27.5402 18.8021 27.139 18.4398 26.6607 18.2038Z" fill="#83AA88"/>
<path d="M22.5 44.0016C10.6259 44.0016 1 34.375 1 22.5008H-1C-1 35.4795 9.52126 46.0016 22.5 46.0016V44.0016ZM44 22.5008C44 34.375 34.3741 44.0016 22.5 44.0016V46.0016C35.4787 46.0016 46 35.4795 46 22.5008H44ZM22.5 1C34.3741 1 44 10.6266 44 22.5008H46C46 9.52216 35.4787 -1 22.5 -1V1ZM22.5 -1C9.52126 -1 -1 9.52216 -1 22.5008H1C1 10.6266 10.6259 1 22.5 1V-1Z" fill="#86A7AC"/>
</svg>
