<svg width="24" height="20" viewBox="0 0 24 20" fill="none" xmlns="http://www.w3.org/2000/svg">
<path d="M20 4V10H18V6L14 6V4H20Z" fill="#1C4748"/>
<path d="M4 16H10V14H6V10H4V16Z" fill="#1C4748"/>
<path fill-rule="evenodd" clip-rule="evenodd" d="M20 0C22.2091 0 24 1.79086 24 4V16C24 18.2091 22.2091 20 20 20H4C1.79086 20 0 18.2091 0 16V4C0 1.79086 1.79086 0 4 0H20ZM4 2H20C21.1046 2 22 2.89543 22 4V16C22 17.1046 21.1046 18 20 18H4C2.89543 18 2 17.1046 2 16V4C2 2.89543 2.89543 2 4 2Z" fill="#1C4748"/>
</svg>
