<svg width="76" height="177" viewBox="0 0 76 177" fill="none" xmlns="http://www.w3.org/2000/svg">
<mask id="path-1-inside-1" fill="white">
<path fill-rule="evenodd" clip-rule="evenodd" d="M47.8025 173.091C47.0342 172.819 46.5427 172.006 46.5427 170.777C46.5427 168.621 48.0568 165.998 49.9245 164.92C51.0069 164.295 51.9705 164.326 52.5895 164.882L55.5135 166.585L50.8894 174.897L47.8025 173.091Z"/>
</mask>
<path fill-rule="evenodd" clip-rule="evenodd" d="M47.8025 173.091C47.0342 172.819 46.5427 172.006 46.5427 170.777C46.5427 168.621 48.0568 165.998 49.9245 164.92C51.0069 164.295 51.9705 164.326 52.5895 164.882L55.5135 166.585L50.8894 174.897L47.8025 173.091Z" fill="white"/>
<path d="M47.8025 173.091L48.3076 172.228L48.2258 172.18L48.1365 172.148L47.8025 173.091ZM49.9245 164.92L49.4245 164.054L49.4245 164.054L49.9245 164.92ZM52.5895 164.882L51.9212 165.626L51.9975 165.694L52.0863 165.746L52.5895 164.882ZM55.5135 166.585L56.3873 167.071L56.864 166.214L56.0166 165.72L55.5135 166.585ZM50.8894 174.897L50.3844 175.76L51.2665 176.276L51.7633 175.383L50.8894 174.897ZM48.1365 172.148C47.916 172.07 47.5427 171.765 47.5427 170.777H45.5427C45.5427 172.247 46.1524 173.567 47.4686 174.033L48.1365 172.148ZM47.5427 170.777C47.5427 169.916 47.8518 168.893 48.3993 167.944C48.9467 166.996 49.6785 166.217 50.4245 165.786L49.4245 164.054C48.3029 164.702 47.3437 165.773 46.6672 166.944C45.9907 168.116 45.5427 169.482 45.5427 170.777H47.5427ZM50.4245 165.786C51.2943 165.284 51.7445 165.467 51.9212 165.626L53.2577 164.138C52.1964 163.185 50.7195 163.306 49.4245 164.054L50.4245 165.786ZM52.0863 165.746L55.0103 167.449L56.0166 165.72L53.0926 164.018L52.0863 165.746ZM54.6396 166.098L50.0155 174.411L51.7633 175.383L56.3873 167.071L54.6396 166.098ZM51.3945 174.034L48.3076 172.228L47.2975 173.954L50.3844 175.76L51.3945 174.034Z" fill="#0E2526" mask="url(#path-1-inside-1)"/>
<circle r="3.40499" transform="matrix(0.866025 -0.5 2.20305e-08 1 53.3061 170.777)" fill="white" stroke="#0E2526"/>
<mask id="path-4-inside-2" fill="white">
<path fill-rule="evenodd" clip-rule="evenodd" d="M5.59733 151.458C4.829 151.185 4.33752 150.373 4.33752 149.144C4.33752 146.987 5.85162 144.365 7.71934 143.287C8.80168 142.662 9.76525 142.693 10.3843 143.249L13.3083 144.951L8.68422 153.264L5.59733 151.458Z"/>
</mask>
<path fill-rule="evenodd" clip-rule="evenodd" d="M5.59733 151.458C4.829 151.185 4.33752 150.373 4.33752 149.144C4.33752 146.987 5.85162 144.365 7.71934 143.287C8.80168 142.662 9.76525 142.693 10.3843 143.249L13.3083 144.951L8.68422 153.264L5.59733 151.458Z" fill="white"/>
<path d="M5.59733 151.458L6.10237 150.594L6.0206 150.547L5.93129 150.515L5.59733 151.458ZM7.71934 143.287L8.21934 144.153L8.21934 144.153L7.71934 143.287ZM10.3843 143.249L9.71597 143.993L9.79234 144.061L9.88106 144.113L10.3843 143.249ZM13.3083 144.951L14.1821 145.437L14.6588 144.58L13.8114 144.087L13.3083 144.951ZM8.68422 153.264L8.17918 154.127L9.06128 154.643L9.55811 153.75L8.68422 153.264ZM5.93129 150.515C5.71076 150.437 5.33752 150.132 5.33752 149.144H3.33752C3.33752 150.614 3.94723 151.934 5.26337 152.4L5.93129 150.515ZM5.33752 149.144C5.33752 148.283 5.64658 147.259 6.19406 146.311C6.74154 145.363 7.47327 144.583 8.21934 144.153L7.21934 142.421C6.09769 143.068 5.13851 144.139 4.46201 145.311C3.78551 146.483 3.33752 147.849 3.33752 149.144H5.33752ZM8.21934 144.153C9.08907 143.651 9.53927 143.834 9.71597 143.993L11.0525 142.505C9.99124 141.551 8.51428 141.673 7.21934 142.421L8.21934 144.153ZM9.88106 144.113L12.8051 145.815L13.8114 144.087L10.8874 142.384L9.88106 144.113ZM12.4344 144.465L7.81032 152.778L9.55811 153.75L14.1821 145.437L12.4344 144.465ZM9.18926 152.401L6.10237 150.594L5.09229 152.321L8.17918 154.127L9.18926 152.401Z" fill="#0E2526" mask="url(#path-4-inside-2)"/>
<circle r="3.40499" transform="matrix(0.866025 -0.5 2.20305e-08 1 11.1009 149.144)" fill="white" stroke="#0E2526"/>
<mask id="path-7-inside-3" fill="white">
<path fill-rule="evenodd" clip-rule="evenodd" d="M65.7022 162.652C64.9339 162.379 64.4424 161.567 64.4424 160.338C64.4424 158.181 65.9565 155.559 67.8242 154.481C68.9065 153.856 69.8701 153.887 70.4891 154.443L73.4131 156.145L68.7891 164.458L65.7022 162.652Z"/>
</mask>
<path fill-rule="evenodd" clip-rule="evenodd" d="M65.7022 162.652C64.9339 162.379 64.4424 161.567 64.4424 160.338C64.4424 158.181 65.9565 155.559 67.8242 154.481C68.9065 153.856 69.8701 153.887 70.4891 154.443L73.4131 156.145L68.7891 164.458L65.7022 162.652Z" fill="white"/>
<path d="M65.7022 162.652L66.2072 161.788L66.1255 161.741L66.0362 161.709L65.7022 162.652ZM64.4424 160.338L65.4424 160.338L64.4424 160.338ZM67.8242 154.481L67.3242 153.615L67.3242 153.615L67.8242 154.481ZM70.4891 154.443L69.8208 155.187L69.8972 155.255L69.9859 155.307L70.4891 154.443ZM73.4131 156.145L74.287 156.631L74.7637 155.774L73.9163 155.281L73.4131 156.145ZM68.7891 164.458L68.284 165.321L69.1661 165.837L69.663 164.944L68.7891 164.458ZM66.0362 161.709C65.8156 161.631 65.4424 161.326 65.4424 160.338L63.4424 160.338C63.4424 161.808 64.0521 163.128 65.3682 163.594L66.0362 161.709ZM65.4424 160.338C65.4424 159.477 65.7514 158.453 66.2989 157.505C66.8464 156.557 67.5781 155.777 68.3242 155.347L67.3242 153.615C66.2025 154.262 65.2434 155.333 64.5669 156.505C63.8904 157.677 63.4424 159.043 63.4424 160.338L65.4424 160.338ZM68.3242 155.347C69.1939 154.845 69.6441 155.028 69.8208 155.187L71.1574 153.699C70.0961 152.745 68.6191 152.867 67.3242 153.615L68.3242 155.347ZM69.9859 155.307L72.9099 157.009L73.9163 155.281L70.9923 153.578L69.9859 155.307ZM72.5392 155.659L67.9152 163.972L69.663 164.944L74.287 156.631L72.5392 155.659ZM69.2941 163.595L66.2072 161.788L65.1971 163.515L68.284 165.321L69.2941 163.595Z" fill="#0E2526" mask="url(#path-7-inside-3)"/>
<circle r="3.40499" transform="matrix(0.866025 -0.5 2.20305e-08 1 71.2058 160.338)" fill="white" stroke="#0E2526"/>
<path fill-rule="evenodd" clip-rule="evenodd" d="M26.408 118.015L1.79468 60.5297L26.8984 47.832L26.923 47.8877C27.3968 47.4287 28.1534 47.3913 29.006 47.8836L72.7386 73.1326C74.1734 73.961 75.3366 75.9757 75.3366 77.6326V154.557C75.3366 155.228 75.1456 155.738 74.8229 156.051L74.8297 156.067L74.7743 156.096C74.6302 156.223 74.4624 156.312 74.2755 156.363L48.6889 170.053L32.831 133.016L29.006 130.808C27.5712 129.979 26.408 127.965 26.408 126.308V118.015Z" fill="white"/>
<path d="M1.79468 60.5297L1.569 60.0835L1.15039 60.2953L1.33504 60.7265L1.79468 60.5297ZM26.408 118.015H26.908V117.912L26.8676 117.818L26.408 118.015ZM26.8984 47.832L27.3556 47.6295L27.1424 47.1482L26.6727 47.3858L26.8984 47.832ZM26.923 47.8877L26.4659 48.0901L26.7561 48.7456L27.271 48.2468L26.923 47.8877ZM29.006 47.8836L28.756 48.3166L28.756 48.3166L29.006 47.8836ZM72.7386 73.1326L72.9886 72.6996L72.9886 72.6996L72.7386 73.1326ZM74.8229 156.051L74.4745 155.693L74.2247 155.935L74.3657 156.254L74.8229 156.051ZM74.8297 156.067L75.0655 156.508L75.4748 156.289L75.2868 155.864L74.8297 156.067ZM74.7743 156.096L74.5384 155.655L74.4878 155.682L74.4447 155.72L74.7743 156.096ZM74.2755 156.363L74.1446 155.881L74.0898 155.895L74.0396 155.922L74.2755 156.363ZM48.6889 170.053L48.2292 170.249L48.4439 170.751L48.9247 170.494L48.6889 170.053ZM32.831 133.016L33.2907 132.819L33.2252 132.666L33.081 132.583L32.831 133.016ZM29.006 130.808L29.256 130.375L29.256 130.375L29.006 130.808ZM1.33504 60.7265L25.9483 118.212L26.8676 117.818L2.25432 60.3329L1.33504 60.7265ZM26.6727 47.3858L1.569 60.0835L2.02036 60.9759L27.1241 48.2782L26.6727 47.3858ZM27.3802 47.6852L27.3556 47.6295L26.4412 48.0344L26.4659 48.0901L27.3802 47.6852ZM27.271 48.2468C27.524 48.0016 28.013 47.8876 28.756 48.3166L29.256 47.4506C28.2939 46.8951 27.2695 46.8558 26.5751 47.5286L27.271 48.2468ZM28.756 48.3166L72.4886 73.5656L72.9886 72.6996L29.256 47.4506L28.756 48.3166ZM72.4886 73.5656C73.1121 73.9256 73.7048 74.5634 74.1427 75.3219C74.5806 76.0804 74.8366 76.9126 74.8366 77.6326H75.8366C75.8366 76.6957 75.5111 75.6921 75.0087 74.8219C74.5063 73.9517 73.7999 73.168 72.9886 72.6996L72.4886 73.5656ZM74.8366 77.6326V154.557H75.8366V77.6326H74.8366ZM74.8366 154.557C74.8366 155.141 74.6706 155.502 74.4745 155.693L75.1713 156.41C75.6206 155.973 75.8366 155.315 75.8366 154.557H74.8366ZM75.2868 155.864L75.2801 155.849L74.3657 156.254L74.3725 156.269L75.2868 155.864ZM75.0101 156.537L75.0655 156.508L74.5938 155.626L74.5384 155.655L75.0101 156.537ZM74.4447 155.72C74.3583 155.796 74.2586 155.85 74.1446 155.881L74.4064 156.846C74.6661 156.775 74.902 156.649 75.1039 156.472L74.4447 155.72ZM48.9247 170.494L74.5114 156.804L74.0396 155.922L48.453 169.612L48.9247 170.494ZM32.3714 133.213L48.2292 170.249L49.1485 169.856L33.2907 132.819L32.3714 133.213ZM33.081 132.583L29.256 130.375L28.756 131.241L32.581 133.449L33.081 132.583ZM29.256 130.375C28.6325 130.015 28.0398 129.377 27.6019 128.618C27.164 127.86 26.908 127.028 26.908 126.308H25.908C25.908 127.245 26.2335 128.248 26.7359 129.118C27.2383 129.989 27.9447 130.772 28.756 131.241L29.256 130.375ZM26.908 126.308V118.015H25.908V126.308H26.908Z" fill="#0E2526"/>
<path d="M16.4456 53.0505L59.2661 77.8625C62.1321 79.5232 64.4528 83.5476 64.4528 86.857L64.4528 161.597" stroke="#0E2526"/>
<rect x="0.433013" y="0.75" width="55.498" height="83.5911" rx="2.5" transform="matrix(0.866025 0.5 -2.20305e-08 1 0.734771 58.7221)" fill="white" stroke="#0E2526"/>
<path d="M33.6191 50.4937L66.1471 69.2737L62.5609 71.3442C61.3652 72.0346 59.4265 72.0346 58.2308 71.3442L30.033 55.0642C28.8372 54.3738 28.8373 53.2545 30.033 52.5642L33.6191 50.4937Z" fill="white" stroke="#0E2526"/>
<mask id="path-15-inside-4" fill="white">
<path fill-rule="evenodd" clip-rule="evenodd" d="M38.3463 2.59521C36.4331 1.49065 34.8822 2.38607 34.8822 4.59521L34.8822 52.4945L36.4734 55.3987L37.9521 54.2225L37.9612 54.2277L37.9612 6.73948C37.9612 6.18719 38.349 5.96333 38.8272 6.23947L59.3201 18.071C59.7984 18.3472 60.1861 19.0188 60.1861 19.571L60.1861 67.1035L59.768 66.8621L61.9145 70.0242L63.3617 68.9371L63.3617 21.0379C63.3617 18.8287 61.8108 16.1424 59.8976 15.0379L38.3463 2.59521Z"/>
</mask>
<path fill-rule="evenodd" clip-rule="evenodd" d="M38.3463 2.59521C36.4331 1.49065 34.8822 2.38607 34.8822 4.59521L34.8822 52.4945L36.4734 55.3987L37.9521 54.2225L37.9612 54.2277L37.9612 6.73948C37.9612 6.18719 38.349 5.96333 38.8272 6.23947L59.3201 18.071C59.7984 18.3472 60.1861 19.0188 60.1861 19.571L60.1861 67.1035L59.768 66.8621L61.9145 70.0242L63.3617 68.9371L63.3617 21.0379C63.3617 18.8287 61.8108 16.1424 59.8976 15.0379L38.3463 2.59521Z" fill="white"/>
<path d="M34.8822 4.59521L35.7482 5.09521L34.8822 4.59521ZM38.3463 2.59521L38.3463 1.59521L38.3463 2.59521ZM34.8822 52.4945L34.0162 51.9945L34.0162 52.3862L34.2466 52.8066L34.8822 52.4945ZM36.4734 55.3987L35.8377 55.7109L36.5043 56.9276L37.1361 56.4251L36.4734 55.3987ZM37.9521 54.2225L37.9502 53.2214L37.5482 52.9903L37.2893 53.1961L37.9521 54.2225ZM37.9612 54.2277L37.9631 55.2288L38.8272 55.7255L38.8272 54.7277L37.9612 54.2277ZM38.8272 6.23947L38.8272 7.23947L38.8272 6.23947ZM59.3201 18.071L59.3201 17.071L59.3201 18.071ZM60.1861 19.571L59.3201 19.071L60.1861 19.571ZM60.1861 67.1035L60.1861 68.1035L61.0522 68.6035L61.0522 67.6035L60.1861 67.1035ZM59.768 66.8621L59.768 65.8621L57.2388 64.4019L59.2372 67.3458L59.768 66.8621ZM61.9145 70.0242L61.3837 70.5078L62.0308 71.4611L62.5681 71.0576L61.9145 70.0242ZM63.3617 68.9371L64.0154 69.9705L64.2278 69.811L64.2278 69.4371L63.3617 68.9371ZM59.8976 15.0379L59.8976 16.0379L59.8976 15.0379ZM35.7482 5.09521C35.7482 3.43836 36.9114 2.76679 38.3463 3.59521L38.3463 1.59521C35.9548 0.214504 34.0162 1.33379 34.0162 4.09521L35.7482 5.09521ZM35.7482 52.9945L35.7482 5.09521L34.0162 4.09521L34.0162 51.9945L35.7482 52.9945ZM37.109 55.0866L35.5178 52.1823L34.2466 52.8066L35.8377 55.7109L37.109 55.0866ZM37.2893 53.1961L35.8106 54.3724L37.1361 56.4251L38.6149 55.2488L37.2893 53.1961ZM37.9593 53.2266L37.9502 53.2214L37.954 55.2235L37.9631 55.2288L37.9593 53.2266ZM38.8272 54.7277L38.8272 7.23948L37.0952 6.23948L37.0952 53.7277L38.8272 54.7277ZM38.8272 7.23948L38.8272 7.23947L38.8272 5.23947C37.8707 4.68719 37.0952 5.13491 37.0952 6.23948L38.8272 7.23948ZM38.8272 7.23947L59.3201 19.071L59.3201 17.071L38.8272 5.23947L38.8272 7.23947ZM59.3201 19.071L59.3201 19.071L61.0522 20.071C61.0522 18.9665 60.2767 17.6233 59.3201 17.071L59.3201 19.071ZM59.3201 19.071L59.3201 66.6035L61.0522 67.6035L61.0522 20.071L59.3201 19.071ZM60.1861 66.1035L59.768 65.8621L59.768 67.8621L60.1861 68.1035L60.1861 66.1035ZM62.4453 69.5405L60.2988 66.3785L59.2372 67.3458L61.3837 70.5078L62.4453 69.5405ZM62.7081 67.9037L61.2609 68.9908L62.5681 71.0576L64.0154 69.9705L62.7081 67.9037ZM62.4957 20.5379L62.4957 68.4371L64.2278 69.4371L64.2278 21.5379L62.4957 20.5379ZM59.8976 16.0379C61.3325 16.8663 62.4957 18.881 62.4957 20.5379L64.2278 21.5379C64.2278 18.7765 62.2891 15.4186 59.8976 14.0379L59.8976 16.0379ZM38.3463 3.59521L59.8976 16.0379L59.8976 14.0379L38.3463 1.59521L38.3463 3.59521Z" fill="#0E2526" mask="url(#path-15-inside-4)"/>
<mask id="path-17-inside-5" fill="white">
<path fill-rule="evenodd" clip-rule="evenodd" d="M36.873 3.72504C34.9599 2.62047 33.4089 3.51589 33.4089 5.72503L33.4089 53.6243L61.8885 70.067L61.8885 22.1677C61.8885 19.9586 60.3375 17.2723 58.4244 16.1677L36.873 3.72504ZM37.3538 7.36925C36.8756 7.09311 36.4878 7.31697 36.4878 7.86925L36.4878 55.4018L58.7127 68.2333L58.7127 20.7008C58.7127 20.1485 58.325 19.477 57.8467 19.2008L37.3538 7.36925Z"/>
</mask>
<path fill-rule="evenodd" clip-rule="evenodd" d="M36.873 3.72504C34.9599 2.62047 33.4089 3.51589 33.4089 5.72503L33.4089 53.6243L61.8885 70.067L61.8885 22.1677C61.8885 19.9586 60.3375 17.2723 58.4244 16.1677L36.873 3.72504ZM37.3538 7.36925C36.8756 7.09311 36.4878 7.31697 36.4878 7.86925L36.4878 55.4018L58.7127 68.2333L58.7127 20.7008C58.7127 20.1485 58.325 19.477 57.8467 19.2008L37.3538 7.36925Z" fill="white"/>
<path d="M33.4089 5.72503L34.275 6.22503L33.4089 5.72503ZM36.873 3.72504L36.873 4.72504L36.873 3.72504ZM33.4089 53.6243L32.5429 53.1243L32.5429 54.1243L33.4089 54.6243L33.4089 53.6243ZM61.8885 70.067L61.8885 71.067L62.7545 71.567L62.7545 70.567L61.8885 70.067ZM58.4244 16.1677L58.4244 15.1677L58.4244 16.1677ZM37.3538 7.36925L37.3538 8.36925L37.3538 7.36925ZM36.4878 55.4018L35.6218 54.9018L35.6218 55.9018L36.4878 56.4018L36.4878 55.4018ZM58.7127 68.2333L58.7127 69.2333L59.5788 69.7333L59.5788 68.7333L58.7127 68.2333ZM57.8467 19.2008L57.8467 18.2008L57.8467 19.2008ZM34.275 6.22503C34.275 4.56818 35.4382 3.89661 36.873 4.72504L36.873 2.72504C34.4816 1.34433 32.5429 2.46361 32.5429 5.22503L34.275 6.22503ZM34.275 54.1243L34.275 6.22503L32.5429 5.22503L32.5429 53.1243L34.275 54.1243ZM61.8885 69.067L33.4089 52.6243L33.4089 54.6243L61.8885 71.067L61.8885 69.067ZM61.0224 21.6677L61.0224 69.567L62.7545 70.567L62.7545 22.6677L61.0224 21.6677ZM58.4244 17.1677C59.8592 17.9961 61.0224 20.0108 61.0224 21.6677L62.7545 22.6677C62.7545 19.9063 60.8158 16.5484 58.4244 15.1677L58.4244 17.1677ZM36.873 4.72504L58.4244 17.1677L58.4244 15.1677L36.873 2.72504L36.873 4.72504ZM37.3538 8.36925L37.3538 8.36925L37.3538 6.36925C36.3973 5.81696 35.6218 6.26468 35.6218 7.36925L37.3538 8.36925ZM37.3538 55.9018L37.3538 8.36925L35.6218 7.36925L35.6218 54.9018L37.3538 55.9018ZM58.7127 67.2333L36.4878 54.4018L36.4878 56.4018L58.7127 69.2333L58.7127 67.2333ZM57.8467 20.2008L57.8467 67.7333L59.5788 68.7333L59.5788 21.2008L57.8467 20.2008ZM57.8467 20.2008L57.8467 20.2008L59.5788 21.2008C59.5788 20.0962 58.8033 18.7531 57.8467 18.2008L57.8467 20.2008ZM37.3538 8.36925L57.8467 20.2008L57.8467 18.2008L37.3538 6.36925L37.3538 8.36925Z" fill="#0E2526" mask="url(#path-17-inside-5)"/>
<path d="M58.9006 31.6174L61.4962 32.9958" stroke="#0E2526"/>
<path d="M63.0474 32.188L61.3514 33.1073" stroke="#0E2526"/>
<path d="M37.6957 19.1011L35.9997 20.0204" stroke="#0E2526"/>
<path d="M33.6123 18.412L36.2078 19.7904" stroke="#0E2526"/>
</svg>
