<svg width="119" height="120" viewBox="0 0 119 120" fill="none" xmlns="http://www.w3.org/2000/svg">
<circle cx="59.5" cy="59.6907" r="59" fill="white" stroke="#0E2526"/>
<path d="M103.823 54.9423C103.823 81.3019 81.7239 102.699 54.4272 102.699C27.1306 102.699 5.03101 81.3019 5.03101 54.9423C5.03101 28.5828 27.1306 7.18591 54.4272 7.18591C81.7239 7.18591 103.823 28.5828 103.823 54.9423Z" fill="white" stroke="#0E2526"/>
<mask id="mask0" mask-type="alpha" maskUnits="userSpaceOnUse" x="1" y="1" width="117" height="118">
<circle cx="59.5" cy="59.6907" r="58" fill="#F4F4F4" stroke="#0E2526"/>
</mask>
<g mask="url(#mask0)">
<path d="M66.8725 22.8106C62.2681 21.8709 53.6779 21.0096 49.9583 20.6964C48.2356 22.7715 44.2028 27.6265 41.8536 30.4455C39.5044 33.2645 35.0801 40.7036 33.1616 44.0708C34.4928 46.3417 37.766 51.7057 40.2092 54.9945C42.6523 58.2834 49.1361 65.0569 52.0726 68.0325L80.9676 56.639V41.6041C80.9676 39.7248 79.793 31.0328 79.2057 26.9217C77.0132 25.9429 71.4769 23.7503 66.8725 22.8106Z" fill="white" stroke="#0E2526"/>
<path d="M94.8201 19.5748L89.7108 10.5298L92.1964 0.0349121L114.015 20.6795C115.971 30.5069 118.24 47.3034 111.667 35.8695C105.094 24.4356 97.697 20.2422 94.8201 19.5748Z" fill="white" stroke="#0E2526"/>
<path d="M7.3591 42.4857C6.5666 39.8201 7.02889 31.9492 7.3591 28.347L-2.45698 33.4801C-2.57705 47.3487 -2.24083 74.9058 0.0645952 74.1853C2.37002 73.4649 5.46795 74.4855 6.72873 75.0859C6.22443 72.06 8.93228 57.239 10.3732 49.7044C9.68273 48.7438 8.1516 45.1514 7.3591 42.4857Z" fill="white" stroke="#0E2526"/>
<path d="M42.4977 7.23357C41.8427 6.43313 33.371 7.56709 29.217 8.23412L24.6689 5.68718C34.3413 2.77637 52.8493 -2.48129 49.5018 -0.225403C46.1544 2.03048 43.4376 5.6872 42.4977 7.23357Z" fill="white" stroke="#0E2526"/>
<path d="M65.1326 108.856C62.3102 107.104 51.3857 98.799 46.2762 94.8655C46.2762 94.8655 39.647 96.4606 35.3273 97.0553C30.9848 97.6533 24.0135 97.0553 24.0135 97.0553C27.3225 102.213 29.2446 110.924 29.7312 114.209C38.0848 117.98 55.2299 124.428 56.9817 120.048C58.7336 115.668 63.1456 110.762 65.1326 108.856Z" fill="white" stroke="#0E2526"/>
<path d="M115.07 63.4178C114.675 64.8998 105.272 70.6218 100.621 73.2976C100.621 73.2976 98.963 81.3362 97.6567 86.2648C96.3202 91.3074 93.8283 98.738 93.8283 98.738C98.9658 98.1453 104.449 100.549 106.549 101.825C110.542 96.8856 118.429 85.9684 118.034 81.8189C117.639 77.6694 115.893 67.8226 115.07 63.4178Z" fill="white" stroke="#0E2526"/>
<path d="M64.9698 108.955C69.7867 106.298 82.2682 100.518 93.6587 98.6479" stroke="#0E2526"/>
<path d="M115.138 63.8188C114.637 60.923 113.726 55.6814 113.459 51.0035C113.192 46.3257 113.942 40.7549 114.415 39.502" stroke="#0E2526"/>
<path d="M46.5557 94.8036L52.1953 68.4417" stroke="#0E2526"/>
<path d="M81.0493 56.6378L100.198 73.2943" stroke="#0E2526"/>
<path d="M79.0822 26.8658L94.1648 19.5212" stroke="#0E2526"/>
<path d="M42.3334 7.70435L50.4074 21.0873" stroke="#0E2526"/>
<path d="M10.2309 49.4468L34.8799 43.5152" stroke="#0E2526"/>
</g>
</svg>
