<svg width="157" height="125" viewBox="0 0 157 125" fill="none" xmlns="http://www.w3.org/2000/svg">
<path d="M3.57544 61.1656C8.06966 52.819 33.6236 40.0208 45.3085 32.7872C56.9934 25.5536 62.3724 22.7712 67.0094 19.9891C71.6463 17.2069 82.2558 10.9748 87.5976 8.30388C94.2748 4.9652 105.96 1.07031 120.428 1.07031C134.895 1.07031 141.899 5.85145 146.58 8.86044C154.37 13.8684 156.04 20.5456 156.04 28.3357C156.04 36.1259 155.483 57.7219 144.91 79.528C136.661 96.5414 114.307 105.124 96.5007 115.696C79.6458 125.704 65.3402 124.599 55.3242 123.487C35.2924 121.261 17.4867 107.35 8.027 90.6567C-0.506473 75.598 -0.31959 68.3993 3.57544 61.1656Z" fill="white" stroke="#0E2526"/>
<path d="M3.57514 61.1659C8.06936 52.8194 33.6233 40.0212 45.3082 32.7875C56.9931 25.5539 62.3726 22.7717 67.0095 19.9895C71.6465 17.2074 82.2555 10.9752 87.5973 8.30422C94.2745 4.96554 103.734 1.53734 118.202 1.07065C132.669 0.60396 141.899 5.85179 146.58 8.86077C154.37 13.8687 157.708 21.6588 155.483 30.0053C153.257 38.3519 145.265 41.7181 138.233 45.5856C127.104 51.7065 93.1616 70.6253 77.0249 81.754C60.8883 92.8828 41.9694 91.2135 31.3971 90.657C20.8248 90.1006 10.8091 83.4233 6.91403 79.5283C3.01897 75.6332 -0.31989 68.3996 3.57514 61.1659Z" fill="white" stroke="#0E2526"/>
<path d="M8.02674 62.2787C12.2724 54.4386 37.6079 41.808 48.6467 35.0133C59.6854 28.2185 65.9676 24.8286 70.3482 22.2152C74.7288 19.6019 85.8895 13.7066 90.9359 11.1977C97.2439 8.0616 106.516 4.96566 119.871 4.9657C133.226 4.96573 138.819 8.37126 143.241 11.1977C150.6 15.9018 153.813 23.3281 150.475 30.5618C147.136 37.7955 139.311 40.8399 132.669 44.4727C122.155 50.2222 91.7128 67.1242 76.4685 77.5777C61.2241 88.0313 44.7233 87.8411 34.7357 87.3184C24.748 86.7957 15.388 81.2365 11.7084 77.5777C8.0287 73.919 4.3471 69.0735 8.02674 62.2787Z" fill="white" stroke="#DBDBDB"/>
<mask id="mask0" mask-type="alpha" maskUnits="userSpaceOnUse" x="6" y="4" width="147" height="84">
<path d="M8.43158 62.1564C12.6593 54.3377 37.8872 41.7416 48.8791 34.9655C59.8709 28.1893 66.126 25.3635 70.488 22.7573C74.85 20.1511 85.9638 13.717 90.9888 11.215C97.27 8.08745 106.191 5.43718 119.801 5.00001C133.41 4.56283 138.669 8.39626 143.072 11.215C150.4 15.9062 153.599 23.3122 150.275 30.5261C146.95 37.74 137.189 41.6564 130.443 45.0292C118.202 51.15 91.4928 66.1738 75.3561 76.7461C59.7102 86.9969 44.6814 87.2832 34.7362 86.762C24.7909 86.2408 15.7616 81.0623 12.0976 77.4135C8.43354 73.7648 4.76757 68.9326 8.43158 62.1564Z" fill="#F9F9F9" stroke="#0E2526"/>
</mask>
<g mask="url(#mask0)">
<path d="M30.3971 92.5128C33.8117 86.1734 54.1881 75.9604 63.0662 70.4662C71.9442 64.972 76.9964 62.6808 80.5196 60.5677C84.0427 58.4545 93.0192 53.2377 97.0779 51.209C102.151 48.6732 109.357 46.5243 120.349 46.1698C131.341 45.8154 135.589 48.9236 139.145 51.209C145.064 55.0127 147.648 61.0176 144.963 66.8667C142.278 72.7158 135.985 75.1775 130.642 78.115C122.187 82.764 97.7027 96.4308 85.4422 104.884C73.1818 113.336 59.9108 113.182 51.8781 112.76C43.8454 112.337 36.3175 107.842 33.3581 104.884C30.3986 101.925 27.4377 98.0071 30.3971 92.5128Z" fill="white" stroke="#DBDBDB"/>
</g>
<rect x="0.866025" width="15.4867" height="5.27128" rx="2.63564" transform="matrix(0.866025 -0.5 0.866025 0.5 44.9142 32.0573)" fill="white" stroke="#0E2526"/>
<path d="M57.9784 21.5195H57.4784V22.0195V25.1088V25.4052L57.7385 25.5475L57.9784 25.1088C57.7385 25.5475 57.7386 25.5475 57.7386 25.5475L57.7388 25.5476L57.7391 25.5478L57.74 25.5483L57.7424 25.5496L57.7498 25.5536L57.7743 25.5664C57.7948 25.5771 57.8235 25.5916 57.8589 25.6088C57.9295 25.643 58.0285 25.6885 58.1442 25.7342C58.3611 25.82 58.6924 25.9297 59.0149 25.9297C59.3383 25.9297 59.6668 25.8195 59.8815 25.7332C59.9959 25.6872 60.0936 25.6414 60.1631 25.607C60.1981 25.5897 60.2263 25.5751 60.2466 25.5643L60.2708 25.5513L60.2781 25.5473L60.2806 25.546L60.2815 25.5455L60.2818 25.5453L60.282 25.5452C60.2821 25.5451 60.2821 25.5451 60.0379 25.1088L60.2821 25.5451L60.5379 25.4019V25.1088V22.0195V21.5195H60.0379H57.9784Z" fill="white" stroke="#0E2526"/>
<mask id="path-8-outside-1" maskUnits="userSpaceOnUse" x="52.9461" y="19.0423" width="12.1244" height="7" fill="black">
<rect fill="white" x="52.9461" y="19.0423" width="12.1244" height="7"/>
<path fill-rule="evenodd" clip-rule="evenodd" d="M61.1052 21.2529C61.2706 21.3485 61.2706 21.5033 61.1052 21.5988L60.7757 21.7891C60.9282 21.922 61.031 22.0683 61.0841 22.2192L61.55 22.2192C61.784 22.2192 61.9737 22.3287 61.9737 22.4638C61.9737 22.5989 61.784 22.7084 61.55 22.7084L61.084 22.7084C61.0309 22.8593 60.9282 23.0054 60.7759 23.1382L61.1053 23.3284C61.2707 23.4239 61.2707 23.5788 61.1053 23.6743C60.9398 23.7698 60.6716 23.7698 60.5061 23.6743L60.1767 23.4841C59.9468 23.5721 59.6936 23.6314 59.4324 23.6621L59.4324 23.9314C59.4324 24.0665 59.2427 24.176 59.0087 24.176C58.7747 24.176 58.5851 24.0665 58.5851 23.9314L58.5851 23.6622C58.3235 23.6315 58.0701 23.5722 57.8399 23.4841L57.5103 23.6744C57.3448 23.7699 57.0766 23.7699 56.9111 23.6744C56.7457 23.5789 56.7457 23.424 56.9111 23.3285L57.2408 23.1381C57.0885 23.0054 56.9858 22.8592 56.9327 22.7084L56.4669 22.7084C56.233 22.7084 56.0433 22.5989 56.0433 22.4638C56.0433 22.3287 56.233 22.2192 56.4669 22.2192L56.9326 22.2192C56.9857 22.0683 57.0884 21.9221 57.2409 21.7892L56.9112 21.5989C56.7458 21.5034 56.7458 21.3485 56.9112 21.253C57.0767 21.1574 57.3449 21.1574 57.5104 21.253L57.84 21.4433C58.07 21.3553 58.3232 21.296 58.5845 21.2653L58.5845 20.9958C58.5845 20.8608 58.7742 20.7513 59.0082 20.7513C59.2421 20.7513 59.4318 20.8608 59.4318 20.9958L59.4318 21.2653C59.6932 21.2959 59.9464 21.3552 60.1765 21.4432L60.506 21.2529C60.6715 21.1574 60.9397 21.1574 61.1052 21.2529Z"/>
</mask>
<path fill-rule="evenodd" clip-rule="evenodd" d="M61.1052 21.2529C61.2706 21.3485 61.2706 21.5033 61.1052 21.5988L60.7757 21.7891C60.9282 21.922 61.031 22.0683 61.0841 22.2192L61.55 22.2192C61.784 22.2192 61.9737 22.3287 61.9737 22.4638C61.9737 22.5989 61.784 22.7084 61.55 22.7084L61.084 22.7084C61.0309 22.8593 60.9282 23.0054 60.7759 23.1382L61.1053 23.3284C61.2707 23.4239 61.2707 23.5788 61.1053 23.6743C60.9398 23.7698 60.6716 23.7698 60.5061 23.6743L60.1767 23.4841C59.9468 23.5721 59.6936 23.6314 59.4324 23.6621L59.4324 23.9314C59.4324 24.0665 59.2427 24.176 59.0087 24.176C58.7747 24.176 58.5851 24.0665 58.5851 23.9314L58.5851 23.6622C58.3235 23.6315 58.0701 23.5722 57.8399 23.4841L57.5103 23.6744C57.3448 23.7699 57.0766 23.7699 56.9111 23.6744C56.7457 23.5789 56.7457 23.424 56.9111 23.3285L57.2408 23.1381C57.0885 23.0054 56.9858 22.8592 56.9327 22.7084L56.4669 22.7084C56.233 22.7084 56.0433 22.5989 56.0433 22.4638C56.0433 22.3287 56.233 22.2192 56.4669 22.2192L56.9326 22.2192C56.9857 22.0683 57.0884 21.9221 57.2409 21.7892L56.9112 21.5989C56.7458 21.5034 56.7458 21.3485 56.9112 21.253C57.0767 21.1574 57.3449 21.1574 57.5104 21.253L57.84 21.4433C58.07 21.3553 58.3232 21.296 58.5845 21.2653L58.5845 20.9958C58.5845 20.8608 58.7742 20.7513 59.0082 20.7513C59.2421 20.7513 59.4318 20.8608 59.4318 20.9958L59.4318 21.2653C59.6932 21.2959 59.9464 21.3552 60.1765 21.4432L60.506 21.2529C60.6715 21.1574 60.9397 21.1574 61.1052 21.2529Z" fill="white"/>
<path d="M61.1052 21.5988L60.2391 21.0988L61.1052 21.5988ZM60.7757 21.7891L59.9097 21.2891L59.2017 21.6978L59.7548 22.1797L60.7757 21.7891ZM61.0841 22.2192L59.8839 22.3599L60.0831 22.9263L61.0841 22.9263L61.0841 22.2192ZM61.55 22.2192L61.55 22.9263L61.55 22.9263L61.55 22.2192ZM61.9737 22.4638L63.1984 22.4638L63.1984 22.4638L61.9737 22.4638ZM61.55 22.7084L61.55 23.4155L61.55 23.4155L61.55 22.7084ZM61.084 22.7084L61.084 22.0013L60.0832 22.0013L59.8838 22.5676L61.084 22.7084ZM60.7759 23.1382L59.7548 22.7477L59.202 23.2295L59.9098 23.6382L60.7759 23.1382ZM61.1053 23.3284L60.2392 23.8284L61.1053 23.3284ZM60.5061 23.6743L61.3721 23.1743L60.5061 23.6743ZM60.1767 23.4841L61.0428 22.9841L60.3349 22.5754L59.5003 22.8947L60.1767 23.4841ZM59.4324 23.6621L59.1884 22.9692L58.2076 23.0843L58.2076 23.6621L59.4324 23.6621ZM59.4324 23.9314L60.6571 23.9314L60.6571 23.9314L59.4324 23.9314ZM59.0087 24.176L59.0087 24.8831L59.0087 24.8831L59.0087 24.176ZM58.5851 23.9314L57.3603 23.9314L57.3603 23.9314L58.5851 23.9314ZM58.5851 23.6622L59.8098 23.6622L59.8098 23.0842L58.8287 22.9692L58.5851 23.6622ZM57.8399 23.4841L58.5164 22.8947L57.6818 22.5754L56.9739 22.9841L57.8399 23.4841ZM57.5103 23.6744L58.3763 24.1744L57.5103 23.6744ZM57.2408 23.1381L58.1068 23.6381L58.8146 23.2295L58.2619 22.7477L57.2408 23.1381ZM56.9327 22.7084L58.1329 22.5676L57.9335 22.0013L56.9327 22.0013L56.9327 22.7084ZM56.4669 22.7084L56.4669 22.0013L56.4669 22.0013L56.4669 22.7084ZM56.0433 22.4638L57.268 22.4638L57.268 22.4638L56.0433 22.4638ZM56.4669 22.2192L56.4669 21.5121L56.4669 22.2192ZM56.9326 22.2192L56.9326 22.9263L57.9337 22.9263L58.1329 22.3599L56.9326 22.2192ZM57.2409 21.7892L58.2619 22.1797L58.8148 21.6979L58.1069 21.2892L57.2409 21.7892ZM56.9112 21.5989L56.0452 22.0989L56.9112 21.5989ZM57.5104 21.253L56.6444 21.753L57.5104 21.253ZM57.84 21.4433L56.974 21.9433L57.6819 22.352L58.5165 22.0327L57.84 21.4433ZM58.5845 21.2653L58.8284 21.9583L59.8093 21.8432L59.8093 21.2653L58.5845 21.2653ZM58.5845 20.9958L57.3598 20.9958L57.3598 20.9958L58.5845 20.9958ZM59.0082 20.7513L59.0082 20.0441L59.0082 20.0441L59.0082 20.7513ZM59.4318 20.9958L58.2071 20.9958L58.2071 20.9958L59.4318 20.9958ZM59.4318 21.2653L58.2071 21.2653L58.2071 21.8432L59.1881 21.9582L59.4318 21.2653ZM60.1765 21.4432L59.5002 22.0327L60.3347 22.3518L61.0425 21.9432L60.1765 21.4432ZM61.9712 22.0988C62.6149 21.7272 62.6149 21.1246 61.9712 20.7529L60.2391 21.7529C59.9263 21.5723 59.9263 21.2795 60.2391 21.0988L61.9712 22.0988ZM61.6417 22.2891L61.9712 22.0988L60.2391 21.0988L59.9097 21.2891L61.6417 22.2891ZM62.2844 22.0785C62.2006 21.8403 62.0381 21.6089 61.7966 21.3985L59.7548 22.1797C59.8183 22.235 59.8615 22.2962 59.8839 22.3599L62.2844 22.0785ZM61.55 21.5121L61.0841 21.5121L61.0841 22.9263L61.55 22.9263L61.55 21.5121ZM63.1984 22.4638C63.1984 21.9382 62.4604 21.5121 61.55 21.5121L61.55 22.9263C61.1076 22.9263 60.7489 22.7193 60.7489 22.4638L63.1984 22.4638ZM61.55 23.4155C62.4604 23.4155 63.1984 22.9894 63.1984 22.4638L60.7489 22.4638C60.7489 22.2084 61.1076 22.0013 61.55 22.0013L61.55 23.4155ZM61.084 23.4155L61.55 23.4155L61.55 22.0013L61.084 22.0013L61.084 23.4155ZM61.7969 23.5287C62.0381 23.3185 62.2005 23.0872 62.2842 22.8493L59.8838 22.5676C59.8614 22.6313 59.8183 22.6924 59.7548 22.7477L61.7969 23.5287ZM61.9713 22.8284L61.6419 22.6382L59.9098 23.6382L60.2392 23.8284L61.9713 22.8284ZM61.9713 24.1743C62.615 23.8026 62.615 23.2 61.9713 22.8284L60.2392 23.8284C59.9264 23.6478 59.9264 23.3549 60.2392 23.1743L61.9713 24.1743ZM59.6401 24.1743C60.2838 24.546 61.3275 24.546 61.9713 24.1743L60.2392 23.1743C60.5521 22.9937 61.0593 22.9937 61.3721 23.1743L59.6401 24.1743ZM59.3107 23.9841L59.6401 24.1743L61.3721 23.1743L61.0428 22.9841L59.3107 23.9841ZM59.6764 24.355C60.0886 24.3066 60.4891 24.2129 60.8532 24.0736L59.5003 22.8947C59.4044 22.9313 59.2987 22.9562 59.1884 22.9692L59.6764 24.355ZM60.6571 23.9314L60.6571 23.6621L58.2076 23.6621L58.2076 23.9314L60.6571 23.9314ZM59.0087 24.8831C59.9191 24.8831 60.6571 24.457 60.6571 23.9314L58.2076 23.9314C58.2076 23.676 58.5663 23.4689 59.0087 23.4689L59.0087 24.8831ZM57.3603 23.9314C57.3603 24.457 58.0983 24.8831 59.0087 24.8831L59.0087 23.4689C59.4511 23.4689 59.8098 23.676 59.8098 23.9314L57.3603 23.9314ZM57.3603 23.6622L57.3603 23.9314L59.8098 23.9314L59.8098 23.6622L57.3603 23.6622ZM57.1634 24.0735C57.5278 24.213 57.9288 24.3068 58.3414 24.3551L58.8287 22.9692C58.7182 22.9563 58.6123 22.9314 58.5164 22.8947L57.1634 24.0735ZM58.3763 24.1744L58.7059 23.9841L56.9739 22.9841L56.6443 23.1744L58.3763 24.1744ZM56.0451 24.1744C56.6889 24.546 57.7326 24.546 58.3763 24.1744L56.6443 23.1744C56.9571 22.9938 57.4643 22.9938 57.7772 23.1744L56.0451 24.1744ZM56.0451 22.8285C55.4014 23.2001 55.4014 23.8027 56.0451 24.1744L57.7772 23.1744C58.09 23.355 58.09 23.6479 57.7772 23.8285L56.0451 22.8285ZM56.3748 22.6381L56.0451 22.8285L57.7772 23.8285L58.1068 23.6381L56.3748 22.6381ZM55.7325 22.8493C55.8162 23.0872 55.9786 23.3184 56.2197 23.5286L58.2619 22.7477C58.1984 22.6923 58.1553 22.6313 58.1329 22.5676L55.7325 22.8493ZM56.4669 23.4155L56.9327 23.4155L56.9327 22.0013L56.4669 22.0013L56.4669 23.4155ZM54.8185 22.4638C54.8185 22.9894 55.5565 23.4155 56.4669 23.4155L56.4669 22.0013C56.9094 22.0013 57.268 22.2084 57.268 22.4638L54.8185 22.4638ZM56.4669 21.5121C55.5565 21.5121 54.8185 21.9382 54.8185 22.4638L57.268 22.4638C57.268 22.7193 56.9094 22.9263 56.4669 22.9263L56.4669 21.5121ZM56.9326 21.5121L56.4669 21.5121L56.4669 22.9263L56.9326 22.9263L56.9326 21.5121ZM56.2199 21.3987C55.9785 21.609 55.8161 21.8404 55.7323 22.0785L58.1329 22.3599C58.1553 22.2962 58.1984 22.2351 58.2619 22.1797L56.2199 21.3987ZM56.0452 22.0989L56.3749 22.2892L58.1069 21.2892L57.7773 21.0989L56.0452 22.0989ZM56.0452 20.753C55.4015 21.1246 55.4015 21.7272 56.0452 22.0989L57.7773 21.0989C58.0901 21.2795 58.0901 21.5724 57.7773 21.753L56.0452 20.753ZM58.3764 20.753C57.7327 20.3813 56.689 20.3813 56.0452 20.753L57.7773 21.753C57.4644 21.9336 56.9572 21.9336 56.6444 21.753L58.3764 20.753ZM58.706 20.9433L58.3764 20.753L56.6444 21.753L56.974 21.9433L58.706 20.9433ZM58.3406 20.5724C57.9283 20.6207 57.5277 20.7145 57.1636 20.8538L58.5165 22.0327C58.6123 21.9961 58.7181 21.9712 58.8284 21.9583L58.3406 20.5724ZM59.8093 21.2653L59.8093 20.9958L57.3598 20.9958L57.3598 21.2653L59.8093 21.2653ZM59.8093 20.9958C59.8093 21.2513 59.4506 21.4584 59.0082 21.4584L59.0082 20.0441C58.0978 20.0441 57.3598 20.4702 57.3598 20.9958L59.8093 20.9958ZM59.0082 21.4584C58.5657 21.4584 58.2071 21.2513 58.2071 20.9958L60.6566 20.9958C60.6566 20.4702 59.9186 20.0441 59.0082 20.0441L59.0082 21.4584ZM58.2071 20.9958L58.2071 21.2653L60.6566 21.2653L60.6566 20.9958L58.2071 20.9958ZM60.8528 20.8537C60.4885 20.7144 60.0879 20.6206 59.6755 20.5723L59.1881 21.9582C59.2985 21.9712 59.4043 21.9961 59.5002 22.0327L60.8528 20.8537ZM59.64 20.7529L59.3105 20.9432L61.0425 21.9432L61.3721 21.7529L59.64 20.7529ZM61.9712 20.7529C61.3275 20.3813 60.2837 20.3813 59.64 20.7529L61.3721 21.7529C61.0592 21.9335 60.552 21.9335 60.2391 21.7529L61.9712 20.7529Z" fill="#0E2526" mask="url(#path-8-outside-1)"/>
<path d="M59.822 24.4938C59.822 24.8646 56.6662 24.8371 55.6365 24.4938V27.3559C55.6365 27.3559 54.8693 27.7498 53.7857 27.7826C52.8771 27.8101 51.8928 27.4161 51.3449 27.1812C51.1732 25.1217 51.1297 21.8773 52.7551 19.8002C54.2641 17.8719 56.989 17.872 58.4143 19.3392C59.8124 20.7783 59.822 22.8245 59.822 24.4938Z" fill="white"/>
<path d="M55.6365 22.9492V24.4938M55.6365 24.4938C56.6662 24.8371 59.822 24.8646 59.822 24.4938C59.822 22.8245 59.8124 20.7783 58.4143 19.3392C56.989 17.872 54.2641 17.8719 52.7551 19.8002C51.1297 21.8773 51.1732 25.1217 51.3449 27.1812C51.8928 27.4161 52.8771 27.8101 53.7857 27.7826C54.8693 27.7498 55.6365 27.3559 55.6365 27.3559C55.6365 27.3559 55.6365 25.5236 55.6365 24.4938Z" stroke="#0E2526"/>
<path d="M49.534 26.5885H49.034V27.0885V30.1778V30.4742L49.2941 30.6165L49.534 30.1778C49.2941 30.6165 49.2942 30.6165 49.2942 30.6165L49.2944 30.6166L49.2948 30.6168L49.2956 30.6173L49.298 30.6186L49.3054 30.6226L49.3299 30.6354C49.3504 30.6461 49.3791 30.6606 49.4145 30.6778C49.4851 30.712 49.5841 30.7575 49.6998 30.8032C49.9167 30.889 50.248 30.9987 50.5705 30.9987C50.8939 30.9987 51.2224 30.8885 51.4371 30.8022C51.5515 30.7562 51.6492 30.7104 51.7187 30.676C51.7537 30.6587 51.782 30.6441 51.8022 30.6333L51.8264 30.6203L51.8337 30.6163L51.8362 30.615L51.8371 30.6145L51.8374 30.6143L51.8376 30.6142C51.8377 30.6141 51.8377 30.6141 51.5935 30.1778L51.8377 30.6141L52.0935 30.4709V30.1778V27.0885V26.5885H51.5935H49.534Z" fill="white" stroke="#0E2526"/>
<mask id="path-13-outside-2" maskUnits="userSpaceOnUse" x="44.5015" y="24.1113" width="12.1244" height="7" fill="black">
<rect fill="white" x="44.5015" y="24.1113" width="12.1244" height="7"/>
<path fill-rule="evenodd" clip-rule="evenodd" d="M52.6606 26.322C52.8261 26.4175 52.8261 26.5724 52.6606 26.6679L52.3312 26.8581C52.4837 26.991 52.5865 27.1373 52.6396 27.2883L53.1055 27.2883C53.3395 27.2883 53.5292 27.3978 53.5292 27.5329C53.5292 27.668 53.3395 27.7775 53.1055 27.7775L52.6395 27.7775C52.5864 27.9283 52.4837 28.0745 52.3313 28.2073L52.6607 28.3974C52.8262 28.493 52.8262 28.6478 52.6607 28.7434C52.4953 28.8389 52.227 28.8389 52.0616 28.7434L51.7322 28.5532C51.5023 28.6412 51.2491 28.7005 50.9879 28.7312L50.9879 29.0005C50.9879 29.1356 50.7982 29.2451 50.5642 29.2451C50.3302 29.2451 50.1405 29.1356 50.1405 29.0005L50.1405 28.7312C49.879 28.7006 49.6256 28.6412 49.3954 28.5532L49.0658 28.7434C48.9003 28.839 48.6321 28.839 48.4666 28.7434C48.3012 28.6479 48.3012 28.4931 48.4666 28.3975L48.7963 28.2072C48.644 28.0744 48.5413 27.9283 48.4882 27.7775L48.0224 27.7775C47.7884 27.7775 47.5988 27.668 47.5988 27.5329C47.5988 27.3978 47.7884 27.2883 48.0224 27.2883L48.4881 27.2883C48.5412 27.1374 48.6439 26.9911 48.7964 26.8583L48.4667 26.6679C48.3013 26.5724 48.3013 26.4176 48.4667 26.322C48.6322 26.2265 48.9004 26.2265 49.0659 26.322L49.3955 26.5123C49.6255 26.4244 49.8787 26.365 50.14 26.3344L50.14 26.0649C50.14 25.9298 50.3297 25.8203 50.5637 25.8203C50.7976 25.8203 50.9873 25.9298 50.9873 26.0649L50.9873 26.3343C51.2486 26.365 51.5019 26.4243 51.732 26.5123L52.0615 26.322C52.227 26.2265 52.4952 26.2265 52.6606 26.322Z"/>
</mask>
<path fill-rule="evenodd" clip-rule="evenodd" d="M52.6606 26.322C52.8261 26.4175 52.8261 26.5724 52.6606 26.6679L52.3312 26.8581C52.4837 26.991 52.5865 27.1373 52.6396 27.2883L53.1055 27.2883C53.3395 27.2883 53.5292 27.3978 53.5292 27.5329C53.5292 27.668 53.3395 27.7775 53.1055 27.7775L52.6395 27.7775C52.5864 27.9283 52.4837 28.0745 52.3313 28.2073L52.6607 28.3974C52.8262 28.493 52.8262 28.6478 52.6607 28.7434C52.4953 28.8389 52.227 28.8389 52.0616 28.7434L51.7322 28.5532C51.5023 28.6412 51.2491 28.7005 50.9879 28.7312L50.9879 29.0005C50.9879 29.1356 50.7982 29.2451 50.5642 29.2451C50.3302 29.2451 50.1405 29.1356 50.1405 29.0005L50.1405 28.7312C49.879 28.7006 49.6256 28.6412 49.3954 28.5532L49.0658 28.7434C48.9003 28.839 48.6321 28.839 48.4666 28.7434C48.3012 28.6479 48.3012 28.4931 48.4666 28.3975L48.7963 28.2072C48.644 28.0744 48.5413 27.9283 48.4882 27.7775L48.0224 27.7775C47.7884 27.7775 47.5988 27.668 47.5988 27.5329C47.5988 27.3978 47.7884 27.2883 48.0224 27.2883L48.4881 27.2883C48.5412 27.1374 48.6439 26.9911 48.7964 26.8583L48.4667 26.6679C48.3013 26.5724 48.3013 26.4176 48.4667 26.322C48.6322 26.2265 48.9004 26.2265 49.0659 26.322L49.3955 26.5123C49.6255 26.4244 49.8787 26.365 50.14 26.3344L50.14 26.0649C50.14 25.9298 50.3297 25.8203 50.5637 25.8203C50.7976 25.8203 50.9873 25.9298 50.9873 26.0649L50.9873 26.3343C51.2486 26.365 51.5019 26.4243 51.732 26.5123L52.0615 26.322C52.227 26.2265 52.4952 26.2265 52.6606 26.322Z" fill="white"/>
<path d="M52.6606 26.322L51.7946 26.822L52.6606 26.322ZM52.3312 26.8581L51.4651 26.3581L50.7572 26.7669L51.3102 27.2487L52.3312 26.8581ZM52.6396 27.2883L51.4394 27.429L51.6385 27.9954L52.6396 27.9954L52.6396 27.2883ZM53.1055 27.2883L53.1055 27.9954L53.1055 27.9954L53.1055 27.2883ZM53.5292 27.5329L54.7539 27.5329L54.7539 27.5329L53.5292 27.5329ZM53.1055 27.7775L53.1055 28.4846L53.1055 28.4846L53.1055 27.7775ZM52.6395 27.7775L52.6395 27.0704L51.6387 27.0704L51.4393 27.6367L52.6395 27.7775ZM52.3313 28.2073L51.3103 27.8167L50.7575 28.2986L51.4653 28.7073L52.3313 28.2073ZM52.6607 28.3974L53.5268 27.8974L52.6607 28.3974ZM51.7322 28.5532L52.5983 28.0532L51.8903 27.6445L51.0558 27.9637L51.7322 28.5532ZM50.9879 28.7312L50.7438 28.0382L49.7631 28.1533L49.7631 28.7312L50.9879 28.7312ZM50.9879 29.0005L52.2126 29.0005L52.2126 29.0005L50.9879 29.0005ZM50.5642 29.2451L50.5642 29.9522L50.5642 29.9522L50.5642 29.2451ZM50.1405 29.0005L48.9158 29.0005L48.9158 29.0005L50.1405 29.0005ZM50.1405 28.7312L51.3653 28.7312L51.3653 28.1532L50.3841 28.0383L50.1405 28.7312ZM49.3954 28.5532L50.0719 27.9637L49.2373 27.6444L48.5293 28.0532L49.3954 28.5532ZM48.7963 28.2072L49.6623 28.7072L50.3701 28.2985L49.8173 27.8167L48.7963 28.2072ZM48.4882 27.7775L49.6884 27.6367L49.489 27.0704L48.4882 27.0704L48.4882 27.7775ZM48.0224 27.7775L48.0224 28.4846L48.0224 28.4846L48.0224 27.7775ZM47.5988 27.5329L46.374 27.5329L46.374 27.5329L47.5988 27.5329ZM48.0224 27.2883L48.0224 27.9954L48.0224 27.9954L48.0224 27.2883ZM48.4881 27.2883L48.4881 27.9954L49.4892 27.9954L49.6883 27.429L48.4881 27.2883ZM48.7964 26.8583L49.8174 27.2488L50.3703 26.767L49.6624 26.3583L48.7964 26.8583ZM48.4667 26.6679L49.3327 26.1679L48.4667 26.6679ZM49.0659 26.322L49.9319 25.822L49.0659 26.322ZM49.3955 26.5123L48.5295 27.0123L49.2374 27.4211L50.0719 27.1018L49.3955 26.5123ZM50.14 26.3344L50.3839 27.0273L51.3647 26.9122L51.3647 26.3344L50.14 26.3344ZM50.14 26.0649L48.9152 26.0649L48.9152 26.0649L50.14 26.0649ZM50.5637 25.8203L50.5637 25.1132L50.5637 25.1132L50.5637 25.8203ZM50.9873 26.0649L49.7626 26.0649L49.7626 26.0649L50.9873 26.0649ZM50.9873 26.3343L49.7626 26.3343L49.7626 26.9123L50.7436 27.0273L50.9873 26.3343ZM51.732 26.5123L51.0556 27.1018L51.8902 27.4209L52.598 27.0123L51.732 26.5123ZM53.5267 27.1679C54.1704 26.7962 54.1704 26.1937 53.5267 25.822L51.7946 26.822C51.4818 26.6414 51.4818 26.3485 51.7946 26.1679L53.5267 27.1679ZM53.1972 27.3581L53.5267 27.1679L51.7946 26.1679L51.4651 26.3581L53.1972 27.3581ZM53.8399 27.1476C53.7561 26.9094 53.5936 26.6779 53.3521 26.4675L51.3102 27.2487C51.3738 27.3041 51.4169 27.3652 51.4394 27.429L53.8399 27.1476ZM53.1055 26.5812L52.6396 26.5812L52.6396 27.9954L53.1055 27.9954L53.1055 26.5812ZM54.7539 27.5329C54.7539 27.0073 54.0159 26.5812 53.1055 26.5812L53.1055 27.9954C52.6631 27.9954 52.3044 27.7883 52.3044 27.5329L54.7539 27.5329ZM53.1055 28.4846C54.0159 28.4846 54.7539 28.0585 54.7539 27.5329L52.3044 27.5329C52.3044 27.2775 52.6631 27.0704 53.1055 27.0704L53.1055 28.4846ZM52.6395 28.4846L53.1055 28.4846L53.1055 27.0704L52.6395 27.0704L52.6395 28.4846ZM53.3524 28.5978C53.5936 28.3876 53.756 28.1563 53.8397 27.9183L51.4393 27.6367C51.4169 27.7003 51.3738 27.7614 51.3103 27.8167L53.3524 28.5978ZM53.5268 27.8974L53.1974 27.7073L51.4653 28.7073L51.7947 28.8974L53.5268 27.8974ZM53.5268 29.2434C54.1705 28.8717 54.1705 28.2691 53.5268 27.8974L51.7947 28.8974C51.4819 28.7168 51.4819 28.424 51.7947 28.2434L53.5268 29.2434ZM51.1956 29.2434C51.8393 29.615 52.883 29.615 53.5268 29.2434L51.7947 28.2434C52.1076 28.0627 52.6148 28.0627 52.9276 28.2434L51.1956 29.2434ZM50.8662 29.0532L51.1956 29.2434L52.9276 28.2434L52.5983 28.0532L50.8662 29.0532ZM51.2319 29.4241C51.6441 29.3757 52.0446 29.2819 52.4087 29.1426L51.0558 27.9637C50.9599 28.0004 50.8541 28.0253 50.7438 28.0382L51.2319 29.4241ZM52.2126 29.0005L52.2126 28.7312L49.7631 28.7312L49.7631 29.0005L52.2126 29.0005ZM50.5642 29.9522C51.4746 29.9522 52.2126 29.5261 52.2126 29.0005L49.7631 29.0005C49.7631 28.745 50.1218 28.538 50.5642 28.538L50.5642 29.9522ZM48.9158 29.0005C48.9158 29.5261 49.6538 29.9522 50.5642 29.9522L50.5642 28.538C51.0066 28.538 51.3653 28.745 51.3653 29.0005L48.9158 29.0005ZM48.9158 28.7312L48.9158 29.0005L51.3653 29.0005L51.3653 28.7312L48.9158 28.7312ZM48.7188 29.1426C49.0833 29.282 49.4843 29.3759 49.8969 29.4242L50.3841 28.0383C50.2737 28.0253 50.1678 28.0004 50.0719 27.9637L48.7188 29.1426ZM49.9318 29.2434L50.2614 29.0532L48.5293 28.0532L48.1997 28.2434L49.9318 29.2434ZM47.6006 29.2434C48.2443 29.6151 49.2881 29.6151 49.9318 29.2434L48.1997 28.2434C48.5126 28.0628 49.0198 28.0628 49.3327 28.2434L47.6006 29.2434ZM47.6006 27.8975C46.9569 28.2692 46.9569 28.8718 47.6006 29.2434L49.3327 28.2434C49.6455 28.4241 49.6455 28.7169 49.3327 28.8975L47.6006 27.8975ZM47.9303 27.7072L47.6006 27.8975L49.3327 28.8975L49.6623 28.7072L47.9303 27.7072ZM47.288 27.9183C47.3717 28.1563 47.534 28.3875 47.7752 28.5977L49.8173 27.8167C49.7539 27.7614 49.7108 27.7003 49.6884 27.6367L47.288 27.9183ZM48.0224 28.4846L48.4882 28.4846L48.4882 27.0704L48.0224 27.0704L48.0224 28.4846ZM46.374 27.5329C46.374 28.0585 47.112 28.4846 48.0224 28.4846L48.0224 27.0704C48.4648 27.0704 48.8235 27.2775 48.8235 27.5329L46.374 27.5329ZM48.0224 26.5812C47.112 26.5812 46.374 27.0073 46.374 27.5329L48.8235 27.5329C48.8235 27.7883 48.4648 27.9954 48.0224 27.9954L48.0224 26.5812ZM48.4881 26.5812L48.0224 26.5812L48.0224 27.9954L48.4881 27.9954L48.4881 26.5812ZM47.7754 26.4677C47.534 26.6781 47.3716 26.9095 47.2878 27.1476L49.6883 27.429C49.7107 27.3653 49.7538 27.3042 49.8174 27.2488L47.7754 26.4677ZM47.6007 27.1679L47.9303 27.3583L49.6624 26.3583L49.3327 26.1679L47.6007 27.1679ZM47.6007 25.822C46.957 26.1937 46.957 26.7963 47.6007 27.1679L49.3327 26.1679C49.6456 26.3486 49.6456 26.6414 49.3327 26.822L47.6007 25.822ZM49.9319 25.822C49.2881 25.4504 48.2444 25.4504 47.6007 25.822L49.3327 26.822C49.0199 27.0027 48.5127 27.0027 48.1998 26.822L49.9319 25.822ZM50.2615 26.0123L49.9319 25.822L48.1998 26.822L48.5295 27.0123L50.2615 26.0123ZM49.8961 25.6414C49.4838 25.6898 49.0832 25.7836 48.719 25.9229L50.0719 27.1018C50.1678 27.0651 50.2736 27.0403 50.3839 27.0273L49.8961 25.6414ZM51.3647 26.3344L51.3647 26.0649L48.9152 26.0649L48.9152 26.3344L51.3647 26.3344ZM51.3647 26.0649C51.3647 26.3203 51.0061 26.5274 50.5637 26.5274L50.5637 25.1132C49.6533 25.1132 48.9152 25.5393 48.9152 26.0649L51.3647 26.0649ZM50.5637 26.5274C50.1212 26.5274 49.7626 26.3203 49.7626 26.0649L52.2121 26.0649C52.2121 25.5393 51.474 25.1132 50.5637 25.1132L50.5637 26.5274ZM49.7626 26.0649L49.7626 26.3343L52.2121 26.3343L52.2121 26.0649L49.7626 26.0649ZM52.4083 25.9227C52.044 25.7834 51.6433 25.6897 51.231 25.6414L50.7436 27.0273C50.854 27.0402 50.9598 27.0651 51.0556 27.1018L52.4083 25.9227ZM51.1955 25.822L50.8659 26.0123L52.598 27.0123L52.9275 26.822L51.1955 25.822ZM53.5267 25.822C52.8829 25.4503 51.8392 25.4503 51.1955 25.822L52.9275 26.822C52.6147 27.0026 52.1075 27.0026 51.7946 26.822L53.5267 25.822Z" fill="#0E2526" mask="url(#path-13-outside-2)"/>
</svg>
