<svg width="75" height="164" viewBox="0 0 75 164" fill="none" xmlns="http://www.w3.org/2000/svg">
<path fill-rule="evenodd" clip-rule="evenodd" d="M9.85599 0.63501L0.979614 5.78749V13.7969L10.1857 36.6077L10.1857 121.692L54.956 147.54L60.1942 160.519L64.1083 162.802L73.7303 158.816V158.379L73.7439 158.387L73.7439 37.5218L10.5979 1.06443L9.85599 0.63501Z" fill="white"/>
<path d="M0.979614 5.78749L0.728603 5.35506L0.479614 5.49959V5.78749H0.979614ZM9.85599 0.63501L10.1065 0.20227L9.85563 0.0570866L9.60498 0.202583L9.85599 0.63501ZM0.979614 13.7969H0.479614V13.894L0.515951 13.984L0.979614 13.7969ZM10.1857 36.6077L10.6857 36.6077L10.6857 36.5106L10.6493 36.4206L10.1857 36.6077ZM10.1857 121.692L9.68567 121.692L9.68567 121.98L9.93567 122.125L10.1857 121.692ZM54.956 147.54L55.4197 147.353L55.3552 147.193L55.206 147.107L54.956 147.54ZM60.1942 160.519L59.7305 160.706L59.7945 160.865L59.9423 160.951L60.1942 160.519ZM64.1083 162.802L63.8563 163.234L64.0705 163.359L64.2996 163.264L64.1083 162.802ZM73.7303 158.816L73.9217 159.278L74.2303 159.15V158.816H73.7303ZM73.7303 158.379L73.9802 157.946L73.2303 157.514V158.379H73.7303ZM73.7439 158.387L73.4941 158.82L74.2439 159.253L74.2439 158.387L73.7439 158.387ZM73.7439 37.5218L74.2439 37.5218L74.2439 37.2331L73.9939 37.0888L73.7439 37.5218ZM10.5979 1.06443L10.3474 1.49717L10.3479 1.49744L10.5979 1.06443ZM1.23063 6.21991L10.107 1.06744L9.60498 0.202583L0.728603 5.35506L1.23063 6.21991ZM1.47961 13.7969V5.78749H0.479614V13.7969H1.47961ZM10.6493 36.4206L1.44328 13.6098L0.515951 13.984L9.72201 36.7949L10.6493 36.4206ZM10.6857 121.692L10.6857 36.6077L9.68568 36.6077L9.68567 121.692L10.6857 121.692ZM55.206 147.107L10.4357 121.259L9.93567 122.125L54.706 147.973L55.206 147.107ZM60.6579 160.332L55.4197 147.353L54.4923 147.727L59.7305 160.706L60.6579 160.332ZM64.3602 162.371L60.4461 160.087L59.9423 160.951L63.8563 163.234L64.3602 162.371ZM73.539 158.354L63.9169 162.34L64.2996 163.264L73.9217 159.278L73.539 158.354ZM73.2303 158.379V158.816H74.2303V158.379H73.2303ZM73.9938 157.954L73.9802 157.946L73.4805 158.812L73.4941 158.82L73.9938 157.954ZM73.2439 37.5218L73.2439 158.387L74.2439 158.387L74.2439 37.5218L73.2439 37.5218ZM10.3479 1.49744L73.4939 37.9548L73.9939 37.0888L10.8479 0.631417L10.3479 1.49744ZM9.60552 1.06775L10.3474 1.49717L10.8484 0.631691L10.1065 0.20227L9.60552 1.06775Z" fill="#0E2526"/>
<path d="M63.5243 42.5027L73.8099 37.5936" stroke="#0E2526"/>
<rect x="0.433013" y="0.75" width="72.3908" height="119.865" transform="matrix(0.866025 0.5 -2.20305e-08 1 0.608062 5.41344)" fill="white" stroke="#0E2526"/>
<rect x="0.433013" y="0.75" width="61.7842" height="114.393" transform="matrix(0.866025 0.5 -2.20305e-08 1 5.47549 13.6963)" fill="white" stroke="#0E2526"/>
<rect x="0.433013" y="0.75" width="19.4161" height="18.6231" transform="matrix(0.866025 0.5 -2.20305e-08 1 13.3339 27.4473)" fill="white" stroke="#0E2526"/>
<rect x="0.433013" y="0.75" width="19.4161" height="18.6231" transform="matrix(0.866025 0.5 -2.20305e-08 1 34.6621 39.6879)" fill="white" stroke="#0E2526"/>
<rect x="0.433013" y="0.75" width="19.4161" height="33.4656" transform="matrix(0.866025 0.5 -2.20305e-08 1 13.3339 51.9288)" fill="white" stroke="#0E2526"/>
<rect x="0.433013" y="0.75" width="19.4161" height="32.6971" transform="matrix(0.866025 0.5 -2.20305e-08 1 34.6621 64.1695)" fill="white" stroke="#0E2526"/>
<rect x="0.433013" y="0.75" width="19.4161" height="33.4656" transform="matrix(0.866025 0.5 -2.20305e-08 1 13.3339 90.3202)" fill="white" stroke="#0E2526"/>
<rect x="0.433013" y="0.75" width="19.4161" height="32.6971" transform="matrix(0.866025 0.5 -2.20305e-08 1 34.6621 102.561)" fill="white" stroke="#0E2526"/>
</svg>
