<svg width="124" height="158" viewBox="0 0 124 158" fill="none" xmlns="http://www.w3.org/2000/svg">
<path d="M60.5598 143.26L60.5598 137.326L68.4526 141.883L68.4526 156.403C68.4526 156.955 68.0648 157.179 67.5866 156.903L65.427 155.656L65.427 146.07L60.5598 143.26Z" fill="white" stroke="#0E2526"/>
<path d="M76.3365 143.26L76.3365 137.326L68.4437 141.883L68.4437 156.403C68.4437 156.955 68.8314 157.179 69.3097 156.903L71.4692 155.656L71.4692 146.07L76.3365 143.26Z" fill="white" stroke="#0E2526"/>
<path d="M7.21142 119.052L5.58826 118.773V105.117L11.1925 109.961V111.271L8.38048 113.229V118.066C8.38048 118.686 7.82235 119.157 7.21142 119.052Z" fill="white" stroke="#0E2526"/>
<path d="M2.7923 104.844L8.24112 108.086L8.24112 113.004L5.81788 111.728L5.81788 120.275C5.81788 120.828 5.43015 121.052 4.95186 120.775L2.7923 119.529L2.7923 109.943L2.7923 104.844Z" fill="white" stroke="#0E2526"/>
<path d="M117.384 127.406L119.007 127.127V113.471L113.403 118.315V119.625L116.215 121.583V126.42C116.215 127.04 116.773 127.511 117.384 127.406Z" fill="white" stroke="#0E2526"/>
<path d="M121.803 113.198L116.355 116.44L116.355 121.358L118.778 120.082L118.778 128.629C118.778 129.182 119.165 129.406 119.644 129.129L121.803 127.883L121.803 118.297L121.803 113.198Z" fill="white" stroke="#0E2526"/>
<mask id="path-7-inside-1" fill="white">
<path fill-rule="evenodd" clip-rule="evenodd" d="M13.8942 94.391L1.74408 101.422L1.74408 70.4028L48.3632 43.4262C49.6974 41.9415 51.9419 41.7591 54.4859 43.2312C58.184 45.3711 61.2493 50.275 61.8054 54.689L61.8955 54.6369V87.3045L13.8942 114.138V94.391Z"/>
</mask>
<path fill-rule="evenodd" clip-rule="evenodd" d="M13.8942 94.391L1.74408 101.422L1.74408 70.4028L48.3632 43.4262C49.6974 41.9415 51.9419 41.7591 54.4859 43.2312C58.184 45.3711 61.2493 50.275 61.8054 54.689L61.8955 54.6369V87.3045L13.8942 114.138V94.391Z" fill="white"/>
<path d="M13.8942 94.391H14.8942V92.657L13.3933 93.5255L13.8942 94.391ZM1.74408 101.422L0.74408 101.422L0.74408 103.156L2.24493 102.287L1.74408 101.422ZM1.74408 70.4028L1.24323 69.5372L0.74408 69.8261L0.74408 70.4028L1.74408 70.4028ZM48.3632 43.4262L48.864 44.2917L49.0011 44.2124L49.107 44.0946L48.3632 43.4262ZM54.4859 43.2312L53.985 44.0967L53.9851 44.0967L54.4859 43.2312ZM61.8054 54.689L60.8133 54.814L61.0017 56.3095L62.3063 55.5546L61.8054 54.689ZM61.8955 54.6369H62.8955V52.9029L61.3947 53.7714L61.8955 54.6369ZM61.8955 87.3045L62.3835 88.1773L62.8955 87.8911V87.3045H61.8955ZM13.8942 114.138H12.8942V115.843L14.3821 115.011L13.8942 114.138ZM13.3933 93.5255L1.24323 100.556L2.24493 102.287L14.395 95.2566L13.3933 93.5255ZM2.74408 101.422L2.74408 70.4028L0.74408 70.4028L0.74408 101.422L2.74408 101.422ZM2.24493 71.2683L48.864 44.2917L47.8623 42.5606L1.24323 69.5372L2.24493 71.2683ZM49.107 44.0946C50.0057 43.0945 51.6728 42.7587 53.985 44.0967L54.9867 42.3657C52.211 40.7595 49.3891 40.7885 47.6194 42.7577L49.107 44.0946ZM53.9851 44.0967C57.3872 46.0654 60.2924 50.6796 60.8133 54.814L62.7976 54.564C62.2063 49.8705 58.9809 44.6769 54.9867 42.3657L53.9851 44.0967ZM62.3063 55.5546L62.3964 55.5024L61.3947 53.7714L61.3046 53.8235L62.3063 55.5546ZM60.8955 54.6369V87.3045H62.8955V54.6369H60.8955ZM61.4076 86.4316L13.4062 113.265L14.3821 115.011L62.3835 88.1773L61.4076 86.4316ZM14.8942 114.138V94.391H12.8942V114.138H14.8942Z" fill="#0E2526" mask="url(#path-7-inside-1)"/>
<path d="M14.3863 83.0096L14.3863 113.451C14.3863 113.728 14.1926 113.839 13.9535 113.701L0.865532 106.127C0.626522 105.989 0.432766 105.653 0.432766 105.377L0.432767 74.9352C0.432767 70.4835 3.55638 68.6821 7.40954 70.9118C11.2627 73.1414 14.3863 78.5578 14.3863 83.0096Z" fill="white" stroke="#0E2526"/>
<path fill-rule="evenodd" clip-rule="evenodd" d="M89.7977 15.1571C71.2459 4.42184 56.2066 13.0949 56.2066 34.5289V75.0963L114.264 108.692L111.372 109.454L115.949 118.64L123.42 114.441L123.389 113.359V73.4046C123.389 51.9706 108.35 25.8923 89.7977 15.1571Z" fill="white"/>
<path d="M89.7977 15.1571L89.5473 15.5898L89.5473 15.5898L89.7977 15.1571ZM56.2066 75.0963H55.7066V75.3847L55.9562 75.5291L56.2066 75.0963ZM114.264 108.692L114.391 109.175L115.563 108.866L114.514 108.259L114.264 108.692ZM111.372 109.454L111.245 108.97L110.651 109.127L110.925 109.677L111.372 109.454ZM115.949 118.64L115.501 118.863L115.736 119.333L116.194 119.076L115.949 118.64ZM123.42 114.441L123.665 114.877L123.928 114.729L123.92 114.427L123.42 114.441ZM123.389 113.359H122.889V113.366L122.889 113.373L123.389 113.359ZM56.7066 34.5289C56.7066 23.9169 60.4257 16.5974 66.295 13.2127C72.1643 9.82788 80.3623 10.2748 89.5473 15.5898L90.0482 14.7243C80.6813 9.30409 72.0838 8.71993 65.7954 12.3464C59.5071 15.9728 55.7066 23.7069 55.7066 34.5289H56.7066ZM56.7066 75.0963V34.5289H55.7066V75.0963H56.7066ZM114.514 108.259L56.457 74.6635L55.9562 75.5291L114.013 109.124L114.514 108.259ZM114.136 108.208L111.245 108.97L111.5 109.937L114.391 109.175L114.136 108.208ZM110.925 109.677L115.501 118.863L116.396 118.417L111.82 109.231L110.925 109.677ZM116.194 119.076L123.665 114.877L123.175 114.005L115.704 118.204L116.194 119.076ZM123.92 114.427L123.889 113.345L122.889 113.373L122.92 114.456L123.92 114.427ZM122.889 73.4046V113.359H123.889V73.4046H122.889ZM89.5473 15.5898C98.7295 20.9032 107.07 30.0336 113.117 40.5186C119.164 51.0035 122.889 62.7959 122.889 73.4046H123.889C123.889 62.5793 120.094 50.6155 113.983 40.019C107.872 29.4225 99.4179 20.1462 90.0482 14.7243L89.5473 15.5898Z" fill="#0E2526"/>
<path d="M115.964 77.7923L115.964 118.034L49.6092 79.7248L49.6092 39.4826C49.6092 18.3248 64.4632 9.74884 82.7864 20.3278C101.11 30.9067 115.964 56.6345 115.964 77.7923Z" fill="white" stroke="#0E2526"/>
<path d="M111.599 107.933L111.599 116.089L64.9191 143.101L14.6449 114.009L14.6449 105.944L111.599 107.933Z" fill="white" stroke="#0E2526"/>
<path d="M111.599 100.966L111.599 109.123L64.9191 136.135L14.6449 107.043L14.6449 98.9771L111.599 100.966Z" fill="white" stroke="#0E2526"/>
<rect x="-2.98023e-08" y="0.50085" width="57.7917" height="53.6393" transform="matrix(0.865534 0.50085 -0.865534 0.50085 61.7585 71.5006)" fill="white" stroke="#0E2526"/>
<mask id="path-16-inside-2" fill="white">
<path fill-rule="evenodd" clip-rule="evenodd" d="M68.3807 126.034L56.2306 133.065L56.2306 102.046L102.85 75.0691C104.184 73.5845 106.428 73.402 108.972 74.8741C112.671 77.0141 115.736 81.918 116.292 86.332L116.382 86.2798V118.947L68.3807 145.781V126.034Z"/>
</mask>
<path fill-rule="evenodd" clip-rule="evenodd" d="M68.3807 126.034L56.2306 133.065L56.2306 102.046L102.85 75.0691C104.184 73.5845 106.428 73.402 108.972 74.8741C112.671 77.0141 115.736 81.918 116.292 86.332L116.382 86.2798V118.947L68.3807 145.781V126.034Z" fill="white"/>
<path d="M68.3807 126.034H69.3807V124.3L67.8798 125.168L68.3807 126.034ZM56.2306 133.065L55.2306 133.065L55.2306 134.799L56.7314 133.93L56.2306 133.065ZM56.2306 102.046L55.7297 101.18L55.2306 101.469L55.2306 102.046L56.2306 102.046ZM102.85 75.0691L103.351 75.9346L103.488 75.8553L103.593 75.7375L102.85 75.0691ZM108.972 74.8741L108.472 75.7397L108.472 75.7397L108.972 74.8741ZM116.292 86.332L115.3 86.457L115.488 87.9524L116.793 87.1975L116.292 86.332ZM116.382 86.2798H117.382V84.5458L115.881 85.4143L116.382 86.2798ZM116.382 118.947L116.87 119.82L117.382 119.534V118.947H116.382ZM68.3807 145.781H67.3807V147.486L68.8686 146.654L68.3807 145.781ZM67.8798 125.168L55.7297 132.199L56.7314 133.93L68.8815 126.9L67.8798 125.168ZM57.2306 133.065L57.2306 102.046L55.2306 102.046L55.2306 133.065L57.2306 133.065ZM56.7314 102.911L103.351 75.9346L102.349 74.2036L55.7297 101.18L56.7314 102.911ZM103.593 75.7375C104.492 74.7375 106.159 74.4017 108.472 75.7397L109.473 74.0086C106.698 72.4024 103.876 72.4314 102.106 74.4007L103.593 75.7375ZM108.472 75.7397C111.874 77.7083 114.779 82.3226 115.3 86.457L117.284 86.207C116.693 81.5134 113.467 76.3198 109.473 74.0086L108.472 75.7397ZM116.793 87.1975L116.883 87.1454L115.881 85.4143L115.791 85.4664L116.793 87.1975ZM115.382 86.2798V118.947H117.382V86.2798H115.382ZM115.894 118.075L67.8927 144.908L68.8686 146.654L116.87 119.82L115.894 118.075ZM69.3807 145.781V126.034H67.3807V145.781H69.3807Z" fill="#0E2526" mask="url(#path-16-inside-2)"/>
<path d="M68.8728 114.653L68.8728 145.094C68.8728 145.371 68.679 145.482 68.44 145.344L55.352 137.77C55.113 137.632 54.9192 137.296 54.9192 137.02L54.9192 106.578C54.9192 102.126 58.0428 100.325 61.896 102.555C65.7492 104.784 68.8728 110.201 68.8728 114.653Z" fill="white" stroke="#0E2526"/>
</svg>
