<svg width="113" height="134" viewBox="0 0 113 134" fill="none" xmlns="http://www.w3.org/2000/svg">
<path fill-rule="evenodd" clip-rule="evenodd" d="M94.716 1.2161C94.5834 1.15102 94.4539 1.08893 94.328 1.02979V24.6077L84.3435 36.7575H79.6037L79.664 16.5869L73.7802 14.094C73.7802 14.094 73.2659 14.6579 72.6326 15.3956C69.2514 19.2657 67.1351 22.5429 63.7206 29.3719C61.6827 33.4477 60.5308 41.8652 62.0371 48.3333C63.2421 53.5078 68.6139 57.5121 71.1491 58.8675V126.836C71.1491 129.04 72.6158 129.921 73.9156 130.088L79.7316 132.57L82.845 125.774C86.9821 123.405 91.5758 120.735 93.0177 119.829C95.1738 118.473 95.8322 115.404 95.8919 114.039V44.3361C96.0453 44.0868 96.324 43.7166 96.6984 43.219C97.8901 41.6358 100.052 38.7637 102.234 34.3993C105.562 27.744 106.234 19.3046 104.876 12.8138C104.24 9.77921 102.662 7.37389 100.819 5.50882L100.842 3.76781L94.716 1.2161Z" fill="white"/>
<path d="M94.716 1.2161L94.4958 1.665L94.5096 1.67176L94.5238 1.67767L94.716 1.2161ZM94.328 1.02979L94.5407 0.577253L93.828 0.242397V1.02979H94.328ZM94.328 24.6077L94.7143 24.9251L94.828 24.7868V24.6077H94.328ZM84.3435 36.7575V37.2575H84.5798L84.7298 37.075L84.3435 36.7575ZM79.6037 36.7575L79.1037 36.756L79.1022 37.2575H79.6037V36.7575ZM79.664 16.5869L80.164 16.5884L80.1649 16.2562L79.859 16.1265L79.664 16.5869ZM73.7802 14.094L73.9753 13.6336L73.6494 13.4955L73.4108 13.757L73.7802 14.094ZM72.6326 15.3956L73.0091 15.7245L73.0119 15.7213L72.6326 15.3956ZM63.7206 29.3719L64.1678 29.5955L64.1678 29.5955L63.7206 29.3719ZM62.0371 48.3333L62.524 48.2199L62.524 48.2199L62.0371 48.3333ZM71.1491 58.8675H71.6491V58.5678L71.3848 58.4265L71.1491 58.8675ZM73.9156 130.088L74.1118 129.628L74.048 129.601L73.9792 129.592L73.9156 130.088ZM79.7316 132.57L79.5354 133.03L79.9833 133.221L80.1862 132.778L79.7316 132.57ZM82.845 125.774L82.5965 125.34L82.4572 125.42L82.3904 125.566L82.845 125.774ZM93.0177 119.829L93.2838 120.252L93.2838 120.252L93.0177 119.829ZM95.8919 114.039L96.3914 114.061L96.3919 114.05V114.039H95.8919ZM95.8919 44.3361L95.466 44.0741L95.3919 44.1946V44.3361H95.8919ZM96.6984 43.219L97.0979 43.5197L97.0979 43.5197L96.6984 43.219ZM102.234 34.3993L101.787 34.1757L101.787 34.1757L102.234 34.3993ZM104.876 12.8138L104.386 12.9163L104.386 12.9163L104.876 12.8138ZM100.819 5.50882L100.319 5.50201L100.316 5.71138L100.463 5.8603L100.819 5.50882ZM100.842 3.76781L101.342 3.77462L101.347 3.43633L101.035 3.30625L100.842 3.76781ZM94.9362 0.767205C94.801 0.700858 94.669 0.637557 94.5407 0.577253L94.1154 1.48232C94.2388 1.5403 94.3657 1.60118 94.4958 1.665L94.9362 0.767205ZM93.828 1.02979V24.6077H94.828V1.02979H93.828ZM93.9417 24.2902L83.9572 36.4401L84.7298 37.075L94.7143 24.9251L93.9417 24.2902ZM84.3435 36.2575H79.6037V37.2575H84.3435V36.2575ZM80.1037 36.759L80.164 16.5884L79.164 16.5854L79.1037 36.756L80.1037 36.759ZM79.859 16.1265L73.9753 13.6336L73.5852 14.5544L79.4689 17.0473L79.859 16.1265ZM73.7802 14.094C73.4108 13.757 73.4108 13.757 73.4108 13.7571C73.4108 13.7571 73.4108 13.7571 73.4108 13.7571C73.4107 13.7571 73.4107 13.7572 73.4107 13.7572C73.4106 13.7573 73.4105 13.7574 73.4103 13.7576C73.41 13.7579 73.4096 13.7583 73.4091 13.7589C73.408 13.7601 73.4065 13.7618 73.4045 13.764C73.4004 13.7685 73.3944 13.775 73.3866 13.7836C73.371 13.8008 73.3482 13.8261 73.3188 13.8586C73.26 13.9237 73.1752 14.0181 73.0706 14.1355C72.8613 14.3704 72.5723 14.6982 72.2532 15.0699L73.0119 15.7213C73.3261 15.3553 73.6109 15.0323 73.8172 14.8008C73.9203 14.685 74.0037 14.5923 74.0611 14.5286C74.0899 14.4968 74.1121 14.4722 74.1271 14.4557C74.1346 14.4474 74.1403 14.4412 74.1441 14.437C74.146 14.4349 74.1474 14.4334 74.1483 14.4324C74.1488 14.4318 74.1491 14.4315 74.1494 14.4312C74.1495 14.4311 74.1495 14.431 74.1496 14.431C74.1496 14.431 74.1496 14.4309 74.1496 14.4309C74.1496 14.4309 74.1496 14.4309 74.1496 14.4309C74.1496 14.4309 74.1496 14.4309 73.7802 14.094ZM72.256 15.0666C68.838 18.9789 66.6996 22.2958 63.2733 29.1483L64.1678 29.5955C67.5705 22.79 69.6648 19.5524 73.0091 15.7245L72.256 15.0666ZM63.2733 29.1483C62.2178 31.2593 61.4103 34.4477 61.0524 37.904C60.6939 41.3658 60.7812 45.1451 61.5501 48.4467L62.524 48.2199C61.7866 45.0534 61.6967 41.3899 62.0471 38.007C62.398 34.6186 63.1854 31.5603 64.1678 29.5955L63.2733 29.1483ZM61.5501 48.4467C62.182 51.1602 63.8956 53.5341 65.74 55.3855C67.5876 57.24 69.6049 58.6089 70.9134 59.3084L71.3848 58.4265C70.158 57.7707 68.2218 56.4597 66.4485 54.6797C64.6719 52.8965 63.0972 50.681 62.524 48.2199L61.5501 48.4467ZM70.6491 58.8675V126.836H71.6491V58.8675H70.6491ZM70.6491 126.836C70.6491 128.059 71.0606 128.964 71.6956 129.584C72.3202 130.193 73.1217 130.49 73.852 130.584L73.9792 129.592C73.4096 129.519 72.828 129.292 72.3942 128.868C71.9709 128.455 71.6491 127.817 71.6491 126.836H70.6491ZM73.7193 130.548L79.5354 133.03L79.9279 132.11L74.1118 129.628L73.7193 130.548ZM80.1862 132.778L83.2995 125.982L82.3904 125.566L79.2771 132.362L80.1862 132.778ZM83.0934 126.208C87.2271 123.84 91.8312 121.165 93.2838 120.252L92.7516 119.405C91.3205 120.305 86.7372 122.969 82.5965 125.34L83.0934 126.208ZM93.2838 120.252C94.485 119.497 95.2424 118.284 95.7054 117.123C96.1695 115.959 96.3593 114.795 96.3914 114.061L95.3923 114.017C95.3647 114.649 95.1955 115.702 94.7765 116.752C94.3564 117.806 93.7065 118.805 92.7516 119.405L93.2838 120.252ZM96.3919 114.039V44.3361H95.3919V114.039H96.3919ZM96.3177 44.5982C96.4556 44.3741 96.7156 44.0276 97.0979 43.5197L96.299 42.9184C95.9323 43.4055 95.635 43.7996 95.466 44.0741L96.3177 44.5982ZM97.0979 43.5197C98.2949 41.9294 100.478 39.0285 102.681 34.6229L101.787 34.1757C99.6252 38.499 97.4853 41.3422 96.299 42.9184L97.0979 43.5197ZM102.681 34.6229C106.065 27.8553 106.744 19.2992 105.365 12.7114L104.386 12.9163C105.724 19.31 105.058 27.6327 101.787 34.1757L102.681 34.6229ZM105.365 12.7114C104.706 9.56149 103.068 7.07366 101.174 5.15734L100.463 5.8603C102.256 7.67412 103.775 9.99693 104.386 12.9163L105.365 12.7114ZM101.319 5.51563L101.342 3.77462L100.343 3.761L100.319 5.50201L101.319 5.51563ZM101.035 3.30625L94.9083 0.754538L94.5238 1.67767L100.65 4.22938L101.035 3.30625Z" fill="#0E2526"/>
<path d="M70.895 58.7088L77.7716 61.6369" stroke="#0E2526"/>
<path d="M84.46 36.7706L91.3366 39.6987" stroke="#0E2526"/>
<path d="M94.3474 24.6476L101.224 27.5757" stroke="#0E2526"/>
<path d="M79.6555 39.4356V17.4302C75.9341 21.5946 73.7767 24.846 70.1748 32.05C68.1369 36.1258 66.985 44.5432 68.4913 51.0114C69.6963 56.1859 75.0681 60.1902 77.6033 61.5455V129.514C77.6033 132.748 80.7604 133.133 81.9154 132.594C83.0705 132.055 96.7769 124.201 99.4719 122.507C101.628 121.151 102.286 118.082 102.346 116.717V47.0142C102.988 45.9716 105.82 42.8133 108.688 37.0773C112.016 30.4221 112.688 21.9826 111.33 15.4919C109.949 8.89465 104.11 5.27167 100.782 3.70782V27.2857L90.7977 39.4356H79.6555Z" fill="white" stroke="#0E2526"/>
<rect x="0.433013" y="0.25" width="15.3697" height="15.3697" rx="3.5" transform="matrix(0.866025 -0.5 2.20305e-08 1 83.6674 108.599)" fill="white" stroke="#0E2526"/>
<mask id="path-8-inside-1" fill="white">
<path fill-rule="evenodd" clip-rule="evenodd" d="M83.6096 117.486V120.752C83.6096 122.961 85.1605 123.857 87.0737 122.752L94.3221 118.567C96.2352 117.463 97.7862 114.776 97.7862 112.567V104.197C97.7862 101.988 96.2352 101.093 94.3221 102.197L91.4616 103.849L91.4616 110.953C91.4616 112.058 90.6861 113.401 89.7295 113.953L83.6096 117.486Z"/>
</mask>
<path fill-rule="evenodd" clip-rule="evenodd" d="M83.6096 117.486V120.752C83.6096 122.961 85.1605 123.857 87.0737 122.752L94.3221 118.567C96.2352 117.463 97.7862 114.776 97.7862 112.567V104.197C97.7862 101.988 96.2352 101.093 94.3221 102.197L91.4616 103.849L91.4616 110.953C91.4616 112.058 90.6861 113.401 89.7295 113.953L83.6096 117.486Z" fill="white"/>
<path d="M83.6096 117.486L83.1096 116.62L82.6096 116.909V117.486H83.6096ZM87.0737 122.752L87.5737 123.618L87.5737 123.618L87.0737 122.752ZM94.3221 118.567L94.8221 119.433L94.3221 118.567ZM94.3221 102.197L93.8221 101.331L93.8221 101.331L94.3221 102.197ZM91.4616 103.849L90.9616 102.983L90.4616 103.272L90.4616 103.849L91.4616 103.849ZM91.4616 110.953L92.4616 110.953V110.953L91.4616 110.953ZM89.7295 113.953L89.2295 113.087L89.2295 113.087L89.7295 113.953ZM84.6096 120.752V117.486H82.6096V120.752H84.6096ZM86.5737 121.886C85.7993 122.333 85.3327 122.249 85.1242 122.129C84.9158 122.008 84.6096 121.646 84.6096 120.752H82.6096C82.6096 122.067 83.0789 123.257 84.1242 123.861C85.1696 124.464 86.435 124.275 87.5737 123.618L86.5737 121.886ZM93.8221 117.701L86.5737 121.886L87.5737 123.618L94.8221 119.433L93.8221 117.701ZM96.7862 112.567C96.7862 113.455 96.4679 114.507 95.9055 115.481C95.3432 116.455 94.5909 117.257 93.8221 117.701L94.8221 119.433C95.9665 118.772 96.9462 117.679 97.6376 116.481C98.329 115.284 98.7862 113.889 98.7862 112.567H96.7862ZM96.7862 104.197V112.567H98.7862V104.197H96.7862ZM94.8221 103.064C95.5965 102.616 96.0631 102.701 96.2716 102.821C96.48 102.941 96.7862 103.303 96.7862 104.197H98.7862C98.7862 102.883 98.3169 101.692 97.2716 101.089C96.2262 100.485 94.9608 100.674 93.8221 101.331L94.8221 103.064ZM91.9616 104.715L94.8221 103.064L93.8221 101.331L90.9616 102.983L91.9616 104.715ZM90.4616 103.849L90.4616 110.953L92.4616 110.953L92.4616 103.849L90.4616 103.849ZM90.4616 110.953C90.4616 111.288 90.3372 111.729 90.0883 112.16C89.8393 112.591 89.52 112.919 89.2295 113.087L90.2295 114.819C90.8956 114.434 91.4424 113.815 91.8203 113.16C92.1983 112.505 92.4616 111.722 92.4616 110.953H90.4616ZM89.2295 113.087L83.1096 116.62L84.1096 118.352L90.2295 114.819L89.2295 113.087Z" fill="#0E2526" mask="url(#path-8-inside-1)"/>
<path d="M91.1531 113.256L96.7079 115.055" stroke="#0E2526"/>
<mask id="path-11-inside-2" fill="white">
<path fill-rule="evenodd" clip-rule="evenodd" d="M51.4202 83.4279H12.2161V120.362C11.8319 123.534 13.7399 126.781 17.94 129.206C25.6363 133.649 38.1143 133.649 45.8106 129.206C50.3045 126.611 52.1744 123.075 51.4202 119.697V83.4279Z"/>
</mask>
<path fill-rule="evenodd" clip-rule="evenodd" d="M51.4202 83.4279H12.2161V120.362C11.8319 123.534 13.7399 126.781 17.94 129.206C25.6363 133.649 38.1143 133.649 45.8106 129.206C50.3045 126.611 52.1744 123.075 51.4202 119.697V83.4279Z" fill="white"/>
<path d="M12.2161 83.4279V82.4279H11.2161V83.4279H12.2161ZM51.4202 83.4279H52.4202V82.4279H51.4202V83.4279ZM12.2161 120.362L13.2089 120.482L13.2161 120.422V120.362H12.2161ZM17.94 129.206L17.44 130.072L17.44 130.072L17.94 129.206ZM45.8106 129.206L46.3106 130.072L46.3106 130.072L45.8106 129.206ZM51.4202 119.697H50.4202V119.808L50.4442 119.915L51.4202 119.697ZM12.2161 84.4279H51.4202V82.4279H12.2161V84.4279ZM13.2161 120.362V83.4279H11.2161V120.362H13.2161ZM18.44 128.34C14.4388 126.03 12.8906 123.11 13.2089 120.482L11.2234 120.241C10.7733 123.957 13.0411 127.532 17.44 130.072L18.44 128.34ZM45.3106 128.34C41.6502 130.453 36.7899 131.538 31.8753 131.538C26.9607 131.538 22.1004 130.453 18.44 128.34L17.44 130.072C21.4759 132.402 26.7027 133.538 31.8753 133.538C37.0479 133.538 42.2747 132.402 46.3106 130.072L45.3106 128.34ZM50.4442 119.915C51.0675 122.707 49.59 125.869 45.3106 128.34L46.3106 130.072C51.019 127.353 53.2812 123.444 52.3961 119.48L50.4442 119.915ZM50.4202 83.4279V119.697H52.4202V83.4279H50.4202Z" fill="#0E2526" mask="url(#path-11-inside-2)"/>
<mask id="mask0" mask-type="alpha" maskUnits="userSpaceOnUse" x="12" y="83" width="40" height="50">
<mask id="path-13-inside-3" mask-type="luminance" fill="white">
<path fill-rule="evenodd" clip-rule="evenodd" d="M51.4202 83.4279H12.2161V120.362C11.8319 123.534 13.7399 126.781 17.94 129.206C25.6363 133.649 38.1143 133.649 45.8106 129.206C50.3045 126.611 52.1744 123.075 51.4202 119.697V83.4279Z"/>
</mask>
<path fill-rule="evenodd" clip-rule="evenodd" d="M51.4202 83.4279H12.2161V120.362C11.8319 123.534 13.7399 126.781 17.94 129.206C25.6363 133.649 38.1143 133.649 45.8106 129.206C50.3045 126.611 52.1744 123.075 51.4202 119.697V83.4279Z" fill="#EA9C77"/>
<path d="M12.2161 83.4279V82.4279H11.2161V83.4279H12.2161ZM51.4202 83.4279H52.4202V82.4279H51.4202V83.4279ZM12.2161 120.362L13.2089 120.482L13.2161 120.422V120.362H12.2161ZM17.94 129.206L17.44 130.072L17.44 130.072L17.94 129.206ZM45.8106 129.206L46.3106 130.072L46.3106 130.072L45.8106 129.206ZM51.4202 119.697H50.4202V119.808L50.4442 119.915L51.4202 119.697ZM12.2161 84.4279H51.4202V82.4279H12.2161V84.4279ZM13.2161 120.362V83.4279H11.2161V120.362H13.2161ZM18.44 128.34C14.4388 126.03 12.8906 123.11 13.2089 120.482L11.2234 120.241C10.7733 123.957 13.0411 127.532 17.44 130.072L18.44 128.34ZM45.3106 128.34C41.6502 130.453 36.7899 131.538 31.8753 131.538C26.9607 131.538 22.1004 130.453 18.44 128.34L17.44 130.072C21.4759 132.402 26.7027 133.538 31.8753 133.538C37.0479 133.538 42.2747 132.402 46.3106 130.072L45.3106 128.34ZM50.4442 119.915C51.0675 122.707 49.59 125.869 45.3106 128.34L46.3106 130.072C51.019 127.353 53.2812 123.444 52.3961 119.48L50.4442 119.915ZM50.4202 83.4279V119.697H52.4202V83.4279H50.4202Z" fill="#0E2526" mask="url(#path-13-inside-3)"/>
</mask>
<g mask="url(#mask0)">
<path d="M17.1652 87.719V130.648" stroke="#0E2526"/>
<path d="M23.4526 87.719V130.648" stroke="#0E2526"/>
<path d="M32.245 90.5626V133.492" stroke="#0E2526"/>
<path d="M41.4066 90.5626V133.492" stroke="#0E2526"/>
<path d="M46.9753 90.5626V133.492" stroke="#0E2526"/>
</g>
<mask id="path-20-inside-4" fill="white">
<path fill-rule="evenodd" clip-rule="evenodd" d="M16.5271 92.5023C25.2077 97.514 39.2816 97.514 47.9621 92.5023C52.2428 90.0309 54.4125 86.8022 54.4713 83.5632H54.4724V83.4706C54.4726 83.4421 54.4726 83.4135 54.4724 83.3849V76.5971H51.0681C50.1991 75.8005 49.1638 75.047 47.9621 74.3533C39.2816 69.3416 25.2077 69.3416 16.5271 74.3533C15.3255 75.047 14.2902 75.8005 13.4212 76.5971H10.0724L10.0724 82.5171C9.63384 86.0979 11.7854 89.7647 16.5271 92.5023Z"/>
</mask>
<path fill-rule="evenodd" clip-rule="evenodd" d="M16.5271 92.5023C25.2077 97.514 39.2816 97.514 47.9621 92.5023C52.2428 90.0309 54.4125 86.8022 54.4713 83.5632H54.4724V83.4706C54.4726 83.4421 54.4726 83.4135 54.4724 83.3849V76.5971H51.0681C50.1991 75.8005 49.1638 75.047 47.9621 74.3533C39.2816 69.3416 25.2077 69.3416 16.5271 74.3533C15.3255 75.047 14.2902 75.8005 13.4212 76.5971H10.0724L10.0724 82.5171C9.63384 86.0979 11.7854 89.7647 16.5271 92.5023Z" fill="white"/>
<path d="M47.9621 92.5023L48.4621 93.3683L48.4621 93.3683L47.9621 92.5023ZM16.5271 92.5023L17.0271 91.6363L17.0271 91.6363L16.5271 92.5023ZM54.4713 83.5632V82.5632H53.4893L53.4715 83.545L54.4713 83.5632ZM54.4724 83.5632V84.5632H55.4724V83.5632H54.4724ZM54.4724 83.4706L53.4724 83.4649V83.4706H54.4724ZM54.4724 83.3849H53.4724L53.4724 83.3907L54.4724 83.3849ZM54.4724 76.5971H55.4724V75.5971H54.4724V76.5971ZM51.0681 76.5971L50.3923 77.3342L50.6791 77.5971H51.0681V76.5971ZM47.9621 74.3533L47.4621 75.2193L47.4621 75.2193L47.9621 74.3533ZM16.5271 74.3533L17.0271 75.2193L16.5271 74.3533ZM13.4212 76.5971V77.5971H13.8102L14.097 77.3342L13.4212 76.5971ZM10.0724 76.5971V75.5971H9.07242L9.07242 76.5971L10.0724 76.5971ZM10.0724 82.5171L11.065 82.6386L11.0724 82.5781L11.0724 82.5171L10.0724 82.5171ZM47.4621 91.6363C43.3097 94.0337 37.8042 95.2611 32.2446 95.2611C26.685 95.2611 21.1796 94.0337 17.0271 91.6363L16.0271 93.3683C20.5552 95.9826 26.427 97.2611 32.2446 97.2611C38.0623 97.2611 43.9341 95.9826 48.4621 93.3683L47.4621 91.6363ZM53.4715 83.545C53.4213 86.3106 51.563 89.2686 47.4621 91.6363L48.4621 93.3683C52.9226 90.7931 55.4037 87.2938 55.4712 83.5813L53.4715 83.545ZM54.4724 82.5632H54.4713V84.5632H54.4724V82.5632ZM53.4724 83.4706V83.5632H55.4724V83.4706H53.4724ZM53.4724 83.3907C53.4726 83.4154 53.4726 83.4401 53.4724 83.4649L55.4724 83.4764C55.4726 83.444 55.4726 83.4116 55.4724 83.3792L53.4724 83.3907ZM53.4724 76.5971V83.3849H55.4724V76.5971H53.4724ZM51.0681 77.5971H54.4724V75.5971H51.0681V77.5971ZM47.4621 75.2193C48.6082 75.881 49.5831 76.5924 50.3923 77.3342L51.7438 75.8599C50.8151 75.0086 49.7194 74.2131 48.4621 73.4872L47.4621 75.2193ZM17.0271 75.2193C21.1796 72.8219 26.685 71.5945 32.2446 71.5945C37.8042 71.5945 43.3097 72.8219 47.4621 75.2193L48.4621 73.4872C43.9341 70.873 38.0623 69.5945 32.2446 69.5945C26.427 69.5945 20.5552 70.873 16.0271 73.4872L17.0271 75.2193ZM14.097 77.3342C14.9062 76.5924 15.8811 75.881 17.0271 75.2193L16.0271 73.4872C14.7699 74.2131 13.6742 75.0086 12.7455 75.8599L14.097 77.3342ZM10.0724 77.5971H13.4212V75.5971H10.0724V77.5971ZM11.0724 82.5171L11.0724 76.5971L9.07242 76.5971L9.07242 82.5171L11.0724 82.5171ZM17.0271 91.6363C12.4845 89.0135 10.6931 85.6751 11.065 82.6386L9.07984 82.3955C8.57458 86.5207 11.0864 90.5158 16.0271 93.3683L17.0271 91.6363Z" fill="#0E2526" mask="url(#path-20-inside-4)"/>
<circle r="17.649" transform="matrix(0.866025 0.5 -0.866025 0.5 32.2447 76.5973)" fill="white" stroke="#0E2526"/>
<path fill-rule="evenodd" clip-rule="evenodd" d="M36.0074 1.77356L38.6911 3.39314V6.83498L37.0711 15.1209V24.3596L34.431 28.6243L33.8154 31.773V62.8796L34.2487 77.1464L30.5035 79.4244L27.9745 77.7062L28.0554 65.8966V34.1265L24.6746 31.497V17.9735L25.6763 17.097V7.58048L32.364 3.94768L36.0074 1.77356Z" fill="white"/>
<path d="M38.6911 3.39314H39.1911V3.11089L38.9494 2.96505L38.6911 3.39314ZM36.0074 1.77356L36.2657 1.34547L36.0088 1.19044L35.7512 1.34419L36.0074 1.77356ZM38.6911 6.83498L39.1818 6.93092L39.1911 6.8834V6.83498H38.6911ZM37.0711 15.1209L36.5804 15.025L36.5711 15.0725V15.1209H37.0711ZM37.0711 24.3596L37.4962 24.6228L37.5711 24.5018V24.3596H37.0711ZM34.431 28.6243L34.0059 28.3611L33.9578 28.4387L33.9403 28.5284L34.431 28.6243ZM33.8154 31.773L33.3247 31.677L33.3154 31.7246V31.773H33.8154ZM33.8154 62.8796H33.3154V62.8872L33.3157 62.8947L33.8154 62.8796ZM34.2487 77.1464L34.5085 77.5736L34.7573 77.4223L34.7484 77.1312L34.2487 77.1464ZM30.5035 79.4244L30.2225 79.838L30.4885 80.0187L30.7633 79.8516L30.5035 79.4244ZM27.9745 77.7062L27.4745 77.7028L27.4727 77.9698L27.6935 78.1198L27.9745 77.7062ZM28.0554 65.8966L28.5554 65.9V65.8966H28.0554ZM28.0554 34.1265H28.5554V33.882L28.3624 33.7319L28.0554 34.1265ZM24.6746 31.497H24.1746V31.7415L24.3676 31.8917L24.6746 31.497ZM24.6746 17.9735L24.3453 17.5972L24.1746 17.7466V17.9735H24.6746ZM25.6763 17.097L26.0056 17.4733L26.1763 17.3239V17.097H25.6763ZM25.6763 7.58048L25.4376 7.14112L25.1763 7.28308V7.58048H25.6763ZM32.364 3.94768L32.6026 4.38704L32.6115 4.38222L32.6202 4.37704L32.364 3.94768ZM38.9494 2.96505L36.2657 1.34547L35.749 2.20165L38.4327 3.82122L38.9494 2.96505ZM39.1911 6.83498V3.39314H38.1911V6.83498H39.1911ZM37.5618 15.2169L39.1818 6.93092L38.2004 6.73905L36.5804 15.025L37.5618 15.2169ZM37.5711 24.3596V15.1209H36.5711V24.3596H37.5711ZM34.8562 28.8875L37.4962 24.6228L36.6459 24.0964L34.0059 28.3611L34.8562 28.8875ZM34.3061 31.8689L34.9217 28.7202L33.9403 28.5284L33.3247 31.677L34.3061 31.8689ZM34.3154 62.8796V31.773H33.3154V62.8796H34.3154ZM34.7484 77.1312L34.3152 62.8644L33.3157 62.8947L33.7489 77.1616L34.7484 77.1312ZM30.7633 79.8516L34.5085 77.5736L33.9888 76.7192L30.2436 78.9972L30.7633 79.8516ZM27.6935 78.1198L30.2225 79.838L30.7845 79.0108L28.2555 77.2926L27.6935 78.1198ZM27.5554 65.8931L27.4745 77.7028L28.4745 77.7097L28.5554 65.9L27.5554 65.8931ZM27.5554 34.1265V65.8966H28.5554V34.1265H27.5554ZM24.3676 31.8917L27.7485 34.5212L28.3624 33.7319L24.9815 31.1023L24.3676 31.8917ZM24.1746 17.9735V31.497H25.1746V17.9735H24.1746ZM25.3471 16.7207L24.3453 17.5972L25.0038 18.3498L26.0056 17.4733L25.3471 16.7207ZM25.1763 7.58048V17.097H26.1763V7.58048H25.1763ZM32.1253 3.50832L25.4376 7.14112L25.915 8.01984L32.6026 4.38704L32.1253 3.50832ZM35.7512 1.34419L32.1078 3.51831L32.6202 4.37704L36.2636 2.20292L35.7512 1.34419Z" fill="#0E2526"/>
<path d="M25.6572 7.62213L28.6096 9.41345" stroke="#0E2526"/>
<path d="M38.715 3.90906L28.5724 9.4186V18.9351L27.5707 19.8116V33.3351L30.9515 35.9647V79.1646L36.7115 75.7838V31.4568L39.9672 26.1977V12.7995H38.715V3.90906Z" fill="white" stroke="#0E2526"/>
</svg>
