<svg width="112" height="136" viewBox="0 0 112 136" fill="none" xmlns="http://www.w3.org/2000/svg">
<path fill-rule="evenodd" clip-rule="evenodd" d="M94.8959 118.457C104.464 114.737 110.55 104.36 110.55 88.8282C110.55 60.9982 91.0119 27.1571 66.9104 13.2421C53.8359 5.69351 42.1043 5.55945 34.1062 11.4597L13.7231 23.1891L23.285 39.7498C23.8745 66.8856 42.5789 99.281 65.7849 113.357L74.8492 129.056L94.8959 118.457Z" fill="white"/>
<path d="M94.8959 118.457L94.7148 117.991L94.6878 118.001L94.6622 118.015L94.8959 118.457ZM66.9104 13.2421L66.6604 13.6751L66.9104 13.2421ZM34.1062 11.4597L34.3555 11.8931L34.3801 11.8789L34.403 11.8621L34.1062 11.4597ZM13.7231 23.1891L13.4738 22.7557L13.0398 23.0055L13.2901 23.4391L13.7231 23.1891ZM23.285 39.7498L23.7849 39.7389L23.7821 39.6108L23.7181 39.4998L23.285 39.7498ZM65.7849 113.357L66.2179 113.107L66.1538 112.996L66.0442 112.93L65.7849 113.357ZM74.8492 129.056L74.4162 129.306L74.6571 129.723L75.0829 129.498L74.8492 129.056ZM110.05 88.8282C110.05 104.243 104.02 114.374 94.7148 117.991L95.0771 118.923C104.909 115.101 111.05 104.478 111.05 88.8282H110.05ZM66.6604 13.6751C78.6172 20.5784 89.4703 32.4445 97.3353 46.067C105.2 59.6895 110.05 75.0216 110.05 88.8282H111.05C111.05 74.8048 106.131 59.3013 98.2013 45.567C90.2718 31.8327 79.305 19.8208 67.1604 12.8091L66.6604 13.6751ZM34.403 11.8621C42.1825 6.12304 53.6847 6.18356 66.6604 13.6751L67.1604 12.8091C53.9871 5.20345 42.026 4.99586 33.8093 11.0574L34.403 11.8621ZM13.9725 23.6224L34.3555 11.8931L33.8568 11.0264L13.4738 22.7557L13.9725 23.6224ZM23.7181 39.4998L14.1562 22.9391L13.2901 23.4391L22.852 39.9998L23.7181 39.4998ZM66.0442 112.93C54.5291 105.945 44.1057 94.3965 36.4868 81.2009C28.8678 68.0052 24.0774 53.2041 23.7849 39.7389L22.7852 39.7606C23.0821 53.4313 27.9386 68.3958 35.6208 81.7009C43.3029 95.006 53.8347 106.693 65.5256 113.785L66.0442 112.93ZM75.2822 128.806L66.2179 113.107L65.3519 113.607L74.4162 129.306L75.2822 128.806ZM94.6622 118.015L74.6155 128.614L75.0829 129.498L95.1296 118.899L94.6622 118.015Z" fill="#0E2526"/>
<mask id="mask0" mask-type="alpha" maskUnits="userSpaceOnUse" x="13" y="6" width="99" height="124">
<path fill-rule="evenodd" clip-rule="evenodd" d="M94.8959 118.457C104.464 114.737 110.55 104.36 110.55 88.8282C110.55 60.9982 91.0119 27.1571 66.9104 13.2421C53.8359 5.69351 42.1043 5.55945 34.1062 11.4597L13.7231 23.1891L23.285 39.7498C23.8745 66.8856 42.5789 99.281 65.7849 113.357L74.8492 129.056L94.8959 118.457Z" fill="white"/>
<path d="M94.8959 118.457L94.7148 117.991L94.6878 118.001L94.6622 118.015L94.8959 118.457ZM66.9104 13.2421L66.6604 13.6751L66.9104 13.2421ZM34.1062 11.4597L34.3555 11.8931L34.3801 11.8789L34.403 11.8621L34.1062 11.4597ZM13.7231 23.1891L13.4738 22.7557L13.0398 23.0055L13.2901 23.4391L13.7231 23.1891ZM23.285 39.7498L23.7849 39.7389L23.7821 39.6108L23.7181 39.4998L23.285 39.7498ZM65.7849 113.357L66.2179 113.107L66.1538 112.996L66.0442 112.93L65.7849 113.357ZM74.8492 129.056L74.4162 129.306L74.6571 129.723L75.0829 129.498L74.8492 129.056ZM110.05 88.8282C110.05 104.243 104.02 114.374 94.7148 117.991L95.0771 118.923C104.909 115.101 111.05 104.478 111.05 88.8282H110.05ZM66.6604 13.6751C78.6172 20.5784 89.4703 32.4445 97.3353 46.067C105.2 59.6895 110.05 75.0216 110.05 88.8282H111.05C111.05 74.8048 106.131 59.3013 98.2013 45.567C90.2718 31.8327 79.305 19.8208 67.1604 12.8091L66.6604 13.6751ZM34.403 11.8621C42.1825 6.12304 53.6847 6.18356 66.6604 13.6751L67.1604 12.8091C53.9871 5.20345 42.026 4.99586 33.8093 11.0574L34.403 11.8621ZM13.9725 23.6224L34.3555 11.8931L33.8568 11.0264L13.4738 22.7557L13.9725 23.6224ZM23.7181 39.4998L14.1562 22.9391L13.2901 23.4391L22.852 39.9998L23.7181 39.4998ZM66.0442 112.93C54.5291 105.945 44.1057 94.3965 36.4868 81.2009C28.8678 68.0052 24.0774 53.2041 23.7849 39.7389L22.7852 39.7606C23.0821 53.4313 27.9386 68.3958 35.6208 81.7009C43.3029 95.006 53.8347 106.693 65.5256 113.785L66.0442 112.93ZM75.2822 128.806L66.2179 113.107L65.3519 113.607L74.4162 129.306L75.2822 128.806ZM94.6622 118.015L74.6155 128.614L75.0829 129.498L95.1296 118.899L94.6622 118.015Z" fill="#0E2526"/>
</mask>
<g mask="url(#mask0)">
<path d="M67.266 130.598L115.296 105.393" stroke="#0E2526"/>
<path d="M67.1256 128.077L115.156 102.872" stroke="#0E2526"/>
<path d="M67.1256 124.577L115.156 99.3713" stroke="#0E2526"/>
<path d="M67.4059 120.236L115.436 95.0304" stroke="#0E2526"/>
<path d="M68.9463 114.775L116.976 89.5693" stroke="#0E2526"/>
<path d="M68.9463 109.477L116.976 84.2722" stroke="#0E2526"/>
<path d="M69.0862 104.576L117.116 79.3711" stroke="#0E2526"/>
<path d="M68.8064 98.135L116.836 72.9297" stroke="#0E2526"/>
<path d="M67.8261 91.3306L115.856 66.1253" stroke="#0E2526"/>
<path d="M66.4256 84.4692L114.456 59.2639" stroke="#0E2526"/>
<path d="M64.8853 77.0476L112.915 51.8423" stroke="#0E2526"/>
<path d="M62.5198 70.1855L110.55 44.9802" stroke="#0E2526"/>
<path d="M59.5849 62.4253L107.615 37.22" stroke="#0E2526"/>
<path d="M56.0839 55.5639L104.114 30.3586" stroke="#0E2526"/>
<path d="M52.1631 49.5197L100.193 24.3145" stroke="#0E2526"/>
<path d="M47.9625 43.7437L95.9926 18.5385" stroke="#0E2526"/>
<path d="M42.3611 38.7359L90.3912 13.5306" stroke="#0E2526"/>
<path d="M35.5698 33.5201L83.5999 8.31476" stroke="#0E2526"/>
<path d="M30.8247 29.4591L78.8548 4.25385" stroke="#0E2526"/>
<path d="M26.0636 26.6586L74.0937 1.45331" stroke="#0E2526"/>
<path d="M21.4429 24.1323L69.473 -1.073" stroke="#0E2526"/>
<path d="M17.8019 23.0119L65.832 -2.19342" stroke="#0E2526"/>
<path d="M14.1063 22.0318L62.1364 -3.17352" stroke="#0E2526"/>
</g>
<path d="M20.3077 19.9384C28.2981 12.6241 40.9195 12.2129 55.1219 20.4127C79.2789 34.3597 98.8621 67.9376 98.8621 95.411C98.8621 110.855 92.6739 121.082 82.9636 124.6" stroke="#0E2526"/>
<path d="M86.8994 101.491C86.8994 115.301 82.0557 124.872 74.3677 129.31C66.6797 133.749 55.9694 133.159 44.0098 126.254C32.0529 119.35 21.1999 107.484 13.3349 93.8617C5.46992 80.2392 0.620117 64.9071 0.620117 51.1005C0.620117 37.2907 5.46388 27.7201 13.1519 23.2815C20.8399 18.8428 31.5501 19.4333 43.5098 26.3382C55.4666 33.2415 66.3197 45.1076 74.1847 58.7301C82.0496 72.3526 86.8994 87.6847 86.8994 101.491Z" fill="white" stroke="#0E2526"/>
<path d="M80.3299 97.8221C80.3299 109.631 76.1884 117.796 69.6357 121.58C63.0831 125.363 53.9413 124.867 43.7141 118.962C33.4898 113.059 24.2052 102.91 17.4756 91.2535C10.746 79.5975 6.59839 66.482 6.59839 54.6759C6.59839 42.8665 10.7399 34.7017 17.2926 30.9185C23.8452 27.1353 32.987 27.6311 43.2142 33.5358C53.4385 39.4388 62.7231 49.5885 69.4527 61.2445C76.1823 72.9005 80.3299 86.0161 80.3299 97.8221Z" fill="white" stroke="#0E2526"/>
<path d="M77.9231 96.5129C77.9231 107.577 74.0431 115.218 67.9135 118.757C61.7838 122.296 53.2263 121.836 43.6446 116.304C34.0656 110.773 25.3654 101.263 19.0587 90.3396C12.7521 79.4161 8.86609 67.1264 8.86609 56.0655C8.86609 45.0015 12.746 37.3603 18.8757 33.8213C25.0054 30.2823 33.5628 30.7428 43.1446 36.2748C52.7235 41.8052 61.4238 51.3155 67.7304 62.2389C74.0371 73.1624 77.9231 85.4521 77.9231 96.5129Z" fill="white" stroke="#0E2526"/>
<mask id="mask1" mask-type="alpha" maskUnits="userSpaceOnUse" x="9" y="31" width="69" height="90">
<circle r="39.0749" transform="matrix(0.866025 0.5 -2.20305e-08 1 43.3149 76.1508)" fill="#D1D1D1" stroke="#0E2526"/>
</mask>
<g mask="url(#mask1)">
<path d="M51.0399 65.9322C51.1486 64.5191 55.0711 50.0342 56.611 43.9196L48.73 34.8156C47.1447 42.1984 43.8654 57.4533 43.4306 59.41C42.8871 61.8558 38.8107 61.8558 37.0442 61.7199C35.6311 61.6112 19.2439 43.7384 11.2269 34.8156L8.50928 43.9196C15.5298 51.6195 29.9784 67.4813 31.609 69.3293C33.6472 71.6392 33.7831 74.0851 33.1037 76.1233C32.5602 77.7539 19.3797 84.8649 12.8575 88.2167L16.6621 98.136C20.195 95.3278 27.5869 90.2821 31.609 88.2167C36.6366 85.6349 40.148 84.6127 42.0718 87.1296C43.4306 88.9073 49.5453 112.268 52.8064 124.361H63.4051C60.0987 114.532 53.4858 94.2226 53.4858 91.6137C53.4858 87.1296 57.9948 86.3641 59.7363 87.1296C61.2395 87.7904 76.2232 93.6519 83.5154 96.913L85.0101 87.1296C76.5855 83.8232 59.3364 76.9243 56.184 75.4025C52.2434 73.5001 50.8096 68.9271 51.0399 65.9322Z" fill="white" stroke="#0E2526"/>
</g>
<circle r="5.68892" transform="matrix(0.866025 0.5 -2.20305e-08 1 43.3948 76.249)" fill="white" stroke="#0E2526"/>
</svg>
